<svg width="49" height="48" viewBox="0 0 49 48" fill="none" xmlns="http://www.w3.org/2000/svg">
<path d="M24.5 4C13.472 4 4.5 12.972 4.5 24C4.5 35.028 13.472 44 24.5 44C35.528 44 44.5 35.028 44.5 24C44.5 12.972 35.528 4 24.5 4Z" fill="#257AA0"/>
<path d="M31.1199 26.1151L25.1199 32.1151C24.9543 32.2734 24.734 32.3617 24.5049 32.3617C24.2758 32.3617 24.0555 32.2734 23.8899 32.1151L17.8899 26.1151C17.8069 26.0367 17.7411 25.9421 17.6963 25.8372C17.6516 25.7322 17.629 25.6192 17.6299 25.5051C17.6288 25.3895 17.6513 25.2748 17.696 25.1682C17.7407 25.0616 17.8067 24.9653 17.8899 24.8851C18.0543 24.7244 18.2751 24.6345 18.5049 24.6345C18.7348 24.6345 18.9555 24.7244 19.1199 24.8851L23.1199 28.8851L23.2099 28.9451C23.2526 28.9553 23.2971 28.9553 23.3399 28.9451C23.3826 28.9553 23.4272 28.9553 23.4699 28.9451C23.5072 28.9326 23.5414 28.9121 23.5699 28.8851C23.599 28.8524 23.6226 28.8152 23.6399 28.775C23.6455 28.7386 23.6455 28.7015 23.6399 28.665V16.5651C23.6399 16.3343 23.7315 16.113 23.8947 15.9498C24.0578 15.7867 24.2792 15.6951 24.5099 15.6951C24.7407 15.6951 24.9619 15.7867 25.1251 15.9498C25.2883 16.113 25.3799 16.3343 25.3799 16.5651V28.665C25.3743 28.7015 25.3743 28.7386 25.3799 28.775C25.3972 28.8152 25.4208 28.8524 25.4499 28.8851C25.4784 28.9121 25.5126 28.9326 25.5499 28.9451C25.5926 28.9553 25.6372 28.9553 25.6799 28.9451C25.7226 28.9553 25.7672 28.9553 25.8099 28.9451L25.8999 28.8851L29.8399 24.8851C30.0043 24.7244 30.225 24.6345 30.4549 24.6345C30.6847 24.6345 30.9055 24.7244 31.0699 24.8851C31.2307 25.0514 31.3203 25.2738 31.3199 25.5051C31.3345 25.7266 31.2628 25.9452 31.1199 26.1151Z" fill="white"/>
</svg>
