<svg width="15" height="18" viewBox="0 0 15 18" fill="none" xmlns="http://www.w3.org/2000/svg">
<path d="M0.650963 11.3487L0.651144 11.3489L6.65114 17.3489C6.88545 17.5832 7.19207 17.7 7.50001 17.7C7.80796 17.7 8.11458 17.5832 8.34888 17.3489L14.3487 11.349L0.650963 11.3487ZM0.650963 11.3487C0.182361 10.8809 0.182361 10.1201 0.650963 9.65231L0.651144 9.65213M0.650963 11.3487L0.651144 9.65213M0.651144 9.65213C1.11999 9.18329 1.87904 9.18329 2.34788 9.65213L5.78688 13.0911L6.29901 13.6033M0.651144 9.65213L6.29901 13.6033M6.29901 13.6033V12.879M6.29901 13.6033V12.879M6.29901 12.879V1.5C6.29901 0.836816 6.83657 0.3 7.49901 0.3C8.16146 0.3 8.69901 0.836816 8.69901 1.5V12.879V13.6033M6.29901 12.879L8.69901 13.6033M8.69901 13.6033L9.21115 13.0911M8.69901 13.6033L9.21115 13.0911M9.21115 13.0911L12.6501 9.65213C13.119 9.18329 13.878 9.18329 14.3469 9.65213L14.3472 9.65249M9.21115 13.0911L14.3472 9.65249M14.3472 9.65249C14.8165 10.1202 14.8168 10.8799 14.3489 11.3489L14.3472 9.65249Z" fill="white" stroke="#257AA0" stroke-width="0.6"/>
</svg>
