<svg width="24" height="23" viewBox="0 0 24 23" fill="none" xmlns="http://www.w3.org/2000/svg">
<path d="M11.9862 0.904159C11.7546 0.907783 11.5338 1.00313 11.3723 1.1693C11.2109 1.33546 11.1219 1.55888 11.1249 1.79055V7.62389C11.1233 7.73983 11.1447 7.85495 11.1879 7.96255C11.2312 8.07015 11.2954 8.16808 11.3768 8.25065C11.4582 8.33322 11.5552 8.39879 11.6622 8.44355C11.7691 8.4883 11.8839 8.51135 11.9999 8.51135C12.1159 8.51135 12.2307 8.4883 12.3376 8.44355C12.4446 8.39879 12.5416 8.33322 12.623 8.25065C12.7045 8.16808 12.7687 8.07015 12.8119 7.96255C12.8551 7.85495 12.8765 7.73983 12.8749 7.62389V1.79055C12.8764 1.67353 12.8545 1.5574 12.8103 1.44902C12.7662 1.34064 12.7007 1.24221 12.6179 1.15957C12.535 1.07692 12.4364 1.01173 12.3279 0.967865C12.2194 0.923995 12.1032 0.902333 11.9862 0.904159ZM19.7895 2.62682C19.6177 2.62314 19.4486 2.67012 19.3033 2.7619C19.158 2.85368 19.043 2.9862 18.9726 3.14293L16.5071 8.43053C16.409 8.64099 16.3986 8.88178 16.4781 9.09993C16.5575 9.31808 16.7204 9.49572 16.9309 9.59377C17.1414 9.69183 17.3821 9.70226 17.6003 9.62278C17.8184 9.54329 17.9961 9.38041 18.0941 9.16995L20.5585 3.88235C20.6222 3.75039 20.6518 3.60453 20.6445 3.45816C20.6372 3.31179 20.5933 3.16959 20.5168 3.04462C20.4402 2.91965 20.3335 2.8159 20.2064 2.7429C20.0794 2.6699 19.936 2.62998 19.7895 2.62682ZM4.18415 2.62795C4.04003 2.63541 3.9 2.67839 3.77651 2.75307C3.65303 2.82775 3.54993 2.93181 3.4764 3.05598C3.40286 3.18015 3.36118 3.32058 3.35506 3.46476C3.34894 3.60894 3.37857 3.75239 3.44131 3.88235L5.90567 9.16995C6.00372 9.38041 6.18136 9.54329 6.39952 9.62278C6.61767 9.70226 6.85846 9.69183 7.06892 9.59377C7.27938 9.49572 7.44227 9.31808 7.52175 9.09993C7.60123 8.88178 7.5908 8.64099 7.49275 8.43053L5.02725 3.14293C4.95494 2.98216 4.83576 2.84698 4.68532 2.75509C4.53488 2.6632 4.3602 2.61889 4.18415 2.62795ZM11.9999 12C6.53738 12 3.40961 13.5707 1.75853 14.9497C0.579481 15.9344 0.0794484 17.512 0.450591 18.9943L0.711496 20.0357C1.1159 21.6525 2.69912 22.7084 4.34708 22.4613L6.84903 22.0865C7.92702 21.925 8.79798 21.1073 9.02627 20.0414V20.0402L9.5196 17.7388C9.54373 17.6264 9.61525 17.5512 9.70759 17.5235C10.1258 17.3982 10.8591 17.25 11.9999 17.25C13.1407 17.25 13.874 17.3982 14.2922 17.5235C14.3848 17.5512 14.4566 17.6269 14.4802 17.7377V17.7388L14.9735 20.0414C15.2022 21.1068 16.0724 21.9249 17.1508 22.0865L19.6527 22.4613C21.3007 22.7084 22.8846 21.6531 23.2883 20.0357L23.5492 18.9943V18.9932C23.9198 17.5112 23.42 15.9341 22.2413 14.9497C20.5902 13.5707 17.4624 12 11.9999 12ZM11.9999 13.75C17.1323 13.75 19.7938 15.1837 21.1202 16.2919C21.781 16.8437 22.0627 17.7254 21.8516 18.5682V18.5694L21.5907 19.6118C21.4018 20.3686 20.6842 20.8464 19.9125 20.7307L17.4106 20.3558C17.0481 20.3015 16.7618 20.0335 16.6848 19.6745L16.1915 17.3731V17.3719C16.0386 16.6571 15.5103 16.0623 14.7947 15.8475C14.2002 15.6695 13.2928 15.5 11.9999 15.5C10.707 15.5 9.7996 15.6695 9.20515 15.8475C8.48899 16.0625 7.96154 16.6583 7.80834 17.3719L7.31501 19.6745C7.23847 20.0326 6.95177 20.3015 6.58926 20.3558L4.08731 20.7307C3.3156 20.8464 2.59851 20.3692 2.40909 19.6118L2.14818 18.5694V18.5682C1.93716 17.7254 2.21885 16.8437 2.87963 16.2919C4.20605 15.1837 6.86747 13.75 11.9999 13.75Z" fill="#5D717A"/>
</svg>
