<svg width="28" height="28" viewBox="0 0 28 28" fill="none" xmlns="http://www.w3.org/2000/svg">
<path d="M2 14C2 7.37258 7.37258 2 14 2V2C20.6274 2 26 7.37258 26 14V14C26 20.6274 20.6274 26 14 26V26C7.37258 26 2 20.6274 2 14V14Z" fill="#252525"/>
<mask id="path-2-outside-1" maskUnits="userSpaceOnUse" x="0" y="0" width="28" height="28" fill="black">
<rect fill="white" width="28" height="28"/>
<path fill-rule="evenodd" clip-rule="evenodd" d="M14 2C7.37258 2 2 7.37258 2 14C2 20.6274 7.37258 26 14 26C20.6274 26 26 20.6274 26 14C26 7.37258 20.6274 2 14 2ZM17.7653 16.6344L15.1309 14C15.1309 14 17.6429 11.4888 17.7653 11.3656C18.0781 11.0536 18.0781 10.5472 17.7653 10.2344C17.4533 9.92161 16.9469 9.92161 16.6341 10.2344L13.9997 12.8688C13.9997 12.8688 11.4885 10.3568 11.3653 10.2344C11.0533 9.92161 10.5469 9.92161 10.2341 10.2344C9.92131 10.5464 9.92131 11.0528 10.2341 11.3656L12.8685 14C12.8685 14 10.3565 16.5112 10.2341 16.6344C9.92131 16.9464 9.92131 17.4528 10.2341 17.7656C10.5461 18.0784 11.0525 18.0784 11.3653 17.7656L13.9997 15.1312C13.9997 15.1312 16.5109 17.6432 16.6341 17.7656C16.9461 18.0784 17.4525 18.0784 17.7653 17.7656C18.0781 17.4536 18.0781 16.9472 17.7653 16.6344Z"/>
</mask>
<path d="M15.1309 14L13.9997 12.8685L12.868 13.9998L13.9995 15.1314L15.1309 14ZM17.7653 16.6344L18.8967 15.503L18.8967 15.503L17.7653 16.6344ZM17.7653 11.3656L16.6354 10.2328L16.6303 10.2379L17.7653 11.3656ZM17.7653 10.2344L16.6325 11.3643L16.6339 11.3658L17.7653 10.2344ZM16.6341 10.2344L15.5027 9.10304L15.5027 9.10304L16.6341 10.2344ZM13.9997 12.8688L12.8682 14L13.9995 15.1317L15.1311 14.0002L13.9997 12.8688ZM11.3653 10.2344L10.2325 11.3643L10.2376 11.3695L11.3653 10.2344ZM10.2341 10.2344L11.364 11.3672L11.3655 11.3658L10.2341 10.2344ZM10.2341 11.3656L11.3655 10.2342L11.3655 10.2342L10.2341 11.3656ZM12.8685 14L13.9997 15.1316L15.1314 14.0002L13.9999 12.8686L12.8685 14ZM10.2341 16.6344L11.364 17.7672L11.3692 17.7621L10.2341 16.6344ZM10.2341 17.7656L11.3669 16.6357L11.3655 16.6342L10.2341 17.7656ZM11.3653 17.7656L12.4967 18.897L12.4967 18.897L11.3653 17.7656ZM13.9997 15.1312L15.1313 14L13.9999 12.8683L12.8683 13.9998L13.9997 15.1312ZM16.6341 17.7656L17.7669 16.6357L17.7618 16.6306L16.6341 17.7656ZM17.7653 17.7656L16.6354 16.6328L16.6339 16.6342L17.7653 17.7656ZM3.6 14C3.6 8.25624 8.25624 3.6 14 3.6V0.4C6.48893 0.4 0.4 6.48893 0.4 14H3.6ZM14 24.4C8.25624 24.4 3.6 19.7438 3.6 14H0.4C0.4 21.5111 6.48893 27.6 14 27.6V24.4ZM24.4 14C24.4 19.7438 19.7438 24.4 14 24.4V27.6C21.5111 27.6 27.6 21.5111 27.6 14H24.4ZM14 3.6C19.7438 3.6 24.4 8.25624 24.4 14H27.6C27.6 6.48893 21.5111 0.4 14 0.4V3.6ZM13.9995 15.1314L16.6339 17.7658L18.8967 15.503L16.2623 12.8686L13.9995 15.1314ZM16.6303 10.2379C16.5716 10.297 15.9163 10.9523 15.2709 11.5976C14.9493 11.9191 14.6315 12.2369 14.3941 12.4742C14.2754 12.5929 14.1768 12.6914 14.1079 12.7603C14.0734 12.7948 14.0464 12.8218 14.028 12.8402C14.0187 12.8494 14.0117 12.8565 14.0069 12.8613C14.0046 12.8636 14.0027 12.8654 14.0015 12.8666C14.0009 12.8672 14.0005 12.8677 14.0002 12.868C14 12.8682 13.9999 12.8683 13.9998 12.8683C13.9998 12.8684 13.9998 12.8684 13.9998 12.8684C13.9997 12.8684 13.9997 12.8685 15.1309 14C16.2621 15.1316 16.2621 15.1316 16.2621 15.1315C16.2622 15.1315 16.2622 15.1315 16.2622 15.1314C16.2623 15.1314 16.2624 15.1313 16.2626 15.1311C16.2629 15.1308 16.2633 15.1303 16.2639 15.1297C16.2651 15.1285 16.2669 15.1267 16.2693 15.1244C16.2741 15.1196 16.2811 15.1125 16.2904 15.1033C16.3088 15.0849 16.3358 15.0579 16.3703 15.0234C16.4392 14.9545 16.5378 14.8559 16.6565 14.7372C16.894 14.4999 17.2118 14.1821 17.5335 13.8605C18.1747 13.2193 18.8367 12.5574 18.9004 12.4933L16.6303 10.2379ZM16.6339 11.3658C16.3227 11.0545 16.3206 10.5468 16.6354 10.2328L18.8952 12.4984C19.8356 11.5605 19.8335 10.0399 18.8967 9.10304L16.6339 11.3658ZM17.7655 11.3658C17.4542 11.677 16.9465 11.6791 16.6325 11.3643L18.8981 9.10449C17.9602 8.16412 16.4396 8.1662 15.5027 9.10304L17.7655 11.3658ZM15.1311 14.0002L17.7655 11.3658L15.5027 9.10304L12.8683 11.7374L15.1311 14.0002ZM10.2376 11.3695C10.2967 11.4282 10.952 12.0834 11.5973 12.7288C11.9188 13.0504 12.2366 13.3682 12.4739 13.6056C12.5926 13.7243 12.6911 13.8229 12.76 13.8918C12.7945 13.9263 12.8215 13.9533 12.8399 13.9718C12.8491 13.981 12.8562 13.988 12.861 13.9928C12.8633 13.9952 12.8651 13.997 12.8663 13.9982C12.8669 13.9988 12.8674 13.9992 12.8677 13.9995C12.8679 13.9997 12.868 13.9998 12.868 13.9999C12.8681 13.9999 12.8681 14 12.8681 14C12.8682 14 12.8682 14 13.9997 12.8688C15.1313 11.7376 15.1313 11.7376 15.1312 11.7376C15.1312 11.7376 15.1312 11.7375 15.1311 11.7375C15.1311 11.7374 15.131 11.7373 15.1308 11.7372C15.1305 11.7369 15.13 11.7364 15.1294 11.7358C15.1282 11.7346 15.1264 11.7328 15.1241 11.7304C15.1193 11.7256 15.1122 11.7186 15.103 11.7094C15.0846 11.6909 15.0576 11.6639 15.0231 11.6294C14.9542 11.5605 14.8556 11.4619 14.7369 11.3432C14.4996 11.1058 14.1818 10.7879 13.8602 10.4662C13.219 9.82499 12.5571 9.16306 12.493 9.09936L10.2376 11.3695ZM11.3655 11.3658C11.0542 11.677 10.5465 11.6791 10.2325 11.3643L12.4981 9.10449C11.5602 8.16412 10.0396 8.1662 9.10274 9.10304L11.3655 11.3658ZM11.3655 10.2342C11.6767 10.5455 11.6788 11.0533 11.364 11.3672L9.10419 9.10159C8.16382 10.0396 8.1659 11.5601 9.10274 12.497L11.3655 10.2342ZM13.9999 12.8686L11.3655 10.2342L9.10274 12.497L11.7371 15.1314L13.9999 12.8686ZM11.3692 17.7621C11.4279 17.703 12.0831 17.0477 12.7285 16.4025C13.0501 16.0809 13.3679 15.7632 13.6053 15.5258C13.724 15.4072 13.8226 15.3086 13.8915 15.2397C13.926 15.2052 13.953 15.1782 13.9715 15.1598C13.9807 15.1506 13.9877 15.1435 13.9925 15.1388C13.9949 15.1364 13.9967 15.1346 13.9979 15.1334C13.9985 15.1328 13.9989 15.1323 13.9992 15.132C13.9994 15.1319 13.9995 15.1318 13.9996 15.1317C13.9996 15.1316 13.9997 15.1316 13.9997 15.1316C13.9997 15.1316 13.9997 15.1316 12.8685 14C11.7373 12.8685 11.7373 12.8685 11.7373 12.8685C11.7373 12.8685 11.7372 12.8685 11.7372 12.8686C11.7371 12.8687 11.737 12.8688 11.7369 12.8689C11.7366 12.8692 11.7361 12.8697 11.7355 12.8703C11.7343 12.8715 11.7325 12.8733 11.7301 12.8757C11.7254 12.8804 11.7183 12.8875 11.7091 12.8967C11.6906 12.9151 11.6636 12.9422 11.6291 12.9766C11.5602 13.0455 11.4616 13.1441 11.3429 13.2628C11.1055 13.5002 10.7876 13.8179 10.4659 14.1396C9.8247 14.7807 9.16276 15.4426 9.09907 15.5067L11.3692 17.7621ZM11.3655 16.6342C11.6767 16.9455 11.6788 17.4533 11.364 17.7672L9.10419 15.5016C8.16382 16.4396 8.1659 17.9601 9.10274 18.897L11.3655 16.6342ZM10.2339 16.6342C10.5452 16.323 11.053 16.3209 11.3669 16.6357L9.10129 18.8955C10.0393 19.8359 11.5598 19.8338 12.4967 18.897L10.2339 16.6342ZM12.8683 13.9998L10.2339 16.6342L12.4967 18.897L15.1311 16.2626L12.8683 13.9998ZM17.7618 16.6306C17.7027 16.5719 17.0474 15.9166 16.4022 15.2712C16.0806 14.9496 15.7629 14.6318 15.5255 14.3944C15.4069 14.2757 15.3083 14.1771 15.2394 14.1082C15.2049 14.0737 15.1779 14.0467 15.1595 14.0283C15.1503 14.019 15.1432 14.012 15.1385 14.0072C15.1361 14.0048 15.1343 14.003 15.1331 14.0018C15.1325 14.0012 15.132 14.0008 15.1317 14.0005C15.1316 14.0003 15.1315 14.0002 15.1314 14.0001C15.1313 14.0001 15.1313 14.0001 15.1313 14C15.1313 14 15.1313 14 13.9997 15.1312C12.8682 16.2624 12.8682 16.2624 12.8682 16.2624C12.8682 16.2624 12.8682 16.2625 12.8683 16.2625C12.8684 16.2626 12.8685 16.2627 12.8686 16.2629C12.8689 16.2632 12.8694 16.2636 12.87 16.2642C12.8712 16.2654 12.873 16.2672 12.8754 16.2696C12.8801 16.2744 12.8872 16.2814 12.8964 16.2906C12.9148 16.3091 12.9419 16.3361 12.9763 16.3706C13.0452 16.4395 13.1438 16.5381 13.2625 16.6568C13.4999 16.8943 13.8176 17.2121 14.1393 17.5338C14.7804 18.175 15.4423 18.837 15.5064 18.9007L17.7618 16.6306ZM16.6339 16.6342C16.9452 16.323 17.453 16.3209 17.7669 16.6357L15.5013 18.8955C16.4393 19.8359 17.9598 19.8338 18.8967 18.897L16.6339 16.6342ZM16.6339 17.7658C16.3227 17.4545 16.3206 16.9468 16.6354 16.6328L18.8952 18.8984C19.8356 17.9605 19.8335 16.4399 18.8967 15.503L16.6339 17.7658Z" fill="#257AA0" mask="url(#path-2-outside-1)"/>
</svg>
