<svg width="32" height="32" viewBox="0 0 32 32" fill="none" xmlns="http://www.w3.org/2000/svg">
<path fill-rule="evenodd" clip-rule="evenodd" d="M16 0C7.16344 0 0 7.16344 0 16C0 24.8366 7.16344 32 16 32C24.8366 32 32 24.8366 32 16C32 7.16344 24.8366 0 16 0ZM21.0204 19.5125L17.5079 16C17.5079 16 20.8572 12.6517 21.0204 12.4875C21.4375 12.0715 21.4375 11.3963 21.0204 10.9792C20.6044 10.5621 19.9292 10.5621 19.5121 10.9792L15.9996 14.4917C15.9996 14.4917 12.6513 11.1424 12.4871 10.9792C12.0711 10.5621 11.3959 10.5621 10.9788 10.9792C10.5617 11.3952 10.5617 12.0704 10.9788 12.4875L14.4914 16C14.4914 16 11.142 19.3483 10.9788 19.5125C10.5617 19.9285 10.5617 20.6038 10.9788 21.0208C11.3948 21.4379 12.07 21.4379 12.4871 21.0208L15.9996 17.5083C15.9996 17.5083 19.3479 20.8576 19.5121 21.0208C19.9282 21.4379 20.6034 21.4379 21.0204 21.0208C21.4375 20.6048 21.4375 19.9296 21.0204 19.5125Z" fill="white"/>
</svg>
