<svg width="28" height="28" viewBox="0 0 28 28" fill="none" xmlns="http://www.w3.org/2000/svg">
<mask id="path-2-outside-1" maskUnits="userSpaceOnUse" x="0" y="0" width="28" height="28" fill="black">
<rect fill="white" width="28" height="28"/>
<path fill-rule="evenodd" clip-rule="evenodd" d="M14 2C7.37258 2 2 7.37258 2 14C2 20.6274 7.37258 26 14 26C20.6274 26 26 20.6274 26 14C26 7.37258 20.6274 2 14 2ZM17.7653 16.6345L15.1309 14.0001C15.1309 14.0001 17.6429 11.4889 17.7653 11.3657C18.0781 11.0537 18.0781 10.5473 17.7653 10.2345C17.4533 9.92168 16.9469 9.92168 16.6341 10.2345L13.9997 12.8689C13.9997 12.8689 11.4885 10.3569 11.3653 10.2345C11.0533 9.92168 10.5469 9.92168 10.2341 10.2345C9.92131 10.5465 9.92131 11.0529 10.2341 11.3657L12.8685 14.0001C12.8685 14.0001 10.3565 16.5113 10.2341 16.6345C9.92131 16.9465 9.92131 17.4529 10.2341 17.7657C10.5461 18.0785 11.0525 18.0785 11.3653 17.7657L13.9997 15.1313C13.9997 15.1313 16.5109 17.6433 16.6341 17.7657C16.9461 18.0785 17.4525 18.0785 17.7653 17.7657C18.0781 17.4537 18.0781 16.9473 17.7653 16.6345Z"/>
</mask>
<path d="M15.1309 14.0001L13.9997 12.8685L12.868 13.9999L13.9995 15.1315L15.1309 14.0001ZM17.7653 16.6345L18.8967 15.5031L18.8967 15.5031L17.7653 16.6345ZM17.7653 11.3657L16.6354 10.2328L16.6303 10.238L17.7653 11.3657ZM17.7653 10.2345L16.6325 11.3644L16.6339 11.3658L17.7653 10.2345ZM16.6341 10.2345L15.5027 9.10311L15.5027 9.10311L16.6341 10.2345ZM13.9997 12.8689L12.8682 14.0001L13.9995 15.1318L15.1311 14.0002L13.9997 12.8689ZM11.3653 10.2345L10.2325 11.3644L10.2376 11.3695L11.3653 10.2345ZM10.2341 10.2345L11.364 11.3673L11.3655 11.3658L10.2341 10.2345ZM10.2341 11.3657L11.3655 10.2343L11.3655 10.2343L10.2341 11.3657ZM12.8685 14.0001L13.9997 15.1316L15.1314 14.0003L13.9999 12.8687L12.8685 14.0001ZM10.2341 16.6345L11.364 17.7673L11.3692 17.7622L10.2341 16.6345ZM10.2341 17.7657L11.3669 16.6358L11.3655 16.6343L10.2341 17.7657ZM11.3653 17.7657L12.4967 18.8971L12.4967 18.8971L11.3653 17.7657ZM13.9997 15.1313L15.1313 14.0001L13.9999 12.8684L12.8683 13.9999L13.9997 15.1313ZM16.6341 17.7657L17.7669 16.6357L17.7618 16.6306L16.6341 17.7657ZM17.7653 17.7657L16.6354 16.6329L16.6339 16.6343L17.7653 17.7657ZM3.6 14C3.6 8.25624 8.25624 3.6 14 3.6V0.4C6.48893 0.4 0.4 6.48893 0.4 14H3.6ZM14 24.4C8.25624 24.4 3.6 19.7438 3.6 14H0.4C0.4 21.5111 6.48893 27.6 14 27.6V24.4ZM24.4 14C24.4 19.7438 19.7438 24.4 14 24.4V27.6C21.5111 27.6 27.6 21.5111 27.6 14H24.4ZM14 3.6C19.7438 3.6 24.4 8.25624 24.4 14H27.6C27.6 6.48893 21.5111 0.4 14 0.4V3.6ZM13.9995 15.1315L16.6339 17.7659L18.8967 15.5031L16.2623 12.8687L13.9995 15.1315ZM16.6303 10.238C16.5716 10.2971 15.9163 10.9524 15.2709 11.5976C14.9493 11.9192 14.6315 12.2369 14.3941 12.4743C14.2754 12.5929 14.1768 12.6915 14.1079 12.7604C14.0734 12.7948 14.0464 12.8219 14.028 12.8403C14.0187 12.8495 14.0117 12.8566 14.0069 12.8613C14.0046 12.8637 14.0027 12.8655 14.0015 12.8667C14.0009 12.8673 14.0005 12.8678 14.0002 12.8681C14 12.8682 13.9999 12.8683 13.9998 12.8684C13.9998 12.8685 13.9998 12.8685 13.9998 12.8685C13.9997 12.8685 13.9997 12.8685 15.1309 14.0001C16.2621 15.1316 16.2621 15.1316 16.2621 15.1316C16.2622 15.1316 16.2622 15.1316 16.2622 15.1315C16.2623 15.1314 16.2624 15.1313 16.2626 15.1312C16.2629 15.1309 16.2633 15.1304 16.2639 15.1298C16.2651 15.1286 16.2669 15.1268 16.2693 15.1244C16.2741 15.1197 16.2811 15.1126 16.2904 15.1034C16.3088 15.085 16.3358 15.0579 16.3703 15.0235C16.4392 14.9546 16.5378 14.856 16.6565 14.7373C16.894 14.4999 17.2118 14.1822 17.5335 13.8605C18.1747 13.2194 18.8367 12.5575 18.9004 12.4934L16.6303 10.238ZM16.6339 11.3658C16.3227 11.0546 16.3206 10.5468 16.6354 10.2329L18.8952 12.4985C19.8356 11.5605 19.8335 10.0399 18.8967 9.10311L16.6339 11.3658ZM17.7655 11.3658C17.4542 11.6771 16.9465 11.6792 16.6325 11.3644L18.8981 9.10456C17.9602 8.16418 16.4396 8.16627 15.5027 9.10311L17.7655 11.3658ZM15.1311 14.0002L17.7655 11.3658L15.5027 9.10311L12.8683 11.7375L15.1311 14.0002ZM10.2376 11.3695C10.2967 11.4282 10.952 12.0835 11.5973 12.7289C11.9188 13.0505 12.2366 13.3683 12.4739 13.6057C12.5926 13.7244 12.6911 13.823 12.76 13.8919C12.7945 13.9264 12.8215 13.9534 12.8399 13.9718C12.8491 13.981 12.8562 13.9881 12.861 13.9929C12.8633 13.9952 12.8651 13.997 12.8663 13.9983C12.8669 13.9989 12.8674 13.9993 12.8677 13.9996C12.8679 13.9998 12.868 13.9999 12.868 14C12.8681 14 12.8681 14 12.8681 14C12.8682 14.0001 12.8682 14.0001 13.9997 12.8689C15.1313 11.7377 15.1313 11.7377 15.1312 11.7377C15.1312 11.7376 15.1312 11.7376 15.1311 11.7376C15.1311 11.7375 15.131 11.7374 15.1308 11.7372C15.1305 11.7369 15.13 11.7365 15.1294 11.7359C15.1282 11.7347 15.1264 11.7329 15.1241 11.7305C15.1193 11.7257 15.1122 11.7187 15.103 11.7094C15.0846 11.691 15.0576 11.664 15.0231 11.6295C14.9542 11.5606 14.8556 11.462 14.7369 11.3432C14.4996 11.1058 14.1818 10.788 13.8602 10.4663C13.219 9.82506 12.5571 9.16312 12.493 9.09943L10.2376 11.3695ZM11.3655 11.3658C11.0542 11.6771 10.5465 11.6792 10.2325 11.3644L12.4981 9.10456C11.5602 8.16418 10.0396 8.16627 9.10274 9.10311L11.3655 11.3658ZM11.3655 10.2343C11.6767 10.5455 11.6788 11.0533 11.364 11.3673L9.10419 9.10166C8.16382 10.0396 8.1659 11.5602 9.10274 12.497L11.3655 10.2343ZM13.9999 12.8687L11.3655 10.2343L9.10274 12.497L11.7371 15.1315L13.9999 12.8687ZM11.3692 17.7622C11.4279 17.7031 12.0831 17.0478 12.7285 16.4025C13.0501 16.081 13.3679 15.7632 13.6053 15.5259C13.724 15.4072 13.8226 15.3087 13.8915 15.2398C13.926 15.2053 13.953 15.1783 13.9715 15.1599C13.9807 15.1506 13.9877 15.1436 13.9925 15.1388C13.9949 15.1365 13.9967 15.1347 13.9979 15.1334C13.9985 15.1328 13.9989 15.1324 13.9992 15.1321C13.9994 15.1319 13.9995 15.1318 13.9996 15.1317C13.9996 15.1317 13.9997 15.1317 13.9997 15.1317C13.9997 15.1316 13.9997 15.1316 12.8685 14.0001C11.7373 12.8685 11.7373 12.8685 11.7373 12.8686C11.7373 12.8686 11.7372 12.8686 11.7372 12.8686C11.7371 12.8687 11.737 12.8688 11.7369 12.869C11.7366 12.8693 11.7361 12.8697 11.7355 12.8704C11.7343 12.8716 11.7325 12.8734 11.7301 12.8757C11.7254 12.8805 11.7183 12.8876 11.7091 12.8968C11.6906 12.9152 11.6636 12.9422 11.6291 12.9767C11.5602 13.0456 11.4616 13.1442 11.3429 13.2629C11.1055 13.5002 10.7876 13.818 10.4659 14.1396C9.8247 14.7808 9.16276 15.4427 9.09907 15.5068L11.3692 17.7622ZM11.3655 16.6343C11.6767 16.9455 11.6788 17.4533 11.364 17.7673L9.10419 15.5017C8.16382 16.4396 8.1659 17.9602 9.10274 18.8971L11.3655 16.6343ZM10.2339 16.6343C10.5452 16.3231 11.053 16.321 11.3669 16.6358L9.10129 18.8956C10.0393 19.836 11.5598 19.8339 12.4967 18.8971L10.2339 16.6343ZM12.8683 13.9999L10.2339 16.6343L12.4967 18.8971L15.1311 16.2626L12.8683 13.9999ZM17.7618 16.6306C17.7027 16.5719 17.0474 15.9167 16.4022 15.2713C16.0806 14.9497 15.7629 14.6319 15.5255 14.3945C15.4069 14.2758 15.3083 14.1772 15.2394 14.1083C15.2049 14.0738 15.1779 14.0467 15.1595 14.0283C15.1503 14.0191 15.1432 14.0121 15.1385 14.0073C15.1361 14.0049 15.1343 14.0031 15.1331 14.0019C15.1325 14.0013 15.132 14.0008 15.1317 14.0005C15.1316 14.0004 15.1315 14.0003 15.1314 14.0002C15.1313 14.0002 15.1313 14.0001 15.1313 14.0001C15.1313 14.0001 15.1313 14.0001 13.9997 15.1313C12.8682 16.2625 12.8682 16.2625 12.8682 16.2625C12.8682 16.2625 12.8682 16.2625 12.8683 16.2626C12.8684 16.2627 12.8685 16.2628 12.8686 16.2629C12.8689 16.2632 12.8694 16.2637 12.87 16.2643C12.8712 16.2655 12.873 16.2673 12.8754 16.2697C12.8801 16.2744 12.8872 16.2815 12.8964 16.2907C12.9148 16.3091 12.9419 16.3362 12.9763 16.3707C13.0452 16.4396 13.1438 16.5382 13.2625 16.6569C13.4999 16.8943 13.8176 17.2122 14.1393 17.5339C14.7804 18.1751 15.4423 18.837 15.5064 18.9007L17.7618 16.6306ZM16.6339 16.6343C16.9452 16.3231 17.453 16.321 17.7669 16.6358L15.5013 18.8956C16.4393 19.836 17.9598 19.8339 18.8967 18.8971L16.6339 16.6343ZM16.6339 17.7658C16.3227 17.4546 16.3206 16.9468 16.6354 16.6329L18.8952 18.8985C19.8356 17.9605 19.8335 16.4399 18.8967 15.5031L16.6339 17.7658Z" fill="#257AA0" mask="url(#path-2-outside-1)"/>
</svg>
