<svg width="26" height="26" viewBox="0 0 26 26" fill="none" xmlns="http://www.w3.org/2000/svg">
<path d="M12.9999 1.625C7.3256 1.625 2.70825 6.24235 2.70825 11.9167C2.70825 15.2714 4.31937 18.2617 6.8099 20.139C7.11185 20.3663 7.42655 20.5778 7.75252 20.7716C7.84429 20.829 7.94659 20.8674 8.05342 20.8847C8.16025 20.902 8.26945 20.8977 8.37462 20.8722C8.47978 20.8467 8.5788 20.8005 8.66585 20.7362C8.7529 20.6719 8.82623 20.5909 8.88155 20.4979C8.93686 20.4049 8.97304 20.3018 8.98796 20.1946C9.00288 20.0874 8.99624 19.9783 8.96843 19.8737C8.94062 19.7691 8.8922 19.6712 8.82602 19.5856C8.75983 19.4999 8.67721 19.4284 8.58301 19.3752C8.30773 19.2115 8.04231 19.0328 7.78743 18.8409C5.68896 17.2591 4.33325 14.7521 4.33325 11.9167C4.33325 7.12056 8.20382 3.25 12.9999 3.25C17.796 3.25 21.6666 7.12056 21.6666 11.9167C21.6666 14.771 20.2929 17.2933 18.1701 18.8737V18.8726C17.9103 19.066 17.6384 19.2461 17.3576 19.4101C17.2633 19.4628 17.1805 19.5338 17.1139 19.6189C17.0474 19.704 16.9985 19.8015 16.9701 19.9057C16.9417 20.0099 16.9344 20.1187 16.9485 20.2258C16.9627 20.3329 16.998 20.4361 17.0525 20.5294C17.1071 20.6226 17.1796 20.7041 17.266 20.769C17.3523 20.8339 17.4508 20.8809 17.5555 20.9073C17.6602 20.9337 17.7692 20.9389 17.876 20.9227C17.9828 20.9065 18.0853 20.8692 18.1775 20.8129C18.5109 20.6183 18.8323 20.4063 19.1402 20.1771C21.6595 18.3016 23.2916 15.2937 23.2916 11.9167C23.2916 6.24235 18.6742 1.625 12.9999 1.625ZM12.9999 4.875C9.12064 4.875 5.95825 8.03739 5.95825 11.9167C5.95825 13.8565 6.74683 15.6231 8.02018 16.8964C8.09505 16.9744 8.18472 17.0366 8.28395 17.0795C8.38318 17.1224 8.48997 17.1451 8.59807 17.1462C8.70617 17.1473 8.8134 17.1268 8.91348 17.0859C9.01356 17.0451 9.10448 16.9847 9.18092 16.9082C9.25736 16.8318 9.31778 16.7409 9.35864 16.6408C9.3995 16.5407 9.41998 16.4335 9.41888 16.3254C9.41778 16.2173 9.39512 16.1105 9.35223 16.0112C9.30934 15.912 9.24709 15.8223 9.16911 15.7475C8.18804 14.7664 7.58325 13.4175 7.58325 11.9167C7.58325 8.91569 9.99894 6.5 12.9999 6.5C16.0009 6.5 18.4166 8.91569 18.4166 11.9167C18.4166 13.4175 17.8118 14.7664 16.8307 15.7475C16.7527 15.8223 16.6905 15.912 16.6476 16.0112C16.6047 16.1105 16.5821 16.2173 16.581 16.3254C16.5799 16.4335 16.6003 16.5407 16.6412 16.6408C16.6821 16.7409 16.7425 16.8318 16.8189 16.9082C16.8954 16.9847 16.9863 17.0451 17.0864 17.0859C17.1864 17.1268 17.2937 17.1473 17.4018 17.1462C17.5099 17.1451 17.6167 17.1224 17.7159 17.0795C17.8151 17.0366 17.9048 16.9744 17.9797 16.8964C19.253 15.6231 20.0416 13.8565 20.0416 11.9167C20.0416 8.03739 16.8792 4.875 12.9999 4.875ZM12.9999 9.20833C12.2816 9.20833 11.5927 9.49368 11.0848 10.0016C10.5769 10.5095 10.2916 11.1984 10.2916 11.9167C10.2916 12.635 10.5769 13.3238 11.0848 13.8317C11.5927 14.3397 12.2816 14.625 12.9999 14.625C13.7182 14.625 14.4071 14.3397 14.915 13.8317C15.4229 13.3238 15.7083 12.635 15.7083 11.9167C15.7083 11.1984 15.4229 10.5095 14.915 10.0016C14.4071 9.49368 13.7182 9.20833 12.9999 9.20833ZM12.9999 15.7083C11.5065 15.7083 10.2916 16.9557 10.2916 18.4897C10.2916 18.6419 10.3037 18.7961 10.3286 18.9488C10.3319 18.9954 10.3395 19.0414 10.3508 19.0874L11.4067 23.3171C11.5583 24.0873 12.228 24.6458 12.9999 24.6458C13.7702 24.6458 14.4406 24.0875 14.5858 23.3562L15.649 19.0874C15.6604 19.0419 15.6669 18.997 15.6702 18.9509C15.6956 18.7976 15.7083 18.643 15.7083 18.4897C15.7083 16.9557 14.4933 15.7083 12.9999 15.7083Z" fill="black"/>
</svg>
