<svg width="36" height="36" viewBox="0 0 36 36" fill="none" xmlns="http://www.w3.org/2000/svg">
<path d="M18 3C9.729 3 3 9.729 3 18C3 26.271 9.729 33 18 33C26.271 33 33 26.271 33 18C33 9.729 26.271 3 18 3ZM18 9.75C20.0707 9.75 21.75 11.4293 21.75 13.5C21.75 15.5707 20.0707 17.25 18 17.25C15.9293 17.25 14.25 15.5707 14.25 13.5C14.25 11.4293 15.9293 9.75 18 9.75ZM24.75 22.1535C24.75 24.2978 22.0148 26.25 18 26.25C13.9852 26.25 11.25 24.2978 11.25 22.1535V21.6465C11.25 20.8755 11.8755 20.25 12.6465 20.25H23.3535C24.1245 20.25 24.75 20.8755 24.75 21.6465V22.1535Z" fill="#5D717A"/>
</svg>
