<svg width="26" height="26" viewBox="0 0 26 26" fill="none" xmlns="http://www.w3.org/2000/svg">
<path d="M10.8333 26C4.85999 26 0 21.14 0 15.1667C0 13.3925 0.4673 11.7342 1.2251 10.2557L0.0507812 6.05143C-0.222735 5.07459 0.743127 4.10878 1.72021 4.382L5.92765 5.55632C7.40498 4.80011 9.06087 4.33334 10.8333 4.33334C16.8067 4.33334 21.6667 9.19333 21.6667 15.1667C21.6667 21.14 16.8067 26 10.8333 26ZM10.8333 24.375C15.9284 24.375 20.0417 20.2617 20.0417 15.1667C20.0417 10.0716 15.9284 5.95833 10.8333 5.95833C9.20748 5.95833 7.68658 6.38112 6.36035 7.11996C6.17341 7.22414 5.95291 7.25037 5.74675 7.19295L1.74561 6.07682L2.86279 10.0758C2.92051 10.2823 2.89427 10.5033 2.78979 10.6905C2.04948 12.0177 1.625 13.5392 1.625 15.1667C1.625 20.2617 5.73826 24.375 10.8333 24.375Z" fill="black"/>
<path d="M6.08138 17.6488C6.18129 17.6889 6.28818 17.7088 6.39585 17.7073H15.6042C15.7118 17.7088 15.8187 17.6889 15.9187 17.6488C16.0186 17.6087 16.1095 17.549 16.1862 17.4734C16.2629 17.3978 16.3237 17.3078 16.3653 17.2084C16.4069 17.1091 16.4283 17.0025 16.4283 16.8948C16.4283 16.7871 16.4069 16.6805 16.3653 16.5812C16.3237 16.4819 16.2629 16.3918 16.1862 16.3162C16.1095 16.2406 16.0186 16.181 15.9187 16.1408C15.8187 16.1007 15.7118 16.0808 15.6042 16.0823H6.39585C6.28818 16.0808 6.18129 16.1007 6.08138 16.1408C5.98146 16.181 5.89053 16.2406 5.81385 16.3162C5.73718 16.3918 5.67629 16.4819 5.63474 16.5812C5.59318 16.6805 5.57178 16.7871 5.57178 16.8948C5.57178 17.0025 5.59318 17.1091 5.63474 17.2084C5.67629 17.3078 5.73718 17.3978 5.81385 17.4734C5.89053 17.549 5.98146 17.6087 6.08138 17.6488Z" fill="black"/>
<path d="M6.08138 13.8571C6.18129 13.8973 6.28818 13.9172 6.39585 13.9156H13.4375C13.5452 13.9172 13.6521 13.8973 13.752 13.8571C13.8519 13.817 13.9428 13.7574 14.0195 13.6818C14.0962 13.6062 14.1571 13.5161 14.1986 13.4168C14.2402 13.3174 14.2616 13.2108 14.2616 13.1031C14.2616 12.9955 14.2402 12.8889 14.1986 12.7895C14.1571 12.6902 14.0962 12.6001 14.0195 12.5245C13.9428 12.4489 13.8519 12.3893 13.752 12.3492C13.6521 12.309 13.5452 12.2891 13.4375 12.2906H6.39585C6.28818 12.2891 6.18129 12.309 6.08138 12.3492C5.98146 12.3893 5.89053 12.4489 5.81385 12.5245C5.73718 12.6001 5.67629 12.6902 5.63474 12.7895C5.59318 12.8889 5.57178 12.9955 5.57178 13.1031C5.57178 13.2108 5.59318 13.3174 5.63474 13.4168C5.67629 13.5161 5.73718 13.6062 5.81385 13.6818C5.89053 13.7574 5.98146 13.817 6.08138 13.8571Z" fill="black"/>
</svg>
