<svg width="22" height="21" viewBox="0 0 22 21" fill="none" xmlns="http://www.w3.org/2000/svg">
<path d="M9.4001 0.399902C4.5401 0.399902 0.600098 3.9815 0.600098 8.3999C0.600098 10.6692 1.6466 12.7101 3.31729 14.164C3.07765 14.9487 2.57778 15.7293 1.65947 16.4249C1.65895 16.4254 1.65843 16.4259 1.65791 16.4265C1.58217 16.4553 1.51696 16.5064 1.47092 16.5731C1.42488 16.6398 1.40019 16.7189 1.4001 16.7999C1.4001 16.906 1.44224 17.0077 1.51725 17.0827C1.59227 17.1578 1.69401 17.1999 1.8001 17.1999C1.82743 17.1996 1.85466 17.1964 1.88135 17.1905C3.4334 17.186 4.75765 16.523 5.81103 15.6921C6.31091 15.8954 6.83271 16.063 7.37666 16.1796C7.13346 15.4916 7.0001 14.7591 7.0001 13.9999C7.0001 10.0295 10.5889 6.7999 15.0001 6.7999C16.1057 6.7999 17.1596 7.00302 18.1188 7.37021C17.562 3.43901 13.8753 0.399902 9.4001 0.399902ZM15.0001 8.3999C13.3027 8.3999 11.6748 8.9899 10.4746 10.0401C9.27438 11.0903 8.6001 12.5147 8.6001 13.9999C8.6001 15.4851 9.27438 16.9095 10.4746 17.9597C11.6748 19.0099 13.3027 19.5999 15.0001 19.5999C15.8184 19.5988 16.6289 19.4603 17.3876 19.1921C18.3687 19.8774 19.556 20.3858 20.9157 20.3905C20.9434 20.3966 20.9717 20.3998 21.0001 20.3999C21.1062 20.3999 21.2079 20.3578 21.2829 20.2827C21.358 20.2077 21.4001 20.106 21.4001 19.9999C21.4 19.918 21.3747 19.8382 21.3278 19.7711C21.2808 19.7041 21.2145 19.653 21.1376 19.6249C20.4054 19.069 19.9362 18.4572 19.6548 17.8343C20.7733 16.7972 21.3975 15.4258 21.4001 13.9999C21.4001 12.5147 20.7258 11.0903 19.5256 10.0401C18.3253 8.9899 16.6975 8.3999 15.0001 8.3999Z" fill="#B86D19"/>
</svg>
