<svg width="16" height="18" viewBox="0 0 16 18" fill="none" xmlns="http://www.w3.org/2000/svg">
<path d="M12.5833 0.458166H13.8333C14.7538 0.458166 15.5 1.20442 15.5 2.12483V9.20817C15.5 10.1286 14.7538 10.8748 13.8333 10.8748H10.9167L10.9167 2.12483C10.9167 1.20442 11.6629 0.458166 12.5833 0.458166ZM1.05708 9.80442C1.455 10.2248 2.00458 10.4569 2.60542 10.4582L5.70833 10.4582C5.70833 10.4582 5.25417 12.2819 5.09792 12.8936C4.86208 13.819 4.81458 14.5978 4.94958 15.3444C5.01958 15.7323 5.14417 16.2344 5.4875 16.679C5.73125 16.9948 6.03625 17.2003 6.39458 17.2903C6.92792 17.4232 7.24792 17.2528 7.43958 16.7182C7.45542 16.6748 8.12542 14.3157 8.12542 14.3157C8.17792 14.1294 8.22833 13.9811 8.30542 13.8615C8.80042 13.0898 9.39875 12.3394 10.0837 11.5744L10.0837 1.509C8.22542 0.978166 5.43125 0.491915 5.24083 0.473999C5.1325 0.463165 5.025 0.458166 4.91833 0.458166C3.415 0.458166 2.09292 1.47108 1.70583 2.96567C1.35667 4.31483 0.637082 7.5415 0.637082 7.5415C0.579582 7.75442 0.514166 7.99567 0.499999 8.259C0.468749 8.84275 0.666667 9.39108 1.05708 9.80442Z" fill="white"/>
</svg>
