<svg width="27" height="26" viewBox="0 0 27 26" fill="none" xmlns="http://www.w3.org/2000/svg">
<path d="M6.55303 3.45482C6.32347 3.45841 6.10472 3.55292 5.94477 3.71763C5.78483 3.88233 5.69676 4.10377 5.69991 4.33333V21.6667C5.69828 21.7815 5.7195 21.8955 5.76233 22.0021C5.80515 22.1087 5.86873 22.2057 5.94937 22.2875C6.03001 22.3692 6.1261 22.4342 6.23205 22.4785C6.33801 22.5229 6.45172 22.5457 6.56657 22.5457C6.68143 22.5457 6.79514 22.5229 6.9011 22.4785C7.00705 22.4342 7.10314 22.3692 7.18378 22.2875C7.26442 22.2057 7.328 22.1087 7.37082 22.0021C7.41365 21.8955 7.43487 21.7815 7.43324 21.6667V4.33333C7.43483 4.21738 7.41313 4.10229 7.36944 3.99488C7.32575 3.88746 7.26094 3.78991 7.17887 3.70799C7.09679 3.62607 6.99911 3.56145 6.89161 3.51797C6.78411 3.47448 6.66898 3.45301 6.55303 3.45482ZM20.4197 3.45482C20.1901 3.45841 19.9714 3.55292 19.8114 3.71763C19.6515 3.88233 19.5634 4.10377 19.5666 4.33333V21.6667C19.5649 21.7815 19.5862 21.8955 19.629 22.0021C19.6718 22.1087 19.7354 22.2057 19.816 22.2875C19.8967 22.3692 19.9928 22.4342 20.0987 22.4785C20.2047 22.5229 20.3184 22.5457 20.4332 22.5457C20.5481 22.5457 20.6618 22.5229 20.7678 22.4785C20.8737 22.4342 20.9698 22.3692 21.0504 22.2875C21.1311 22.2057 21.1947 22.1087 21.2375 22.0021C21.2803 21.8955 21.3015 21.7815 21.2999 21.6667V4.33333C21.3015 4.21738 21.2798 4.10229 21.2361 3.99488C21.1924 3.88746 21.1276 3.78991 21.0455 3.70799C20.9635 3.62607 20.8658 3.56145 20.7583 3.51797C20.6508 3.47448 20.5356 3.45301 20.4197 3.45482ZM3.08637 6.92148C2.85681 6.92507 2.63805 7.01959 2.47811 7.1843C2.31816 7.349 2.2301 7.57044 2.23324 7.8V18.2C2.23162 18.3148 2.25283 18.4289 2.29566 18.5354C2.33848 18.642 2.40206 18.739 2.4827 18.8208C2.56334 18.9026 2.65943 18.9675 2.76539 19.0119C2.87134 19.0562 2.98505 19.079 3.09991 19.079C3.21476 19.079 3.32847 19.0562 3.43443 19.0119C3.54039 18.9675 3.63647 18.9026 3.71711 18.8208C3.79775 18.739 3.86133 18.642 3.90416 18.5354C3.94698 18.4289 3.9682 18.3148 3.96657 18.2V7.8C3.96816 7.68405 3.94647 7.56896 3.90277 7.46154C3.85908 7.35413 3.79428 7.25657 3.7122 7.17465C3.63012 7.09274 3.53244 7.02812 3.42494 6.98463C3.31745 6.94115 3.20231 6.91967 3.08637 6.92148ZM10.0197 7.78815C9.79014 7.79174 9.57138 7.88626 9.41144 8.05096C9.25149 8.21567 9.16343 8.4371 9.16657 8.66667V17.3333C9.16495 17.4482 9.18617 17.5622 9.22899 17.6688C9.27182 17.7753 9.3354 17.8723 9.41604 17.9541C9.49667 18.0359 9.59276 18.1009 9.69872 18.1452C9.80468 18.1895 9.91839 18.2123 10.0332 18.2123C10.1481 18.2123 10.2618 18.1895 10.3678 18.1452C10.4737 18.1009 10.5698 18.0359 10.6504 17.9541C10.7311 17.8723 10.7947 17.7753 10.8375 17.6688C10.8803 17.5622 10.9015 17.4482 10.8999 17.3333V8.66667C10.9015 8.55072 10.8798 8.43563 10.8361 8.32821C10.7924 8.2208 10.7276 8.12324 10.6455 8.04132C10.5635 7.9594 10.4658 7.89479 10.3583 7.8513C10.2508 7.80781 10.1356 7.78634 10.0197 7.78815ZM16.953 7.78815C16.7235 7.79174 16.5047 7.88626 16.3448 8.05096C16.1848 8.21567 16.0968 8.4371 16.0999 8.66667V17.3333C16.0983 17.4482 16.1195 17.5622 16.1623 17.6688C16.2052 17.7753 16.2687 17.8723 16.3494 17.9541C16.43 18.0359 16.5261 18.1009 16.6321 18.1452C16.738 18.1895 16.8517 18.2123 16.9666 18.2123C17.0814 18.2123 17.1951 18.1895 17.3011 18.1452C17.4071 18.1009 17.5031 18.0359 17.5838 17.9541C17.6644 17.8723 17.728 17.7753 17.7708 17.6688C17.8136 17.5622 17.8349 17.4482 17.8332 17.3333V8.66667C17.8348 8.55072 17.8131 8.43563 17.7694 8.32821C17.7257 8.2208 17.6609 8.12324 17.5789 8.04132C17.4968 7.9594 17.3991 7.89479 17.2916 7.8513C17.1841 7.80781 17.069 7.78634 16.953 7.78815ZM23.8864 9.52148C23.6568 9.52507 23.4381 9.61959 23.2781 9.7843C23.1182 9.949 23.0301 10.1704 23.0332 10.4V15.6C23.0316 15.7148 23.0528 15.8289 23.0957 15.9354C23.1385 16.042 23.2021 16.139 23.2827 16.2208C23.3633 16.3026 23.4594 16.3675 23.5654 16.4119C23.6713 16.4562 23.7851 16.479 23.8999 16.479C24.0148 16.479 24.1285 16.4562 24.2344 16.4119C24.3404 16.3675 24.4365 16.3026 24.5171 16.2208C24.5978 16.139 24.6613 16.042 24.7042 15.9354C24.747 15.8289 24.7682 15.7148 24.7666 15.6V10.4C24.7682 10.284 24.7465 10.169 24.7028 10.0615C24.6591 9.95413 24.5943 9.85657 24.5122 9.77465C24.4301 9.69274 24.3324 9.62812 24.2249 9.58463C24.1174 9.54115 24.0023 9.51967 23.8864 9.52148ZM13.4864 10.3882C13.2568 10.3917 13.0381 10.4863 12.8781 10.651C12.7182 10.8157 12.6301 11.0371 12.6332 11.2667V14.7333C12.6316 14.8482 12.6528 14.9622 12.6957 15.0688C12.7385 15.1753 12.8021 15.2723 12.8827 15.3541C12.9633 15.4359 13.0594 15.5009 13.1654 15.5452C13.2713 15.5895 13.3851 15.6123 13.4999 15.6123C13.6148 15.6123 13.7285 15.5895 13.8344 15.5452C13.9404 15.5009 14.0365 15.4359 14.1171 15.3541C14.1978 15.2723 14.2613 15.1753 14.3042 15.0688C14.347 14.9622 14.3682 14.8482 14.3666 14.7333V11.2667C14.3682 11.1507 14.3465 11.0356 14.3028 10.9282C14.2591 10.8208 14.1943 10.7232 14.1122 10.6413C14.0301 10.5594 13.9324 10.4948 13.8249 10.4513C13.7174 10.4078 13.6023 10.3863 13.4864 10.3882Z" fill="#161616"/>
</svg>
