<svg width="27" height="26" viewBox="0 0 27 26" fill="none" xmlns="http://www.w3.org/2000/svg">
<path d="M6.55303 3.45482C6.32347 3.45841 6.10472 3.55292 5.94477 3.71763C5.78483 3.88233 5.69676 4.10377 5.69991 4.33333V21.6667C5.69828 21.7815 5.7195 21.8955 5.76233 22.0021C5.80515 22.1087 5.86873 22.2057 5.94937 22.2875C6.03001 22.3692 6.1261 22.4342 6.23205 22.4785C6.33801 22.5229 6.45172 22.5457 6.56657 22.5457C6.68143 22.5457 6.79514 22.5229 6.90109 22.4785C7.00705 22.4342 7.10314 22.3692 7.18378 22.2875C7.26442 22.2057 7.328 22.1087 7.37082 22.0021C7.41365 21.8955 7.43486 21.7815 7.43324 21.6667V4.33333C7.43483 4.21738 7.41313 4.10229 7.36944 3.99488C7.32575 3.88746 7.26094 3.78991 7.17887 3.70799C7.09679 3.62607 6.99911 3.56145 6.89161 3.51797C6.78411 3.47448 6.66898 3.45301 6.55303 3.45482ZM20.4197 3.45482C20.1901 3.45841 19.9714 3.55292 19.8114 3.71763C19.6515 3.88233 19.5634 4.10377 19.5666 4.33333V21.6667C19.5649 21.7815 19.5862 21.8955 19.629 22.0021C19.6718 22.1087 19.7354 22.2057 19.816 22.2875C19.8967 22.3692 19.9928 22.4342 20.0987 22.4785C20.2047 22.5229 20.3184 22.5457 20.4332 22.5457C20.5481 22.5457 20.6618 22.5229 20.7678 22.4785C20.8737 22.4342 20.9698 22.3692 21.0504 22.2875C21.1311 22.2057 21.1947 22.1087 21.2375 22.0021C21.2803 21.8955 21.3015 21.7815 21.2999 21.6667V4.33333C21.3015 4.21738 21.2798 4.10229 21.2361 3.99488C21.1924 3.88746 21.1276 3.78991 21.0455 3.70799C20.9635 3.62607 20.8658 3.56145 20.7583 3.51797C20.6508 3.47448 20.5356 3.45301 20.4197 3.45482ZM3.08637 6.92148C2.85681 6.92507 2.63805 7.01959 2.47811 7.1843C2.31816 7.349 2.2301 7.57044 2.23324 7.8V18.2C2.23162 18.3148 2.25283 18.4289 2.29566 18.5354C2.33848 18.642 2.40206 18.739 2.4827 18.8208C2.56334 18.9026 2.65943 18.9675 2.76539 19.0119C2.87134 19.0562 2.98505 19.079 3.09991 19.079C3.21476 19.079 3.32847 19.0562 3.43443 19.0119C3.54038 18.9675 3.63647 18.9026 3.71711 18.8208C3.79775 18.739 3.86133 18.642 3.90416 18.5354C3.94698 18.4289 3.9682 18.3148 3.96657 18.2V7.8C3.96816 7.68405 3.94647 7.56896 3.90277 7.46154C3.85908 7.35413 3.79428 7.25657 3.7122 7.17465C3.63012 7.09274 3.53244 7.02812 3.42494 6.98463C3.31745 6.94115 3.20231 6.91967 3.08637 6.92148ZM10.0197 7.78815C9.79014 7.79174 9.57138 7.88626 9.41144 8.05096C9.25149 8.21567 9.16343 8.4371 9.16657 8.66667V17.3333C9.16495 17.4482 9.18617 17.5622 9.22899 17.6688C9.27182 17.7753 9.3354 17.8723 9.41603 17.9541C9.49667 18.0359 9.59276 18.1009 9.69872 18.1452C9.80467 18.1895 9.91839 18.2123 10.0332 18.2123C10.1481 18.2123 10.2618 18.1895 10.3678 18.1452C10.4737 18.1009 10.5698 18.0359 10.6504 17.9541C10.7311 17.8723 10.7947 17.7753 10.8375 17.6688C10.8803 17.5622 10.9015 17.4482 10.8999 17.3333V8.66667C10.9015 8.55072 10.8798 8.43563 10.8361 8.32821C10.7924 8.2208 10.7276 8.12324 10.6455 8.04132C10.5635 7.9594 10.4658 7.89479 10.3583 7.8513C10.2508 7.80781 10.1356 7.78634 10.0197 7.78815ZM16.953 7.78815C16.7235 7.79174 16.5047 7.88626 16.3448 8.05096C16.1848 8.21567 16.0968 8.4371 16.0999 8.66667V17.3333C16.0983 17.4482 16.1195 17.5622 16.1623 17.6688C16.2051 17.7753 16.2687 17.8723 16.3494 17.9541C16.43 18.0359 16.5261 18.1009 16.6321 18.1452C16.738 18.1895 16.8517 18.2123 16.9666 18.2123C17.0814 18.2123 17.1951 18.1895 17.3011 18.1452C17.407 18.1009 17.5031 18.0359 17.5838 17.9541C17.6644 17.8723 17.728 17.7753 17.7708 17.6688C17.8136 17.5622 17.8349 17.4482 17.8332 17.3333V8.66667C17.8348 8.55072 17.8131 8.43563 17.7694 8.32821C17.7257 8.2208 17.6609 8.12324 17.5789 8.04132C17.4968 7.9594 17.3991 7.89479 17.2916 7.8513C17.1841 7.80781 17.069 7.78634 16.953 7.78815ZM23.8864 9.52148C23.6568 9.52507 23.438 9.61959 23.2781 9.7843C23.1182 9.949 23.0301 10.1704 23.0332 10.4V15.6C23.0316 15.7148 23.0528 15.8289 23.0957 15.9354C23.1385 16.042 23.2021 16.139 23.2827 16.2208C23.3633 16.3026 23.4594 16.3675 23.5654 16.4119C23.6713 16.4562 23.785 16.479 23.8999 16.479C24.0148 16.479 24.1285 16.4562 24.2344 16.4119C24.3404 16.3675 24.4365 16.3026 24.5171 16.2208C24.5977 16.139 24.6613 16.042 24.7042 15.9354C24.747 15.8289 24.7682 15.7148 24.7666 15.6V10.4C24.7682 10.284 24.7465 10.169 24.7028 10.0615C24.6591 9.95413 24.5943 9.85657 24.5122 9.77465C24.4301 9.69274 24.3324 9.62812 24.2249 9.58463C24.1174 9.54115 24.0023 9.51967 23.8864 9.52148ZM13.4864 10.3882C13.2568 10.3917 13.038 10.4863 12.8781 10.651C12.7182 10.8157 12.6301 11.0371 12.6332 11.2667V14.7333C12.6316 14.8482 12.6528 14.9622 12.6957 15.0688C12.7385 15.1753 12.8021 15.2723 12.8827 15.3541C12.9633 15.4359 13.0594 15.5009 13.1654 15.5452C13.2713 15.5895 13.3851 15.6123 13.4999 15.6123C13.6148 15.6123 13.7285 15.5895 13.8344 15.5452C13.9404 15.5009 14.0365 15.4359 14.1171 15.3541C14.1978 15.2723 14.2613 15.1753 14.3042 15.0688C14.347 14.9622 14.3682 14.8482 14.3666 14.7333V11.2667C14.3682 11.1507 14.3465 11.0356 14.3028 10.9282C14.2591 10.8208 14.1943 10.7232 14.1122 10.6413C14.0301 10.5594 13.9324 10.4948 13.8249 10.4513C13.7174 10.4078 13.6023 10.3863 13.4864 10.3882Z" fill="#161616" opacity="0.36"/>
<path fill-rule="evenodd" clip-rule="evenodd" d="M7.4334 4.30959C7.43192 4.2017 7.41031 4.09496 7.3696 3.99488C7.3259 3.88746 7.2611 3.78991 7.17902 3.70799C7.09695 3.62607 6.99927 3.56145 6.89177 3.51797C6.78427 3.47448 6.66914 3.45301 6.55319 3.45482C6.32363 3.45841 6.10487 3.55292 5.94493 3.71763C5.79052 3.87663 5.70311 4.0885 5.70007 4.30952V18.2C5.70007 18.2 5.70006 18.2 5.70006 18.2V18.2245C5.70157 18.331 5.7227 18.4364 5.76248 18.5354C5.80531 18.642 5.86889 18.739 5.94953 18.8208C6.03016 18.9026 6.12625 18.9675 6.23221 19.0119C6.33817 19.0562 6.45188 19.079 6.56673 19.079C6.68159 19.079 6.7953 19.0562 6.90125 19.0119C7.00721 18.9675 7.1033 18.9026 7.18394 18.8208C7.26458 18.739 7.32815 18.642 7.37098 18.5354C7.41076 18.4365 7.43189 18.331 7.4334 18.2245V18.2V4.33333V4.30959ZM9.16673 13.8668C9.16673 13.8667 9.16673 13.8667 9.16673 13.8667V8.6428C9.16979 8.4218 9.2572 8.20995 9.4116 8.05096C9.57154 7.88626 9.7903 7.79174 10.0199 7.78815C10.1358 7.78634 10.2509 7.80781 10.3584 7.8513C10.4659 7.89479 10.5636 7.9594 10.6457 8.04132C10.7278 8.12324 10.7926 8.2208 10.8363 8.32821C10.877 8.42831 10.8986 8.53508 10.9001 8.643C10.9002 8.65086 10.9002 8.65873 10.9001 8.6666C10.9001 8.66662 10.9001 8.66664 10.9001 8.66667L10.9001 13.8667L10.9001 13.8912C10.8986 13.9978 10.8774 14.1031 10.8376 14.2021C10.7948 14.3087 10.7312 14.4057 10.6506 14.4875C10.57 14.5693 10.4739 14.6342 10.3679 14.6785C10.262 14.7228 10.1483 14.7457 10.0334 14.7457C9.91854 14.7457 9.80483 14.7228 9.69888 14.6785C9.59292 14.6342 9.49683 14.5693 9.41619 14.4875C9.33556 14.4057 9.27198 14.3087 9.22915 14.2021C9.18936 14.1031 9.16823 13.9976 9.16673 13.8911V13.8668ZM23.2783 13.251C23.4382 13.0863 23.657 12.9917 23.8865 12.9882C24.0025 12.9863 24.1176 13.0078 24.2251 13.0513C24.3326 13.0948 24.4303 13.1594 24.5124 13.2413C24.5944 13.3232 24.6592 13.4208 24.7029 13.5282C24.7436 13.6282 24.7652 13.7348 24.7667 13.8425V15.6C24.7667 15.6001 24.7667 15.6003 24.7667 15.6004V15.6241C24.7653 15.7308 24.7441 15.8363 24.7043 15.9354C24.6615 16.042 24.5979 16.139 24.5173 16.2208C24.4366 16.3026 24.3405 16.3675 24.2346 16.4119C24.1286 16.4562 24.0149 16.479 23.9001 16.479C23.7852 16.479 23.6715 16.4562 23.5655 16.4119C23.4596 16.3675 23.3635 16.3026 23.2829 16.2208C23.2022 16.139 23.1386 16.042 23.0958 15.9354C23.0561 15.8365 23.0349 15.7311 23.0334 15.6247L23.0334 15.6L23.0334 13.8667C23.0334 13.8666 23.0334 13.8666 23.0334 13.8665C23.0333 13.8587 23.0333 13.8509 23.0334 13.843C23.0364 13.622 23.1238 13.41 23.2783 13.251ZM19.8116 11.5176C19.9715 11.3529 20.1903 11.2584 20.4199 11.2548C20.5358 11.253 20.6509 11.2745 20.7584 11.318C20.8659 11.3615 20.9636 11.4261 21.0457 11.508C21.1278 11.5899 21.1926 11.6875 21.2363 11.7949C21.2769 11.8949 21.2986 12.0015 21.3001 12.1093V21.6667C21.3001 21.6668 21.3001 21.6668 21.3001 21.6669V21.6909C21.2986 21.7975 21.2775 21.903 21.2376 22.0021C21.1948 22.1087 21.1312 22.2057 21.0506 22.2875C20.97 22.3692 20.8739 22.4342 20.7679 22.4785C20.662 22.5229 20.5483 22.5457 20.4334 22.5457C20.3185 22.5457 20.2048 22.5229 20.0989 22.4785C19.9929 22.4342 19.8968 22.3692 19.8162 22.2875C19.7356 22.2057 19.672 22.1087 19.6291 22.0021C19.5894 21.9032 19.5683 21.7979 19.5667 21.6914V12.1333C19.5667 12.1332 19.5667 12.1331 19.5667 12.1331V12.1099C19.5697 11.8887 19.6571 11.6767 19.8116 11.5176ZM16.9532 12.9882C16.7236 12.9917 16.5049 13.0863 16.3449 13.251C16.1905 13.41 16.103 13.622 16.1001 13.8431V13.8665C16.1001 13.8665 16.1001 13.8666 16.1001 13.8667V17.358C16.1016 17.4645 16.1227 17.5698 16.1625 17.6688C16.2053 17.7753 16.2689 17.8723 16.3495 17.9541C16.4302 18.0359 16.5263 18.1009 16.6322 18.1452C16.7382 18.1895 16.8519 18.2123 16.9667 18.2123C17.0816 18.2123 17.1953 18.1895 17.3013 18.1452C17.4072 18.1009 17.5033 18.0359 17.5839 17.9541C17.6646 17.8723 17.7282 17.7753 17.771 17.6688C17.8108 17.5697 17.8319 17.4642 17.8334 17.3576V17.3335C17.8334 17.3335 17.8334 17.3334 17.8334 17.3333V13.8427C17.8319 13.7349 17.8103 13.6282 17.7696 13.5282C17.7259 13.4208 17.6611 13.3232 17.579 13.2413C17.4969 13.1594 17.3993 13.0948 17.2918 13.0513C17.1843 13.0078 17.0691 12.9863 16.9532 12.9882ZM2.2334 7.8V12.1333V12.1578C2.23491 12.2644 2.25604 12.3698 2.29582 12.4688C2.33864 12.5753 2.40222 12.6723 2.48286 12.7541C2.5635 12.8359 2.65959 12.9009 2.76554 12.9452C2.8715 12.9895 2.98521 13.0123 3.10006 13.0123C3.21492 13.0123 3.32863 12.9895 3.43459 12.9452C3.54054 12.9009 3.63663 12.8359 3.71727 12.7541C3.79791 12.6723 3.86149 12.5753 3.90431 12.4688C3.94409 12.3698 3.96523 12.2644 3.96673 12.1578V12.1334C3.96673 12.1334 3.96673 12.1333 3.96673 12.1333V7.77624C3.96525 7.66835 3.94364 7.56162 3.90293 7.46154C3.85924 7.35413 3.79443 7.25657 3.71236 7.17465C3.63028 7.09274 3.5326 7.02812 3.4251 6.98463C3.3176 6.94115 3.20247 6.91967 3.08652 6.92148C2.85697 6.92507 2.63821 7.01959 2.47826 7.1843C2.32385 7.34331 2.23643 7.5552 2.2334 7.77624V7.8ZM12.8783 12.3843C13.0382 12.2196 13.257 12.1251 13.4865 12.1215C13.6025 12.1197 13.7176 12.1411 13.8251 12.1846C13.9326 12.2281 14.0303 12.2927 14.1124 12.3747C14.1944 12.4566 14.2592 12.5541 14.3029 12.6615C14.3436 12.7616 14.3652 12.8683 14.3667 12.9762L14.3667 13L14.3667 14.7333C14.3667 14.7334 14.3667 14.7334 14.3667 14.7334C14.3668 14.7415 14.3668 14.7497 14.3667 14.7578C14.3652 14.8643 14.3441 14.9698 14.3043 15.0688C14.2615 15.1753 14.1979 15.2723 14.1173 15.3541C14.0366 15.4359 13.9405 15.5009 13.8346 15.5452C13.7286 15.5895 13.6149 15.6123 13.5001 15.6123C13.3852 15.6123 13.2715 15.5895 13.1655 15.5452C13.0596 15.5009 12.9635 15.4359 12.8829 15.3541C12.8022 15.2723 12.7386 15.1753 12.6958 15.0688C12.656 14.9698 12.6349 14.8644 12.6334 14.7579L12.6334 14.7333L12.6334 13C12.6334 13 12.6334 13 12.6334 12.9999C12.6333 12.992 12.6333 12.9842 12.6334 12.9763C12.6364 12.7552 12.7238 12.5433 12.8783 12.3843Z" fill="#161616"/>
</svg>
