<svg width="28" height="22" viewBox="0 0 28 22" fill="none" xmlns="http://www.w3.org/2000/svg">
<path d="M14 0.5C8.42112 0.5 3.85657 4.87902 3.53186 10.3779L2.36861 9.21468C2.28705 9.13069 2.18946 9.06392 2.08163 9.01832C1.9738 8.97272 1.85792 8.94922 1.74084 8.94922C1.5667 8.94926 1.39654 9.00126 1.25212 9.09855C1.1077 9.19585 0.995587 9.33402 0.930135 9.49539C0.864682 9.65676 0.848862 9.83398 0.884698 10.0044C0.920535 10.1748 1.0064 10.3306 1.1313 10.452L3.7563 13.077C3.9204 13.241 4.14293 13.3332 4.37496 13.3332C4.60698 13.3332 4.82951 13.241 4.99361 13.077L7.61861 10.452C7.70258 10.3714 7.76963 10.2748 7.81581 10.1679C7.862 10.0611 7.88639 9.94606 7.88758 9.82965C7.88876 9.71324 7.86671 9.59776 7.8227 9.48999C7.7787 9.38221 7.71363 9.28429 7.63132 9.20197C7.549 9.11965 7.45108 9.05459 7.3433 9.01059C7.23552 8.96658 7.12005 8.94453 7.00364 8.94571C6.88723 8.94689 6.77223 8.97129 6.66537 9.01748C6.5585 9.06366 6.46193 9.13071 6.3813 9.21468L5.28527 10.3107C5.63614 5.7925 9.38959 2.25 14 2.25C16.9609 2.25 19.5617 3.71812 21.1469 5.96305C21.2132 6.05695 21.2973 6.13688 21.3945 6.19827C21.4917 6.25966 21.6 6.3013 21.7132 6.32083C21.8265 6.34036 21.9425 6.33739 22.0546 6.31208C22.1667 6.28678 22.2727 6.23963 22.3666 6.17335C22.4605 6.10706 22.5404 6.02293 22.6018 5.92576C22.6632 5.82858 22.7048 5.72027 22.7243 5.60701C22.7439 5.49374 22.7409 5.37774 22.7156 5.26563C22.6902 5.15352 22.6431 5.0475 22.5768 4.95361C20.6772 2.26354 17.5408 0.5 14 0.5ZM23.6124 8.66667C23.3847 8.67 23.1673 8.76196 23.0063 8.92301L20.3813 11.548C20.2973 11.6286 20.2303 11.7252 20.1841 11.8321C20.1379 11.9389 20.1135 12.0539 20.1123 12.1704C20.1112 12.2868 20.1332 12.4022 20.1772 12.51C20.2212 12.6178 20.2863 12.7157 20.3686 12.798C20.4509 12.8803 20.5488 12.9454 20.6566 12.9894C20.7644 13.0334 20.8799 13.0555 20.9963 13.0543C21.1127 13.0531 21.2277 13.0287 21.3345 12.9825C21.4414 12.9363 21.538 12.8693 21.6186 12.7853L22.7146 11.6893C22.3638 16.2075 18.6103 19.75 14 19.75C11.039 19.75 8.43823 18.2819 6.85298 16.0369C6.78671 15.943 6.70259 15.8631 6.60542 15.8017C6.50826 15.7403 6.39995 15.6987 6.28669 15.6792C6.17342 15.6596 6.05742 15.6626 5.94531 15.6879C5.8332 15.7132 5.72717 15.7604 5.63327 15.8267C5.53938 15.8929 5.45947 15.9771 5.39809 16.0742C5.33671 16.1714 5.29508 16.2797 5.27557 16.393C5.25605 16.5063 5.25904 16.6223 5.28436 16.7344C5.30968 16.8465 5.35683 16.9525 5.42313 17.0464C7.32271 19.7365 10.4591 21.5 14 21.5C19.5788 21.5 24.1433 17.121 24.4681 11.6221L25.6313 12.7853C25.7119 12.8693 25.8085 12.9363 25.9154 12.9825C26.0222 13.0287 26.1372 13.0531 26.2536 13.0543C26.3701 13.0555 26.4855 13.0334 26.5933 12.9894C26.7011 12.9454 26.799 12.8803 26.8813 12.798C26.9636 12.7157 27.0287 12.6178 27.0727 12.51C27.1167 12.4022 27.1388 12.2868 27.1376 12.1704C27.1364 12.0539 27.112 11.9389 27.0658 11.8321C27.0196 11.7252 26.9526 11.6286 26.8686 11.548L24.2436 8.92301C24.1609 8.84025 24.0624 8.77493 23.954 8.7309C23.8456 8.68687 23.7294 8.66502 23.6124 8.66667Z" fill="#5D717A"/>
</svg>
