<svg width="16" height="18" viewBox="0 0 16 18" fill="none" xmlns="http://www.w3.org/2000/svg">
<path d="M3.41667 17.5418H2.16667C1.24625 17.5418 0.5 16.7956 0.5 15.8752V8.79183C0.5 7.87142 1.24625 7.12517 2.16667 7.12517H5.08333V15.8752C5.08333 16.7956 4.33708 17.5418 3.41667 17.5418ZM14.9429 8.19558C14.545 7.77517 13.9954 7.54308 13.3946 7.54183H10.2917C10.2917 7.54183 10.7458 5.71808 10.9021 5.10642C11.1379 4.181 11.1854 3.40225 11.0504 2.65558C10.9804 2.26767 10.8558 1.76558 10.5125 1.321C10.2688 1.00517 9.96375 0.799749 9.60542 0.709749C9.07208 0.576833 8.75208 0.747249 8.56042 1.28183C8.54458 1.32517 7.87458 3.68433 7.87458 3.68433C7.82208 3.87058 7.77167 4.01892 7.69458 4.1385C7.19958 4.91017 6.60125 5.66058 5.91625 6.42558V16.491C7.77458 17.0218 10.5688 17.5081 10.7592 17.526C10.8675 17.5368 10.975 17.5418 11.0817 17.5418C12.585 17.5418 13.9071 16.5289 14.2942 15.0343C14.6433 13.6852 15.3629 10.4585 15.3629 10.4585C15.4204 10.2456 15.4858 10.0043 15.5 9.741C15.5313 9.15725 15.3333 8.60892 14.9429 8.19558Z" fill="white"/>
</svg>
