<svg width="19" height="27" viewBox="0 0 19 27" fill="none" xmlns="http://www.w3.org/2000/svg">
<path d="M9.33333 0C6.12219 0 3.5 2.62219 3.5 5.83333V10.2083C3.50032 10.2144 3.5007 10.2205 3.50114 10.2266C1.37018 11.939 0 14.5615 0 17.5C0 22.6443 4.18904 26.8333 9.33333 26.8333C14.4776 26.8333 18.6667 22.6443 18.6667 17.5C18.6667 12.3557 14.4776 8.16667 9.33333 8.16667C7.86805 8.16667 6.48554 8.51643 5.25 9.12142V5.83333C5.25 3.56815 7.06815 1.75 9.33333 1.75C11.5985 1.75 13.4167 3.56815 13.4167 5.83333C13.415 5.94928 13.4364 6.0644 13.4797 6.172C13.5229 6.27959 13.5871 6.37752 13.6685 6.4601C13.7499 6.54267 13.847 6.60824 13.9539 6.65299C14.0609 6.69775 14.1757 6.7208 14.2917 6.7208C14.4076 6.7208 14.5224 6.69775 14.6294 6.65299C14.7364 6.60824 14.8334 6.54267 14.9148 6.4601C14.9962 6.37752 15.0604 6.27959 15.1036 6.172C15.1469 6.0644 15.1683 5.94928 15.1667 5.83333C15.1667 2.62219 12.5445 0 9.33333 0ZM9.33333 9.91667C13.5319 9.91667 16.9167 13.3015 16.9167 17.5C16.9167 21.6985 13.5319 25.0833 9.33333 25.0833C5.13481 25.0833 1.75 21.6985 1.75 17.5C1.75 13.3015 5.13481 9.91667 9.33333 9.91667ZM9.33333 13.4167C8.66478 13.4186 8.0172 13.6502 7.499 14.0726C6.9808 14.495 6.62344 15.0826 6.48676 15.737C6.35008 16.3915 6.44238 17.073 6.74819 17.6675C7.05401 18.262 7.55478 18.7334 8.16667 19.0028V21C8.16667 21.6446 8.68875 22.1667 9.33333 22.1667C9.97792 22.1667 10.5 21.6446 10.5 21V19.005C11.1133 18.7365 11.6154 18.2651 11.9223 17.6701C12.2291 17.0751 12.3219 16.3926 12.1851 15.7373C12.0483 15.0819 11.6902 14.4936 11.1709 14.071C10.6516 13.6485 10.0028 13.4174 9.33333 13.4167Z" fill="#5D717A"/>
</svg>
