<svg width="28" height="28" viewBox="0 0 28 28" fill="none" xmlns="http://www.w3.org/2000/svg">
<path d="M16.625 2.33899C14.3091 2.33899 11.9929 3.22016 10.2311 4.98222L7.17545 8.03788L3.90332 9.17037C3.14403 9.43284 2.57246 10.0712 2.39258 10.8531V10.8543L2.39144 10.8554C2.35269 11.026 2.33333 11.2004 2.33333 11.375C2.33333 11.9868 2.57465 12.5824 3.01693 13.0247L6.27653 16.2843C5.6446 16.9698 5.25 17.881 5.25 18.8854C5.25 21.0097 6.9909 22.75 9.11458 22.75C10.1185 22.75 11.0298 22.3554 11.7157 21.7234L14.9741 24.983C15.4165 25.4263 16.0138 25.6666 16.625 25.6666C16.7996 25.6666 16.9746 25.6467 17.1445 25.6085H17.1457L17.1479 25.6074C17.9299 25.4275 18.5683 24.8559 18.8307 24.0966V24.0955L19.9632 20.8245L23.0189 17.7688C26.5418 14.2453 26.542 8.50518 23.0177 4.98222C21.256 3.22016 18.9409 2.33899 16.625 2.33899ZM16.625 4.0776C18.4893 4.0776 20.3531 4.79192 21.7804 6.21952C24.6355 9.07356 24.6356 13.6769 21.7816 16.5315L18.4411 19.8709L17.1764 23.5247C17.1111 23.7141 16.9529 23.855 16.7572 23.9007L16.756 23.9018C16.7097 23.9118 16.6671 23.9166 16.625 23.9166C16.4709 23.9166 16.3232 23.8578 16.2126 23.7469V23.7457L10.2334 17.7666L4.25423 11.7874C4.14351 11.6767 4.08333 11.5273 4.08333 11.375C4.08333 11.3321 4.08824 11.2894 4.09814 11.2451C4.14335 11.0485 4.28535 10.8902 4.47526 10.8247L8.12907 9.56002L11.4684 6.21952C12.8958 4.79192 14.7607 4.0776 16.625 4.0776ZM7.51269 17.5205L8.99609 19.0039L10.4784 20.4873C10.1122 20.8053 9.64151 21 9.11458 21C7.9366 21 7 20.0639 7 18.8854C7 18.3584 7.19435 17.8868 7.51269 17.5205Z" fill="#5D717A"/>
</svg>
