    <svg width="20" height="20" viewBox="0 0 20 20" fill="none" xmlns="http://www.w3.org/2000/svg">
<path d="M17.23 2.77C15.7665 1.306 13.8205 0.5 11.75 0.5C9.6795 0.5 7.7335 1.306 6.27 2.77L4.151 4.889L1.3465 5.86C0.6905 6.0865 0.2065 6.625 0.0504999 7.3015C0.0169999 7.448 0 7.5985 0 7.75C0 8.2775 0.214 8.793 0.586 9.164L10.8355 19.4135C11.207 19.786 11.7225 20 12.25 20C12.4015 20 12.552 19.983 12.6985 19.949C13.375 19.793 13.9135 19.309 14.1395 18.6535L15.1105 15.849L17.2295 13.73C18.694 12.2665 19.5 10.3205 19.5 8.25C19.5 6.1795 18.694 4.2335 17.23 2.77ZM2.6855 12.6775C2.2575 13.236 2 13.9315 2 14.6875C2 16.514 3.486 18 5.3125 18C6.0685 18 6.764 17.7425 7.3225 17.3145L2.6855 12.6775Z" fill="#5D717A"/>
</svg>
