<svg width="12" height="12" viewBox="0 0 12 12" fill="none" xmlns="http://www.w3.org/2000/svg">
<path d="M2.12311 7.18983L2.1231 7.18983L2.00651 7.6748L1.86228 7.63361L1.86226 7.63368C1.86225 7.63371 1.86224 7.63374 1.86224 7.63377L1.12058 10.2308L1.12054 10.2309C1.09494 10.3209 1.09383 10.4161 1.11734 10.5066C1.14085 10.5971 1.18812 10.6798 1.25427 10.7459C1.32041 10.812 1.40303 10.8593 1.49357 10.8828C1.58411 10.9063 1.67929 10.9052 1.76926 10.8796L1.76938 10.8796L4.36703 10.1379L4.40433 10.1272L4.40605 10.1255C4.55754 10.0756 4.6963 9.9911 4.81033 9.87706L4.70561 9.77234L4.81034 9.87706L10.3435 4.34337C11.0824 3.60452 11.0824 2.39552 10.3436 1.65665C9.97403 1.28695 9.48661 1.10244 9.00017 1.10244C8.51372 1.10244 8.02631 1.28695 7.65677 1.65665L2.12311 7.18983ZM9.60062 2.39901L9.6186 2.417C9.93617 2.75292 9.93034 3.27175 9.60113 3.60097L9.22234 3.97976L8.0204 2.77783L8.3992 2.39903L8.39923 2.39901C8.56685 2.23131 8.7837 2.14805 9.00017 2.14805C9.21656 2.14805 9.43294 2.23126 9.60062 2.39901ZM4.07217 9.12993L2.38945 9.6107L2.87024 7.92751L7.27799 3.52023L8.47993 4.72217L4.07217 9.12993Z" fill="white" stroke="white" stroke-width="0.3"/>
</svg>
