<svg width="16" height="20" viewBox="0 0 16 20" fill="none" xmlns="http://www.w3.org/2000/svg">
<path d="M6.25 0C5.0095 0 4 1.0095 4 2.25V3.54004C4.164 3.51654 4.33 3.5 4.5 3.5C6.4295 3.5 8 5.0705 8 7V7.70898C8.8825 8.09498 9.5 8.977 9.5 10V13C9.5 14.3785 8.3785 15.5 7 15.5H4V17.75C4 18.9905 5.0095 20 6.25 20H13.75C14.9905 20 16 18.9905 16 17.75V2.25C16 1.0095 14.9905 0 13.75 0H6.25ZM10 2.5C10.414 2.5 10.75 2.836 10.75 3.25C10.75 3.664 10.414 4 10 4C9.586 4 9.25 3.664 9.25 3.25C9.25 2.836 9.586 2.5 10 2.5ZM4.5 4.5C3.12817 4.5 2 5.62817 2 7V8.5C1.1715 8.5 0.5 9.1715 0.5 10V13C0.5 13.8285 1.1715 14.5 2 14.5H7C7.8285 14.5 8.5 13.8285 8.5 13V10C8.5 9.1715 7.8285 8.5 7 8.5V7C7 5.62817 5.87183 4.5 4.5 4.5ZM4.5 6C5.06117 6 5.5 6.43883 5.5 7V8.5H3.5V7C3.5 6.43883 3.93883 6 4.5 6ZM4.5 10.5C5.0525 10.5 5.5 10.9475 5.5 11.5C5.5 12.0525 5.0525 12.5 4.5 12.5C3.9475 12.5 3.5 12.0525 3.5 11.5C3.5 10.9475 3.9475 10.5 4.5 10.5ZM8.75 16H11.25C11.664 16 12 16.336 12 16.75C12 17.164 11.664 17.5 11.25 17.5H8.75C8.336 17.5 8 17.164 8 16.75C8 16.336 8.336 16 8.75 16Z" fill="#5D717A"/>
</svg>
