<svg width="27" height="21" viewBox="0 0 27 21" fill="none" xmlns="http://www.w3.org/2000/svg">
<path d="M8.28655 0.454818C8.05699 0.458406 7.83823 0.552925 7.67829 0.71763C7.51834 0.882334 7.43028 1.10377 7.43342 1.33333V10.8667C7.4318 10.9815 7.45301 11.0955 7.49584 11.2021C7.53866 11.3087 7.60224 11.4057 7.68288 11.4875C7.76352 11.5692 7.85961 11.6342 7.96557 11.6785C8.07152 11.7228 8.18523 11.7457 8.30009 11.7457C8.41494 11.7457 8.52865 11.7228 8.63461 11.6785C8.74057 11.6342 8.83665 11.5692 8.91729 11.4875C8.99793 11.4057 9.06151 11.3087 9.10434 11.2021C9.14716 11.0955 9.16838 10.9815 9.16675 10.8667V1.33333C9.16834 1.21738 9.14665 1.10229 9.10295 0.994877C9.05926 0.887462 8.99446 0.789907 8.91238 0.707989C8.8303 0.62607 8.73262 0.561454 8.62512 0.517967C8.51763 0.47448 8.40249 0.453007 8.28655 0.454818ZM4.81988 3.05482C4.59032 3.05841 4.37156 3.15292 4.21162 3.31763C4.05167 3.48233 3.96361 3.70377 3.96675 3.93333V10.8667C3.96513 10.9815 3.98635 11.0955 4.02917 11.2021C4.072 11.3087 4.13558 11.4057 4.21621 11.4875C4.29685 11.5692 4.39294 11.6342 4.4989 11.6785C4.60486 11.7228 4.71857 11.7457 4.83342 11.7457C4.94828 11.7457 5.06199 11.7228 5.16794 11.6785C5.2739 11.6342 5.36999 11.5692 5.45063 11.4875C5.53126 11.4057 5.59484 11.3087 5.63767 11.2021C5.68049 11.0955 5.70171 10.9815 5.70009 10.8667V3.93333C5.70167 3.81738 5.67998 3.70229 5.63629 3.59488C5.59259 3.48746 5.52779 3.38991 5.44571 3.30799C5.36364 3.22607 5.26596 3.16145 5.15846 3.11797C5.05096 3.07448 4.93583 3.05301 4.81988 3.05482ZM11.7532 5.65482C11.5237 5.65841 11.3049 5.75292 11.145 5.91763C10.985 6.08233 10.8969 6.30377 10.9001 6.53333V10.8667C10.8985 10.9815 10.9197 11.0955 10.9625 11.2021C11.0053 11.3087 11.0689 11.4057 11.1495 11.4875C11.2302 11.5692 11.3263 11.6342 11.4322 11.6785C11.5382 11.7228 11.6519 11.7457 11.7668 11.7457C11.8816 11.7457 11.9953 11.7228 12.1013 11.6785C12.2072 11.6342 12.3033 11.5692 12.384 11.4875C12.4646 11.4057 12.5282 11.3087 12.571 11.2021C12.6138 11.0955 12.635 10.9815 12.6334 10.8667V6.53333C12.635 6.41738 12.6133 6.30229 12.5696 6.19488C12.5259 6.08746 12.4611 5.98991 12.379 5.90799C12.297 5.82607 12.1993 5.76145 12.0918 5.71797C11.9843 5.67448 11.8692 5.65301 11.7532 5.65482ZM1.35321 7.38815C1.12365 7.39174 0.904896 7.48626 0.744952 7.65096C0.585007 7.81567 0.496943 8.0371 0.500087 8.26667V10.8667C0.498462 10.9815 0.51968 11.0955 0.562505 11.2021C0.60533 11.3087 0.668909 11.4057 0.749548 11.4875C0.830187 11.5692 0.926276 11.6342 1.03223 11.6785C1.13819 11.7228 1.2519 11.7457 1.36675 11.7457C1.48161 11.7457 1.59532 11.7228 1.70127 11.6785C1.80723 11.6342 1.90332 11.5692 1.98396 11.4875C2.0646 11.4057 2.12818 11.3087 2.171 11.2021C2.21383 11.0955 2.23504 10.9815 2.23342 10.8667V8.26667C2.23501 8.15072 2.21331 8.03562 2.16962 7.92821C2.12593 7.82079 2.06112 7.72324 1.97905 7.64132C1.89697 7.5594 1.79929 7.49479 1.69179 7.4513C1.58429 7.40781 1.46916 7.38634 1.35321 7.38815ZM15.2199 9.98815C14.9903 9.99174 14.7716 10.0863 14.6116 10.251C14.4517 10.4157 14.3636 10.6371 14.3668 10.8667V15.2C14.3651 15.3148 14.3863 15.4289 14.4292 15.5354C14.472 15.642 14.5356 15.739 14.6162 15.8208C14.6969 15.9026 14.7929 15.9675 14.8989 16.0119C15.0049 16.0562 15.1186 16.079 15.2334 16.079C15.3483 16.079 15.462 16.0562 15.5679 16.0119C15.6739 15.9675 15.77 15.9026 15.8506 15.8208C15.9313 15.739 15.9948 15.642 16.0377 15.5354C16.0805 15.4289 16.1017 15.3148 16.1001 15.2V10.8667C16.1017 10.7507 16.08 10.6356 16.0363 10.5282C15.9926 10.4208 15.9278 10.3232 15.8457 10.2413C15.7636 10.1594 15.666 10.0948 15.5585 10.0513C15.451 10.0078 15.3358 9.98634 15.2199 9.98815ZM18.6865 9.98815C18.457 9.99174 18.2382 10.0863 18.0783 10.251C17.9183 10.4157 17.8303 10.6371 17.8334 10.8667V19.5333C17.8318 19.6482 17.853 19.7622 17.8958 19.8688C17.9387 19.9753 18.0022 20.0723 18.0829 20.1541C18.1635 20.2359 18.2596 20.3009 18.3656 20.3452C18.4715 20.3895 18.5852 20.4123 18.7001 20.4123C18.8149 20.4123 18.9287 20.3895 19.0346 20.3452C19.1406 20.3009 19.2367 20.2359 19.3173 20.1541C19.3979 20.0723 19.4615 19.9753 19.5043 19.8688C19.5472 19.7622 19.5684 19.6482 19.5668 19.5333V10.8667C19.5683 10.7507 19.5466 10.6356 19.503 10.5282C19.4593 10.4208 19.3945 10.3232 19.3124 10.2413C19.2303 10.1594 19.1326 10.0948 19.0251 10.0513C18.9176 10.0078 18.8025 9.98634 18.6865 9.98815ZM22.1532 9.98815C21.9237 9.99174 21.7049 10.0863 21.545 10.251C21.385 10.4157 21.2969 10.6371 21.3001 10.8667V16.9333C21.2985 17.0482 21.3197 17.1622 21.3625 17.2688C21.4053 17.3753 21.4689 17.4723 21.5495 17.5541C21.6302 17.6359 21.7263 17.7009 21.8322 17.7452C21.9382 17.7895 22.0519 17.8123 22.1668 17.8123C22.2816 17.8123 22.3953 17.7895 22.5013 17.7452C22.6072 17.7009 22.7033 17.6359 22.784 17.5541C22.8646 17.4723 22.9282 17.3753 22.971 17.2688C23.0138 17.1622 23.035 17.0482 23.0334 16.9333V10.8667C23.035 10.7507 23.0133 10.6356 22.9696 10.5282C22.9259 10.4208 22.8611 10.3232 22.779 10.2413C22.697 10.1594 22.5993 10.0948 22.4918 10.0513C22.3843 10.0078 22.2692 9.98634 22.1532 9.98815ZM25.6199 9.98815C25.3903 9.99174 25.1716 10.0863 25.0116 10.251C24.8517 10.4157 24.7636 10.6371 24.7668 10.8667V13.4667C24.7651 13.5815 24.7863 13.6955 24.8292 13.8021C24.872 13.9087 24.9356 14.0057 25.0162 14.0875C25.0969 14.1692 25.1929 14.2342 25.2989 14.2785C25.4049 14.3228 25.5186 14.3457 25.6334 14.3457C25.7483 14.3457 25.862 14.3228 25.9679 14.2785C26.0739 14.2342 26.17 14.1692 26.2506 14.0875C26.3313 14.0057 26.3948 13.9087 26.4377 13.8021C26.4805 13.6955 26.5017 13.5815 26.5001 13.4667V10.8667C26.5017 10.7507 26.48 10.6356 26.4363 10.5282C26.3926 10.4208 26.3278 10.3232 26.2457 10.2413C26.1636 10.1594 26.066 10.0948 25.9585 10.0513C25.851 10.0078 25.7358 9.98634 25.6199 9.98815Z" fill="#161616"/>
</svg>
