<svg width="14" height="14" viewBox="0 0 14 14" fill="none" xmlns="http://www.w3.org/2000/svg">
<path d="M3.53192 2.13741L3.53091 2.03742C3.40328 2.0387 3.27982 2.08303 3.18053 2.16322C1.75366 3.29158 0.83335 5.04022 0.83335 7.00004C0.83335 8.96007 1.75384 10.7089 3.18096 11.8372L3.18102 11.8373C3.29902 11.9304 3.44918 11.9729 3.59848 11.9553C3.74778 11.9378 3.884 11.8616 3.97717 11.7437C4.07035 11.6257 4.11285 11.4755 4.09533 11.3262C4.07782 11.1769 4.00172 11.0407 3.88378 10.9475C2.71618 10.0244 1.96668 8.60435 1.96668 7.00004C1.96668 5.39598 2.71596 3.97615 3.88327 3.05298C3.97728 2.98054 4.04617 2.8804 4.08023 2.7667C4.11435 2.65276 4.11177 2.53098 4.07284 2.4186C4.03391 2.30622 3.96061 2.20893 3.86332 2.14052C3.76603 2.07211 3.64968 2.03604 3.53075 2.03742L3.53192 2.13741ZM3.53192 2.13741C3.42664 2.13847 3.32482 2.17509 3.24298 2.24132L3.82176 2.97413C3.89942 2.91444 3.95633 2.83183 3.98443 2.738C4.01254 2.64417 4.01041 2.54388 3.97835 2.45133C3.94628 2.35878 3.88592 2.27866 3.8058 2.22232C3.72567 2.16598 3.62986 2.13628 3.53192 2.13741ZM10.1163 10.9475C10.0579 10.9936 10.0091 11.0508 9.97276 11.1158C9.93643 11.1808 9.91325 11.2523 9.90456 11.3262C9.89587 11.4002 9.90183 11.4751 9.9221 11.5468C9.94237 11.6184 9.97656 11.6854 10.0227 11.7438C10.0689 11.8022 10.1261 11.851 10.1911 11.8873C10.2561 11.9236 10.3276 11.9468 10.4015 11.9555C10.4755 11.9641 10.5504 11.9582 10.622 11.9379C10.6937 11.9176 10.7606 11.8834 10.819 11.8372L10.8191 11.8372C12.2462 10.7089 13.1667 8.96007 13.1667 7.00004C13.1667 5.04023 12.2464 3.2916 10.8195 2.16324C10.7158 2.07945 10.5859 2.0349 10.4526 2.03743M10.1163 10.9475L10.1783 11.026L10.1162 10.9475C10.1163 10.9475 10.1163 10.9475 10.1163 10.9475ZM10.1163 10.9475C11.2839 10.0243 12.0333 8.60432 12.0333 7.00004C12.0333 5.39597 11.2841 3.97615 10.1168 3.05297C10.0239 2.9814 9.95545 2.88277 9.92097 2.77067C9.88642 2.65833 9.88764 2.53804 9.92448 2.42643C9.96132 2.31482 10.0319 2.21743 10.1266 2.14773C10.2212 2.07806 10.3351 2.03951 10.4526 2.03743M10.4526 2.03743C10.4526 2.03743 10.4526 2.03743 10.4525 2.03743L10.4544 2.13741L10.4527 2.03743C10.4527 2.03743 10.4526 2.03743 10.4526 2.03743ZM4.97658 3.96762L4.97542 3.86763C5.09434 3.86625 5.21069 3.90232 5.30798 3.97073C5.40527 4.03914 5.47857 4.13642 5.5175 4.24881C5.55643 4.36119 5.55901 4.48297 5.52489 4.5969C5.49083 4.71061 5.42194 4.81074 5.32793 4.88319C4.70104 5.37891 4.30002 6.13841 4.30002 7.00004C4.30002 7.86156 4.70092 8.62096 5.32766 9.11669C5.38737 9.16206 5.43747 9.21883 5.47508 9.28372C5.51287 9.34893 5.53728 9.42102 5.54687 9.49577C5.55646 9.57053 5.55105 9.64645 5.53094 9.71909C5.51083 9.79172 5.47644 9.85962 5.42977 9.9188C5.3831 9.97799 5.32509 10.0273 5.25915 10.0638C5.1932 10.1002 5.12064 10.1232 5.04571 10.1313C4.97078 10.1394 4.89498 10.1325 4.82276 10.111C4.75083 10.0895 4.68389 10.054 4.62581 10.0064L4.97658 3.96762ZM4.97658 3.96762L4.97538 3.86763C4.84813 3.86916 4.7251 3.91347 4.62611 3.99342L4.97658 3.96762ZM9.00802 3.86764L9.00806 3.86764C9.14101 3.86535 9.27052 3.90989 9.37394 3.99344L9.00802 3.86764ZM9.00802 3.86764C8.89051 3.8697 8.77655 3.90825 8.68192 3.97794M9.00802 3.86764L8.68192 3.97794M8.68192 3.97794C8.58728 4.04764 8.51666 4.14503 8.47982 4.25664M8.68192 3.97794L8.47982 4.25664M8.47982 4.25664C8.44298 4.36824 8.44175 4.48854 8.47631 4.60088M8.47982 4.25664L8.47631 4.60088M8.47631 4.60088C8.51079 4.71299 8.57921 4.81163 8.67212 4.88321M8.47631 4.60088L8.67212 4.88321M8.67212 4.88321C9.299 5.37893 9.70002 6.13842 9.70002 7.00004C9.70002 7.86155 9.29911 8.62095 8.67238 9.11668C8.61267 9.16205 8.56256 9.21883 8.52495 9.28372C8.48716 9.34893 8.46275 9.42102 8.45316 9.49577C8.44357 9.57053 8.44898 9.64645 8.46909 9.71909C8.4892 9.79173 8.52359 9.85962 8.57026 9.9188C8.61693 9.97799 8.67494 10.0273 8.74088 10.0638C8.80683 10.1002 8.87939 10.1232 8.95432 10.1313C9.02925 10.1394 9.10505 10.1325 9.17727 10.111C9.24918 10.0895 9.31611 10.054 9.37418 10.0065L8.67212 4.88321ZM7.00002 5.50005C6.60219 5.50005 6.22066 5.65808 5.93935 5.93938C5.65805 6.22069 5.50002 6.60222 5.50002 7.00004C5.50002 7.39787 5.65805 7.7794 5.93935 8.06071C6.22066 8.34201 6.60219 8.50005 7.00002 8.50005C7.39784 8.50005 7.77937 8.34201 8.06068 8.06071C8.34198 7.7794 8.50001 7.39787 8.50001 7.00004C8.50001 6.60222 8.34198 6.22069 8.06068 5.93938C7.77937 5.65808 7.39784 5.50005 7.00002 5.50005Z" fill="#257AA0" stroke="#257AA0" stroke-width="0.2"/>
</svg>
