<svg width="22" height="22" viewBox="0 0 22 22" fill="none" xmlns="http://www.w3.org/2000/svg">
<path d="M1.3334 0.600098C1.10354 0.600098 0.883104 0.691407 0.720573 0.853939C0.558041 1.01647 0.466732 1.23691 0.466732 1.46676C0.466914 1.54516 0.477733 1.62318 0.498893 1.69867C0.500009 1.70205 0.500839 1.70552 0.501343 1.70904L1.25253 6.96736C1.30195 7.31326 1.14834 7.6568 0.857615 7.85062C0.147083 8.32431 0.424781 9.42785 1.27489 9.50881L6.48069 10.0046C7.68761 10.1195 7.68762 11.8806 6.48069 11.9956L1.27491 12.4914C0.424797 12.5723 0.147095 13.6759 0.857633 14.1496C1.14835 14.3434 1.30196 14.6869 1.25256 15.0328L0.500586 20.2981C0.478548 20.3746 0.467156 20.4538 0.466732 20.5334C0.466732 20.7633 0.558041 20.9837 0.720573 21.1463C0.883104 21.3088 1.10354 21.4001 1.3334 21.4001C1.44823 21.3995 1.5618 21.376 1.66749 21.3311C1.66813 21.3309 1.66888 21.331 1.66937 21.3315C1.6699 21.332 1.67069 21.3322 1.67135 21.3318L1.70749 21.3138L1.72611 21.3053C1.73121 21.3025 1.73629 21.2997 1.74134 21.2968L20.737 11.7999C20.738 11.7993 20.7389 11.7985 20.7394 11.7974C20.74 11.7963 20.7409 11.7954 20.7421 11.7949C20.8973 11.7282 21.0296 11.6177 21.1228 11.4768C21.2164 11.3354 21.2664 11.1697 21.2667 11.0001C21.2666 10.8301 21.2165 10.6638 21.1226 10.522C21.0288 10.3805 20.8955 10.2696 20.7392 10.2031C20.7389 10.2029 20.7386 10.2026 20.7386 10.2022C20.7386 10.2016 20.7382 10.2011 20.7376 10.2011H20.7372C20.737 10.2011 20.7368 10.2011 20.7366 10.201L1.74811 0.706739C1.72283 0.692465 1.69684 0.679471 1.67025 0.667807C1.56361 0.622983 1.44907 0.599961 1.3334 0.600098Z" fill="#B86D19"/>
</svg>
