<svg width="26" height="26" viewBox="0 0 26 26" fill="none" xmlns="http://www.w3.org/2000/svg">
<path d="M21.2004 14.2361C20.8142 13.9528 20.5834 13.4978 20.5834 13.0184C20.5834 12.539 20.8142 12.084 21.1999 11.8013L22.9841 10.4931C23.2685 10.2841 23.386 9.91627 23.275 9.58098C22.8156 8.20081 22.0893 6.94198 21.1154 5.8386C20.8808 5.57427 20.5027 5.49085 20.1794 5.63277L18.1703 6.51623C17.7326 6.70906 17.2229 6.68144 16.8075 6.44148C16.3926 6.20206 16.1141 5.77523 16.0616 5.2991L15.82 3.09344C15.7816 2.74244 15.5205 2.45644 15.1749 2.38548C13.7682 2.09785 12.29 2.09298 10.8584 2.38006C10.5106 2.44994 10.249 2.73594 10.2105 3.08856L9.9711 5.28014C9.91856 5.75681 9.64014 6.18364 9.22414 6.42306C8.80923 6.66248 8.30114 6.69119 7.86185 6.49781L5.84198 5.60948C5.52131 5.46756 5.14214 5.54989 4.9076 5.81369C3.93043 6.91273 3.20081 8.16994 2.7366 9.54902C2.62393 9.88377 2.74093 10.2537 3.02639 10.4634L4.79927 11.7634C5.18602 12.0472 5.41677 12.5022 5.41677 12.9816C5.41677 13.4609 5.18602 13.9159 4.80035 14.1987L3.0161 15.5068C2.73173 15.7159 2.61418 16.0837 2.72523 16.419C3.18456 17.7991 3.91093 19.058 4.88485 20.1614C5.11939 20.4262 5.49856 20.5102 5.82085 20.3672L7.82989 19.4837C8.26756 19.2909 8.77673 19.3185 9.19273 19.5585C9.60764 19.7979 9.88606 20.2247 9.9386 20.7008L10.1802 22.9065C10.2186 23.2575 10.4797 23.5435 10.8253 23.6145C11.5371 23.7596 12.2683 23.8333 13.0001 23.8333C13.714 23.8333 14.4344 23.7613 15.1413 23.6194C15.4891 23.5495 15.7507 23.2635 15.7891 22.9109L16.0291 20.7193C16.0816 20.2426 16.3601 19.8158 16.7761 19.5763C17.191 19.3375 17.6996 19.3093 18.1384 19.5016L20.1582 20.3899C20.48 20.5324 20.8581 20.4501 21.0926 20.1857C22.0698 19.0867 22.7994 17.8295 23.2636 16.4504C23.3763 16.1156 23.2593 15.7457 22.9738 15.5361L21.2004 14.2361ZM13.0001 16.7916C10.906 16.7916 9.20844 15.0941 9.20844 13C9.20844 10.9059 10.906 9.20831 13.0001 9.20831C15.0942 9.20831 16.7918 10.9059 16.7918 13C16.7918 15.0941 15.0942 16.7916 13.0001 16.7916Z" fill="black"/>
</svg>
