<svg width="19" height="19" viewBox="0 0 19 19" fill="none" xmlns="http://www.w3.org/2000/svg">
<path d="M14.7422 0.492189C14.4369 0.492263 14.1621 0.6774 14.0473 0.960334C13.9325 1.24327 14.0007 1.56753 14.2197 1.78027L15.4395 3H14.75C8.82169 3 4 7.8217 4 13.75C3.99617 14.0205 4.13828 14.2721 4.3719 14.4084C4.60553 14.5448 4.89447 14.5448 5.1281 14.4084C5.36172 14.2721 5.50383 14.0205 5.5 13.75C5.5 8.63231 9.63231 4.5 14.75 4.5H15.4395L14.2197 5.71973C14.0238 5.90784 13.9449 6.18718 14.0134 6.45C14.0819 6.71283 14.2872 6.91808 14.55 6.9866C14.8128 7.05512 15.0922 6.9762 15.2803 6.78027L17.7158 4.34473C17.9016 4.20225 18.0102 3.9812 18.0094 3.74708C18.0087 3.51296 17.8986 3.29262 17.7119 3.15137L15.2803 0.719727C15.139 0.574276 14.9449 0.492196 14.7422 0.492188L14.7422 0.492189ZM3.25 0.500001C1.46403 0.500001 0 1.96403 0 3.75V15.25C0 17.036 1.46403 18.5 3.25 18.5H14.75C16.536 18.5 18 17.036 18 15.25V11.25C18.0038 10.9795 17.8617 10.7279 17.6281 10.5916C17.3945 10.4552 17.1055 10.4552 16.8719 10.5916C16.6383 10.7279 16.4962 10.9795 16.5 11.25V15.25C16.5 16.225 15.725 17 14.75 17H3.25C2.27497 17 1.5 16.225 1.5 15.25V3.75C1.5 2.77497 2.27497 2 3.25 2H7.25C7.52048 2.00383 7.77206 1.86172 7.90842 1.6281C8.04477 1.39447 8.04477 1.10553 7.90842 0.871905C7.77206 0.638282 7.52048 0.496175 7.25 0.5L3.25 0.500001Z" fill="white"/>
</svg>
