<svg width="32" height="32" viewBox="0 0 32 32" fill="none" xmlns="http://www.w3.org/2000/svg">
<path d="M15.9996 2.66626C12.4634 2.66626 9.07199 4.07102 6.5715 6.5715C4.07102 9.07199 2.66626 12.4634 2.66626 15.9996C2.66626 19.5358 4.07102 22.9272 6.5715 25.4277C9.07199 27.9282 12.4634 29.3329 15.9996 29.3329C19.5358 29.3329 22.9272 27.9282 25.4277 25.4277C27.9282 22.9272 29.3329 19.5358 29.3329 15.9996C29.3329 12.4634 27.9282 9.07199 25.4277 6.5715C22.9272 4.07102 19.5358 2.66626 15.9996 2.66626V2.66626Z" fill="#29B6F6"/>
<path d="M8.74259 15.9524C13.1785 13.7222 18.9188 11.0031 19.7112 10.6267C21.7897 9.64169 22.4275 9.83047 22.1095 12.0119C21.8811 13.5798 21.2222 18.7708 20.697 22.0018C20.3853 23.9178 19.6861 24.1449 18.5867 23.3159C18.058 22.917 15.3893 20.9002 14.8101 20.4266C14.2814 19.995 13.5522 19.4759 14.4667 18.4533C14.7921 18.0891 16.9254 15.7612 18.5874 13.9493C18.8052 13.7113 18.5316 13.3204 18.2803 13.5112C16.0402 15.209 12.9342 17.5655 12.5389 17.8725C11.9417 18.3359 11.3682 18.5485 10.3386 18.2105C9.56073 17.9551 8.80083 17.6506 8.50506 17.5344C7.36609 17.0875 7.63645 16.5087 8.74259 15.9524Z" fill="white"/>
</svg>
