<svg width="20" height="20" viewBox="0 0 20 20" fill="none" xmlns="http://www.w3.org/2000/svg">
<path d="M20.001 6.6084C20.002 5.7252 19.5793 4.85609 18.7949 4.32422L18.4346 4.08105C18.4741 4.29805 18.5 4.51864 18.5 4.74414C18.5 5.17664 18.4258 5.6037 18.2783 6.0127L15.9414 12.498L15.2197 14.499L19.5283 8.14355C19.8474 7.67293 20.0003 7.13831 20.001 6.6084ZM17.4971 4.86328C17.5482 3.69256 16.8407 2.57192 15.6816 2.1543L14.709 1.80371C14.896 2.24871 15 2.7375 15 3.25V12.1582L17.3369 5.67383C17.4333 5.40636 17.4853 5.13345 17.4971 4.86328ZM14 3.25C14 1.74011 12.7599 0.5 11.25 0.5L2.75 0.5C1.24011 0.5 -1.90735e-06 1.74011 -1.90735e-06 3.25V16.75C-1.90735e-06 18.2599 1.24011 19.5 2.75 19.5H11.25C12.7599 19.5 14 18.2599 14 16.75V3.25ZM12.5 3.25V13L1.5 13V3.25C1.5 2.55089 2.05088 2 2.75 2L11.25 2C11.9491 2 12.5 2.55089 12.5 3.25ZM12.5 14.5V16.75C12.5 17.4491 11.9491 18 11.25 18H2.75C2.05088 18 1.5 17.4491 1.5 16.75V14.5L12.5 14.5Z" fill="#5D717A"/>
</svg>
