<svg width="27" height="26" viewBox="0 0 27 26" fill="none" xmlns="http://www.w3.org/2000/svg">
<path d="M12.6335 1.7334C12.1551 1.7334 11.7668 2.12167 11.7668 2.60007V3.63262C7.3373 4.45162 3.9668 8.3379 3.9668 13.0001C3.9668 18.2549 8.24528 22.5334 13.5001 22.5334C18.755 22.5334 23.0335 18.2549 23.0335 13.0001C23.0335 8.3379 19.663 4.45162 15.2335 3.63262V2.60007C15.2335 2.12167 14.8452 1.7334 14.3668 1.7334H12.6335ZM20.425 3.45827C20.2526 3.45831 20.0841 3.50978 19.9411 3.60607C19.7981 3.70237 19.6871 3.83913 19.6222 3.99887C19.5573 4.15861 19.5415 4.33406 19.5769 4.5028C19.6123 4.67155 19.6972 4.82591 19.8207 4.94616L20.6874 5.81283C20.7672 5.896 20.8629 5.96241 20.9687 6.00816C21.0746 6.0539 21.1885 6.07807 21.3038 6.07924C21.4191 6.08042 21.5335 6.05857 21.6402 6.01499C21.747 5.9714 21.844 5.90696 21.9255 5.82542C22.007 5.74389 22.0715 5.6469 22.1151 5.54015C22.1586 5.4334 22.1805 5.31902 22.1793 5.20372C22.1781 5.08842 22.154 4.97451 22.1082 4.86866C22.0625 4.76282 21.9961 4.66716 21.9129 4.5873L21.0462 3.72064C20.9655 3.63762 20.8689 3.57162 20.7622 3.52656C20.6555 3.4815 20.5408 3.45827 20.425 3.45827ZM13.5001 5.20007C17.8182 5.20007 21.3001 8.68198 21.3001 13.0001C21.3001 17.3182 17.8182 20.8001 13.5001 20.8001C9.18204 20.8001 5.70013 17.3182 5.70013 13.0001C5.70013 8.68198 9.18204 5.20007 13.5001 5.20007Z" fill="#161616"/>
<path d="M12.8781 7.18443C13.0381 7.01972 13.2568 6.9252 13.4864 6.92161C13.6023 6.9198 13.7175 6.94128 13.825 6.98476C13.9325 7.02825 14.0301 7.09287 14.1122 7.17479C14.1943 7.2567 14.2591 7.35426 14.3028 7.46167C14.3465 7.56909 14.3682 7.68418 14.3666 7.80013V11.5004C14.6299 11.6524 14.8486 11.871 15.0007 12.1342C15.1528 12.3975 15.233 12.6961 15.2333 13.0001C15.2327 13.3039 15.1524 13.6021 15.0003 13.8651C14.8482 14.128 14.6297 14.3463 14.3666 14.4982V15.6001C14.3682 15.715 14.347 15.829 14.3042 15.9356C14.2614 16.0421 14.1978 16.1391 14.1171 16.2209C14.0365 16.3027 13.9404 16.3677 13.8345 16.412C13.7285 16.4563 13.6148 16.4791 13.4999 16.4791C13.3851 16.4791 13.2714 16.4563 13.1654 16.412C13.0595 16.3677 12.9634 16.3027 12.8827 16.2209C12.8021 16.1391 12.7385 16.0421 12.6957 15.9356C12.6529 15.829 12.6316 15.715 12.6333 15.6001V14.4999C12.37 14.3479 12.1513 14.1293 11.9992 13.866C11.847 13.6028 11.7668 13.3042 11.7666 13.0001C11.7671 12.6964 11.8475 12.3981 11.9996 12.1352C12.1517 11.8723 12.3702 11.654 12.6333 11.5021V7.80013C12.6301 7.57057 12.7182 7.34913 12.8781 7.18443Z" fill="#161616"/>
</svg>
