<svg width="27" height="26" viewBox="0 0 27 26" fill="none" xmlns="http://www.w3.org/2000/svg">
<path d="M12.6335 1.7334C12.1551 1.7334 11.7668 2.12167 11.7668 2.60006V3.63262C7.3373 4.45162 3.9668 8.3379 3.9668 13.0001C3.9668 18.2549 8.24528 22.5334 13.5001 22.5334C18.755 22.5334 23.0335 18.2549 23.0335 13.0001C23.0335 8.3379 19.663 4.45162 15.2335 3.63262V2.60006C15.2335 2.12167 14.8452 1.7334 14.3668 1.7334H12.6335ZM20.425 3.45827C20.2526 3.45831 20.0841 3.50978 19.9411 3.60607C19.7981 3.70237 19.6871 3.83913 19.6222 3.99887C19.5573 4.15861 19.5415 4.33406 19.5769 4.5028C19.6123 4.67155 19.6972 4.82591 19.8207 4.94616L20.6874 5.81283C20.7672 5.896 20.8629 5.96241 20.9687 6.00816C21.0746 6.0539 21.1885 6.07807 21.3038 6.07924C21.4191 6.08042 21.5335 6.05857 21.6402 6.01499C21.747 5.9714 21.844 5.90696 21.9255 5.82542C22.007 5.74389 22.0715 5.6469 22.1151 5.54015C22.1586 5.4334 22.1805 5.31902 22.1793 5.20372C22.1781 5.08841 22.154 4.97451 22.1082 4.86866C22.0625 4.76282 21.9961 4.66716 21.9129 4.5873L21.0462 3.72064C20.9655 3.63762 20.8689 3.57162 20.7622 3.52656C20.6555 3.4815 20.5408 3.45827 20.425 3.45827ZM13.5001 5.20006C17.8182 5.20006 21.3001 8.68198 21.3001 13.0001C21.3001 17.3181 17.8182 20.8001 13.5001 20.8001C9.18204 20.8001 5.70013 17.3181 5.70013 13.0001C5.70013 8.68198 9.18204 5.20006 13.5001 5.20006Z" fill="#161616"/>
<path d="M13.5 6C12.1273 6 10.7899 6.43456 9.6794 7.24139C8.56889 8.04822 7.74231 9.18591 7.31813 10.4914C6.89396 11.7969 6.89396 13.2031 7.31813 14.5086C7.74231 15.8141 8.56889 16.9518 9.6794 17.7586C10.7899 18.5654 12.1273 19 13.5 19C14.8727 19 16.2101 18.5654 17.3206 17.7586C18.4311 16.9518 19.2577 15.8141 19.6819 14.5086C20.106 13.2031 20.106 11.7969 19.6819 10.4914L15.1073 11.9778C15.2176 12.3172 15.2176 12.6828 15.1073 13.0222C14.997 13.3617 14.7821 13.6575 14.4934 13.8672C14.2046 14.077 13.8569 14.19 13.5 14.19C13.1431 14.19 12.7954 14.077 12.5066 13.8672C12.2179 13.6575 12.003 13.3617 11.8927 13.0222C11.7824 12.6828 11.7824 12.3172 11.8927 11.9778C12.003 11.6383 12.2179 11.3425 12.5066 11.1328C12.7954 10.923 13.1431 10.81 13.5 10.81V6Z" fill="#161616" opacity="0.36"/>
</svg>
