<svg width="32" height="32" viewBox="0 0 32 32" fill="none" xmlns="http://www.w3.org/2000/svg">
<path d="M29.3329 14.1256C29.3329 10.4586 28.5329 7.60054 26.5329 5.57829C23.6796 2.93589 18.9863 2.66626 15.9996 2.66626C13.0129 2.66626 8.31959 2.93589 5.46626 5.57829C3.46626 7.60054 2.66626 10.4586 2.66626 14.1256C2.66626 14.4222 2.66626 17.55 2.66626 17.8735C2.66626 21.5405 3.46626 24.3717 5.46626 26.4209C8.31959 29.0363 13.0129 29.3329 15.9996 29.3329C18.9863 29.3329 23.6796 29.0633 26.5329 26.4209C28.5329 24.3986 29.3329 21.5405 29.3329 17.8735C29.3329 17.55 29.3329 14.4222 29.3329 14.1256Z" fill="#6F58A1"/>
<path d="M22.2928 20.1331C21.5462 19.5198 21.1995 19.3331 20.1862 18.7198C19.7595 18.4531 19.1195 18.2398 18.7728 18.2398C18.5328 18.2398 18.2662 18.4265 18.0795 18.5865C17.6528 19.0131 17.5195 19.5465 16.7462 19.5465C15.9995 19.5465 14.6928 18.7998 13.7595 17.8131C12.7728 16.8798 11.9995 15.5465 11.9995 14.7998C11.9995 14.0265 12.5328 13.8931 12.9862 13.4398C13.1462 13.2798 13.3328 13.0131 13.3328 12.7731C13.3328 12.4265 13.1195 11.7865 12.8528 11.3598C12.2395 10.3465 12.0528 9.9998 11.4395 9.25313C11.2262 9.01314 10.9862 8.90647 10.7195 8.8798C10.2928 8.8798 9.73282 9.09313 9.35949 9.3598C8.79949 9.81313 8.18616 10.3998 8.02616 11.1198C8.02616 11.1998 7.99949 11.3065 7.99949 11.4131C7.97282 12.1598 8.26616 12.9065 8.58616 13.5465C9.33282 15.0665 10.3195 16.5598 11.4128 17.8665C11.7328 18.2931 12.1328 18.6665 12.5062 19.0398C12.8795 19.4398 13.2795 19.8131 13.7062 20.1598C15.0128 21.2265 16.4795 22.2398 17.9995 22.9865C18.6395 23.3065 19.3862 23.5998 20.1328 23.5731C20.2395 23.5731 20.3462 23.5465 20.4528 23.5465C21.1728 23.3865 21.7595 22.7998 22.1862 22.2131C22.4528 21.8131 22.6662 21.2531 22.6662 20.8265C22.6662 20.5865 22.5595 20.3465 22.2928 20.1331ZM22.6662 16.8798C22.2928 16.8798 21.9995 16.5865 21.9995 16.2131V15.5465C21.9995 12.2398 19.3062 9.54647 15.9995 9.54647C15.6262 9.54647 15.3328 9.25313 15.3328 8.8798C15.3328 8.50647 15.6262 8.21313 15.9995 8.21313C20.0528 8.21313 23.3328 11.4931 23.3328 15.5465V16.2131C23.3328 16.5865 23.0395 16.8798 22.6662 16.8798ZM18.5595 15.5465C18.2662 15.5465 17.9995 15.3598 17.9195 15.0398C17.7328 14.3731 17.1995 13.8131 16.5062 13.6265C16.1595 13.5465 15.9462 13.1731 16.0262 12.8265C16.1062 12.4798 16.4795 12.2665 16.8262 12.3465C17.9995 12.6398 18.9062 13.5731 19.1995 14.7198C19.2795 15.0665 19.0662 15.4398 18.7195 15.5198C18.6928 15.5465 18.6395 15.5465 18.5595 15.5465Z" fill="white"/>
<path d="M20.6668 16.2133C20.2935 16.2133 20.0001 15.92 20.0001 15.5467C20.0001 13.4133 18.3468 11.68 16.2135 11.5467C15.8402 11.5467 15.5735 11.2267 15.5735 10.88C15.6002 10.5067 15.9202 10.24 16.2668 10.24C19.1202 10.4 21.3335 12.72 21.3335 15.5467C21.3335 15.92 21.0401 16.2133 20.6668 16.2133Z" fill="white"/>
</svg>
