<svg width="32" height="32" viewBox="0 0 32 32" fill="none" xmlns="http://www.w3.org/2000/svg">
<path d="M15.9996 2.66626C8.64521 2.66626 2.66626 8.64521 2.66626 15.9996C2.66626 23.354 8.64521 29.3329 15.9996 29.3329C23.354 29.3329 29.3329 23.354 29.3329 15.9996C29.3329 8.64521 23.354 2.66626 15.9996 2.66626Z" fill="#54B153"/>
<path fill-rule="evenodd" clip-rule="evenodd" d="M12.6599 10.4142C12.4073 9.85278 12.1546 9.85278 11.902 9.85278C11.7055 9.85278 11.481 9.85278 11.2564 9.85278C11.0318 9.85278 10.695 9.93699 10.3862 10.2738C10.0775 10.5826 9.23535 11.3966 9.23535 13.0247C9.23535 14.6528 10.4424 16.2528 10.5827 16.4773C10.7231 16.7019 12.8845 20.1545 16.281 21.5019C19.088 22.5966 19.6775 22.4002 20.2669 22.344C20.8845 22.2879 22.2318 21.53 22.5125 20.7721C22.7932 20.0142 22.7932 19.3405 22.709 19.2002C22.6248 19.0317 22.4003 18.9475 22.0634 18.7791C21.7546 18.6107 20.0985 17.8247 19.7897 17.7124C19.481 17.6002 19.2845 17.544 19.0599 17.8809C18.8354 18.1896 18.1897 18.9475 17.9932 19.1721C17.7968 19.3966 17.6003 19.4247 17.2634 19.2563C16.9546 19.0879 15.8599 18.751 14.5968 17.6002C13.6143 16.73 12.9406 15.6352 12.7441 15.2984C12.5476 14.9616 12.7161 14.7931 12.8845 14.6247C13.0529 14.4563 13.2213 14.2317 13.3897 14.0352C13.5582 13.8387 13.6143 13.6984 13.7266 13.4738C13.8389 13.2493 13.7827 13.0528 13.6985 12.8844C13.6143 12.744 12.9687 11.0879 12.6599 10.4142Z" fill="white"/>
</svg>
