<svg width="24" height="24" viewBox="0 0 24 24" fill="none" xmlns="http://www.w3.org/2000/svg">
<path d="M7 1C6.448 1 6 1.448 6 2V3H5C3.9 3 3 3.9 3 5V19C3 20.1 3.9 21 5 21H11.0801C11.5931 21 12.0245 20.6077 12.0645 20.0957C12.0655 20.0877 12.0654 20.0783 12.0664 20.0703C12.1104 19.4943 11.659 19 11.082 19H5V8H19V10C19 10.552 19.448 11 20 11C20.552 11 21 10.552 21 10V5C21 3.9 20.1 3 19 3H18V2C18 1.448 17.552 1 17 1C16.448 1 16 1.448 16 2V3H8V2C8 1.448 7.552 1 7 1ZM20 13C19.448 13 19 13.448 19 14V16V17.3555C18.5428 17.135 18.038 17 17.5 17C15.5788 17 14 18.5788 14 20.5C14 22.4212 15.5788 24 17.5 24C19.4212 24 21 22.4212 21 20.5V16H23C23.552 16 24 15.552 24 15V14C24 13.448 23.552 13 23 13H20ZM17.5 19C18.3403 19 19 19.6597 19 20.5C19 21.3403 18.3403 22 17.5 22C16.6597 22 16 21.3403 16 20.5C16 19.6597 16.6597 19 17.5 19Z" fill="#0097FF"/>
</svg>
