<svg width="28" height="28" viewBox="0 0 28 28" fill="none" xmlns="http://www.w3.org/2000/svg">
<path fill-rule="evenodd" clip-rule="evenodd" d="M14 4.5C6.91998 4.5 1.16998 10.26 1.16998 17.33C1.16998 19.59 1.75998 21.8 2.88998 23.75C3.09998 24.11 3.47998 24.33 3.89998 24.33H24.11C24.53 24.33 24.91 24.11 25.12 23.75C26.24 21.81 26.84 19.59 26.84 17.33C26.83 10.26 21.08 4.5 14 4.5ZM5.83002 21.42C5.83002 22.06 6.35002 22.59 7.00002 22.59C7.65002 22.59 8.17002 22.07 8.17002 21.42C8.17002 20.78 7.65002 20.25 7.00002 20.25C6.35002 20.25 5.83002 20.77 5.83002 21.42ZM4.65997 17.34C4.65997 16.69 5.18997 16.17 5.82997 16.17C6.47997 16.17 6.99997 16.69 6.99997 17.33C6.99997 17.98 6.47997 18.51 5.82997 18.51C5.17997 18.51 4.65997 17.98 4.65997 17.34ZM8.75 10.33C8.75 10.97 9.27 11.5 9.92 11.5C10.56 11.5 11.09 10.98 11.09 10.33C11.09 9.69 10.57 9.16 9.92 9.16C9.27 9.17 8.75 9.69 8.75 10.33ZM14 8C14.64 8 15.17 8.52 15.17 9.17C15.17 9.81 14.65 10.34 14 10.34C13.35 10.34 12.83 9.82 12.83 9.17C12.83 8.52 13.36 8 14 8ZM19.18 10.33C19.18 9.69 18.66 9.16 18.01 9.16C17.36 9.16 16.84 9.68 16.84 10.33C16.84 10.97 17.36 11.5 18.01 11.5C18.66 11.5 19.18 10.98 19.18 10.33ZM21 14.42C20.35 14.42 19.83 13.89 19.83 13.25C19.83 12.61 20.36 12.08 21 12.08C21.65 12.08 22.17 12.6 22.17 13.25C22.17 13.9 21.64 14.42 21 14.42ZM21 17.33C21 17.97 21.52 18.5 22.17 18.5C22.81 18.5 23.34 17.98 23.34 17.33C23.34 16.69 22.82 16.16 22.17 16.16C21.52 16.17 21 16.69 21 17.33ZM21 22.59C20.35 22.59 19.83 22.06 19.83 21.42C19.83 20.77 20.36 20.25 21 20.25C21.65 20.25 22.17 20.78 22.17 21.42C22.17 22.07 21.64 22.59 21 22.59ZM12.8169 15.3223C13.1637 15.1175 13.5681 15 14 15C15.2868 15 16.33 16.0432 16.33 17.33C16.33 18.6168 15.2868 19.66 14 19.66C12.7132 19.66 11.67 18.6168 11.67 17.33C11.67 17.3134 11.6702 17.2968 11.6705 17.2802C11.6703 17.2802 11.6702 17.2801 11.67 17.28C11.6512 17.2737 11.6363 17.2635 11.6229 17.2543L11.6229 17.2543C11.6149 17.2488 11.6075 17.2437 11.6 17.24C11.5812 17.2337 11.5663 17.2235 11.5529 17.2143L11.5529 17.2143C11.5449 17.2088 11.5375 17.2037 11.53 17.2C11.5112 17.1937 11.4963 17.1835 11.4829 17.1743L11.4829 17.1743C11.4749 17.1688 11.4675 17.1637 11.46 17.16C11.4412 17.1537 11.4263 17.1435 11.4129 17.1343L11.4129 17.1343C11.4049 17.1288 11.3975 17.1237 11.39 17.12C11.3712 17.1137 11.3563 17.1035 11.3429 17.0943C11.3349 17.0888 11.3275 17.0837 11.32 17.08C11.3012 17.0737 11.2863 17.0635 11.2729 17.0543L11.2729 17.0543C11.2649 17.0488 11.2575 17.0437 11.25 17.04C11.2312 17.0337 11.2163 17.0235 11.2029 17.0143L11.2029 17.0143C11.1949 17.0088 11.1875 17.0037 11.18 17C11.1612 16.9937 11.1463 16.9835 11.1329 16.9743C11.1249 16.9688 11.1175 16.9637 11.11 16.96C11.0912 16.9537 11.0763 16.9435 11.0629 16.9343L11.0629 16.9343C11.0549 16.9288 11.0475 16.9237 11.04 16.92C11.0212 16.9137 11.0063 16.9035 10.9929 16.8943L10.9929 16.8943C10.9849 16.8888 10.9775 16.8837 10.97 16.88C10.9512 16.8737 10.9363 16.8635 10.9229 16.8543C10.9149 16.8488 10.9075 16.8437 10.9 16.84C10.8812 16.8337 10.8663 16.8235 10.8529 16.8143L10.8529 16.8143C10.8449 16.8088 10.8375 16.8037 10.83 16.8C10.8112 16.7937 10.7963 16.7835 10.7829 16.7743L10.7829 16.7743C10.7749 16.7688 10.7675 16.7637 10.76 16.76C10.7412 16.7537 10.7263 16.7435 10.7129 16.7343C10.7049 16.7288 10.6975 16.7237 10.69 16.72C10.6712 16.7137 10.6563 16.7035 10.6429 16.6943C10.6349 16.6888 10.6275 16.6837 10.62 16.68C10.6012 16.6737 10.5863 16.6635 10.5729 16.6543L10.5729 16.6543C10.5649 16.6488 10.5575 16.6437 10.55 16.64C10.5312 16.6337 10.5163 16.6235 10.5029 16.6143L10.5029 16.6143C10.4949 16.6088 10.4875 16.6037 10.48 16.6C10.4612 16.5937 10.4463 16.5835 10.4329 16.5743C10.4249 16.5688 10.4175 16.5637 10.41 16.56C10.3912 16.5537 10.3763 16.5435 10.3629 16.5343L10.3629 16.5343C10.3549 16.5288 10.3475 16.5237 10.34 16.52C10.3212 16.5137 10.3063 16.5035 10.2929 16.4943C10.2849 16.4888 10.2775 16.4837 10.27 16.48C10.2512 16.4737 10.2363 16.4635 10.2229 16.4543L10.2229 16.4543C10.2149 16.4488 10.2075 16.4437 10.2 16.44C10.1812 16.4337 10.1663 16.4235 10.1529 16.4143L10.1529 16.4143C10.1449 16.4088 10.1375 16.4037 10.13 16.4C10.1112 16.3937 10.0963 16.3835 10.0829 16.3743L10.0829 16.3743C10.0749 16.3688 10.0675 16.3637 10.06 16.36C10.0412 16.3537 10.0263 16.3435 10.0129 16.3343C10.0049 16.3288 9.99746 16.3237 9.99002 16.32C9.97119 16.3137 9.9563 16.3035 9.94287 16.2943C9.93491 16.2888 9.92746 16.2837 9.92002 16.28C9.90119 16.2737 9.8863 16.2635 9.87287 16.2543L9.87286 16.2543C9.8649 16.2488 9.85746 16.2437 9.85002 16.24C9.83119 16.2337 9.81629 16.2235 9.80287 16.2143L9.80286 16.2143C9.7949 16.2088 9.78746 16.2037 9.78002 16.2C9.76119 16.1937 9.74629 16.1835 9.73287 16.1743C9.72491 16.1688 9.71746 16.1637 9.71002 16.16C9.69119 16.1537 9.6763 16.1435 9.66287 16.1343L9.66286 16.1343C9.6549 16.1288 9.64746 16.1237 9.64002 16.12C9.62119 16.1137 9.6063 16.1035 9.59287 16.0943C9.58491 16.0888 9.57746 16.0837 9.57002 16.08C9.55119 16.0737 9.53629 16.0635 9.52287 16.0543L9.52286 16.0543C9.5149 16.0488 9.50746 16.0437 9.50002 16.04C9.48119 16.0337 9.4663 16.0235 9.45287 16.0143L9.45286 16.0143C9.4449 16.0088 9.43746 16.0037 9.43002 16C9.40002 15.99 9.38002 15.97 9.36002 15.93C9.34119 15.9237 9.32629 15.9135 9.31287 15.9043C9.30491 15.8988 9.29746 15.8937 9.29002 15.89C9.27119 15.8837 9.2563 15.8735 9.24287 15.8643L9.24286 15.8643C9.2349 15.8588 9.22746 15.8537 9.22002 15.85C9.20119 15.8437 9.1863 15.8335 9.17288 15.8243L9.17287 15.8243L9.17286 15.8243C9.1649 15.8188 9.15746 15.8137 9.15002 15.81C9.13119 15.8037 9.11629 15.7935 9.10287 15.7843L9.10286 15.7843C9.0949 15.7788 9.08746 15.7737 9.08002 15.77C9.06119 15.7637 9.0463 15.7535 9.03288 15.7443L9.03287 15.7443C9.02491 15.7388 9.01746 15.7337 9.01002 15.73C8.99119 15.7237 8.97629 15.7135 8.96287 15.7043C8.95491 15.6988 8.94746 15.6937 8.94002 15.69C8.92119 15.6837 8.90629 15.6735 8.89287 15.6643L8.89286 15.6643C8.8849 15.6588 8.87746 15.6537 8.87002 15.65C8.85119 15.6437 8.83629 15.6335 8.82287 15.6243C8.81491 15.6188 8.80746 15.6137 8.80002 15.61C8.78119 15.6037 8.76629 15.5935 8.75287 15.5843C8.74491 15.5788 8.73746 15.5737 8.73002 15.57C8.71118 15.5637 8.69629 15.5535 8.68287 15.5443L8.68286 15.5443C8.6749 15.5388 8.66746 15.5337 8.66002 15.53C8.64119 15.5237 8.62629 15.5135 8.61287 15.5043L8.61286 15.5043C8.6049 15.4988 8.59746 15.4937 8.59002 15.49C8.57119 15.4837 8.55629 15.4735 8.54287 15.4643L8.54286 15.4643C8.5349 15.4588 8.52746 15.4537 8.52002 15.45C8.50119 15.4437 8.48629 15.4335 8.47287 15.4243C8.46491 15.4188 8.45746 15.4137 8.45002 15.41C8.43119 15.4037 8.41629 15.3935 8.40287 15.3843L8.40286 15.3843C8.3949 15.3788 8.38746 15.3737 8.38002 15.37C8.36119 15.3637 8.34629 15.3535 8.33287 15.3443L8.33286 15.3443C8.3249 15.3388 8.31746 15.3337 8.31002 15.33C8.29119 15.3237 8.27629 15.3135 8.26287 15.3043C8.25491 15.2988 8.24746 15.2937 8.24002 15.29C8.22119 15.2837 8.20629 15.2735 8.19287 15.2643L8.19286 15.2643C8.1849 15.2588 8.17746 15.2537 8.17002 15.25C8.15119 15.2437 8.13629 15.2335 8.12287 15.2243C8.11491 15.2188 8.10746 15.2137 8.10002 15.21C8.08119 15.2037 8.06629 15.1935 8.05287 15.1843C8.04491 15.1788 8.03746 15.1737 8.03002 15.17C8.01119 15.1637 7.99629 15.1535 7.98287 15.1443L7.98286 15.1443C7.9749 15.1388 7.96746 15.1337 7.96002 15.13C7.94119 15.1237 7.92629 15.1135 7.91287 15.1043C7.90491 15.0988 7.89746 15.0937 7.89002 15.09C7.87119 15.0837 7.85629 15.0735 7.84287 15.0643L7.84286 15.0643C7.8349 15.0588 7.82746 15.0537 7.82002 15.05C7.80119 15.0437 7.78629 15.0335 7.77287 15.0243C7.76491 15.0188 7.75746 15.0137 7.75002 15.01C7.73119 15.0037 7.71629 14.9935 7.70287 14.9843C7.69491 14.9788 7.68746 14.9737 7.68002 14.97C7.66119 14.9637 7.64629 14.9535 7.63287 14.9443L7.63286 14.9443C7.6249 14.9388 7.61746 14.9337 7.61002 14.93C7.59119 14.9237 7.57629 14.9135 7.56287 14.9043C7.55491 14.8988 7.54746 14.8937 7.54002 14.89C7.52119 14.8837 7.50629 14.8735 7.49287 14.8643C7.48491 14.8588 7.47746 14.8537 7.47002 14.85C7.45119 14.8437 7.43629 14.8335 7.42287 14.8243L7.42286 14.8243C7.4149 14.8188 7.40746 14.8137 7.40002 14.81C7.38119 14.8037 7.36629 14.7935 7.35287 14.7843C7.34491 14.7788 7.33746 14.7737 7.33002 14.77C7.31119 14.7637 7.2963 14.7535 7.28288 14.7443L7.28287 14.7443C7.27491 14.7388 7.26746 14.7337 7.26002 14.73C7.24119 14.7237 7.22629 14.7135 7.21287 14.7043C7.20491 14.6988 7.19746 14.6937 7.19002 14.69C7.17119 14.6837 7.15629 14.6735 7.14287 14.6643C7.13491 14.6588 7.12746 14.6537 7.12002 14.65C7.10119 14.6437 7.08629 14.6335 7.07287 14.6243L7.07286 14.6243C7.0649 14.6188 7.05746 14.6137 7.05002 14.61C7.03119 14.6037 7.01629 14.5935 7.00287 14.5843C6.99491 14.5788 6.98746 14.5737 6.98002 14.57C6.96119 14.5637 6.94629 14.5535 6.93287 14.5443C6.92491 14.5388 6.91746 14.5337 6.91002 14.53C6.89119 14.5237 6.87629 14.5135 6.86287 14.5043L6.86286 14.5043C6.8549 14.4988 6.84746 14.4937 6.84002 14.49C6.82119 14.4837 6.80629 14.4735 6.79287 14.4643C6.78491 14.4588 6.77746 14.4537 6.77002 14.45C6.75119 14.4437 6.73629 14.4335 6.72287 14.4243C6.71491 14.4188 6.70746 14.4137 6.70002 14.41C6.68119 14.4037 6.66629 14.3935 6.65287 14.3843L6.65286 14.3843C6.6449 14.3788 6.63746 14.3737 6.63002 14.37C6.61119 14.3637 6.59629 14.3535 6.58287 14.3443C6.57491 14.3388 6.56746 14.3337 6.56002 14.33C6.13002 14.15 5.83002 13.74 5.83002 13.25C5.83002 12.6 6.36002 12.08 7.00002 12.08C7.19002 12.08 7.35002 12.14 7.51002 12.22C7.52885 12.2263 7.54374 12.2365 7.55716 12.2457L7.55717 12.2457C7.56513 12.2512 7.57257 12.2563 7.58002 12.26C7.59885 12.2663 7.61374 12.2765 7.62717 12.2857L7.62717 12.2857C7.63513 12.2912 7.64257 12.2963 7.65002 12.3C7.66885 12.3063 7.68374 12.3165 7.69716 12.3257C7.70513 12.3312 7.71257 12.3363 7.72002 12.34C7.73885 12.3463 7.75374 12.3565 7.76717 12.3657L7.76717 12.3657C7.77513 12.3712 7.78257 12.3763 7.79002 12.38C7.80885 12.3863 7.82374 12.3965 7.83717 12.4057L7.83717 12.4057C7.84513 12.4112 7.85257 12.4163 7.86002 12.42C7.87885 12.4263 7.89374 12.4365 7.90716 12.4457L7.90717 12.4457C7.91513 12.4512 7.92257 12.4563 7.93002 12.46C7.94885 12.4663 7.96374 12.4765 7.97717 12.4857L7.97717 12.4857C7.98513 12.4912 7.99257 12.4963 8.00002 12.5C8.03002 12.51 8.05002 12.53 8.07002 12.55C8.08885 12.5563 8.10374 12.5665 8.11717 12.5757C8.12513 12.5812 8.13257 12.5863 8.14002 12.59C8.15885 12.5963 8.17374 12.6065 8.18716 12.6157L8.18717 12.6157C8.19513 12.6212 8.20257 12.6263 8.21002 12.63C8.22885 12.6363 8.24374 12.6465 8.25716 12.6557L8.25717 12.6557C8.26513 12.6612 8.27257 12.6663 8.28002 12.67C8.29885 12.6763 8.31374 12.6865 8.32717 12.6957C8.33513 12.7012 8.34257 12.7063 8.35002 12.71C8.36885 12.7163 8.38374 12.7265 8.39716 12.7357L8.39717 12.7357C8.40513 12.7412 8.41257 12.7463 8.42002 12.75C8.43885 12.7563 8.45374 12.7665 8.46716 12.7757L8.46717 12.7757C8.47513 12.7812 8.48257 12.7863 8.49002 12.79C8.50885 12.7963 8.52374 12.8065 8.53717 12.8157C8.54513 12.8212 8.55257 12.8263 8.56002 12.83C8.57885 12.8363 8.59374 12.8465 8.60716 12.8557C8.61513 12.8612 8.62257 12.8663 8.63002 12.87C8.64885 12.8763 8.66374 12.8865 8.67716 12.8957L8.67717 12.8957C8.68513 12.9012 8.69257 12.9063 8.70002 12.91C8.71885 12.9163 8.73374 12.9265 8.74717 12.9357C8.75513 12.9412 8.76257 12.9463 8.77002 12.95C8.78885 12.9563 8.80374 12.9665 8.81716 12.9757L8.81717 12.9757C8.82513 12.9812 8.83257 12.9863 8.84002 12.99C8.87002 13 8.89002 13.02 8.91002 13.09C8.92885 13.0963 8.94374 13.1065 8.95716 13.1157L8.95717 13.1157C8.96513 13.1212 8.97257 13.1263 8.98002 13.13C8.99885 13.1363 9.01374 13.1465 9.02716 13.1557C9.03513 13.1612 9.04257 13.1663 9.05002 13.17C9.06885 13.1763 9.08374 13.1865 9.09716 13.1957C9.10513 13.2012 9.11257 13.2063 9.12002 13.21C9.13885 13.2163 9.15374 13.2265 9.16716 13.2357L9.16717 13.2357C9.17513 13.2412 9.18257 13.2463 9.19002 13.25C9.20884 13.2563 9.22373 13.2665 9.23715 13.2757L9.23716 13.2757C9.24512 13.2812 9.25257 13.2863 9.26002 13.29C9.27885 13.2963 9.29374 13.3065 9.30716 13.3157L9.30718 13.3157C9.31514 13.3212 9.32258 13.3263 9.33002 13.33C9.34885 13.3363 9.36374 13.3465 9.37716 13.3557C9.38513 13.3612 9.39257 13.3663 9.40002 13.37C9.41884 13.3763 9.43373 13.3865 9.44715 13.3957L9.44716 13.3957C9.45512 13.4012 9.46257 13.4063 9.47002 13.41C9.48885 13.4163 9.50374 13.4265 9.51716 13.4357L9.51718 13.4357C9.52514 13.4412 9.53258 13.4463 9.54002 13.45C9.55885 13.4563 9.57374 13.4665 9.58716 13.4757C9.59513 13.4812 9.60257 13.4863 9.61002 13.49C9.62884 13.4963 9.64373 13.5065 9.65716 13.5157L9.65716 13.5157C9.66512 13.5212 9.67257 13.5263 9.68002 13.53C9.69885 13.5363 9.71374 13.5465 9.72716 13.5557L9.72718 13.5557C9.73514 13.5612 9.74258 13.5663 9.75002 13.57C9.76885 13.5763 9.78374 13.5865 9.79716 13.5957C9.80513 13.6012 9.81257 13.6063 9.82002 13.61C9.83884 13.6163 9.85373 13.6265 9.86716 13.6357L9.86716 13.6357C9.87512 13.6412 9.88257 13.6463 9.89002 13.65C9.90885 13.6563 9.92374 13.6665 9.93716 13.6757L9.93718 13.6757C9.94514 13.6812 9.95258 13.6863 9.96002 13.69C9.97885 13.6963 9.99374 13.7065 10.0072 13.7157C10.0151 13.7212 10.0226 13.7263 10.03 13.73C10.0488 13.7363 10.0637 13.7465 10.0772 13.7557C10.0851 13.7612 10.0926 13.7663 10.1 13.77C10.1188 13.7763 10.1337 13.7865 10.1472 13.7957C10.1551 13.8012 10.1626 13.8063 10.17 13.81C10.1888 13.8163 10.2037 13.8265 10.2172 13.8357L10.2172 13.8357C10.2251 13.8412 10.2326 13.8463 10.24 13.85C10.2588 13.8563 10.2737 13.8665 10.2872 13.8757L10.2872 13.8757C10.2951 13.8812 10.3026 13.8863 10.31 13.89C10.3288 13.8963 10.3437 13.9065 10.3572 13.9157C10.3651 13.9212 10.3726 13.9263 10.38 13.93C10.3988 13.9363 10.4137 13.9465 10.4272 13.9557L10.4272 13.9557C10.4351 13.9612 10.4426 13.9663 10.45 13.97C10.4688 13.9763 10.4837 13.9865 10.4972 13.9957L10.4972 13.9957C10.5051 14.0012 10.5126 14.0063 10.52 14.01C10.5388 14.0163 10.5537 14.0265 10.5672 14.0357L10.5672 14.0357C10.5751 14.0412 10.5826 14.0463 10.59 14.05C10.6088 14.0563 10.6237 14.0665 10.6372 14.0757L10.6372 14.0757C10.6451 14.0812 10.6526 14.0863 10.66 14.09C10.6788 14.0963 10.6937 14.1065 10.7072 14.1157L10.7072 14.1157C10.7151 14.1212 10.7226 14.1263 10.73 14.13C10.7488 14.1363 10.7637 14.1465 10.7772 14.1557L10.7772 14.1557C10.7851 14.1612 10.7926 14.1663 10.8 14.17C10.8188 14.1763 10.8337 14.1865 10.8472 14.1957L10.8472 14.1957C10.8551 14.2012 10.8626 14.2063 10.87 14.21C10.8888 14.2163 10.9037 14.2265 10.9172 14.2357L10.9172 14.2357C10.9251 14.2412 10.9326 14.2463 10.94 14.25C10.9588 14.2563 10.9737 14.2665 10.9872 14.2757L10.9872 14.2757C10.9951 14.2812 11.0026 14.2863 11.01 14.29C11.0288 14.2963 11.0437 14.3065 11.0572 14.3157C11.0651 14.3212 11.0726 14.3263 11.08 14.33C11.0988 14.3363 11.1137 14.3465 11.1272 14.3557L11.1272 14.3557C11.1351 14.3612 11.1426 14.3663 11.15 14.37C11.1688 14.3763 11.1837 14.3865 11.1972 14.3957L11.1972 14.3957C11.2051 14.4012 11.2126 14.4063 11.22 14.41C11.2388 14.4163 11.2537 14.4265 11.2672 14.4357L11.2672 14.4357C11.2751 14.4412 11.2826 14.4463 11.29 14.45C11.3088 14.4563 11.3237 14.4665 11.3372 14.4757L11.3372 14.4757C11.3451 14.4812 11.3526 14.4863 11.36 14.49C11.3788 14.4963 11.3937 14.5065 11.4072 14.5157L11.4072 14.5157C11.4151 14.5212 11.4226 14.5263 11.43 14.53C11.4488 14.5363 11.4637 14.5465 11.4772 14.5557L11.4772 14.5557C11.4851 14.5612 11.4926 14.5663 11.5 14.57C11.5188 14.5763 11.5337 14.5865 11.5472 14.5957L11.5472 14.5957C11.5551 14.6012 11.5626 14.6063 11.57 14.61C11.5888 14.6163 11.6037 14.6265 11.6172 14.6357L11.6172 14.6357C11.6251 14.6412 11.6326 14.6463 11.64 14.65C11.6588 14.6563 11.6737 14.6665 11.6872 14.6757C11.6951 14.6812 11.7026 14.6863 11.71 14.69C11.7288 14.6963 11.7437 14.7065 11.7572 14.7157L11.7572 14.7157C11.7651 14.7212 11.7726 14.7263 11.78 14.73C11.7988 14.7363 11.8137 14.7465 11.8272 14.7557C11.8351 14.7612 11.8426 14.7663 11.85 14.77C11.8688 14.7763 11.8837 14.7865 11.8972 14.7957L11.8972 14.7957C11.9051 14.8012 11.9126 14.8063 11.92 14.81C11.9388 14.8163 11.9537 14.8265 11.9672 14.8357C11.9751 14.8412 11.9826 14.8463 11.99 14.85C12.0088 14.8563 12.0237 14.8665 12.0372 14.8757L12.0372 14.8757C12.0451 14.8812 12.0526 14.8863 12.06 14.89C12.0788 14.8963 12.0937 14.9065 12.1072 14.9157L12.1072 14.9157C12.1151 14.9212 12.1226 14.9263 12.13 14.93C12.1488 14.9363 12.1637 14.9465 12.1772 14.9557L12.1772 14.9557C12.1851 14.9612 12.1926 14.9663 12.2 14.97C12.2188 14.9763 12.2337 14.9865 12.2472 14.9957L12.2472 14.9957C12.2551 15.0012 12.2626 15.0063 12.27 15.01C12.2888 15.0163 12.3037 15.0265 12.3172 15.0357L12.3172 15.0357C12.3251 15.0412 12.3326 15.0463 12.34 15.05C12.3588 15.0563 12.3737 15.0665 12.3872 15.0757C12.3951 15.0812 12.4026 15.0863 12.41 15.09C12.4288 15.0963 12.4437 15.1065 12.4572 15.1157L12.4572 15.1157C12.4651 15.1212 12.4726 15.1263 12.48 15.13C12.4988 15.1363 12.5137 15.1465 12.5272 15.1557L12.5272 15.1557C12.5351 15.1612 12.5426 15.1663 12.55 15.17C12.5688 15.1763 12.5837 15.1865 12.5972 15.1957L12.5972 15.1957C12.6051 15.2012 12.6126 15.2063 12.62 15.21C12.6388 15.2163 12.6537 15.2265 12.6672 15.2357L12.6672 15.2357C12.6751 15.2412 12.6826 15.2463 12.69 15.25C12.7088 15.2563 12.7237 15.2665 12.7372 15.2757L12.7372 15.2757C12.7451 15.2812 12.7526 15.2863 12.76 15.29C12.7788 15.2963 12.7937 15.3065 12.8072 15.3157L12.8072 15.3157C12.8105 15.318 12.8137 15.3202 12.8169 15.3223Z" fill="#CBD3DB"/>
<path fill-rule="evenodd" clip-rule="evenodd" d="M15.33 17.33C15.33 18.0645 14.7345 18.66 14 18.66C13.2654 18.66 12.67 18.0645 12.67 17.33C12.67 16.5955 13.2654 16 14 16C14.7345 16 15.33 16.5955 15.33 17.33Z" fill="#0097FF"/>
</svg>
