<svg width="28" height="28" viewBox="0 0 28 28" fill="none" xmlns="http://www.w3.org/2000/svg">
<path fill-rule="evenodd" clip-rule="evenodd" d="M14 4.5C6.91998 4.5 1.16998 10.26 1.16998 17.33C1.16998 19.59 1.75998 21.8 2.88998 23.75C3.09998 24.11 3.47998 24.33 3.89998 24.33H24.11C24.53 24.33 24.91 24.11 25.12 23.75C26.24 21.81 26.84 19.59 26.84 17.33C26.83 10.26 21.08 4.5 14 4.5ZM5.83002 21.42C5.83002 22.06 6.35002 22.59 7.00002 22.59C7.65002 22.59 8.17002 22.07 8.17002 21.42C8.17002 20.78 7.65002 20.25 7.00002 20.25C6.35002 20.25 5.83002 20.77 5.83002 21.42ZM4.65997 17.34C4.65997 16.69 5.18997 16.17 5.82997 16.17C6.47997 16.17 6.99997 16.69 6.99997 17.33C6.99997 17.98 6.47997 18.51 5.82997 18.51C5.17997 18.51 4.65997 17.98 4.65997 17.34ZM5.83002 13.25C5.83002 13.89 6.35002 14.42 7.00002 14.42C7.65002 14.42 8.17002 13.9 8.17002 13.25C8.17002 12.6 7.64002 12.08 7.00002 12.08C6.36002 12.08 5.83002 12.61 5.83002 13.25ZM9.92 11.5C9.27 11.5 8.75 10.97 8.75 10.33C8.75 9.69 9.27 9.17 9.92 9.16C10.57 9.16 11.09 9.69 11.09 10.33C11.09 10.98 10.56 11.5 9.92 11.5ZM15.17 9.17C15.17 8.52 14.64 8 14 8C13.36 8 12.83 8.52 12.83 9.17C12.83 9.82 13.35 10.34 14 10.34C14.65 10.34 15.17 9.81 15.17 9.17ZM18.01 9.16C18.66 9.16 19.18 9.69 19.18 10.33C19.18 10.98 18.66 11.5 18.01 11.5C17.36 11.5 16.84 10.97 16.84 10.33C16.84 9.68 17.36 9.16 18.01 9.16ZM21 17.33C21 17.97 21.52 18.5 22.17 18.5C22.81 18.5 23.34 17.98 23.34 17.33C23.34 16.69 22.82 16.16 22.17 16.16C21.52 16.17 21 16.69 21 17.33ZM21 22.59C20.35 22.59 19.83 22.06 19.83 21.42C19.83 20.77 20.36 20.25 21 20.25C21.65 20.25 22.17 20.78 22.17 21.42C22.17 22.07 21.64 22.59 21 22.59ZM16.33 17.33C16.33 18.6168 15.2868 19.66 14 19.66C12.7132 19.66 11.67 18.6168 11.67 17.33C11.67 16.0432 12.7132 15 14 15C14.4319 15 14.8363 15.1175 15.1831 15.3223C15.1863 15.3202 15.1895 15.318 15.1929 15.3157L15.1929 15.3157C15.2063 15.3065 15.2212 15.2963 15.24 15.29C15.2475 15.2863 15.2549 15.2812 15.2629 15.2757L15.2629 15.2757C15.2763 15.2665 15.2912 15.2563 15.31 15.25C15.3175 15.2463 15.3249 15.2412 15.3329 15.2357C15.3463 15.2265 15.3612 15.2163 15.38 15.21C15.3875 15.2063 15.3949 15.2012 15.4029 15.1957L15.4029 15.1957C15.4163 15.1865 15.4312 15.1763 15.45 15.17C15.4575 15.1663 15.4649 15.1612 15.4729 15.1557L15.4729 15.1557C15.4863 15.1465 15.5012 15.1363 15.52 15.13C15.5275 15.1263 15.5349 15.1212 15.5429 15.1157L15.5429 15.1157C15.5563 15.1065 15.5712 15.0963 15.59 15.09C15.5975 15.0863 15.6049 15.0812 15.6129 15.0757L15.6129 15.0757C15.6263 15.0665 15.6412 15.0563 15.66 15.05C15.6675 15.0463 15.6749 15.0412 15.6829 15.0357L15.6829 15.0357C15.6963 15.0265 15.7112 15.0163 15.73 15.01C15.7375 15.0063 15.7449 15.0012 15.7529 14.9957L15.7529 14.9957C15.7663 14.9865 15.7812 14.9763 15.8 14.97C15.8075 14.9663 15.8149 14.9612 15.8229 14.9557L15.8229 14.9557C15.8363 14.9465 15.8512 14.9363 15.87 14.93C15.8775 14.9263 15.8849 14.9212 15.8929 14.9157L15.8929 14.9157C15.9063 14.9065 15.9212 14.8963 15.94 14.89C15.9475 14.8863 15.9549 14.8812 15.9629 14.8757L15.9629 14.8757C15.9763 14.8665 15.9912 14.8563 16.01 14.85C16.0175 14.8463 16.0249 14.8412 16.0329 14.8357L16.0329 14.8357C16.0463 14.8265 16.0612 14.8163 16.08 14.81C16.0875 14.8063 16.0949 14.8012 16.1029 14.7957L16.1029 14.7957C16.1163 14.7865 16.1312 14.7763 16.15 14.77C16.1575 14.7663 16.1649 14.7612 16.1729 14.7557L16.1729 14.7557C16.1863 14.7465 16.2012 14.7363 16.22 14.73C16.2275 14.7263 16.2349 14.7212 16.2429 14.7157C16.2563 14.7065 16.2712 14.6963 16.29 14.69C16.2975 14.6863 16.3049 14.6812 16.3129 14.6757C16.3263 14.6665 16.3412 14.6563 16.36 14.65C16.3675 14.6463 16.3749 14.6412 16.3829 14.6357C16.3963 14.6265 16.4112 14.6163 16.43 14.61C16.4375 14.6063 16.4449 14.6012 16.4529 14.5957L16.4529 14.5957C16.4663 14.5865 16.4812 14.5763 16.5 14.57C16.5075 14.5663 16.5149 14.5612 16.5229 14.5557C16.5363 14.5465 16.5512 14.5363 16.57 14.53C16.5775 14.5263 16.5849 14.5212 16.5929 14.5157L16.5929 14.5157C16.6063 14.5065 16.6212 14.4963 16.64 14.49C16.6475 14.4863 16.6549 14.4812 16.6629 14.4757L16.6629 14.4757C16.6763 14.4665 16.6912 14.4563 16.71 14.45C16.7175 14.4463 16.7249 14.4412 16.7329 14.4357C16.7463 14.4265 16.7612 14.4163 16.78 14.41C16.7875 14.4063 16.7949 14.4012 16.8029 14.3957C16.8163 14.3865 16.8312 14.3763 16.85 14.37C16.8575 14.3663 16.8649 14.3612 16.8729 14.3557L16.8729 14.3557C16.8863 14.3465 16.9012 14.3363 16.92 14.33C16.9275 14.3263 16.9349 14.3212 16.9429 14.3157L16.9429 14.3157C16.9563 14.3065 16.9712 14.2963 16.99 14.29C16.9975 14.2863 17.0049 14.2812 17.0129 14.2757C17.0263 14.2665 17.0412 14.2563 17.06 14.25C17.0675 14.2463 17.0749 14.2412 17.0829 14.2357L17.0829 14.2357C17.0963 14.2265 17.1112 14.2163 17.13 14.21C17.1375 14.2063 17.1449 14.2012 17.1529 14.1957C17.1663 14.1865 17.1812 14.1763 17.2 14.17C17.2075 14.1663 17.2149 14.1612 17.2229 14.1557L17.2229 14.1557C17.2363 14.1465 17.2512 14.1363 17.27 14.13C17.2775 14.1263 17.2849 14.1212 17.2929 14.1157C17.3063 14.1065 17.3212 14.0963 17.34 14.09C17.3475 14.0863 17.3549 14.0812 17.3629 14.0757L17.3629 14.0757C17.3763 14.0665 17.3912 14.0563 17.41 14.05C17.4175 14.0463 17.4249 14.0412 17.4329 14.0357L17.4329 14.0357C17.4463 14.0265 17.4612 14.0163 17.48 14.01C17.4875 14.0063 17.4949 14.0012 17.5029 13.9957C17.5163 13.9865 17.5312 13.9763 17.55 13.97C17.5575 13.9663 17.5649 13.9612 17.5729 13.9557C17.5863 13.9465 17.6012 13.9363 17.62 13.93C17.6275 13.9263 17.6349 13.9212 17.6429 13.9157C17.6563 13.9065 17.6712 13.8963 17.69 13.89C17.6975 13.8863 17.7049 13.8812 17.7129 13.8757L17.7129 13.8757C17.7263 13.8665 17.7412 13.8563 17.76 13.85C17.7675 13.8463 17.7749 13.8412 17.7829 13.8357L17.7829 13.8357C17.7963 13.8265 17.8112 13.8163 17.83 13.81C17.8375 13.8063 17.8449 13.8012 17.8529 13.7957L17.8529 13.7957C17.8663 13.7865 17.8812 13.7763 17.9 13.77C17.9075 13.7663 17.9149 13.7612 17.9229 13.7557L17.9229 13.7557C17.9363 13.7465 17.9512 13.7363 17.97 13.73C17.9775 13.7263 17.9849 13.7212 17.9929 13.7157C18.0063 13.7065 18.0212 13.6963 18.04 13.69C18.0475 13.6863 18.0549 13.6812 18.0629 13.6757C18.0763 13.6665 18.0912 13.6563 18.11 13.65C18.1175 13.6463 18.1249 13.6412 18.1329 13.6357L18.1329 13.6357C18.1463 13.6265 18.1612 13.6163 18.18 13.61C18.1875 13.6063 18.1949 13.6012 18.2029 13.5957C18.2163 13.5865 18.2312 13.5763 18.25 13.57C18.2575 13.5663 18.2649 13.5612 18.2729 13.5557L18.2729 13.5557C18.2863 13.5465 18.3012 13.5363 18.32 13.53C18.3275 13.5263 18.3349 13.5212 18.3429 13.5157C18.3563 13.5065 18.3712 13.4963 18.39 13.49C18.3975 13.4863 18.4049 13.4812 18.4129 13.4757C18.4263 13.4665 18.4412 13.4563 18.46 13.45C18.4675 13.4463 18.4749 13.4412 18.4829 13.4357C18.4963 13.4265 18.5112 13.4163 18.53 13.41C18.5375 13.4063 18.5449 13.4012 18.5529 13.3957L18.5529 13.3957C18.5663 13.3865 18.5812 13.3763 18.6 13.37C18.6075 13.3663 18.6149 13.3612 18.6229 13.3557L18.6229 13.3557C18.6363 13.3465 18.6512 13.3363 18.67 13.33C18.6775 13.3263 18.6849 13.3212 18.6929 13.3157C18.7063 13.3065 18.7212 13.2963 18.74 13.29C18.7475 13.2863 18.7549 13.2812 18.7629 13.2757C18.7763 13.2665 18.7912 13.2563 18.81 13.25C18.8175 13.2463 18.8249 13.2412 18.8329 13.2357L18.8329 13.2357C18.8463 13.2265 18.8612 13.2163 18.88 13.21C18.8875 13.2063 18.8949 13.2012 18.9029 13.1957C18.9163 13.1865 18.9312 13.1763 18.95 13.17C18.9575 13.1663 18.9649 13.1612 18.9729 13.1557L18.9729 13.1557C18.9863 13.1465 19.0012 13.1363 19.02 13.13C19.0275 13.1263 19.0349 13.1212 19.0429 13.1157C19.0563 13.1065 19.0712 13.0963 19.09 13.09C19.0975 13.0863 19.1049 13.0812 19.1129 13.0757C19.1263 13.0665 19.1412 13.0563 19.16 13.05C19.1675 13.0463 19.1749 13.0412 19.1829 13.0357C19.1963 13.0265 19.2112 13.0163 19.23 13.01C19.2375 13.0063 19.2449 13.0012 19.2529 12.9957C19.2663 12.9865 19.2812 12.9763 19.3 12.97C19.3075 12.9663 19.3149 12.9612 19.3229 12.9557C19.3363 12.9465 19.3512 12.9363 19.37 12.93C19.3775 12.9263 19.3849 12.9212 19.3929 12.9157L19.3929 12.9157C19.4063 12.9065 19.4212 12.8963 19.44 12.89C19.4475 12.8863 19.4549 12.8812 19.4629 12.8757L19.4629 12.8757C19.4763 12.8665 19.4912 12.8563 19.51 12.85C19.5175 12.8463 19.5249 12.8412 19.5329 12.8357C19.5463 12.8265 19.5612 12.8163 19.58 12.81C19.5875 12.8063 19.5949 12.8012 19.6029 12.7957C19.6163 12.7865 19.6312 12.7763 19.65 12.77C19.6575 12.7663 19.6649 12.7612 19.6729 12.7557C19.6863 12.7465 19.7012 12.7363 19.72 12.73C19.7275 12.7263 19.7349 12.7212 19.7429 12.7157C19.7563 12.7065 19.7712 12.6963 19.79 12.69C19.7975 12.6863 19.8049 12.6812 19.8129 12.6757L19.8129 12.6757C19.8263 12.6665 19.8412 12.6563 19.86 12.65C19.8675 12.6463 19.8749 12.6412 19.8829 12.6357L19.8829 12.6357C19.8963 12.6265 19.9112 12.6163 19.93 12.61C19.9375 12.6063 19.9449 12.6012 19.9529 12.5957L19.9529 12.5957C19.9663 12.5865 19.9812 12.5763 20 12.57C20.0075 12.5663 20.0149 12.5612 20.0229 12.5557L20.0229 12.5557C20.0363 12.5465 20.0512 12.5363 20.07 12.53C20.0775 12.5263 20.0849 12.5212 20.0929 12.5157L20.0929 12.5157C20.1063 12.5065 20.1212 12.4963 20.14 12.49C20.1475 12.4863 20.1549 12.4812 20.1629 12.4757L20.1629 12.4757C20.1763 12.4665 20.1912 12.4563 20.21 12.45C20.2175 12.4463 20.2249 12.4412 20.2329 12.4357C20.2463 12.4265 20.2612 12.4163 20.28 12.41C20.2875 12.4063 20.2949 12.4012 20.3029 12.3957C20.3163 12.3865 20.3312 12.3763 20.35 12.37C20.3575 12.3663 20.3649 12.3612 20.3729 12.3557L20.3729 12.3557C20.3863 12.3465 20.4012 12.3363 20.42 12.33C20.4275 12.3263 20.4349 12.3212 20.4429 12.3157C20.4563 12.3065 20.4712 12.2963 20.49 12.29C20.65 12.21 20.81 12.16 21 12.16C21.65 12.16 22.17 12.69 22.17 13.33C22.17 13.82 21.87 14.24 21.44 14.41C21.4326 14.4137 21.4251 14.4188 21.4172 14.4243L21.4172 14.4243C21.4037 14.4335 21.3888 14.4437 21.37 14.45C21.3626 14.4537 21.3551 14.4588 21.3472 14.4643C21.3337 14.4735 21.3188 14.4837 21.3 14.49C21.2926 14.4937 21.2851 14.4988 21.2772 14.5043C21.2637 14.5135 21.2488 14.5237 21.23 14.53C21.2226 14.5337 21.2151 14.5388 21.2072 14.5443L21.2072 14.5443C21.1937 14.5535 21.1788 14.5637 21.16 14.57C21.1526 14.5737 21.1451 14.5788 21.1372 14.5843L21.1372 14.5843C21.1237 14.5935 21.1088 14.6037 21.09 14.61C21.0826 14.6137 21.0751 14.6188 21.0672 14.6243L21.0672 14.6243C21.0537 14.6335 21.0388 14.6437 21.02 14.65C21.0126 14.6537 21.0051 14.6588 20.9972 14.6643L20.9972 14.6643C20.9837 14.6735 20.9688 14.6837 20.95 14.69C20.9426 14.6937 20.9351 14.6988 20.9272 14.7043C20.9137 14.7135 20.8988 14.7237 20.88 14.73C20.8726 14.7337 20.8651 14.7388 20.8572 14.7443L20.8572 14.7443C20.8437 14.7535 20.8288 14.7637 20.81 14.77C20.8026 14.7737 20.7951 14.7788 20.7872 14.7843L20.7872 14.7843C20.7737 14.7935 20.7588 14.8037 20.74 14.81C20.7326 14.8137 20.7251 14.8188 20.7172 14.8243C20.7037 14.8335 20.6888 14.8437 20.67 14.85C20.6626 14.8537 20.6551 14.8588 20.6472 14.8643L20.6472 14.8643C20.6337 14.8735 20.6188 14.8837 20.6 14.89C20.5926 14.8937 20.5851 14.8988 20.5772 14.9043L20.5772 14.9043C20.5637 14.9135 20.5488 14.9237 20.53 14.93C20.5226 14.9337 20.5151 14.9388 20.5072 14.9443C20.4937 14.9535 20.4788 14.9637 20.46 14.97C20.4526 14.9737 20.4451 14.9788 20.4372 14.9843L20.4372 14.9843C20.4237 14.9935 20.4088 15.0037 20.39 15.01C20.3826 15.0137 20.3751 15.0188 20.3672 15.0243L20.3672 15.0243C20.3537 15.0335 20.3388 15.0437 20.32 15.05C20.3126 15.0537 20.3051 15.0588 20.2972 15.0643C20.2837 15.0735 20.2688 15.0837 20.25 15.09C20.2426 15.0937 20.2351 15.0988 20.2272 15.1043L20.2272 15.1043C20.2137 15.1135 20.1988 15.1237 20.18 15.13C20.1726 15.1337 20.1651 15.1388 20.1572 15.1443C20.1437 15.1535 20.1288 15.1637 20.11 15.17C20.1026 15.1737 20.0951 15.1788 20.0872 15.1843L20.0872 15.1843C20.0737 15.1935 20.0588 15.2037 20.04 15.21C20.0326 15.2137 20.0251 15.2188 20.0172 15.2243C20.0037 15.2335 19.9888 15.2437 19.97 15.25C19.9626 15.2537 19.9551 15.2588 19.9472 15.2643C19.9337 15.2735 19.9188 15.2837 19.9 15.29C19.8926 15.2937 19.8851 15.2988 19.8772 15.3043L19.8772 15.3043C19.8637 15.3135 19.8488 15.3237 19.83 15.33C19.8226 15.3337 19.8151 15.3388 19.8072 15.3443C19.7937 15.3535 19.7788 15.3637 19.76 15.37C19.7526 15.3737 19.7451 15.3788 19.7372 15.3843L19.7372 15.3843C19.7237 15.3935 19.7088 15.4037 19.69 15.41C19.6826 15.4137 19.6751 15.4188 19.6672 15.4243L19.6672 15.4243C19.6537 15.4335 19.6388 15.4437 19.62 15.45C19.6126 15.4537 19.6051 15.4588 19.5972 15.4643C19.5837 15.4735 19.5688 15.4837 19.55 15.49C19.5426 15.4937 19.5351 15.4988 19.5272 15.5043C19.5137 15.5135 19.4988 15.5237 19.48 15.53C19.4726 15.5337 19.4651 15.5388 19.4572 15.5443C19.4437 15.5535 19.4288 15.5637 19.41 15.57C19.4026 15.5737 19.3951 15.5788 19.3872 15.5843L19.3872 15.5843C19.3737 15.5935 19.3588 15.6037 19.34 15.61C19.3326 15.6137 19.3251 15.6188 19.3172 15.6243C19.3037 15.6335 19.2888 15.6437 19.27 15.65C19.2626 15.6537 19.2551 15.6588 19.2472 15.6643L19.2472 15.6643C19.2337 15.6735 19.2188 15.6837 19.2 15.69C19.1926 15.6937 19.1851 15.6988 19.1772 15.7043C19.1637 15.7135 19.1488 15.7237 19.13 15.73C19.1226 15.7337 19.1151 15.7388 19.1072 15.7443C19.0937 15.7535 19.0788 15.7637 19.06 15.77C19.0526 15.7737 19.0451 15.7788 19.0372 15.7843L19.0372 15.7843C19.0237 15.7935 19.0088 15.8037 18.99 15.81C18.9826 15.8137 18.9751 15.8188 18.9672 15.8243C18.9537 15.8335 18.9388 15.8437 18.92 15.85C18.9126 15.8537 18.9051 15.8588 18.8972 15.8643L18.8972 15.8643C18.8837 15.8735 18.8688 15.8837 18.85 15.89C18.8426 15.8937 18.8351 15.8988 18.8272 15.9043L18.8272 15.9043C18.8137 15.9135 18.7988 15.9237 18.78 15.93C18.7726 15.9337 18.7651 15.9388 18.7572 15.9443C18.7437 15.9535 18.7288 15.9637 18.71 15.97C18.7026 15.9737 18.6951 15.9788 18.6872 15.9843C18.6737 15.9935 18.6588 16.0037 18.64 16.01C18.6326 16.0137 18.6251 16.0188 18.6172 16.0243C18.6037 16.0335 18.5888 16.0437 18.57 16.05C18.5626 16.0537 18.5551 16.0588 18.5472 16.0643C18.5337 16.0735 18.5188 16.0837 18.5 16.09C18.4926 16.0937 18.4851 16.0988 18.4772 16.1043L18.4772 16.1043C18.4637 16.1135 18.4488 16.1237 18.43 16.13C18.4226 16.1337 18.4151 16.1388 18.4072 16.1443C18.3937 16.1535 18.3788 16.1637 18.36 16.17C18.3526 16.1737 18.3451 16.1788 18.3372 16.1843C18.3237 16.1935 18.3088 16.2037 18.29 16.21C18.2826 16.2137 18.2751 16.2188 18.2672 16.2243C18.2537 16.2335 18.2388 16.2437 18.22 16.25C18.2126 16.2537 18.2051 16.2588 18.1972 16.2643L18.1972 16.2643C18.1837 16.2735 18.1688 16.2837 18.15 16.29C18.1426 16.2937 18.1351 16.2988 18.1272 16.3043L18.1272 16.3043C18.1137 16.3135 18.0988 16.3237 18.08 16.33C18.0726 16.3337 18.0651 16.3388 18.0572 16.3443C18.0437 16.3535 18.0288 16.3637 18.01 16.37C18.0026 16.3737 17.9951 16.3788 17.9872 16.3843C17.9737 16.3935 17.9588 16.4037 17.94 16.41C17.9326 16.4137 17.9251 16.4188 17.9172 16.4243L17.9172 16.4243C17.9037 16.4335 17.8888 16.4437 17.87 16.45C17.8626 16.4537 17.8551 16.4588 17.8472 16.4643C17.8337 16.4735 17.8188 16.4837 17.8 16.49C17.7926 16.4937 17.7851 16.4988 17.7772 16.5043C17.7637 16.5135 17.7488 16.5237 17.73 16.53C17.7226 16.5337 17.7151 16.5388 17.7072 16.5443L17.7072 16.5443C17.6937 16.5535 17.6788 16.5637 17.66 16.57C17.6526 16.5737 17.6451 16.5788 17.6372 16.5843L17.6372 16.5843C17.6237 16.5935 17.6088 16.6037 17.59 16.61C17.5826 16.6137 17.5751 16.6188 17.5672 16.6243L17.5672 16.6243C17.5537 16.6335 17.5388 16.6437 17.52 16.65C17.5126 16.6537 17.5051 16.6588 17.4972 16.6643L17.4972 16.6643C17.4837 16.6735 17.4688 16.6837 17.45 16.69C17.4426 16.6937 17.4351 16.6988 17.4272 16.7043C17.4137 16.7135 17.3988 16.7237 17.38 16.73C17.3726 16.7337 17.3651 16.7388 17.3572 16.7443L17.3572 16.7443C17.3437 16.7535 17.3288 16.7637 17.31 16.77C17.3026 16.7737 17.2951 16.7788 17.2872 16.7843C17.2737 16.7935 17.2588 16.8037 17.24 16.81C17.2326 16.8137 17.2251 16.8188 17.2172 16.8243C17.2037 16.8335 17.1888 16.8437 17.17 16.85C17.1626 16.8537 17.1551 16.8588 17.1472 16.8643L17.1472 16.8643C17.1337 16.8735 17.1188 16.8837 17.1 16.89C17.0926 16.8937 17.0851 16.8988 17.0772 16.9043L17.0772 16.9043C17.0637 16.9135 17.0488 16.9237 17.03 16.93C17.0226 16.9337 17.0151 16.9388 17.0072 16.9443C16.9937 16.9535 16.9788 16.9637 16.96 16.97C16.9526 16.9737 16.9451 16.9788 16.9372 16.9843C16.9237 16.9935 16.9088 17.0037 16.89 17.01C16.8826 17.0137 16.8751 17.0188 16.8672 17.0243L16.8672 17.0243C16.8537 17.0335 16.8388 17.0437 16.82 17.05C16.8126 17.0537 16.8051 17.0588 16.7972 17.0643L16.7972 17.0643C16.7837 17.0735 16.7688 17.0837 16.75 17.09C16.7426 17.0937 16.7351 17.0988 16.7272 17.1043C16.7137 17.1135 16.6988 17.1237 16.68 17.13C16.6726 17.1337 16.6651 17.1388 16.6572 17.1443L16.6572 17.1443C16.6437 17.1535 16.6288 17.1637 16.61 17.17C16.6026 17.1737 16.5951 17.1788 16.5872 17.1843C16.5737 17.1935 16.5588 17.2037 16.54 17.21C16.5326 17.2137 16.5251 17.2188 16.5172 17.2243C16.5037 17.2335 16.4888 17.2437 16.47 17.25C16.4626 17.2537 16.4551 17.2588 16.4472 17.2643C16.4337 17.2735 16.4188 17.2837 16.4 17.29C16.3926 17.2937 16.3851 17.2988 16.3772 17.3043C16.3637 17.3135 16.3488 17.3237 16.33 17.33C16.33 17.33 16.33 17.33 16.33 17.33Z" fill="#CBD3DB"/>
<path fill-rule="evenodd" clip-rule="evenodd" d="M15.33 17.33C15.33 18.0645 14.7345 18.66 14 18.66C13.2654 18.66 12.67 18.0645 12.67 17.33C12.67 16.5955 13.2654 16 14 16C14.7345 16 15.33 16.5955 15.33 17.33Z" fill="#0097FF"/>
</svg>
