<svg width="28" height="28" viewBox="0 0 28 28" fill="none" xmlns="http://www.w3.org/2000/svg">
<path fill-rule="evenodd" clip-rule="evenodd" d="M14 4.5C6.91998 4.5 1.16998 10.26 1.16998 17.33C1.16998 19.59 1.75998 21.8 2.88998 23.75C3.09998 24.11 3.47998 24.33 3.89998 24.33H24.11C24.53 24.33 24.91 24.11 25.12 23.75C26.24 21.81 26.84 19.59 26.84 17.33C26.83 10.26 21.08 4.5 14 4.5ZM5.83002 21.42C5.83002 22.06 6.35002 22.59 7.00002 22.59C7.65002 22.59 8.17002 22.07 8.17002 21.42C8.17002 20.78 7.65002 20.25 7.00002 20.25C6.35002 20.25 5.83002 20.77 5.83002 21.42ZM4.65997 17.34C4.65997 16.69 5.18997 16.17 5.82997 16.17C6.47997 16.17 6.99997 16.69 6.99997 17.33C6.99997 17.98 6.47997 18.51 5.82997 18.51C5.17997 18.51 4.65997 17.98 4.65997 17.34ZM5.83002 13.25C5.83002 13.89 6.35002 14.42 7.00002 14.42C7.65002 14.42 8.17002 13.9 8.17002 13.25C8.17002 12.6 7.64002 12.08 7.00002 12.08C6.36002 12.08 5.83002 12.61 5.83002 13.25ZM9.92 11.5C9.27 11.5 8.75 10.97 8.75 10.33C8.75 9.69 9.27 9.17 9.92 9.16C10.57 9.16 11.09 9.69 11.09 10.33C11.09 10.98 10.56 11.5 9.92 11.5ZM19.18 10.33C19.18 9.69 18.66 9.16 18.01 9.16C17.36 9.16 16.84 9.68 16.84 10.33C16.84 10.97 17.36 11.5 18.01 11.5C18.66 11.5 19.18 10.98 19.18 10.33ZM21 14.42C20.35 14.42 19.83 13.89 19.83 13.25C19.83 12.61 20.36 12.08 21 12.08C21.65 12.08 22.17 12.6 22.17 13.25C22.17 13.9 21.64 14.42 21 14.42ZM21 17.33C21 17.97 21.52 18.5 22.17 18.5C22.81 18.5 23.34 17.98 23.34 17.33C23.34 16.69 22.82 16.16 22.17 16.16C21.52 16.17 21 16.69 21 17.33ZM21 22.59C20.35 22.59 19.83 22.06 19.83 21.42C19.83 20.77 20.36 20.25 21 20.25C21.65 20.25 22.17 20.78 22.17 21.42C22.17 22.07 21.64 22.59 21 22.59ZM15.165 9.19001L15.165 9.19L15.165 9.18999C15.1675 9.18249 15.17 9.175 15.17 9.17C15.17 8.52 14.64 8 14 8C13.36 8 12.83 8.52 12.83 9.17C12.83 9.175 12.8325 9.18249 12.835 9.18999L12.835 9.19L12.835 9.19001C12.8375 9.19751 12.84 9.205 12.84 9.21C12.84 9.215 12.8375 9.22249 12.835 9.22999L12.835 9.23L12.835 9.23001C12.8325 9.23751 12.83 9.245 12.83 9.25C12.83 9.255 12.8325 9.26249 12.835 9.26999L12.835 9.27L12.835 9.27001C12.8375 9.27751 12.84 9.285 12.84 9.29C12.84 9.295 12.8375 9.30249 12.835 9.30999L12.835 9.31L12.835 9.31001C12.8325 9.31751 12.83 9.325 12.83 9.33C12.83 9.335 12.8325 9.34249 12.835 9.34999L12.835 9.35L12.835 9.35001C12.8375 9.35751 12.84 9.365 12.84 9.37C12.84 9.375 12.8375 9.38249 12.835 9.38999L12.835 9.39L12.835 9.39001C12.8325 9.39751 12.83 9.405 12.83 9.41C12.83 9.415 12.8325 9.42249 12.835 9.42999L12.835 9.43L12.835 9.43001C12.8375 9.43751 12.84 9.445 12.84 9.45C12.84 9.455 12.8375 9.46249 12.835 9.46999L12.835 9.47L12.835 9.47001C12.8325 9.47751 12.83 9.485 12.83 9.49C12.83 9.495 12.8325 9.50249 12.835 9.50999L12.835 9.51L12.835 9.51001C12.8375 9.51751 12.84 9.525 12.84 9.53C12.84 9.535 12.8375 9.54249 12.835 9.54999L12.835 9.55L12.835 9.55001C12.8325 9.55751 12.83 9.565 12.83 9.57C12.83 9.575 12.8325 9.5825 12.835 9.59L12.835 9.59001C12.8375 9.59751 12.84 9.605 12.84 9.61C12.84 9.615 12.8375 9.62249 12.835 9.62999L12.835 9.63C12.8325 9.6375 12.83 9.645 12.83 9.65C12.83 9.655 12.8325 9.66249 12.835 9.66999L12.835 9.67C12.8375 9.6775 12.84 9.685 12.84 9.69C12.84 9.695 12.8375 9.70249 12.835 9.70999L12.835 9.71L12.835 9.71001C12.8325 9.71751 12.83 9.725 12.83 9.73C12.83 9.735 12.8325 9.7425 12.835 9.75L12.835 9.75001C12.8375 9.75751 12.84 9.765 12.84 9.77C12.84 9.775 12.8375 9.78249 12.835 9.78999L12.835 9.79L12.835 9.79001C12.8325 9.79751 12.83 9.805 12.83 9.81C12.83 9.815 12.8325 9.82249 12.835 9.82999L12.835 9.83L12.835 9.83001C12.8375 9.83751 12.84 9.845 12.84 9.85C12.84 9.855 12.8375 9.86249 12.835 9.86999L12.835 9.87L12.835 9.87001C12.8325 9.87751 12.83 9.885 12.83 9.89C12.83 9.895 12.8325 9.90249 12.835 9.90999L12.835 9.91L12.835 9.91001C12.8375 9.91751 12.84 9.925 12.84 9.93C12.84 9.935 12.8375 9.94249 12.835 9.94999L12.835 9.95L12.835 9.95001C12.8325 9.95751 12.83 9.965 12.83 9.97C12.83 9.975 12.8325 9.98249 12.835 9.98999L12.835 9.99C12.8375 9.9975 12.84 10.005 12.84 10.01C12.84 10.015 12.8375 10.0225 12.835 10.03L12.835 10.03C12.8325 10.0375 12.83 10.045 12.83 10.05C12.83 10.055 12.8325 10.0625 12.835 10.07C12.8375 10.0775 12.84 10.085 12.84 10.09C12.84 10.095 12.8375 10.1025 12.835 10.11L12.835 10.11L12.835 10.11C12.8325 10.1175 12.83 10.125 12.83 10.13C12.83 10.135 12.8325 10.1425 12.835 10.15L12.835 10.15L12.835 10.15C12.8375 10.1575 12.84 10.165 12.84 10.17C12.84 10.175 12.8375 10.1825 12.835 10.19L12.835 10.19C12.8325 10.1975 12.83 10.205 12.83 10.21C12.83 10.215 12.8325 10.2225 12.835 10.23L12.835 10.23L12.835 10.23C12.8375 10.2375 12.84 10.245 12.84 10.25C12.84 10.255 12.8375 10.2625 12.835 10.27L12.835 10.27L12.835 10.27C12.8325 10.2775 12.83 10.285 12.83 10.29C12.83 10.295 12.8325 10.3025 12.835 10.31L12.835 10.31L12.835 10.31C12.8375 10.3175 12.84 10.325 12.84 10.33C12.84 10.335 12.8375 10.3425 12.835 10.35L12.835 10.35C12.8325 10.3575 12.83 10.365 12.83 10.37C12.83 10.375 12.8325 10.3825 12.835 10.39L12.835 10.39L12.835 10.39C12.8375 10.3975 12.84 10.405 12.84 10.41C12.84 10.415 12.8375 10.4225 12.835 10.43L12.835 10.43C12.8325 10.4375 12.83 10.445 12.83 10.45C12.83 10.455 12.8325 10.4625 12.835 10.47L12.835 10.47C12.8375 10.4775 12.84 10.485 12.84 10.49C12.84 10.495 12.8375 10.5025 12.835 10.51L12.835 10.51L12.835 10.51C12.8325 10.5175 12.83 10.525 12.83 10.53C12.83 10.535 12.8325 10.5425 12.835 10.55L12.835 10.55L12.835 10.55C12.8375 10.5575 12.84 10.565 12.84 10.57C12.84 10.575 12.8375 10.5825 12.835 10.59L12.835 10.59L12.835 10.59C12.8325 10.5975 12.83 10.605 12.83 10.61C12.83 10.615 12.8325 10.6225 12.835 10.63L12.835 10.63L12.835 10.63C12.8375 10.6375 12.84 10.645 12.84 10.65C12.84 10.655 12.8375 10.6625 12.835 10.67L12.835 10.67L12.835 10.67C12.8325 10.6775 12.83 10.685 12.83 10.69C12.83 10.695 12.8325 10.7025 12.835 10.71L12.835 10.71C12.8375 10.7175 12.84 10.725 12.84 10.73C12.84 10.735 12.8375 10.7425 12.835 10.75L12.835 10.75L12.835 10.75C12.8325 10.7575 12.83 10.765 12.83 10.77C12.83 10.775 12.8325 10.7825 12.835 10.79C12.8375 10.7975 12.84 10.805 12.84 10.81C12.84 10.815 12.8375 10.8225 12.835 10.83L12.835 10.83L12.835 10.83C12.8325 10.8375 12.83 10.845 12.83 10.85C12.83 10.855 12.8325 10.8625 12.835 10.87L12.835 10.87L12.835 10.87C12.8375 10.8775 12.84 10.885 12.84 10.89C12.84 10.895 12.8375 10.9025 12.835 10.91L12.835 10.91L12.835 10.91C12.8325 10.9175 12.83 10.925 12.83 10.93C12.83 10.935 12.8325 10.9425 12.835 10.95L12.835 10.95L12.835 10.95C12.8375 10.9575 12.84 10.965 12.84 10.97C12.84 10.975 12.8375 10.9825 12.835 10.99L12.835 10.99L12.835 10.99C12.8325 10.9975 12.83 11.005 12.83 11.01C12.83 11.015 12.8325 11.0225 12.835 11.03L12.835 11.03L12.835 11.03C12.8375 11.0375 12.84 11.045 12.84 11.05C12.84 11.055 12.8375 11.0625 12.835 11.07L12.835 11.07L12.835 11.07C12.8325 11.0775 12.83 11.085 12.83 11.09C12.83 11.095 12.8325 11.1025 12.835 11.11L12.835 11.11L12.835 11.11C12.8375 11.1175 12.84 11.125 12.84 11.13C12.84 11.135 12.8375 11.1425 12.835 11.15L12.835 11.15L12.835 11.15C12.8325 11.1575 12.83 11.165 12.83 11.17C12.83 11.175 12.8325 11.1825 12.835 11.19L12.835 11.19C12.8375 11.1975 12.84 11.205 12.84 11.21C12.84 11.215 12.8375 11.2225 12.835 11.23L12.835 11.23C12.8325 11.2375 12.83 11.245 12.83 11.25C12.83 11.255 12.8325 11.2625 12.835 11.27L12.835 11.27L12.835 11.27C12.8375 11.2775 12.84 11.285 12.84 11.29C12.84 11.295 12.8375 11.3025 12.835 11.31L12.835 11.31C12.8325 11.3175 12.83 11.325 12.83 11.33C12.83 11.335 12.8325 11.3425 12.835 11.35L12.835 11.35L12.835 11.35C12.8375 11.3575 12.84 11.365 12.84 11.37C12.84 11.375 12.8375 11.3825 12.835 11.39L12.835 11.39C12.8325 11.3975 12.83 11.405 12.83 11.41C12.83 11.415 12.8325 11.4225 12.835 11.43L12.835 11.43L12.835 11.43C12.8375 11.4375 12.84 11.445 12.84 11.45C12.84 11.455 12.8375 11.4625 12.835 11.47L12.835 11.47L12.835 11.47C12.8325 11.4775 12.83 11.485 12.83 11.49C12.83 11.495 12.8325 11.5025 12.835 11.51L12.835 11.51L12.835 11.51C12.8375 11.5175 12.84 11.525 12.84 11.53C12.84 11.535 12.8375 11.5425 12.835 11.55L12.835 11.55L12.835 11.55C12.8325 11.5575 12.83 11.565 12.83 11.57C12.83 11.575 12.8325 11.5825 12.835 11.59L12.835 11.59C12.8375 11.5975 12.84 11.605 12.84 11.61C12.84 11.615 12.8375 11.6225 12.835 11.63L12.835 11.63C12.8325 11.6375 12.83 11.645 12.83 11.65C12.83 11.655 12.8325 11.6625 12.835 11.67L12.835 11.67C12.8375 11.6775 12.84 11.685 12.84 11.69C12.84 11.695 12.8375 11.7025 12.835 11.71L12.835 11.71C12.8325 11.7175 12.83 11.725 12.83 11.73C12.83 11.735 12.8325 11.7425 12.835 11.75L12.835 11.75C12.8375 11.7575 12.84 11.765 12.84 11.77C12.84 11.775 12.8375 11.7825 12.835 11.79L12.835 11.79L12.835 11.79C12.8325 11.7975 12.83 11.805 12.83 11.81C12.83 11.815 12.8325 11.8225 12.835 11.83L12.835 11.83L12.835 11.83C12.8375 11.8375 12.84 11.845 12.84 11.85C12.84 11.855 12.8375 11.8625 12.835 11.87L12.835 11.87L12.835 11.87C12.8325 11.8775 12.83 11.885 12.83 11.89C12.83 11.895 12.8325 11.9025 12.835 11.91L12.835 11.91L12.835 11.91C12.8375 11.9175 12.84 11.925 12.84 11.93C12.84 11.935 12.8375 11.9425 12.835 11.95C12.8325 11.9575 12.83 11.965 12.83 11.97C12.83 11.975 12.8325 11.9825 12.835 11.99L12.835 11.99C12.8375 11.9975 12.84 12.005 12.84 12.01C12.84 12.015 12.8375 12.0225 12.835 12.03L12.835 12.03L12.835 12.03C12.8325 12.0375 12.83 12.045 12.83 12.05C12.83 12.055 12.8325 12.0625 12.835 12.07L12.835 12.07L12.835 12.07C12.8375 12.0775 12.84 12.085 12.84 12.09C12.84 12.095 12.8375 12.1025 12.835 12.11L12.835 12.11L12.835 12.11C12.8325 12.1175 12.83 12.125 12.83 12.13C12.83 12.135 12.8325 12.1425 12.835 12.15L12.835 12.15L12.835 12.15C12.8375 12.1575 12.84 12.165 12.84 12.17C12.84 12.175 12.8375 12.1825 12.835 12.19L12.835 12.19L12.835 12.19C12.8325 12.1975 12.83 12.205 12.83 12.21C12.83 12.215 12.8325 12.2225 12.835 12.23L12.835 12.23C12.8375 12.2375 12.84 12.245 12.84 12.25C12.84 12.255 12.8375 12.2625 12.835 12.27L12.835 12.27L12.835 12.27C12.8325 12.2775 12.83 12.285 12.83 12.29C12.83 12.295 12.8325 12.3025 12.835 12.31L12.835 12.31L12.835 12.31C12.8375 12.3175 12.84 12.325 12.84 12.33C12.84 12.335 12.8375 12.3425 12.835 12.35C12.8325 12.3575 12.83 12.365 12.83 12.37C12.83 12.375 12.8325 12.3825 12.835 12.39L12.835 12.39C12.8375 12.3975 12.84 12.405 12.84 12.41C12.84 12.415 12.8375 12.4225 12.835 12.43L12.835 12.43C12.8325 12.4375 12.83 12.445 12.83 12.45C12.83 12.455 12.8325 12.4625 12.835 12.47L12.835 12.47C12.8375 12.4775 12.84 12.485 12.84 12.49C12.84 12.495 12.8375 12.5025 12.835 12.51L12.835 12.51L12.835 12.51C12.8325 12.5175 12.83 12.525 12.83 12.53C12.83 12.535 12.8325 12.5425 12.835 12.55C12.8375 12.5575 12.84 12.565 12.84 12.57C12.84 12.575 12.8375 12.5825 12.835 12.59L12.835 12.59L12.835 12.59C12.8325 12.5975 12.83 12.605 12.83 12.61C12.83 12.615 12.8325 12.6225 12.835 12.63L12.835 12.63L12.835 12.63C12.8375 12.6375 12.84 12.645 12.84 12.65C12.84 12.655 12.8375 12.6625 12.835 12.67L12.835 12.67C12.8325 12.6775 12.83 12.685 12.83 12.69C12.83 12.695 12.8325 12.7025 12.835 12.71L12.835 12.71C12.8375 12.7175 12.84 12.725 12.84 12.73C12.84 12.735 12.8375 12.7425 12.835 12.75L12.835 12.75C12.8325 12.7575 12.83 12.765 12.83 12.77C12.83 12.775 12.8325 12.7825 12.835 12.79L12.835 12.79L12.835 12.79C12.8375 12.7975 12.84 12.805 12.84 12.81C12.84 12.815 12.8375 12.8225 12.835 12.83L12.835 12.83L12.835 12.83C12.8325 12.8375 12.83 12.845 12.83 12.85C12.83 12.855 12.8325 12.8625 12.835 12.87L12.835 12.87L12.835 12.87C12.8375 12.8775 12.84 12.885 12.84 12.89C12.84 12.895 12.8375 12.9025 12.835 12.91L12.835 12.91L12.835 12.91C12.8325 12.9175 12.83 12.925 12.83 12.93C12.83 12.935 12.8325 12.9425 12.835 12.95L12.835 12.95L12.835 12.95C12.8375 12.9575 12.84 12.965 12.84 12.97C12.84 12.975 12.8375 12.9825 12.835 12.99L12.835 12.99C12.8325 12.9975 12.83 13.005 12.83 13.01C12.83 13.015 12.8325 13.0225 12.835 13.03L12.835 13.03L12.835 13.03C12.8375 13.0375 12.84 13.045 12.84 13.05C12.84 13.055 12.8375 13.0625 12.835 13.07L12.835 13.07C12.8325 13.0775 12.83 13.085 12.83 13.09C12.83 13.095 12.8325 13.1025 12.835 13.11L12.835 13.11L12.835 13.11C12.8375 13.1175 12.84 13.125 12.84 13.13C12.84 13.135 12.8375 13.1425 12.835 13.15L12.835 13.15L12.835 13.15C12.8325 13.1575 12.83 13.165 12.83 13.17C12.83 13.175 12.8325 13.1825 12.835 13.19L12.835 13.19C12.8375 13.1975 12.84 13.205 12.84 13.21C12.84 13.215 12.8375 13.2225 12.835 13.23L12.835 13.23L12.835 13.23C12.8325 13.2375 12.83 13.245 12.83 13.25C12.83 13.255 12.8325 13.2625 12.835 13.27C12.8375 13.2775 12.84 13.285 12.84 13.29C12.84 13.295 12.8375 13.3025 12.835 13.31L12.835 13.31C12.8325 13.3175 12.83 13.325 12.83 13.33C12.83 13.335 12.8325 13.3425 12.835 13.35L12.835 13.35L12.835 13.35C12.8375 13.3575 12.84 13.365 12.84 13.37C12.84 13.375 12.8375 13.3825 12.835 13.39L12.835 13.39C12.8325 13.3975 12.83 13.405 12.83 13.41C12.83 13.415 12.8325 13.4225 12.835 13.43L12.835 13.43C12.8375 13.4375 12.84 13.445 12.84 13.45C12.84 13.455 12.8375 13.4625 12.835 13.47L12.835 13.47C12.8325 13.4775 12.83 13.485 12.83 13.49C12.83 13.495 12.8325 13.5025 12.835 13.51C12.8375 13.5175 12.84 13.525 12.84 13.53C12.84 13.535 12.8375 13.5425 12.835 13.55L12.835 13.55L12.835 13.55C12.8325 13.5575 12.83 13.565 12.83 13.57C12.83 13.575 12.8325 13.5825 12.835 13.59L12.835 13.59L12.835 13.59C12.8375 13.5975 12.84 13.605 12.84 13.61C12.84 13.615 12.8375 13.6225 12.835 13.63L12.835 13.63L12.835 13.63C12.8325 13.6375 12.83 13.645 12.83 13.65C12.83 13.655 12.8325 13.6625 12.835 13.67L12.835 13.67C12.8375 13.6775 12.84 13.685 12.84 13.69C12.84 13.695 12.8375 13.7025 12.835 13.71L12.835 13.71C12.8325 13.7175 12.83 13.725 12.83 13.73C12.83 13.735 12.8325 13.7425 12.835 13.75L12.835 13.75L12.835 13.75C12.8375 13.7575 12.84 13.765 12.84 13.77C12.84 13.775 12.8375 13.7825 12.835 13.79L12.835 13.79C12.8325 13.7975 12.83 13.805 12.83 13.81C12.83 13.815 12.8325 13.8225 12.835 13.83L12.835 13.83L12.835 13.83C12.8375 13.8375 12.84 13.845 12.84 13.85C12.84 13.855 12.8375 13.8625 12.835 13.87L12.835 13.87C12.8325 13.8775 12.83 13.885 12.83 13.89C12.83 13.895 12.8325 13.9025 12.835 13.91L12.835 13.91L12.835 13.91C12.8375 13.9175 12.84 13.925 12.84 13.93C12.84 13.935 12.8375 13.9425 12.835 13.95L12.835 13.95C12.8325 13.9575 12.83 13.965 12.83 13.97C12.83 13.975 12.8325 13.9825 12.835 13.99L12.835 13.99C12.8375 13.9975 12.84 14.005 12.84 14.01C12.84 14.015 12.8375 14.0225 12.835 14.03L12.835 14.03C12.8325 14.0375 12.83 14.045 12.83 14.05C12.83 14.055 12.8325 14.0625 12.835 14.07L12.835 14.07C12.8375 14.0775 12.84 14.085 12.84 14.09C12.84 14.095 12.8375 14.1025 12.835 14.11L12.835 14.11L12.835 14.11C12.8325 14.1175 12.83 14.125 12.83 14.13C12.83 14.135 12.8325 14.1425 12.835 14.15L12.835 14.15L12.835 14.15C12.8375 14.1575 12.84 14.165 12.84 14.17C12.84 14.175 12.8375 14.1825 12.835 14.19L12.835 14.19C12.8325 14.1975 12.83 14.205 12.83 14.21C12.83 14.215 12.8325 14.2225 12.835 14.23L12.835 14.23L12.835 14.23C12.8375 14.2375 12.84 14.245 12.84 14.25C12.84 14.255 12.8375 14.2625 12.835 14.27L12.835 14.27C12.8325 14.2775 12.83 14.285 12.83 14.29C12.83 14.295 12.8325 14.3025 12.835 14.31L12.835 14.31L12.835 14.31C12.8375 14.3175 12.84 14.325 12.84 14.33C12.84 14.335 12.8375 14.3425 12.835 14.35L12.835 14.35C12.8325 14.3575 12.83 14.365 12.83 14.37C12.83 14.375 12.8325 14.3825 12.835 14.39L12.835 14.39C12.8375 14.3975 12.84 14.405 12.84 14.41C12.84 14.415 12.8375 14.4225 12.835 14.43L12.835 14.43L12.835 14.43C12.8325 14.4375 12.83 14.445 12.83 14.45C12.83 14.455 12.8325 14.4625 12.835 14.47L12.835 14.47C12.8375 14.4775 12.84 14.485 12.84 14.49C12.84 14.495 12.8375 14.5025 12.835 14.51L12.835 14.51L12.835 14.51C12.8325 14.5175 12.83 14.525 12.83 14.53C12.83 14.535 12.8325 14.5425 12.835 14.55L12.835 14.55L12.835 14.55C12.8375 14.5575 12.84 14.565 12.84 14.57C12.84 14.575 12.8375 14.5825 12.835 14.59L12.835 14.59L12.835 14.59C12.8325 14.5975 12.83 14.605 12.83 14.61C12.83 14.615 12.8325 14.6225 12.835 14.63L12.835 14.63L12.835 14.63C12.8375 14.6375 12.84 14.645 12.84 14.65C12.84 14.655 12.8375 14.6625 12.835 14.67L12.835 14.67C12.8325 14.6775 12.83 14.685 12.83 14.69C12.83 14.695 12.8325 14.7025 12.835 14.71L12.835 14.71C12.8375 14.7175 12.84 14.725 12.84 14.73C12.84 14.735 12.8375 14.7425 12.835 14.75L12.835 14.75L12.835 14.75C12.8325 14.7575 12.83 14.765 12.83 14.77C12.83 14.775 12.8325 14.7825 12.835 14.79L12.835 14.79C12.8375 14.7975 12.84 14.805 12.84 14.81C12.84 14.815 12.8375 14.8225 12.835 14.83L12.835 14.83C12.8325 14.8375 12.83 14.845 12.83 14.85C12.83 14.855 12.8325 14.8625 12.835 14.87L12.835 14.87L12.835 14.87C12.8375 14.8775 12.84 14.885 12.84 14.89C12.84 14.895 12.8375 14.9025 12.835 14.91L12.835 14.91L12.835 14.91C12.8325 14.9175 12.83 14.925 12.83 14.93C12.83 14.935 12.8325 14.9425 12.835 14.95L12.835 14.95L12.835 14.95C12.8375 14.9575 12.84 14.965 12.84 14.97C12.84 14.975 12.8375 14.9825 12.835 14.99L12.835 14.99C12.8325 14.9975 12.83 15.005 12.83 15.01C12.83 15.015 12.8325 15.0225 12.835 15.03C12.8375 15.0375 12.84 15.045 12.84 15.05C12.84 15.055 12.8375 15.0625 12.835 15.07L12.835 15.07L12.835 15.07C12.8325 15.0775 12.83 15.085 12.83 15.09C12.83 15.095 12.8325 15.1025 12.835 15.11L12.835 15.11L12.835 15.11C12.8375 15.1175 12.84 15.125 12.84 15.13C12.84 15.135 12.8375 15.1425 12.835 15.15L12.835 15.15C12.8325 15.1575 12.83 15.165 12.83 15.17C12.83 15.175 12.8325 15.1825 12.835 15.19L12.835 15.19C12.8375 15.1975 12.84 15.205 12.84 15.21C12.84 15.215 12.8375 15.2225 12.835 15.23L12.835 15.23L12.835 15.23C12.8325 15.2375 12.83 15.245 12.83 15.25C12.83 15.255 12.8325 15.2625 12.835 15.27L12.835 15.27L12.835 15.27C12.8375 15.2775 12.84 15.285 12.84 15.29C12.84 15.295 12.8375 15.3025 12.835 15.31L12.835 15.31C12.8348 15.3107 12.8345 15.3114 12.8343 15.3121C12.1382 15.7151 11.67 16.4678 11.67 17.33C11.67 18.6168 12.7132 19.66 14 19.66C15.2868 19.66 16.33 18.6168 16.33 17.33C16.33 16.4679 15.8618 15.7151 15.1657 15.3121C15.1655 15.3114 15.1653 15.3107 15.165 15.31L15.165 15.31C15.1625 15.3025 15.16 15.295 15.16 15.29C15.16 15.285 15.1625 15.2775 15.165 15.27L15.165 15.27C15.1675 15.2625 15.17 15.255 15.17 15.25C15.17 15.245 15.1675 15.2375 15.165 15.23L15.165 15.23C15.1625 15.2225 15.16 15.215 15.16 15.21C15.16 15.205 15.1625 15.1975 15.165 15.19L15.165 15.19L15.165 15.19C15.1675 15.1825 15.17 15.175 15.17 15.17C15.17 15.165 15.1675 15.1575 15.165 15.15L15.165 15.15C15.1625 15.1425 15.16 15.135 15.16 15.13C15.16 15.125 15.1625 15.1175 15.165 15.11L15.165 15.11L15.165 15.11C15.1675 15.1025 15.17 15.095 15.17 15.09C15.17 15.085 15.1675 15.0775 15.165 15.07L15.165 15.07C15.1625 15.0625 15.16 15.055 15.16 15.05C15.16 15.045 15.1625 15.0375 15.165 15.03C15.1675 15.0225 15.17 15.015 15.17 15.01C15.17 15.005 15.1675 14.9975 15.165 14.99L15.165 14.99C15.1625 14.9825 15.16 14.975 15.16 14.97C15.16 14.965 15.1625 14.9575 15.165 14.95C15.1675 14.9425 15.17 14.935 15.17 14.93C15.17 14.925 15.1675 14.9175 15.165 14.91L15.165 14.91C15.1625 14.9025 15.16 14.895 15.16 14.89C15.16 14.885 15.1625 14.8775 15.165 14.87L15.165 14.87C15.1675 14.8625 15.17 14.855 15.17 14.85C15.17 14.845 15.1675 14.8375 15.165 14.83L15.165 14.83C15.1625 14.8225 15.16 14.815 15.16 14.81C15.16 14.805 15.1625 14.7975 15.165 14.79L15.165 14.79C15.1675 14.7825 15.17 14.775 15.17 14.77C15.17 14.765 15.1675 14.7575 15.165 14.75C15.1625 14.7425 15.16 14.735 15.16 14.73C15.16 14.725 15.1625 14.7175 15.165 14.71C15.1675 14.7025 15.17 14.695 15.17 14.69C15.17 14.685 15.1675 14.6775 15.165 14.67L15.165 14.67C15.1625 14.6625 15.16 14.655 15.16 14.65C15.16 14.645 15.1625 14.6375 15.165 14.63L15.165 14.63L15.165 14.63C15.1675 14.6225 15.17 14.615 15.17 14.61C15.17 14.605 15.1675 14.5975 15.165 14.59L15.165 14.59C15.1625 14.5825 15.16 14.575 15.16 14.57C15.16 14.565 15.1625 14.5575 15.165 14.55L15.165 14.55C15.1675 14.5425 15.17 14.535 15.17 14.53C15.17 14.525 15.1675 14.5175 15.165 14.51L15.165 14.51C15.1625 14.5025 15.16 14.495 15.16 14.49C15.16 14.485 15.1625 14.4775 15.165 14.47L15.165 14.47C15.1675 14.4625 15.17 14.455 15.17 14.45C15.17 14.445 15.1675 14.4375 15.165 14.43C15.1625 14.4225 15.16 14.415 15.16 14.41C15.16 14.405 15.1625 14.3975 15.165 14.39L15.165 14.39L15.165 14.39C15.1675 14.3825 15.17 14.375 15.17 14.37C15.17 14.365 15.1675 14.3575 15.165 14.35L15.165 14.35C15.1625 14.3425 15.16 14.335 15.16 14.33C15.16 14.325 15.1625 14.3175 15.165 14.31L15.165 14.31C15.1675 14.3025 15.17 14.295 15.17 14.29C15.17 14.285 15.1675 14.2775 15.165 14.27L15.165 14.27C15.1625 14.2625 15.16 14.255 15.16 14.25C15.16 14.245 15.1625 14.2375 15.165 14.23L15.165 14.23L15.165 14.23C15.1675 14.2225 15.17 14.215 15.17 14.21C15.17 14.205 15.1675 14.1975 15.165 14.19L15.165 14.19C15.1625 14.1825 15.16 14.175 15.16 14.17C15.16 14.165 15.1625 14.1575 15.165 14.15C15.1675 14.1425 15.17 14.135 15.17 14.13C15.17 14.125 15.1675 14.1175 15.165 14.11L15.165 14.11C15.1625 14.1025 15.16 14.095 15.16 14.09C15.16 14.085 15.1625 14.0775 15.165 14.07L15.165 14.07C15.1675 14.0625 15.17 14.055 15.17 14.05C15.17 14.045 15.1675 14.0375 15.165 14.03C15.1625 14.0225 15.16 14.015 15.16 14.01C15.16 14.005 15.1625 13.9975 15.165 13.99C15.1675 13.9825 15.17 13.975 15.17 13.97C15.17 13.965 15.1675 13.9575 15.165 13.95L15.165 13.95C15.1625 13.9425 15.16 13.935 15.16 13.93C15.16 13.925 15.1625 13.9175 15.165 13.91C15.1675 13.9025 15.17 13.895 15.17 13.89C15.17 13.885 15.1675 13.8775 15.165 13.87L15.165 13.87C15.1625 13.8625 15.16 13.855 15.16 13.85C15.16 13.845 15.1625 13.8375 15.165 13.83L15.165 13.83C15.1675 13.8225 15.17 13.815 15.17 13.81C15.17 13.805 15.1675 13.7975 15.165 13.79L15.165 13.79C15.1625 13.7825 15.16 13.775 15.16 13.77C15.16 13.765 15.1625 13.7575 15.165 13.75L15.165 13.75C15.1675 13.7425 15.17 13.735 15.17 13.73C15.17 13.725 15.1675 13.7175 15.165 13.71L15.165 13.71L15.165 13.71C15.1625 13.7025 15.16 13.695 15.16 13.69C15.16 13.685 15.1625 13.6775 15.165 13.67L15.165 13.67L15.165 13.67C15.1675 13.6625 15.17 13.655 15.17 13.65C15.17 13.645 15.1675 13.6375 15.165 13.63L15.165 13.63L15.165 13.63C15.1625 13.6225 15.16 13.615 15.16 13.61C15.16 13.605 15.1625 13.5975 15.165 13.59L15.165 13.59L15.165 13.59C15.1675 13.5825 15.17 13.575 15.17 13.57C15.17 13.565 15.1675 13.5575 15.165 13.55L15.165 13.55L15.165 13.55C15.1625 13.5425 15.16 13.535 15.16 13.53C15.16 13.525 15.1625 13.5175 15.165 13.51L15.165 13.51L15.165 13.51C15.1675 13.5025 15.17 13.495 15.17 13.49C15.17 13.485 15.1675 13.4775 15.165 13.47L15.165 13.47C15.1625 13.4625 15.16 13.455 15.16 13.45C15.16 13.445 15.1625 13.4375 15.165 13.43L15.165 13.43L15.165 13.43C15.1675 13.4225 15.17 13.415 15.17 13.41C15.17 13.405 15.1675 13.3975 15.165 13.39L15.165 13.39C15.1625 13.3825 15.16 13.375 15.16 13.37C15.16 13.365 15.1625 13.3575 15.165 13.35C15.1675 13.3425 15.17 13.335 15.17 13.33C15.17 13.325 15.1675 13.3175 15.165 13.31L15.165 13.31L15.165 13.31C15.1625 13.3025 15.16 13.295 15.16 13.29C15.16 13.285 15.1625 13.2775 15.165 13.27L15.165 13.27C15.1675 13.2625 15.17 13.255 15.17 13.25C15.17 13.245 15.1675 13.2375 15.165 13.23L15.165 13.23C15.1625 13.2225 15.16 13.215 15.16 13.21C15.16 13.205 15.1625 13.1975 15.165 13.19L15.165 13.19C15.1675 13.1825 15.17 13.175 15.17 13.17C15.17 13.165 15.1675 13.1575 15.165 13.15L15.165 13.15C15.1625 13.1425 15.16 13.135 15.16 13.13C15.16 13.125 15.1625 13.1175 15.165 13.11L15.165 13.11L15.165 13.11C15.1675 13.1025 15.17 13.095 15.17 13.09C15.17 13.085 15.1675 13.0775 15.165 13.07L15.165 13.07C15.1625 13.0625 15.16 13.055 15.16 13.05C15.16 13.045 15.1625 13.0375 15.165 13.03L15.165 13.03L15.165 13.03C15.1675 13.0225 15.17 13.015 15.17 13.01C15.17 13.005 15.1675 12.9975 15.165 12.99L15.165 12.99C15.1625 12.9825 15.16 12.975 15.16 12.97C15.16 12.965 15.1625 12.9575 15.165 12.95L15.165 12.95C15.1675 12.9425 15.17 12.935 15.17 12.93C15.17 12.925 15.1675 12.9175 15.165 12.91L15.165 12.91L15.165 12.91C15.1625 12.9025 15.16 12.895 15.16 12.89C15.16 12.885 15.1625 12.8775 15.165 12.87L15.165 12.87L15.165 12.87C15.1675 12.8625 15.17 12.855 15.17 12.85C15.17 12.845 15.1675 12.8375 15.165 12.83L15.165 12.83L15.165 12.83C15.1625 12.8225 15.16 12.815 15.16 12.81C15.16 12.805 15.1625 12.7975 15.165 12.79L15.165 12.79L15.165 12.79C15.1675 12.7825 15.17 12.775 15.17 12.77C15.17 12.765 15.1675 12.7575 15.165 12.75L15.165 12.75C15.1625 12.7425 15.16 12.735 15.16 12.73C15.16 12.725 15.1625 12.7175 15.165 12.71L15.165 12.71C15.1675 12.7025 15.17 12.695 15.17 12.69C15.17 12.685 15.1675 12.6775 15.165 12.67L15.165 12.67C15.1625 12.6625 15.16 12.655 15.16 12.65C15.16 12.645 15.1625 12.6375 15.165 12.63L15.165 12.63L15.165 12.63C15.1675 12.6225 15.17 12.615 15.17 12.61C15.17 12.605 15.1675 12.5975 15.165 12.59C15.1625 12.5825 15.16 12.575 15.16 12.57C15.16 12.565 15.1625 12.5575 15.165 12.55L15.165 12.55L15.165 12.55C15.1675 12.5425 15.17 12.535 15.17 12.53C15.17 12.525 15.1675 12.5175 15.165 12.51L15.165 12.51C15.1625 12.5025 15.16 12.495 15.16 12.49C15.16 12.485 15.1625 12.4775 15.165 12.47L15.165 12.47C15.1675 12.4625 15.17 12.455 15.17 12.45C15.17 12.445 15.1675 12.4375 15.165 12.43L15.165 12.43C15.1625 12.4225 15.16 12.415 15.16 12.41C15.16 12.405 15.1625 12.3975 15.165 12.39L15.165 12.39C15.1675 12.3825 15.17 12.375 15.17 12.37C15.17 12.365 15.1675 12.3575 15.165 12.35L15.165 12.35C15.1625 12.3425 15.16 12.335 15.16 12.33C15.16 12.325 15.1625 12.3175 15.165 12.31L15.165 12.31C15.1675 12.3025 15.17 12.295 15.17 12.29C15.17 12.285 15.1675 12.2775 15.165 12.27C15.1625 12.2625 15.16 12.255 15.16 12.25C15.16 12.245 15.1625 12.2375 15.165 12.23L15.165 12.23L15.165 12.23C15.1675 12.2225 15.17 12.215 15.17 12.21C15.17 12.205 15.1675 12.1975 15.165 12.19L15.165 12.19L15.165 12.19C15.1625 12.1825 15.16 12.175 15.16 12.17C15.16 12.165 15.1625 12.1575 15.165 12.15C15.1675 12.1425 15.17 12.135 15.17 12.13C15.17 12.125 15.1675 12.1175 15.165 12.11C15.1625 12.1025 15.16 12.095 15.16 12.09C15.16 12.085 15.1625 12.0775 15.165 12.07L15.165 12.07L15.165 12.07C15.1675 12.0625 15.17 12.055 15.17 12.05C15.17 12.045 15.1675 12.0375 15.165 12.03L15.165 12.03L15.165 12.03C15.1625 12.0225 15.16 12.015 15.16 12.01C15.16 12.005 15.1625 11.9975 15.165 11.99L15.165 11.99L15.165 11.99C15.1675 11.9825 15.17 11.975 15.17 11.97C15.17 11.965 15.1675 11.9575 15.165 11.95L15.165 11.95C15.1625 11.9425 15.16 11.935 15.16 11.93C15.16 11.925 15.1625 11.9175 15.165 11.91L15.165 11.91L15.165 11.91C15.1675 11.9025 15.17 11.895 15.17 11.89C15.17 11.885 15.1675 11.8775 15.165 11.87C15.1625 11.8625 15.16 11.855 15.16 11.85C15.16 11.845 15.1625 11.8375 15.165 11.83L15.165 11.83C15.1675 11.8225 15.17 11.815 15.17 11.81C15.17 11.805 15.1675 11.7975 15.165 11.79L15.165 11.79L15.165 11.79C15.1625 11.7825 15.16 11.775 15.16 11.77C15.16 11.765 15.1625 11.7575 15.165 11.75L15.165 11.75C15.1675 11.7425 15.17 11.735 15.17 11.73C15.17 11.725 15.1675 11.7175 15.165 11.71L15.165 11.71C15.1625 11.7025 15.16 11.695 15.16 11.69C15.16 11.685 15.1625 11.6775 15.165 11.67L15.165 11.67L15.165 11.67C15.1675 11.6625 15.17 11.655 15.17 11.65C15.17 11.645 15.1675 11.6375 15.165 11.63L15.165 11.63L15.165 11.63C15.1625 11.6225 15.16 11.615 15.16 11.61C15.16 11.605 15.1625 11.5975 15.165 11.59L15.165 11.59C15.1675 11.5825 15.17 11.575 15.17 11.57C15.17 11.565 15.1675 11.5575 15.165 11.55L15.165 11.55L15.165 11.55C15.1625 11.5425 15.16 11.535 15.16 11.53C15.16 11.525 15.1625 11.5175 15.165 11.51L15.165 11.51L15.165 11.51C15.1675 11.5025 15.17 11.495 15.17 11.49C15.17 11.485 15.1675 11.4775 15.165 11.47L15.165 11.47C15.1625 11.4625 15.16 11.455 15.16 11.45C15.16 11.445 15.1625 11.4375 15.165 11.43L15.165 11.43L15.165 11.43C15.1675 11.4225 15.17 11.415 15.17 11.41C15.17 11.405 15.1675 11.3975 15.165 11.39L15.165 11.39L15.165 11.39C15.1625 11.3825 15.16 11.375 15.16 11.37C15.16 11.365 15.1625 11.3575 15.165 11.35L15.165 11.35C15.1675 11.3425 15.17 11.335 15.17 11.33C15.17 11.325 15.1675 11.3175 15.165 11.31L15.165 11.31L15.165 11.31C15.1625 11.3025 15.16 11.295 15.16 11.29C15.16 11.285 15.1625 11.2775 15.165 11.27L15.165 11.27C15.1675 11.2625 15.17 11.255 15.17 11.25C15.17 11.245 15.1675 11.2375 15.165 11.23L15.165 11.23L15.165 11.23C15.1625 11.2225 15.16 11.215 15.16 11.21C15.16 11.205 15.1625 11.1975 15.165 11.19L15.165 11.19L15.165 11.19C15.1675 11.1825 15.17 11.175 15.17 11.17C15.17 11.165 15.1675 11.1575 15.165 11.15L15.165 11.15L15.165 11.15C15.1625 11.1425 15.16 11.135 15.16 11.13C15.16 11.125 15.1625 11.1175 15.165 11.11L15.165 11.11L15.165 11.11C15.1675 11.1025 15.17 11.095 15.17 11.09C15.17 11.085 15.1675 11.0775 15.165 11.07L15.165 11.07C15.1625 11.0625 15.16 11.055 15.16 11.05C15.16 11.045 15.1625 11.0375 15.165 11.03L15.165 11.03C15.1675 11.0225 15.17 11.015 15.17 11.01C15.17 11.005 15.1675 10.9975 15.165 10.99L15.165 10.99L15.165 10.99C15.1625 10.9825 15.16 10.975 15.16 10.97C15.16 10.965 15.1625 10.9575 15.165 10.95L15.165 10.95L15.165 10.95C15.1675 10.9425 15.17 10.935 15.17 10.93C15.17 10.925 15.1675 10.9175 15.165 10.91L15.165 10.91L15.165 10.91C15.1625 10.9025 15.16 10.895 15.16 10.89C15.16 10.885 15.1625 10.8775 15.165 10.87L15.165 10.87L15.165 10.87C15.1675 10.8625 15.17 10.855 15.17 10.85C15.17 10.845 15.1675 10.8375 15.165 10.83L15.165 10.83L15.165 10.83C15.1625 10.8225 15.16 10.815 15.16 10.81C15.16 10.805 15.1625 10.7975 15.165 10.79L15.165 10.79L15.165 10.79C15.1675 10.7825 15.17 10.775 15.17 10.77C15.17 10.765 15.1675 10.7575 15.165 10.75L15.165 10.75L15.165 10.75C15.1625 10.7425 15.16 10.735 15.16 10.73C15.16 10.725 15.1625 10.7175 15.165 10.71L15.165 10.71L15.165 10.71C15.1675 10.7025 15.17 10.695 15.17 10.69C15.17 10.685 15.1675 10.6775 15.165 10.67C15.1625 10.6625 15.16 10.655 15.16 10.65C15.16 10.645 15.1625 10.6375 15.165 10.63L15.165 10.63L15.165 10.63C15.1675 10.6225 15.17 10.615 15.17 10.61C15.17 10.605 15.1675 10.5975 15.165 10.59L15.165 10.59L15.165 10.59C15.1625 10.5825 15.16 10.575 15.16 10.57C15.16 10.565 15.1625 10.5575 15.165 10.55L15.165 10.55L15.165 10.55C15.1675 10.5425 15.17 10.535 15.17 10.53C15.17 10.525 15.1675 10.5175 15.165 10.51L15.165 10.51L15.165 10.51C15.1625 10.5025 15.16 10.495 15.16 10.49C15.16 10.485 15.1625 10.4775 15.165 10.47L15.165 10.47L15.165 10.47C15.1675 10.4625 15.17 10.455 15.17 10.45C15.17 10.445 15.1675 10.4375 15.165 10.43L15.165 10.43L15.165 10.43C15.1625 10.4225 15.16 10.415 15.16 10.41C15.16 10.405 15.1625 10.3975 15.165 10.39L15.165 10.39C15.1675 10.3825 15.17 10.375 15.17 10.37C15.17 10.365 15.1675 10.3575 15.165 10.35L15.165 10.35L15.165 10.35C15.1625 10.3425 15.16 10.335 15.16 10.33C15.16 10.325 15.1625 10.3175 15.165 10.31L15.165 10.31C15.1675 10.3025 15.17 10.295 15.17 10.29C15.17 10.285 15.1675 10.2775 15.165 10.27L15.165 10.27C15.1625 10.2625 15.16 10.255 15.16 10.25C15.16 10.245 15.1625 10.2375 15.165 10.23C15.1675 10.2225 15.17 10.215 15.17 10.21C15.17 10.205 15.1675 10.1975 15.165 10.19L15.165 10.19L15.165 10.19C15.1625 10.1825 15.16 10.175 15.16 10.17C15.16 10.165 15.1625 10.1575 15.165 10.15L15.165 10.15L15.165 10.15C15.1675 10.1425 15.17 10.135 15.17 10.13C15.17 10.125 15.1675 10.1175 15.165 10.11L15.165 10.11L15.165 10.11C15.1625 10.1025 15.16 10.095 15.16 10.09C15.16 10.085 15.1625 10.0775 15.165 10.07L15.165 10.07C15.1675 10.0625 15.17 10.055 15.17 10.05C15.17 10.045 15.1675 10.0375 15.165 10.03L15.165 10.03L15.165 10.03C15.1625 10.0225 15.16 10.015 15.16 10.01C15.16 10.005 15.1625 9.99751 15.165 9.99001L15.165 9.99L15.165 9.98999C15.1675 9.98249 15.17 9.975 15.17 9.97C15.17 9.965 15.1675 9.9575 15.165 9.95L15.165 9.94999C15.1625 9.94249 15.16 9.935 15.16 9.93C15.16 9.925 15.1625 9.91751 15.165 9.91001L15.165 9.91L15.165 9.90999C15.1675 9.90249 15.17 9.895 15.17 9.89C15.17 9.885 15.1675 9.87751 15.165 9.87001L15.165 9.87L15.165 9.86999C15.1625 9.86249 15.16 9.855 15.16 9.85C15.16 9.845 15.1625 9.8375 15.165 9.83L15.165 9.82999C15.1675 9.82249 15.17 9.815 15.17 9.81C15.17 9.805 15.1675 9.79751 15.165 9.79001L15.165 9.79L15.165 9.78999C15.1625 9.78249 15.16 9.775 15.16 9.77C15.16 9.765 15.1625 9.75751 15.165 9.75001L15.165 9.75L15.165 9.74999C15.1675 9.74249 15.17 9.735 15.17 9.73C15.17 9.725 15.1675 9.71751 15.165 9.71001L15.165 9.71C15.1625 9.7025 15.16 9.695 15.16 9.69C15.16 9.685 15.1625 9.67751 15.165 9.67001L15.165 9.67L15.165 9.66999C15.1675 9.66249 15.17 9.655 15.17 9.65C15.17 9.645 15.1675 9.63751 15.165 9.63001L15.165 9.63L15.165 9.62999C15.1625 9.62249 15.16 9.615 15.16 9.61C15.16 9.605 15.1625 9.5975 15.165 9.59L15.165 9.58999C15.1675 9.58249 15.17 9.575 15.17 9.57C15.17 9.565 15.1675 9.5575 15.165 9.55C15.1625 9.5425 15.16 9.535 15.16 9.53C15.16 9.525 15.1625 9.51751 15.165 9.51001L15.165 9.51L15.165 9.50999C15.1675 9.50249 15.17 9.495 15.17 9.49C15.17 9.485 15.1675 9.4775 15.165 9.47L15.165 9.46999C15.1625 9.46249 15.16 9.455 15.16 9.45C15.16 9.445 15.1625 9.4375 15.165 9.43L15.165 9.42999C15.1675 9.42249 15.17 9.415 15.17 9.41C15.17 9.405 15.1675 9.39751 15.165 9.39001L15.165 9.39L15.165 9.38999C15.1625 9.38249 15.16 9.375 15.16 9.37C15.16 9.365 15.1625 9.35751 15.165 9.35001L15.165 9.35L15.165 9.34999C15.1675 9.34249 15.17 9.335 15.17 9.33C15.17 9.325 15.1675 9.31751 15.165 9.31001L15.165 9.31C15.1625 9.3025 15.16 9.295 15.16 9.29C15.16 9.285 15.1625 9.2775 15.165 9.27C15.1675 9.2625 15.17 9.255 15.17 9.25C15.17 9.245 15.1675 9.23751 15.165 9.23001L15.165 9.23L15.165 9.22999C15.1625 9.22249 15.16 9.215 15.16 9.21C15.16 9.205 15.1625 9.19751 15.165 9.19001Z" fill="#CBD3DB"/>
<path fill-rule="evenodd" clip-rule="evenodd" d="M15.33 17.33C15.33 18.0645 14.7345 18.66 14 18.66C13.2654 18.66 12.67 18.0645 12.67 17.33C12.67 16.5955 13.2654 16 14 16C14.7345 16 15.33 16.5955 15.33 17.33Z" fill="#0097FF"/>
</svg>
