<svg width="28" height="28" viewBox="0 0 28 28" fill="none" xmlns="http://www.w3.org/2000/svg">
<path fill-rule="evenodd" clip-rule="evenodd" d="M14 4.5C6.91998 4.5 1.16998 10.26 1.16998 17.33C1.16998 19.59 1.75998 21.8 2.88998 23.75C3.09998 24.11 3.47998 24.33 3.89998 24.33H24.11C24.53 24.33 24.91 24.11 25.12 23.75C26.24 21.81 26.84 19.59 26.84 17.33C26.83 10.26 21.08 4.5 14 4.5ZM5.82997 16.17C5.18997 16.17 4.65997 16.69 4.65997 17.34C4.65997 17.98 5.17997 18.51 5.82997 18.51C6.47997 18.51 6.99997 17.98 6.99997 17.33C6.99997 16.69 6.47997 16.17 5.82997 16.17ZM7.00002 14.42C6.35002 14.42 5.83002 13.89 5.83002 13.25C5.83002 12.61 6.36002 12.08 7.00002 12.08C7.64002 12.08 8.17002 12.6 8.17002 13.25C8.17002 13.9 7.65002 14.42 7.00002 14.42ZM8.75 10.33C8.75 10.97 9.27 11.5 9.92 11.5C10.56 11.5 11.09 10.98 11.09 10.33C11.09 9.69 10.57 9.16 9.92 9.16C9.27 9.17 8.75 9.69 8.75 10.33ZM14 8C14.64 8 15.17 8.52 15.17 9.17C15.17 9.81 14.65 10.34 14 10.34C13.35 10.34 12.83 9.82 12.83 9.17C12.83 8.52 13.36 8 14 8ZM19.18 10.33C19.18 9.69 18.66 9.16 18.01 9.16C17.36 9.16 16.84 9.68 16.84 10.33C16.84 10.97 17.36 11.5 18.01 11.5C18.66 11.5 19.18 10.98 19.18 10.33ZM21 14.42C20.35 14.42 19.83 13.89 19.83 13.25C19.83 12.61 20.36 12.08 21 12.08C21.65 12.08 22.17 12.6 22.17 13.25C22.17 13.9 21.64 14.42 21 14.42ZM21 17.33C21 17.97 21.52 18.5 22.17 18.5C22.81 18.5 23.34 17.98 23.34 17.33C23.34 16.69 22.82 16.16 22.17 16.16C21.52 16.17 21 16.69 21 17.33ZM21 22.59C20.35 22.59 19.83 22.06 19.83 21.42C19.83 20.77 20.36 20.25 21 20.25C21.65 20.25 22.17 20.78 22.17 21.42C22.17 22.07 21.64 22.59 21 22.59ZM7.65002 22.37C7.66885 22.3637 7.68374 22.3535 7.69716 22.3443L7.69718 22.3443C7.70514 22.3388 7.71258 22.3337 7.72002 22.33C7.73885 22.3237 7.75374 22.3135 7.76717 22.3043C7.77513 22.2988 7.78257 22.2937 7.79002 22.29C7.80885 22.2837 7.82374 22.2735 7.83716 22.2643L7.83718 22.2643C7.84513 22.2588 7.85258 22.2537 7.86002 22.25C7.87885 22.2437 7.89374 22.2335 7.90716 22.2243L7.90718 22.2243C7.91514 22.2188 7.92258 22.2137 7.93002 22.21C7.94885 22.2037 7.96374 22.1935 7.97717 22.1843C7.98513 22.1788 7.99257 22.1737 8.00002 22.17C8.01885 22.1637 8.03374 22.1535 8.04716 22.1443L8.04718 22.1443C8.05514 22.1388 8.06258 22.1337 8.07002 22.13C8.08885 22.1237 8.10374 22.1135 8.11717 22.1043C8.12513 22.0988 8.13257 22.0937 8.14002 22.09C8.15885 22.0837 8.17374 22.0735 8.18716 22.0643L8.18718 22.0643C8.19514 22.0588 8.20258 22.0537 8.21002 22.05C8.22885 22.0437 8.24374 22.0335 8.25716 22.0243C8.26513 22.0188 8.27257 22.0137 8.28002 22.01C8.29885 22.0037 8.31374 21.9935 8.32716 21.9843C8.33513 21.9788 8.34257 21.9737 8.35002 21.97C8.36885 21.9637 8.38374 21.9535 8.39717 21.9443C8.40513 21.9388 8.41257 21.9337 8.42002 21.93C8.43885 21.9237 8.45374 21.9135 8.46716 21.9043L8.46718 21.9043C8.47514 21.8988 8.48258 21.8937 8.49002 21.89C8.50885 21.8837 8.52374 21.8735 8.53717 21.8643C8.54513 21.8588 8.55257 21.8537 8.56002 21.85C8.57885 21.8437 8.59374 21.8335 8.60716 21.8243C8.61513 21.8188 8.62257 21.8137 8.63002 21.81C8.64885 21.8037 8.66374 21.7935 8.67717 21.7843C8.68513 21.7788 8.69257 21.7737 8.70002 21.77C8.71885 21.7637 8.73374 21.7535 8.74716 21.7443L8.74718 21.7443C8.75514 21.7388 8.76258 21.7337 8.77002 21.73C8.78885 21.7237 8.80374 21.7135 8.81717 21.7043C8.82513 21.6988 8.83257 21.6937 8.84002 21.69C8.85885 21.6837 8.87374 21.6735 8.88716 21.6643C8.89513 21.6588 8.90257 21.6537 8.91002 21.65C8.92885 21.6437 8.94374 21.6335 8.95716 21.6243C8.96513 21.6188 8.97257 21.6137 8.98002 21.61C8.99885 21.6037 9.01374 21.5935 9.02716 21.5843C9.03513 21.5788 9.04257 21.5737 9.05002 21.57C9.06885 21.5637 9.08374 21.5535 9.09717 21.5443C9.10513 21.5388 9.11257 21.5337 9.12002 21.53C9.13885 21.5237 9.15374 21.5135 9.16716 21.5043C9.17513 21.4988 9.18257 21.4937 9.19002 21.49C9.20885 21.4837 9.22374 21.4735 9.23716 21.4643C9.24513 21.4588 9.25257 21.4537 9.26002 21.45C9.27885 21.4437 9.29374 21.4335 9.30716 21.4243L9.30719 21.4243C9.31514 21.4188 9.32258 21.4137 9.33002 21.41C9.34885 21.4037 9.36374 21.3935 9.37716 21.3843C9.38513 21.3788 9.39257 21.3737 9.40002 21.37C9.41885 21.3637 9.43374 21.3535 9.44716 21.3443C9.45512 21.3388 9.46257 21.3337 9.47002 21.33C9.48885 21.3237 9.50374 21.3135 9.51716 21.3043C9.52513 21.2988 9.53257 21.2937 9.54002 21.29C9.55885 21.2837 9.57374 21.2735 9.58716 21.2643L9.58719 21.2643C9.59514 21.2588 9.60258 21.2537 9.61002 21.25C9.62885 21.2437 9.64374 21.2335 9.65716 21.2243L9.65718 21.2243C9.66514 21.2188 9.67258 21.2137 9.68002 21.21C9.69885 21.2037 9.71374 21.1935 9.72716 21.1843C9.73513 21.1788 9.74257 21.1737 9.75002 21.17C9.76885 21.1637 9.78374 21.1535 9.79716 21.1443L9.79719 21.1443C9.80514 21.1388 9.81258 21.1337 9.82002 21.13C9.83885 21.1237 9.85374 21.1135 9.86716 21.1043C9.87513 21.0988 9.88257 21.0937 9.89002 21.09C9.90885 21.0837 9.92374 21.0735 9.93716 21.0643L9.93719 21.0643C9.94514 21.0588 9.95258 21.0537 9.96002 21.05C9.97885 21.0437 9.99374 21.0335 10.0072 21.0243C10.0151 21.0188 10.0226 21.0137 10.03 21.01C10.0488 21.0037 10.0637 20.9935 10.0772 20.9843L10.0772 20.9843C10.0851 20.9788 10.0926 20.9737 10.1 20.97C10.1188 20.9637 10.1337 20.9535 10.1472 20.9443C10.1551 20.9388 10.1626 20.9337 10.17 20.93C10.1888 20.9237 10.2037 20.9135 10.2172 20.9043L10.2172 20.9043C10.2251 20.8988 10.2326 20.8937 10.24 20.89C10.2588 20.8837 10.2737 20.8735 10.2872 20.8643C10.2951 20.8588 10.3026 20.8537 10.31 20.85C10.3288 20.8437 10.3437 20.8335 10.3572 20.8243L10.3572 20.8243C10.3651 20.8188 10.3726 20.8137 10.38 20.81C10.3988 20.8037 10.4137 20.7935 10.4272 20.7843C10.4351 20.7788 10.4426 20.7737 10.45 20.77C10.4688 20.7637 10.4837 20.7535 10.4972 20.7443L10.4972 20.7443C10.5051 20.7388 10.5126 20.7337 10.52 20.73C10.5388 20.7237 10.5537 20.7135 10.5672 20.7043C10.5751 20.6988 10.5826 20.6937 10.59 20.69C10.6088 20.6837 10.6237 20.6735 10.6372 20.6643L10.6372 20.6643C10.6451 20.6588 10.6526 20.6537 10.66 20.65C10.6788 20.6437 10.6937 20.6335 10.7072 20.6243C10.7151 20.6188 10.7226 20.6137 10.73 20.61C10.7488 20.6037 10.7637 20.5935 10.7772 20.5843C10.7851 20.5788 10.7926 20.5737 10.8 20.57C10.8188 20.5637 10.8337 20.5535 10.8472 20.5443C10.8551 20.5388 10.8626 20.5337 10.87 20.53C10.8888 20.5237 10.9037 20.5135 10.9172 20.5043C10.9251 20.4988 10.9326 20.4937 10.94 20.49C10.9588 20.4837 10.9737 20.4735 10.9872 20.4643L10.9872 20.4643C10.9951 20.4588 11.0026 20.4537 11.01 20.45C11.0288 20.4437 11.0437 20.4335 11.0572 20.4243C11.0651 20.4188 11.0726 20.4137 11.08 20.41C11.0988 20.4037 11.1137 20.3935 11.1272 20.3843L11.1272 20.3843C11.1351 20.3788 11.1426 20.3737 11.15 20.37C11.1688 20.3637 11.1837 20.3535 11.1972 20.3443C11.2051 20.3388 11.2126 20.3337 11.22 20.33C11.2388 20.3237 11.2537 20.3135 11.2672 20.3043C11.2751 20.2988 11.2826 20.2937 11.29 20.29C11.3088 20.2837 11.3237 20.2735 11.3372 20.2643C11.3451 20.2588 11.3526 20.2537 11.36 20.25C11.3788 20.2437 11.3937 20.2335 11.4072 20.2243C11.4151 20.2188 11.4226 20.2137 11.43 20.21C11.4488 20.2037 11.4637 20.1935 11.4772 20.1843L11.4772 20.1843C11.4851 20.1788 11.4926 20.1737 11.5 20.17C11.5188 20.1637 11.5337 20.1535 11.5472 20.1443C11.5551 20.1388 11.5626 20.1337 11.57 20.13C11.5888 20.1237 11.6037 20.1135 11.6172 20.1043L11.6172 20.1043C11.6251 20.0988 11.6326 20.0937 11.64 20.09C11.6588 20.0837 11.6737 20.0735 11.6872 20.0643L11.6872 20.0643C11.6951 20.0588 11.7026 20.0537 11.71 20.05C11.7288 20.0437 11.7437 20.0335 11.7572 20.0243L11.7572 20.0243C11.7651 20.0188 11.7726 20.0137 11.78 20.01C11.7988 20.0037 11.8137 19.9935 11.8272 19.9843C11.8351 19.9788 11.8426 19.9737 11.85 19.97C11.8688 19.9637 11.8837 19.9535 11.8972 19.9443C11.9051 19.9388 11.9126 19.9337 11.92 19.93C11.9388 19.9237 11.9537 19.9135 11.9672 19.9043L11.9672 19.9043C11.9751 19.8988 11.9826 19.8937 11.99 19.89C12.0088 19.8837 12.0237 19.8735 12.0372 19.8643C12.0451 19.8588 12.0526 19.8537 12.06 19.85C12.0788 19.8437 12.0937 19.8335 12.1072 19.8243L12.1072 19.8243C12.1151 19.8188 12.1226 19.8137 12.13 19.81C12.1488 19.8037 12.1637 19.7935 12.1772 19.7843L12.1772 19.7843C12.1851 19.7788 12.1926 19.7737 12.2 19.77C12.2188 19.7637 12.2337 19.7535 12.2472 19.7443C12.2551 19.7388 12.2626 19.7337 12.27 19.73C12.2888 19.7237 12.3037 19.7135 12.3172 19.7043C12.3251 19.6988 12.3326 19.6937 12.34 19.69C12.3588 19.6837 12.3737 19.6735 12.3872 19.6643C12.3951 19.6588 12.4026 19.6537 12.41 19.65C12.4288 19.6437 12.4437 19.6335 12.4572 19.6243C12.4651 19.6188 12.4726 19.6137 12.48 19.61C12.4988 19.6037 12.5137 19.5935 12.5272 19.5843C12.5351 19.5788 12.5426 19.5737 12.55 19.57C12.5688 19.5637 12.5837 19.5535 12.5972 19.5443C12.6051 19.5388 12.6126 19.5337 12.62 19.53C12.6388 19.5237 12.6537 19.5135 12.6672 19.5043L12.6672 19.5043C12.6751 19.4988 12.6826 19.4937 12.69 19.49C12.7088 19.4837 12.7237 19.4735 12.7372 19.4643L12.7372 19.4643C12.7451 19.4588 12.7526 19.4537 12.76 19.45C12.7788 19.4437 12.7937 19.4335 12.8072 19.4243L12.8072 19.4243C12.8151 19.4188 12.8226 19.4137 12.83 19.41C12.8488 19.4037 12.8637 19.3935 12.8772 19.3843L12.8772 19.3843C12.8806 19.3819 12.8839 19.3797 12.8871 19.3776C13.2178 19.5577 13.5969 19.66 14 19.66C15.2868 19.66 16.33 18.6168 16.33 17.33C16.33 16.0432 15.2868 15 14 15C12.7132 15 11.67 16.0432 11.67 17.33C11.67 17.3565 11.6704 17.383 11.6713 17.4093C11.6709 17.4096 11.6704 17.4098 11.67 17.41C11.6512 17.4163 11.6363 17.4265 11.6229 17.4357L11.6229 17.4357C11.6149 17.4412 11.6075 17.4463 11.6 17.45C11.5812 17.4563 11.5663 17.4665 11.5529 17.4757L11.5529 17.4757C11.5449 17.4812 11.5375 17.4863 11.53 17.49C11.5112 17.4963 11.4963 17.5065 11.4829 17.5157C11.4749 17.5212 11.4675 17.5263 11.46 17.53C11.4412 17.5363 11.4263 17.5465 11.4129 17.5557C11.4049 17.5612 11.3975 17.5663 11.39 17.57C11.3712 17.5763 11.3563 17.5865 11.3429 17.5957C11.3349 17.6012 11.3275 17.6063 11.32 17.61C11.3012 17.6163 11.2863 17.6265 11.2729 17.6357L11.2729 17.6357C11.2649 17.6412 11.2575 17.6463 11.25 17.65C11.2312 17.6563 11.2163 17.6665 11.2029 17.6757L11.2029 17.6757C11.1949 17.6812 11.1875 17.6863 11.18 17.69C11.1612 17.6963 11.1463 17.7065 11.1329 17.7157C11.1249 17.7212 11.1175 17.7263 11.11 17.73C11.0912 17.7363 11.0763 17.7465 11.0629 17.7557L11.0629 17.7557C11.0549 17.7612 11.0475 17.7663 11.04 17.77C11.0212 17.7763 11.0063 17.7865 10.9929 17.7957L10.9929 17.7957C10.9849 17.8012 10.9775 17.8063 10.97 17.81C10.9512 17.8163 10.9363 17.8265 10.9229 17.8357C10.9149 17.8412 10.9075 17.8463 10.9 17.85C10.8812 17.8563 10.8663 17.8665 10.8529 17.8757L10.8529 17.8757C10.8449 17.8812 10.8375 17.8863 10.83 17.89C10.8112 17.8963 10.7963 17.9065 10.7829 17.9157L10.7829 17.9157C10.7749 17.9212 10.7675 17.9263 10.76 17.93C10.7412 17.9363 10.7263 17.9465 10.7129 17.9557L10.7129 17.9557C10.7049 17.9612 10.6975 17.9663 10.69 17.97C10.6712 17.9763 10.6563 17.9865 10.6429 17.9957L10.6429 17.9957C10.6349 18.0012 10.6275 18.0063 10.62 18.01C10.6012 18.0163 10.5863 18.0265 10.5729 18.0357C10.5649 18.0412 10.5575 18.0463 10.55 18.05C10.5312 18.0563 10.5163 18.0665 10.5029 18.0757C10.4949 18.0812 10.4875 18.0863 10.48 18.09C10.4612 18.0963 10.4463 18.1065 10.4329 18.1157L10.4329 18.1157C10.4249 18.1212 10.4175 18.1263 10.41 18.13C10.3912 18.1363 10.3763 18.1465 10.3629 18.1557L10.3629 18.1557C10.3549 18.1612 10.3475 18.1663 10.34 18.17C10.3212 18.1763 10.3063 18.1865 10.2929 18.1957L10.2929 18.1957C10.2849 18.2012 10.2775 18.2063 10.27 18.21C10.2512 18.2163 10.2363 18.2265 10.2229 18.2357C10.2149 18.2412 10.2075 18.2463 10.2 18.25C10.1812 18.2563 10.1663 18.2665 10.1529 18.2757C10.1449 18.2812 10.1375 18.2863 10.13 18.29C10.1112 18.2963 10.0963 18.3065 10.0829 18.3157C10.0749 18.3212 10.0675 18.3263 10.06 18.33C10.0412 18.3363 10.0263 18.3465 10.0129 18.3557C10.0049 18.3612 9.99746 18.3663 9.99002 18.37C9.97119 18.3763 9.9563 18.3865 9.94287 18.3957C9.93491 18.4012 9.92746 18.4063 9.92002 18.41C9.90119 18.4163 9.8863 18.4265 9.87287 18.4357C9.86491 18.4412 9.85746 18.4463 9.85002 18.45C9.83119 18.4563 9.81629 18.4665 9.80287 18.4757L9.80286 18.4757C9.7949 18.4812 9.78746 18.4863 9.78002 18.49C9.76119 18.4963 9.74629 18.5065 9.73287 18.5157L9.73286 18.5157C9.7249 18.5212 9.71746 18.5263 9.71002 18.53C9.69119 18.5363 9.6763 18.5465 9.66287 18.5557L9.66286 18.5557C9.6549 18.5612 9.64746 18.5663 9.64002 18.57C9.62119 18.5763 9.6063 18.5865 9.59287 18.5957C9.58491 18.6012 9.57746 18.6063 9.57002 18.61C9.55119 18.6163 9.53629 18.6265 9.52287 18.6357L9.52286 18.6357C9.5149 18.6412 9.50746 18.6463 9.50002 18.65C9.48119 18.6563 9.4663 18.6665 9.45287 18.6757L9.45286 18.6757C9.4449 18.6812 9.43746 18.6863 9.43002 18.69C9.41119 18.6963 9.39629 18.7065 9.38287 18.7157L9.38286 18.7157C9.3749 18.7212 9.36746 18.7263 9.36002 18.73C9.34119 18.7363 9.32629 18.7465 9.31287 18.7557L9.31286 18.7557C9.3049 18.7612 9.29746 18.7663 9.29002 18.77C9.27119 18.7763 9.2563 18.7865 9.24287 18.7957L9.24286 18.7957C9.2349 18.8012 9.22746 18.8063 9.22002 18.81C9.20119 18.8163 9.1863 18.8265 9.17287 18.8357C9.16491 18.8412 9.15746 18.8463 9.15002 18.85C9.13118 18.8563 9.11629 18.8665 9.10287 18.8757C9.09491 18.8812 9.08746 18.8863 9.08002 18.89C9.06119 18.8963 9.0463 18.9065 9.03288 18.9157L9.03287 18.9157C9.02491 18.9212 9.01746 18.9263 9.01002 18.93C8.99119 18.9363 8.97629 18.9465 8.96287 18.9557C8.95491 18.9612 8.94746 18.9663 8.94002 18.97C8.92119 18.9763 8.9063 18.9865 8.89288 18.9957L8.89287 18.9957C8.88491 19.0012 8.87746 19.0063 8.87002 19.01C8.84653 19.0022 8.82917 19.0127 8.81314 19.0225C8.8087 19.0252 8.80436 19.0278 8.80002 19.03C8.78119 19.0363 8.76629 19.0465 8.75287 19.0557C8.74491 19.0612 8.73746 19.0663 8.73002 19.07C8.71119 19.0763 8.6963 19.0865 8.68288 19.0957L8.68287 19.0957C8.67491 19.1012 8.66746 19.1063 8.66002 19.11C8.64118 19.1163 8.62629 19.1265 8.61287 19.1357C8.60491 19.1412 8.59746 19.1463 8.59002 19.15C8.57119 19.1563 8.5563 19.1665 8.54288 19.1757L8.54287 19.1757C8.53491 19.1812 8.52746 19.1863 8.52002 19.19C8.50119 19.1963 8.48629 19.2065 8.47287 19.2157C8.46491 19.2212 8.45746 19.2263 8.45002 19.23C8.43119 19.2363 8.4163 19.2465 8.40288 19.2557L8.40287 19.2557C8.39491 19.2612 8.38746 19.2663 8.38002 19.27C8.36119 19.2763 8.34629 19.2865 8.33287 19.2957C8.32491 19.3012 8.31746 19.3063 8.31002 19.31C8.29119 19.3163 8.2763 19.3265 8.26288 19.3357L8.26287 19.3357C8.25491 19.3412 8.24746 19.3463 8.24002 19.35C8.22118 19.3563 8.20629 19.3665 8.19287 19.3757C8.18491 19.3812 8.17746 19.3863 8.17002 19.39C8.15119 19.3963 8.1363 19.4065 8.12288 19.4157L8.12287 19.4157C8.11491 19.4212 8.10746 19.4263 8.10002 19.43C8.08119 19.4363 8.06629 19.4465 8.05287 19.4557C8.04491 19.4612 8.03746 19.4663 8.03002 19.47C8.01686 19.4788 8.00563 19.4875 7.99548 19.4955C7.98248 19.5056 7.97125 19.5144 7.96002 19.52C7.94118 19.5263 7.92629 19.5365 7.91287 19.5457C7.90491 19.5512 7.89746 19.5563 7.89002 19.56C7.87119 19.5663 7.8563 19.5765 7.84288 19.5857L7.84287 19.5857C7.83491 19.5912 7.82746 19.5963 7.82002 19.6C7.80119 19.6063 7.78629 19.6165 7.77287 19.6257C7.76491 19.6312 7.75746 19.6363 7.75002 19.64C7.73119 19.6463 7.7163 19.6565 7.70288 19.6657L7.70287 19.6657C7.69491 19.6712 7.68746 19.6763 7.68002 19.68C7.66118 19.6863 7.64629 19.6965 7.63287 19.7057C7.62491 19.7112 7.61746 19.7163 7.61002 19.72C7.59119 19.7263 7.5763 19.7365 7.56288 19.7457L7.56287 19.7457C7.55491 19.7512 7.54746 19.7563 7.54002 19.76C7.52118 19.7663 7.50629 19.7765 7.49287 19.7857C7.48491 19.7912 7.47746 19.7963 7.47002 19.8C7.45119 19.8063 7.4363 19.8165 7.42288 19.8257L7.42287 19.8257C7.41491 19.8312 7.40746 19.8363 7.40002 19.84C7.38119 19.8463 7.36629 19.8565 7.35287 19.8657C7.34491 19.8712 7.33746 19.8763 7.33002 19.88C7.31119 19.8863 7.2963 19.8965 7.28288 19.9057L7.28287 19.9057C7.27491 19.9112 7.26746 19.9163 7.26002 19.92C7.24119 19.9263 7.22629 19.9365 7.21287 19.9457C7.20491 19.9512 7.19746 19.9563 7.19002 19.96C7.17686 19.9688 7.16563 19.9775 7.15548 19.9855C7.14248 19.9956 7.13125 20.0044 7.12002 20.01C7.10118 20.0163 7.08629 20.0265 7.07287 20.0357C7.06491 20.0412 7.05746 20.0463 7.05002 20.05C7.03119 20.0563 7.0163 20.0665 7.00288 20.0757L7.00287 20.0757C6.99491 20.0812 6.98746 20.0863 6.98002 20.09C6.96118 20.0963 6.94629 20.1065 6.93287 20.1157C6.92491 20.1212 6.91746 20.1263 6.91002 20.13C6.89119 20.1363 6.8763 20.1465 6.86288 20.1557L6.86287 20.1557C6.85491 20.1612 6.84746 20.1663 6.84002 20.17C6.82119 20.1763 6.80629 20.1865 6.79287 20.1957C6.78491 20.2012 6.77746 20.2063 6.77002 20.21C6.75119 20.2163 6.7363 20.2265 6.72288 20.2357L6.72287 20.2357C6.71491 20.2412 6.70746 20.2463 6.70002 20.25C6.68119 20.2563 6.6663 20.2665 6.65288 20.2757L6.65287 20.2757C6.64491 20.2812 6.63746 20.2863 6.63002 20.29C6.61119 20.2963 6.59629 20.3065 6.58287 20.3157C6.57491 20.3212 6.56746 20.3263 6.56002 20.33C6.13002 20.5 5.83002 20.92 5.83002 21.41C5.83002 22.05 6.35002 22.58 7.00002 22.58C7.19002 22.58 7.35002 22.53 7.51002 22.45C7.52885 22.4437 7.54374 22.4335 7.55716 22.4243L7.55718 22.4243C7.56514 22.4188 7.57258 22.4137 7.58002 22.41C7.59885 22.4037 7.61374 22.3935 7.62717 22.3843C7.63513 22.3788 7.64257 22.3737 7.65002 22.37Z" fill="#CBD3DB"/>
<path fill-rule="evenodd" clip-rule="evenodd" d="M15.33 17.33C15.33 18.0645 14.7345 18.66 14 18.66C13.2654 18.66 12.67 18.0645 12.67 17.33C12.67 16.5955 13.2654 16 14 16C14.7345 16 15.33 16.5955 15.33 17.33Z" fill="#0097FF"/>
</svg>
