<svg width="28" height="28" viewBox="0 0 28 28" fill="none" xmlns="http://www.w3.org/2000/svg">
<path fill-rule="evenodd" clip-rule="evenodd" d="M14 4.5C6.91998 4.5 1.16998 10.26 1.16998 17.33C1.16998 19.59 1.75998 21.8 2.88998 23.75C3.09998 24.11 3.47998 24.33 3.89998 24.33H24.11C24.53 24.33 24.91 24.11 25.12 23.75C26.24 21.81 26.84 19.59 26.84 17.33C26.83 10.26 21.08 4.5 14 4.5ZM5.83002 21.42C5.83002 22.06 6.35002 22.59 7.00002 22.59C7.65002 22.59 8.17002 22.07 8.17002 21.42C8.17002 20.78 7.65002 20.25 7.00002 20.25C6.35002 20.25 5.83002 20.77 5.83002 21.42ZM4.65997 17.34C4.65997 16.69 5.18997 16.17 5.82997 16.17C6.47997 16.17 6.99997 16.69 6.99997 17.33C6.99997 17.98 6.47997 18.51 5.82997 18.51C5.17997 18.51 4.65997 17.98 4.65997 17.34ZM5.83002 13.25C5.83002 13.89 6.35002 14.42 7.00002 14.42C7.65002 14.42 8.17002 13.9 8.17002 13.25C8.17002 12.6 7.64002 12.08 7.00002 12.08C6.36002 12.08 5.83002 12.61 5.83002 13.25ZM9.92 11.5C9.27 11.5 8.75 10.97 8.75 10.33C8.75 9.69 9.27 9.17 9.92 9.16C10.57 9.16 11.09 9.69 11.09 10.33C11.09 10.98 10.56 11.5 9.92 11.5ZM15.17 9.17C15.17 8.52 14.64 8 14 8C13.36 8 12.83 8.52 12.83 9.17C12.83 9.82 13.35 10.34 14 10.34C14.65 10.34 15.17 9.81 15.17 9.17ZM18.01 9.16C18.66 9.16 19.18 9.69 19.18 10.33C19.18 10.98 18.66 11.5 18.01 11.5C17.36 11.5 16.84 10.97 16.84 10.33C16.84 9.68 17.36 9.16 18.01 9.16ZM19.83 13.25C19.83 13.89 20.35 14.42 21 14.42C21.64 14.42 22.17 13.9 22.17 13.25C22.17 12.6 21.65 12.08 21 12.08C20.36 12.08 19.83 12.61 19.83 13.25ZM22.17 18.5C21.52 18.5 21 17.97 21 17.33C21 16.69 21.52 16.17 22.17 16.16C22.82 16.16 23.34 16.69 23.34 17.33C23.34 17.98 22.81 18.5 22.17 18.5ZM21.4172 20.3257L21.4172 20.3257C21.4037 20.3165 21.3888 20.3063 21.37 20.3C21.3626 20.2963 21.3551 20.2912 21.3472 20.2857C21.3337 20.2765 21.3188 20.2663 21.3 20.26C21.2956 20.2578 21.2911 20.2551 21.2866 20.2521C21.2835 20.2501 21.2804 20.2479 21.2772 20.2457C21.2637 20.2365 21.2488 20.2263 21.23 20.22C21.2226 20.2163 21.2151 20.2112 21.2072 20.2057L21.2072 20.2057C21.1937 20.1965 21.1788 20.1863 21.16 20.18C21.1526 20.1763 21.1451 20.1712 21.1372 20.1657C21.1237 20.1565 21.1088 20.1463 21.09 20.14C21.0826 20.1363 21.0751 20.1312 21.0672 20.1257L21.0672 20.1257C21.0537 20.1165 21.0388 20.1063 21.02 20.1C21.0126 20.0963 21.0051 20.0912 20.9972 20.0857C20.9837 20.0765 20.9688 20.0663 20.95 20.06C20.9426 20.0563 20.9351 20.0512 20.9272 20.0457C20.9137 20.0365 20.8988 20.0263 20.88 20.02C20.8726 20.0163 20.8651 20.0112 20.8572 20.0057L20.8572 20.0057C20.8437 19.9965 20.8288 19.9863 20.81 19.98C20.8026 19.9763 20.7951 19.9712 20.7872 19.9657L20.7872 19.9657C20.7737 19.9565 20.7588 19.9463 20.74 19.94C20.7326 19.9363 20.7251 19.9312 20.7172 19.9257L20.7172 19.9257C20.7037 19.9165 20.6888 19.9063 20.67 19.9C20.6662 19.8981 20.6624 19.8958 20.6585 19.8933C20.6548 19.8909 20.651 19.8884 20.6472 19.8857C20.6337 19.8765 20.6188 19.8663 20.6 19.86C20.5926 19.8563 20.5851 19.8512 20.5772 19.8457L20.5772 19.8457C20.5637 19.8365 20.5488 19.8263 20.53 19.82C20.5226 19.8163 20.5151 19.8112 20.5072 19.8057C20.4937 19.7965 20.4788 19.7863 20.46 19.78C20.4526 19.7763 20.4451 19.7712 20.4372 19.7657L20.4372 19.7657C20.4237 19.7565 20.4088 19.7463 20.39 19.74C20.3826 19.7363 20.3751 19.7312 20.3672 19.7257C20.3537 19.7165 20.3388 19.7063 20.32 19.7C20.3126 19.6963 20.3051 19.6912 20.2972 19.6857C20.2837 19.6765 20.2688 19.6663 20.25 19.66C20.2426 19.6563 20.2351 19.6512 20.2272 19.6457L20.2272 19.6457C20.2137 19.6365 20.1988 19.6263 20.18 19.62C20.1726 19.6163 20.1651 19.6112 20.1572 19.6057C20.1437 19.5965 20.1288 19.5863 20.11 19.58C20.1026 19.5763 20.0951 19.5712 20.0872 19.5657L20.0872 19.5657C20.0737 19.5565 20.0588 19.5463 20.04 19.54C20.0326 19.5363 20.0251 19.5312 20.0172 19.5257C20.0037 19.5165 19.9888 19.5063 19.97 19.5C19.9626 19.4963 19.9551 19.4912 19.9472 19.4857L19.9472 19.4857C19.9337 19.4765 19.9188 19.4663 19.9 19.46C19.8926 19.4563 19.8851 19.4512 19.8772 19.4457L19.8772 19.4457C19.8637 19.4365 19.8488 19.4263 19.83 19.42C19.8226 19.4163 19.8151 19.4112 19.8072 19.4057L19.8072 19.4057C19.7937 19.3965 19.7788 19.3863 19.76 19.38C19.7526 19.3763 19.7451 19.3712 19.7372 19.3657C19.7237 19.3565 19.7088 19.3463 19.69 19.34C19.6826 19.3363 19.6751 19.3312 19.6672 19.3257L19.6672 19.3257C19.6537 19.3165 19.6388 19.3063 19.62 19.3C19.6126 19.2963 19.6051 19.2912 19.5972 19.2857C19.5837 19.2765 19.5688 19.2663 19.55 19.26C19.5464 19.2582 19.5429 19.2561 19.5392 19.2538C19.5353 19.2513 19.5313 19.2485 19.5272 19.2457C19.5137 19.2365 19.4988 19.2263 19.48 19.22C19.4726 19.2163 19.4651 19.2112 19.4572 19.2057C19.4437 19.1965 19.4288 19.1863 19.41 19.18C19.4026 19.1763 19.3951 19.1712 19.3872 19.1657L19.3872 19.1657C19.3737 19.1565 19.3588 19.1463 19.34 19.14C19.3326 19.1363 19.3251 19.1312 19.3172 19.1257L19.3172 19.1257C19.3037 19.1165 19.2888 19.1063 19.27 19.1C19.2626 19.0963 19.2551 19.0912 19.2472 19.0857L19.2472 19.0857C19.2337 19.0765 19.2188 19.0663 19.2 19.06C19.1926 19.0563 19.1851 19.0512 19.1772 19.0457C19.1637 19.0365 19.1488 19.0263 19.13 19.02C19.1226 19.0163 19.1151 19.0112 19.1072 19.0057C19.0937 18.9965 19.0788 18.9863 19.06 18.98C19.0526 18.9763 19.0451 18.9712 19.0372 18.9657L19.0372 18.9657C19.0237 18.9565 19.0088 18.9463 18.99 18.94C18.9826 18.9363 18.9751 18.9312 18.9672 18.9257L18.9672 18.9257C18.9537 18.9165 18.9388 18.9063 18.92 18.9C18.9126 18.8963 18.9051 18.8912 18.8972 18.8857L18.8972 18.8857C18.8837 18.8765 18.8688 18.8663 18.85 18.86C18.8426 18.8563 18.8351 18.8512 18.8272 18.8457C18.8137 18.8365 18.7988 18.8263 18.78 18.82C18.7726 18.8163 18.7651 18.8112 18.7572 18.8057C18.7437 18.7965 18.7288 18.7863 18.71 18.78C18.7026 18.7763 18.6951 18.7712 18.6872 18.7657C18.6737 18.7565 18.6588 18.7463 18.64 18.74C18.6326 18.7363 18.6251 18.7312 18.6172 18.7257L18.6172 18.7257C18.6037 18.7165 18.5888 18.7063 18.57 18.7C18.5626 18.6963 18.5551 18.6912 18.5472 18.6857L18.5472 18.6857C18.5337 18.6765 18.5188 18.6663 18.5 18.66C18.4926 18.6563 18.4851 18.6512 18.4772 18.6457C18.4637 18.6365 18.4488 18.6263 18.43 18.62C18.4226 18.6163 18.4151 18.6112 18.4072 18.6057L18.4072 18.6057C18.3937 18.5965 18.3788 18.5863 18.36 18.58C18.3526 18.5763 18.3451 18.5712 18.3372 18.5657C18.3237 18.5565 18.3088 18.5463 18.29 18.54C18.2826 18.5363 18.2751 18.5312 18.2672 18.5257C18.2537 18.5165 18.2388 18.5063 18.22 18.5C18.2126 18.4963 18.2051 18.4912 18.1972 18.4857L18.1972 18.4857C18.1837 18.4765 18.1688 18.4663 18.15 18.46C18.1426 18.4563 18.1351 18.4512 18.1272 18.4457L18.1272 18.4457C18.1137 18.4365 18.0988 18.4263 18.08 18.42C18.0726 18.4163 18.0651 18.4112 18.0572 18.4057C18.0437 18.3965 18.0288 18.3863 18.01 18.38C18.0026 18.3763 17.9951 18.3712 17.9872 18.3657C17.9737 18.3565 17.9588 18.3463 17.94 18.34C17.9326 18.3363 17.9251 18.3312 17.9172 18.3257L17.9172 18.3257C17.9037 18.3165 17.8888 18.3063 17.87 18.3C17.8626 18.2963 17.8551 18.2912 17.8472 18.2857C17.8337 18.2765 17.8188 18.2663 17.8 18.26C17.7926 18.2563 17.7851 18.2512 17.7772 18.2457L17.7772 18.2457C17.7637 18.2365 17.7488 18.2263 17.73 18.22C17.7226 18.2163 17.7151 18.2112 17.7072 18.2057C17.6937 18.1965 17.6788 18.1863 17.66 18.18C17.6526 18.1763 17.6451 18.1712 17.6372 18.1657L17.6372 18.1657C17.6237 18.1565 17.6088 18.1463 17.59 18.14C17.5826 18.1363 17.5751 18.1312 17.5672 18.1257L17.5672 18.1257C17.5537 18.1165 17.5388 18.1063 17.52 18.1C17.5126 18.0963 17.5051 18.0912 17.4972 18.0857L17.4972 18.0857C17.4837 18.0765 17.4688 18.0663 17.45 18.06C17.4426 18.0563 17.4351 18.0512 17.4272 18.0457C17.4137 18.0365 17.3988 18.0263 17.38 18.02C17.3726 18.0163 17.3651 18.0112 17.3572 18.0057C17.3437 17.9965 17.3288 17.9863 17.31 17.98C17.3026 17.9763 17.2951 17.9712 17.2872 17.9657L17.2872 17.9657C17.2737 17.9565 17.2588 17.9463 17.24 17.94C17.2326 17.9363 17.2251 17.9312 17.2172 17.9257C17.2037 17.9165 17.1888 17.9063 17.17 17.9C17.1626 17.8963 17.1551 17.8912 17.1472 17.8857L17.1472 17.8857C17.1337 17.8765 17.1188 17.8663 17.1 17.86C17.0926 17.8563 17.0851 17.8512 17.0772 17.8457L17.0772 17.8457C17.0637 17.8365 17.0488 17.8263 17.03 17.82C17.0226 17.8163 17.0151 17.8112 17.0072 17.8057C16.9937 17.7965 16.9788 17.7863 16.96 17.78C16.9563 17.7781 16.9525 17.7759 16.9487 17.7735C16.9449 17.771 16.9411 17.7684 16.9372 17.7657C16.9237 17.7565 16.9088 17.7463 16.89 17.74C16.8826 17.7363 16.8751 17.7312 16.8672 17.7257L16.8672 17.7257C16.8537 17.7165 16.8388 17.7063 16.82 17.7C16.8126 17.6963 16.8051 17.6912 16.7972 17.6857L16.7972 17.6857C16.7837 17.6765 16.7688 17.6663 16.75 17.66C16.7426 17.6563 16.7351 17.6512 16.7272 17.6457L16.7272 17.6457C16.7137 17.6365 16.6988 17.6263 16.68 17.62C16.6726 17.6163 16.6651 17.6112 16.6572 17.6057C16.6437 17.5965 16.6288 17.5863 16.61 17.58C16.6026 17.5763 16.5951 17.5712 16.5872 17.5657L16.5872 17.5657C16.5737 17.5565 16.5588 17.5463 16.54 17.54C16.5326 17.5363 16.5251 17.5312 16.5172 17.5257C16.5037 17.5165 16.4888 17.5063 16.47 17.5C16.4626 17.4963 16.4551 17.4912 16.4472 17.4857C16.4337 17.4765 16.4188 17.4663 16.4 17.46C16.3926 17.4563 16.3851 17.4512 16.3772 17.4457L16.3772 17.4457C16.3637 17.4365 16.3488 17.4263 16.33 17.42C16.3294 17.4197 16.3289 17.4194 16.3283 17.4191C16.3294 17.3896 16.33 17.3598 16.33 17.33C16.33 16.0432 15.2868 15 14 15C12.7132 15 11.67 16.0432 11.67 17.33C11.67 18.6168 12.7132 19.66 14 19.66C14.3995 19.66 14.7756 19.5594 15.1042 19.3822C15.1103 19.3857 15.1164 19.3899 15.1229 19.3943L15.1229 19.3943C15.1363 19.4035 15.1512 19.4137 15.17 19.42C15.1775 19.4237 15.1849 19.4288 15.1929 19.4343C15.2063 19.4435 15.2212 19.4537 15.24 19.46C15.2475 19.4637 15.2549 19.4688 15.2629 19.4743C15.2763 19.4835 15.2912 19.4937 15.31 19.5C15.3175 19.5037 15.3249 19.5088 15.3329 19.5143L15.3329 19.5143C15.3463 19.5235 15.3612 19.5337 15.38 19.54C15.3875 19.5437 15.3949 19.5488 15.4029 19.5543C15.4163 19.5635 15.4312 19.5737 15.45 19.58C15.4575 19.5837 15.4649 19.5888 15.4729 19.5943C15.4863 19.6035 15.5012 19.6137 15.52 19.62C15.5275 19.6237 15.5349 19.6288 15.5429 19.6343C15.5563 19.6435 15.5712 19.6537 15.59 19.66C15.5975 19.6637 15.6049 19.6688 15.6129 19.6743C15.6263 19.6835 15.6412 19.6937 15.66 19.7C15.6675 19.7037 15.6749 19.7088 15.6829 19.7143L15.6829 19.7143C15.6963 19.7235 15.7112 19.7337 15.73 19.74C15.7375 19.7437 15.7449 19.7488 15.7529 19.7543C15.7663 19.7635 15.7812 19.7737 15.8 19.78C15.8075 19.7837 15.8149 19.7888 15.8229 19.7943L15.8229 19.7943C15.8363 19.8035 15.8512 19.8137 15.87 19.82C15.8775 19.8237 15.8849 19.8288 15.8929 19.8343L15.8929 19.8343C15.9063 19.8435 15.9212 19.8537 15.94 19.86C15.9475 19.8637 15.9549 19.8688 15.9629 19.8743C15.9763 19.8835 15.9912 19.8937 16.01 19.9C16.0175 19.9037 16.0249 19.9088 16.0329 19.9143L16.0329 19.9143C16.0463 19.9235 16.0612 19.9337 16.08 19.94C16.0875 19.9437 16.0949 19.9488 16.1029 19.9543L16.1029 19.9543C16.1163 19.9635 16.1312 19.9737 16.15 19.98C16.1575 19.9837 16.1649 19.9888 16.1729 19.9943C16.1863 20.0035 16.2012 20.0137 16.22 20.02C16.2275 20.0237 16.2349 20.0288 16.2429 20.0343C16.2563 20.0435 16.2712 20.0537 16.29 20.06C16.2975 20.0637 16.3049 20.0688 16.3129 20.0743C16.3263 20.0835 16.3412 20.0937 16.36 20.1C16.3675 20.1037 16.3749 20.1088 16.3829 20.1143C16.3963 20.1235 16.4112 20.1337 16.43 20.14C16.4375 20.1437 16.4449 20.1488 16.4529 20.1543L16.4529 20.1543C16.4663 20.1635 16.4812 20.1737 16.5 20.18C16.5075 20.1837 16.5149 20.1888 16.5229 20.1943C16.5363 20.2035 16.5512 20.2137 16.57 20.22C16.5775 20.2237 16.5849 20.2288 16.5929 20.2343L16.5929 20.2343C16.6063 20.2435 16.6212 20.2537 16.64 20.26C16.6475 20.2637 16.6549 20.2688 16.6629 20.2743L16.6629 20.2743C16.6763 20.2835 16.6912 20.2937 16.71 20.3C16.7175 20.3037 16.7249 20.3088 16.7329 20.3143C16.7463 20.3235 16.7612 20.3337 16.78 20.34C16.7875 20.3437 16.7949 20.3488 16.8029 20.3543C16.8163 20.3635 16.8312 20.3737 16.85 20.38C16.8575 20.3837 16.8649 20.3888 16.8729 20.3943L16.8729 20.3943C16.8863 20.4035 16.9012 20.4137 16.92 20.42C16.9275 20.4237 16.9349 20.4288 16.9429 20.4343L16.9429 20.4343C16.9563 20.4435 16.9712 20.4537 16.99 20.46C16.9975 20.4637 17.0049 20.4688 17.0129 20.4743L17.0129 20.4743C17.0263 20.4835 17.0412 20.4937 17.06 20.5C17.0675 20.5037 17.0749 20.5088 17.0828 20.5143L17.0829 20.5143C17.0963 20.5235 17.1112 20.5337 17.13 20.54C17.1375 20.5437 17.1449 20.5488 17.1529 20.5543C17.1663 20.5635 17.1812 20.5737 17.2 20.58C17.2075 20.5837 17.2149 20.5888 17.2228 20.5943L17.2229 20.5943C17.2363 20.6035 17.2512 20.6137 17.27 20.62C17.2775 20.6237 17.2849 20.6288 17.2929 20.6343C17.3063 20.6435 17.3212 20.6537 17.34 20.66C17.3475 20.6637 17.3549 20.6688 17.3628 20.6743L17.3629 20.6743L17.3629 20.6743C17.3763 20.6835 17.3912 20.6937 17.41 20.7C17.4175 20.7037 17.4249 20.7088 17.4329 20.7143C17.4463 20.7235 17.4612 20.7337 17.48 20.74C17.4875 20.7437 17.4949 20.7488 17.5029 20.7543C17.5163 20.7635 17.5312 20.7737 17.55 20.78C17.5575 20.7837 17.5649 20.7888 17.5729 20.7943C17.5863 20.8035 17.6012 20.8137 17.62 20.82C17.6275 20.8237 17.6349 20.8288 17.6429 20.8343C17.6563 20.8435 17.6712 20.8537 17.69 20.86C17.6975 20.8637 17.7049 20.8688 17.7129 20.8743C17.7263 20.8835 17.7412 20.8937 17.76 20.9C17.7675 20.9037 17.7749 20.9088 17.7828 20.9143L17.7829 20.9143L17.7829 20.9143C17.7963 20.9235 17.8112 20.9337 17.83 20.94C17.8375 20.9437 17.8449 20.9488 17.8529 20.9543C17.8663 20.9635 17.8812 20.9737 17.9 20.98C17.9075 20.9837 17.9149 20.9888 17.9228 20.9943L17.9229 20.9943L17.9229 20.9943C17.9363 21.0035 17.9512 21.0137 17.97 21.02C17.9775 21.0237 17.9849 21.0288 17.9929 21.0343C18.0063 21.0435 18.0212 21.0537 18.04 21.06C18.0475 21.0637 18.0549 21.0688 18.0628 21.0743L18.0629 21.0743L18.0629 21.0743C18.0763 21.0835 18.0912 21.0937 18.11 21.1C18.1175 21.1037 18.1249 21.1088 18.1329 21.1143C18.1463 21.1235 18.1612 21.1337 18.18 21.14C18.1875 21.1437 18.1949 21.1488 18.2028 21.1543L18.2029 21.1543L18.2029 21.1543C18.2163 21.1635 18.2312 21.1737 18.25 21.18C18.2575 21.1837 18.2649 21.1888 18.2729 21.1943C18.2863 21.2035 18.3012 21.2137 18.32 21.22C18.3275 21.2237 18.3349 21.2288 18.3429 21.2343L18.3429 21.2343C18.3563 21.2435 18.3712 21.2537 18.39 21.26C18.3975 21.2637 18.4049 21.2688 18.4129 21.2743C18.4263 21.2835 18.4412 21.2937 18.46 21.3C18.4638 21.3019 18.4676 21.3042 18.4715 21.3066C18.4752 21.309 18.479 21.3116 18.4829 21.3143C18.4963 21.3235 18.5112 21.3337 18.53 21.34C18.5375 21.3437 18.5449 21.3488 18.5529 21.3543C18.5663 21.3635 18.5812 21.3737 18.6 21.38C18.6075 21.3837 18.6149 21.3888 18.6228 21.3943L18.6229 21.3943L18.6229 21.3943C18.6363 21.4035 18.6512 21.4137 18.67 21.42C18.6775 21.4237 18.6849 21.4288 18.6929 21.4343C18.7063 21.4435 18.7212 21.4537 18.74 21.46C18.7475 21.4637 18.7549 21.4688 18.7628 21.4743L18.7629 21.4743L18.7629 21.4743C18.7763 21.4835 18.7912 21.4937 18.81 21.5C18.8175 21.5037 18.8249 21.5088 18.8328 21.5143L18.8329 21.5143L18.8329 21.5143C18.8463 21.5235 18.8612 21.5337 18.88 21.54C18.8853 21.5426 18.8905 21.5459 18.8959 21.5496C18.8982 21.5511 18.9005 21.5527 18.9029 21.5543C18.9163 21.5635 18.9312 21.5737 18.95 21.58C18.9575 21.5837 18.9649 21.5888 18.9728 21.5943L18.9729 21.5943L18.9729 21.5943C18.9863 21.6035 19.0012 21.6137 19.02 21.62C19.0275 21.6237 19.0349 21.6288 19.0429 21.6343C19.0563 21.6435 19.0712 21.6537 19.09 21.66C19.0975 21.6637 19.1049 21.6688 19.1129 21.6743C19.1263 21.6835 19.1412 21.6937 19.16 21.7C19.1675 21.7037 19.1749 21.7088 19.1829 21.7143C19.1963 21.7235 19.2112 21.7337 19.23 21.74C19.2375 21.7437 19.2449 21.7488 19.2529 21.7543L19.2529 21.7543C19.2663 21.7635 19.2812 21.7737 19.3 21.78C19.3075 21.7837 19.3149 21.7888 19.3229 21.7943C19.3363 21.8035 19.3512 21.8137 19.37 21.82C19.3739 21.8219 19.3778 21.8243 19.3817 21.8268C19.3854 21.8291 19.3891 21.8317 19.3929 21.8343L19.3929 21.8343C19.4063 21.8435 19.4212 21.8537 19.44 21.86C19.4475 21.8637 19.4549 21.8688 19.4629 21.8743C19.4763 21.8835 19.4912 21.8937 19.51 21.9C19.5175 21.9037 19.5249 21.9088 19.5328 21.9143L19.5329 21.9143L19.5329 21.9143C19.5463 21.9235 19.5612 21.9337 19.58 21.94C19.5875 21.9437 19.5949 21.9488 19.6029 21.9543C19.6163 21.9635 19.6312 21.9737 19.65 21.98C19.6575 21.9837 19.6649 21.9888 19.6728 21.9943L19.6729 21.9943L19.6729 21.9943C19.6863 22.0035 19.7012 22.0137 19.72 22.02C19.7275 22.0237 19.7349 22.0288 19.7429 22.0343C19.7563 22.0435 19.7712 22.0537 19.79 22.06C19.7975 22.0637 19.8049 22.0688 19.8129 22.0743L19.8129 22.0743C19.8263 22.0835 19.8412 22.0937 19.86 22.1C19.8675 22.1037 19.8749 22.1088 19.8829 22.1143C19.8963 22.1235 19.9112 22.1337 19.93 22.14C19.9375 22.1437 19.9449 22.1488 19.9529 22.1543L19.9529 22.1543C19.9663 22.1635 19.9812 22.1737 20 22.18C20.0025 22.1812 20.0049 22.1826 20.0073 22.1841C20.0124 22.1871 20.0175 22.1906 20.0229 22.1943C20.0363 22.2035 20.0512 22.2137 20.07 22.22C20.0741 22.222 20.0781 22.2245 20.0823 22.2272C20.0857 22.2294 20.0892 22.2318 20.0929 22.2343L20.0929 22.2343C20.1063 22.2435 20.1212 22.2537 20.14 22.26C20.1475 22.2637 20.1549 22.2688 20.1629 22.2743C20.1763 22.2835 20.1912 22.2937 20.21 22.3C20.2175 22.3037 20.2249 22.3088 20.2329 22.3143C20.2463 22.3235 20.2612 22.3337 20.28 22.34C20.2875 22.3437 20.2949 22.3488 20.3029 22.3543C20.3163 22.3635 20.3312 22.3737 20.35 22.38C20.3575 22.3837 20.3649 22.3888 20.3728 22.3943L20.3729 22.3943L20.3729 22.3943C20.3863 22.4035 20.4012 22.4137 20.42 22.42C20.4275 22.4237 20.4349 22.4288 20.4429 22.4343C20.4563 22.4435 20.4712 22.4537 20.49 22.46C20.65 22.54 20.81 22.59 21 22.59C21.64 22.59 22.17 22.07 22.17 21.42C22.17 20.93 21.87 20.51 21.44 20.34C21.4326 20.3363 21.4251 20.3312 21.4172 20.3257Z" fill="#CBD3DB"/>
<path fill-rule="evenodd" clip-rule="evenodd" d="M15.33 17.33C15.33 18.0645 14.7345 18.66 14 18.66C13.2654 18.66 12.67 18.0645 12.67 17.33C12.67 16.5955 13.2654 16 14 16C14.7345 16 15.33 16.5955 15.33 17.33Z" fill="#0097FF"/>
</svg>
