<svg width="28" height="28" viewBox="0 0 28 28" fill="none" xmlns="http://www.w3.org/2000/svg">
<path fill-rule="evenodd" clip-rule="evenodd" d="M11.2151 1.25071C11.3586 1.19306 11.5121 1.1645 11.6667 1.16668H16.3333C16.4879 1.1645 16.6414 1.19306 16.7849 1.25071C16.9283 1.30836 17.0589 1.39394 17.169 1.50249C17.2791 1.61105 17.3665 1.7404 17.4262 1.88303C17.4859 2.02566 17.5166 2.17874 17.5166 2.33335C17.5166 2.48796 17.4859 2.64103 17.4262 2.78367C17.3665 2.9263 17.2791 3.05565 17.169 3.1642C17.0589 3.27275 16.9283 3.35834 16.7849 3.41599C16.6414 3.47364 16.4879 3.5022 16.3333 3.50001H11.6667C11.5121 3.5022 11.3586 3.47364 11.2151 3.41599C11.0717 3.35834 10.9411 3.27275 10.831 3.1642C10.7209 3.05565 10.6335 2.9263 10.5738 2.78367C10.5141 2.64103 10.4834 2.48796 10.4834 2.33335C10.4834 2.17874 10.5141 2.02566 10.5738 1.88303C10.6335 1.7404 10.7209 1.61105 10.831 1.50249C10.9411 1.39394 11.0717 1.30836 11.2151 1.25071ZM22.2809 4.76406C22.4348 4.69163 22.6027 4.65373 22.7728 4.65301C22.9983 4.65165 23.2193 4.71565 23.4091 4.83726C23.599 4.95887 23.7496 5.13289 23.8426 5.33827C23.9357 5.54364 23.9672 5.77158 23.9334 5.99451C23.8997 6.21744 23.802 6.42581 23.6523 6.59442L22.0596 8.44695C23.581 10.2691 24.5 12.6126 24.5 15.1667C24.5 20.9568 19.789 25.6667 14 25.6667C8.211 25.6667 3.5 20.9568 3.5 15.1667C3.5 9.37651 8.211 4.66668 14 4.66668C16.395 4.66668 18.5978 5.4807 20.3665 6.83595L21.8818 5.07228C21.9908 4.94168 22.127 4.83648 22.2809 4.76406ZM22.1667 15.1667C22.1667 10.6044 18.5623 7.00001 14 7.00001C9.4377 7.00001 5.83334 10.6044 5.83334 15.1667C5.83334 19.729 9.4377 23.3333 14 23.3333C18.5623 23.3333 22.1667 19.729 22.1667 15.1667Z" fill="#CBD3DB"/>
<path d="M14 9.23333C14 8.90196 13.7308 8.63047 13.4008 8.66086C12.3202 8.76038 11.2779 9.12796 10.3703 9.7344C9.29588 10.4523 8.45849 11.4727 7.964 12.6665C7.4695 13.8603 7.34012 15.1739 7.59221 16.4413C7.8443 17.7086 8.46654 18.8727 9.38024 19.7864C10.2939 20.7001 11.4581 21.3224 12.7254 21.5745C13.9928 21.8266 15.3064 21.6972 16.5002 21.2027C17.694 20.7082 18.7144 19.8708 19.4323 18.7964C20.0387 17.8888 20.4063 16.8465 20.5058 15.7658C20.5362 15.4359 20.2647 15.1667 19.9333 15.1667H16.8768C16.5454 15.1667 16.2845 15.4398 16.1982 15.7598C16.1341 15.9975 16.0314 16.2246 15.8931 16.4316C15.6429 16.806 15.2873 17.0978 14.8713 17.2702C14.4553 17.4425 13.9975 17.4876 13.5558 17.3997C13.1142 17.3119 12.7085 17.095 12.3901 16.7766C12.0716 16.4582 11.8548 16.0525 11.7669 15.6108C11.6791 15.1692 11.7242 14.7114 11.8965 14.2954C12.0688 13.8793 12.3607 13.5237 12.7351 13.2736C12.9421 13.1353 13.1691 13.0326 13.4069 12.9685C13.7269 12.8821 14 12.6212 14 12.2899V9.23333Z" fill="#0097FF"/>
</svg>
