<svg width="28" height="28" viewBox="0 0 28 28" fill="none" xmlns="http://www.w3.org/2000/svg">
<path fill-rule="evenodd" clip-rule="evenodd" d="M11.2151 1.25069C11.3586 1.19304 11.5121 1.16448 11.6667 1.16667H16.3333C16.4879 1.16448 16.6414 1.19304 16.7849 1.25069C16.9283 1.30834 17.0589 1.39393 17.169 1.50248C17.2791 1.61103 17.3665 1.74038 17.4262 1.88302C17.4859 2.02565 17.5166 2.17872 17.5166 2.33333C17.5166 2.48795 17.4859 2.64102 17.4262 2.78365C17.3665 2.92628 17.2791 3.05563 17.169 3.16419C17.0589 3.27274 16.9283 3.35833 16.7849 3.41598C16.6414 3.47362 16.4879 3.50219 16.3333 3.5H11.6667C11.5121 3.50219 11.3586 3.47362 11.2151 3.41598C11.0717 3.35833 10.9411 3.27274 10.831 3.16419C10.7209 3.05563 10.6335 2.92628 10.5738 2.78365C10.5141 2.64102 10.4834 2.48795 10.4834 2.33333C10.4834 2.17872 10.5141 2.02565 10.5738 1.88302C10.6335 1.74038 10.7209 1.61103 10.831 1.50248C10.9411 1.39393 11.0717 1.30834 11.2151 1.25069ZM22.2809 4.76404C22.4348 4.69161 22.6027 4.65371 22.7728 4.65299C22.9983 4.65164 23.2193 4.71563 23.4091 4.83725C23.599 4.95886 23.7496 5.13288 23.8426 5.33825C23.9357 5.54363 23.9672 5.77157 23.9334 5.99449C23.8997 6.21742 23.802 6.42579 23.6523 6.5944L22.0596 8.44694C23.581 10.2691 24.5 12.6126 24.5 15.1667C24.5 20.9568 19.789 25.6667 14 25.6667C8.211 25.6667 3.5 20.9568 3.5 15.1667C3.5 9.3765 8.211 4.66667 14 4.66667C16.395 4.66667 18.5978 5.48069 20.3665 6.83594L21.8818 5.07226C21.9908 4.94166 22.127 4.83646 22.2809 4.76404ZM22.1667 15.1667C22.1667 10.6044 18.5623 7 14 7C9.4377 7 5.83334 10.6044 5.83334 15.1667C5.83334 19.729 9.4377 23.3333 14 23.3333C18.5623 23.3333 22.1667 19.729 22.1667 15.1667Z" fill="#CBD3DB"/>
<path d="M13.9998 8.60001C14.6438 8.60001 15.1665 9.12267 15.1665 9.76667V13.5902C15.8606 13.9939 16.3331 14.7378 16.3331 15.6C16.3331 17.0537 15.0024 18.196 13.4939 17.8787C12.6481 17.7013 11.9436 17.0245 11.7394 16.1856C11.4699 15.0843 11.985 14.0837 12.8331 13.5902V9.76667C12.8331 9.12267 13.3558 8.60001 13.9998 8.60001Z" fill="#CBD3DB"/>
</svg>
