<svg width="24" height="24" viewBox="0 0 24 24" fill="none" xmlns="http://www.w3.org/2000/svg">
<path d="M14.9902 7.99018C14.7913 7.99023 14.5969 8.04961 14.4319 8.16073C14.2669 8.27184 14.1387 8.42964 14.0639 8.61395C13.989 8.79826 13.9708 9.00071 14.0116 9.19542C14.0524 9.39012 14.1504 9.56823 14.2929 9.70698L16.5859 11.9999L14.2929 14.2929C14.197 14.3851 14.1203 14.4954 14.0676 14.6176C14.0148 14.7397 13.9869 14.8711 13.9855 15.0042C13.9842 15.1372 14.0094 15.2692 14.0597 15.3924C14.11 15.5155 14.1843 15.6274 14.2784 15.7215C14.3725 15.8156 14.4844 15.89 14.6076 15.9402C14.7307 15.9905 14.8627 16.0157 14.9958 16.0144C15.1288 16.013 15.2602 15.9851 15.3824 15.9324C15.5045 15.8796 15.6149 15.803 15.707 15.707L18 13.414L20.2929 15.707C20.3851 15.803 20.4954 15.8796 20.6176 15.9324C20.7397 15.9851 20.8711 16.013 21.0042 16.0144C21.1372 16.0157 21.2692 15.9905 21.3924 15.9402C21.5156 15.89 21.6275 15.8156 21.7215 15.7215C21.8156 15.6274 21.89 15.5155 21.9403 15.3924C21.9906 15.2692 22.0158 15.1372 22.0144 15.0042C22.0131 14.8711 21.9852 14.7397 21.9324 14.6176C21.8796 14.4954 21.803 14.3851 21.707 14.2929L19.414 11.9999L21.707 9.70698C21.8515 9.56651 21.9502 9.38567 21.9902 9.18816C22.0301 8.99064 22.0095 8.78565 21.9309 8.60007C21.8524 8.41448 21.7196 8.25695 21.55 8.14812C21.3804 8.03929 21.1819 7.98424 20.9804 7.99018C20.7206 7.99792 20.4741 8.1065 20.2929 8.29292L18 10.5859L15.707 8.29292C15.6138 8.19712 15.5024 8.12098 15.3792 8.06898C15.2561 8.01698 15.1238 7.99019 14.9902 7.99018Z" fill="#CBD3DB"/>
<path d="M10.293 4.70702C10.5292 4.47077 10.8278 4.38486 11.1094 4.41796C11.5787 4.47312 12 4.85717 12 5.41405V18.5859C12 19.4769 10.923 19.923 10.293 19.293L6 15H4C2.895 15 2 14.105 2 13V11C2 9.89499 2.895 8.99999 4 8.99999H6L10.293 4.70702Z" fill="#CBD3DB"/>
</svg>
