<svg width="24" height="24" viewBox="0 0 24 24" fill="none" xmlns="http://www.w3.org/2000/svg">
<path d="M14.9941 3.29299C14.4618 3.28931 14 3.73407 14 4.29494C14 4.73694 14.2907 5.13516 14.7188 5.24416C17.5706 5.97073 19.7174 8.41643 19.9746 11.3965C19.9918 11.5952 20 11.797 20 12C20 15.249 17.7607 17.9809 14.7188 18.7559C14.2907 18.8649 14 19.2631 14 19.7051C14 20.3461 14.6046 20.8358 15.2266 20.6778C19.1206 19.6888 22 16.173 22 12C22 7.82702 19.1206 4.31129 15.2266 3.32229C15.1488 3.30254 15.0702 3.29352 14.9941 3.29299ZM11.1094 4.41799C10.8278 4.38489 10.5292 4.4708 10.293 4.70705L6 9.00002H4C2.895 9.00002 2 9.89502 2 11V13C2 14.105 2.895 15 4 15H6L10.293 19.293C10.923 19.923 12 19.477 12 18.586V5.41409C12 4.85721 11.5787 4.47316 11.1094 4.41799ZM14.9609 7.53713C14.4569 7.55626 14 7.97854 14 8.54104V8.56448C14 8.91648 14.1851 9.24408 14.4941 9.41408C15.4141 9.92108 16 10.888 16 12C16 13.112 15.4141 14.078 14.4941 14.584C14.1851 14.754 14 15.0836 14 15.4356V15.4571C14 16.2081 14.8148 16.7109 15.4668 16.3379C16.9868 15.4689 18 13.853 18 12C18 10.147 16.9868 8.53213 15.4668 7.66213C15.3038 7.56913 15.1289 7.53076 14.9609 7.53713Z" fill="#CBD3DB"/>
</svg>
