<svg width="20" height="20" viewBox="0 0 20 20" fill="none" xmlns="http://www.w3.org/2000/svg">
<path d="M9.99996 2C9.26329 2 8.66663 2.59667 8.66663 3.33333V3.52865C6.7393 4.10255 5.33329 5.88622 5.33329 8V9.83854C5.33329 11.6499 4.61396 13.386 3.33329 14.6667C3.15648 14.6667 2.98691 14.7369 2.86189 14.8619C2.73686 14.987 2.66663 15.1565 2.66663 15.3333C2.66663 15.5101 2.73686 15.6797 2.86189 15.8047C2.98691 15.9298 3.15648 16 3.33329 16H16.6666C16.8434 16 17.013 15.9298 17.138 15.8047C17.2631 15.6797 17.3333 15.5101 17.3333 15.3333C17.3333 15.1565 17.2631 14.987 17.138 14.8619C17.013 14.7369 16.8434 14.6667 16.6666 14.6667C15.386 13.386 14.6666 11.6499 14.6666 9.83854V8C14.6666 5.88622 13.2606 4.10255 11.3333 3.52865V3.33333C11.3333 2.59667 10.7366 2 9.99996 2ZM7.99996 17.3333C7.99996 18.438 8.89529 19.3333 9.99996 19.3333C11.1046 19.3333 12 18.438 12 17.3333H7.99996Z" fill="white"/>
<path d="M2.3021 5.43598C2.40176 5.36977 2.51739 5.3316 2.63688 5.32547C2.75411 5.31942 2.87085 5.34443 2.97532 5.39797C3.07978 5.4515 3.16826 5.53167 3.23181 5.63036C3.29536 5.72905 3.33173 5.84277 3.33723 5.96003C3.34274 6.07728 3.3172 6.19391 3.26318 6.29813C3.26318 6.29813 2.66683 7.5555 2.66683 8.66662C2.66683 9.77773 3.26318 11.0351 3.26318 11.0351C3.34221 11.1933 3.35518 11.3763 3.29925 11.5441C3.24332 11.7118 3.12306 11.8504 2.96493 11.9295C2.80679 12.0085 2.62373 12.0216 2.45599 11.9657C2.28826 11.9098 2.14959 11.7896 2.07048 11.6315C2.07048 11.6315 1.3335 10.2222 1.3335 8.66662C1.3335 7.11106 2.07048 5.70177 2.07048 5.70177C2.12244 5.594 2.20244 5.50219 2.3021 5.43598Z" fill="white"/>
<path d="M17.0123 5.40556C17.1141 5.35057 17.2283 5.32297 17.3439 5.32547C17.4668 5.3281 17.5865 5.36464 17.6899 5.43105C17.7933 5.49745 17.8763 5.59114 17.9298 5.70177C17.9298 5.70177 18.6668 7.11106 18.6668 8.66662C18.6668 10.2222 17.9298 11.6315 17.9298 11.6315C17.8907 11.7098 17.8365 11.7796 17.7704 11.837C17.7042 11.8944 17.6274 11.9382 17.5443 11.9659C17.4613 11.9936 17.3736 12.0047 17.2862 11.9985C17.1989 11.9922 17.1136 11.9689 17.0353 11.9297C16.9569 11.8906 16.8871 11.8364 16.8297 11.7702C16.7724 11.7041 16.7286 11.6272 16.7009 11.5442C16.6732 11.4611 16.6622 11.3734 16.6684 11.286C16.6746 11.1987 16.698 11.1134 16.7371 11.0351C16.7371 11.0351 17.3335 9.77773 17.3335 8.66662C17.3335 7.5555 16.7371 6.29813 16.7371 6.29813C16.6841 6.19541 16.6586 6.08065 16.6633 5.96512C16.6679 5.84959 16.7026 5.73726 16.7638 5.63916C16.825 5.54106 16.9106 5.46056 17.0123 5.40556Z" fill="white"/>
</svg>
