<svg width="9" height="10" viewBox="0 0 9 10" fill="none" xmlns="http://www.w3.org/2000/svg">
<path d="M7.49343 3.35013L7.49343 3.35013C7.37528 3.35292 7.26299 3.40207 7.1808 3.48694L4.4999 6.16783L1.81873 3.48667C1.77696 3.44394 1.7271 3.40996 1.67205 3.38671C1.61665 3.36332 1.55712 3.35126 1.49698 3.35126L1.49693 3.35126C1.40742 3.35128 1.31994 3.378 1.24569 3.428C1.17144 3.478 1.11378 3.549 1.0801 3.63194C1.04641 3.71488 1.03823 3.80598 1.05659 3.89359C1.07487 3.98084 1.11866 4.06069 1.18237 4.12301L4.18173 7.12236L4.18175 7.12238C4.26614 7.20674 4.38058 7.25413 4.4999 7.25413C4.61923 7.25413 4.73366 7.20674 4.81806 7.12238L4.81808 7.12236L7.81716 4.12328C7.88187 4.0606 7.92629 3.97993 7.94465 3.8917C7.96311 3.80294 7.95434 3.71067 7.91948 3.62698C7.88461 3.54328 7.82528 3.47207 7.74926 3.42267C7.67324 3.37327 7.58407 3.34799 7.49343 3.35013Z" fill="#161616" stroke="#161616" stroke-width="0.3"/>
</svg>
