<svg width="35" height="55" viewBox="0 0 35 55" fill="none" xmlns="http://www.w3.org/2000/svg">
<g clip-path="url(#clip0)">
<path d="M20.7986 0.849938C20.9329 0.565337 21.0384 0.265928 21.2092 0C21.6877 9.87988 27.9783 17.6349 33.2966 25.4466C34.3866 27.0712 34.8088 29.0659 34.963 30.9944C35.1811 34.512 34.4615 38.1094 32.4797 41.0565C31.3047 42.6714 30.301 44.7911 28.3647 45.5715C27.1052 45.2064 26.1271 46.0911 25.1861 46.7987C24.3213 47.3461 23.4615 47.9977 22.447 48.2237C22.8135 46.8663 23.3374 46.4369 24.4933 45.7685C28.856 42.3391 37.9541 35.3181 32.8501 29.2984C32.2047 32.496 31.082 35.8017 28.8943 38.2846C27.0661 40.2748 24.462 41.2626 22.2295 42.7075C22.0012 45.7511 21.8994 48.9448 20.6661 51.776C20.0808 52.9634 18.8686 53.6188 17.611 53.8403C15.7681 54.087 13.9143 54.3052 12.1699 55C15.1387 53.1739 18.2181 51.154 19.7719 47.8335C20.4787 46.4427 21.1536 45.0042 19.8435 43.7209C19.1846 43.9032 17.7857 44.5631 17.7083 43.417C17.8119 42.041 17.7063 40.3946 18.749 39.3431C19.351 38.705 19.6139 39.5633 20.5184 39.1216C20.9534 38.9645 21.2994 38.6348 21.7338 38.4764C22.0325 38.3741 22.3191 38.224 22.5551 38.0109C22.8174 37.707 22.9773 37.3239 23.3067 37.0753C23.3502 37.0856 23.436 37.1062 23.4788 37.1172C23.6131 37.3651 23.7072 37.6323 23.7967 37.9001C25.4247 37.3767 26.3926 35.6974 26.2505 34.0155C26.3708 30.9712 29.2244 28.97 32.0211 28.6159C27.4864 22.2877 22.7425 15.8558 20.5523 8.25341C20.1122 6.50718 19.3785 4.57035 19.9132 2.78226C20.2126 2.14094 20.5005 1.49319 20.7986 0.849938ZM29.5596 33.2371C28.2751 33.7857 26.8614 34.6691 26.8205 36.2389C28.4107 35.5705 29.5788 34.1585 30.4053 32.6769C30.134 32.8791 29.8635 33.0864 29.5596 33.2371Z" fill="#0097FF"/>
<path d="M18.1994 3.90714C18.3997 6.61149 18.5621 9.35318 19.2204 12.0009C20.3033 14.3627 20.8413 16.908 20.636 19.5215C21.5507 18.933 22.4578 18.3336 23.3751 17.7483C24.4689 24.5194 22.8672 33.0813 15.4699 35.284C14.8827 35.5274 14.4548 36.1391 14.4855 36.7875C15.7533 42.7577 5.9157 50.2629 1.56333 45.1304C0.559677 48.2662 2.25738 50.7909 5.33679 51.5751C8.87549 52.2995 11.5519 48.9069 13.2503 46.2366C15.6618 42.9264 13.9545 37.7688 17.1037 34.9704C18.1566 36.0876 18.6978 38.7495 17.1932 39.6567C15.5486 41.6206 15.539 46.7762 14.8456 49.4316C13.1185 52.7676 7.04346 54.2293 3.81308 52.615C0.937727 51.1412 0.301247 47.5437 1.16993 44.6572C-3.30526 35.4115 6.18373 28.2984 10.6308 21.2678C9.12561 20.0946 9.89067 17.7412 10.7197 16.3684C11.4035 16.3516 11.9619 16.9627 12.5517 17.2602C12.9016 16.2802 12.8242 15.2525 12.6611 14.2442C13.2164 12.7999 14.2776 11.489 15.0612 10.1355C15.5512 12.326 14.0211 15.6498 13.2918 17.7727C14.4868 18.9137 13.8061 20.676 13.0526 21.8672C13.6769 22.4596 15.5601 23.2349 15.3586 24.1672C15.2185 25.4138 15.0286 26.7814 14.0876 27.6932C8.9836 25.2586 14.1695 23.052 11.1444 21.5755C7.35754 27.8831 -2.15512 35.0001 1.63881 43.1234C2.32199 41.7803 3.56489 40.77 4.98753 40.3154C5.1257 39.2472 5.58115 38.2376 6.22211 37.3812C3.40369 37.1037 4.61012 34.9267 5.37901 33.1502C5.99502 32.1624 7.64731 33.0607 8.41877 33.485C8.94458 34.2371 8.0324 35.7702 7.78868 36.5718C11.7451 36.5093 8.65481 41.6824 7.64987 40.9503C5.47752 39.9645 2.78896 41.1022 2.00087 43.3732C5.83702 46.8451 12.4494 40.1177 13.2726 36.3188C9.4608 37.0831 10.1011 35.2441 9.622 32.353C9.23372 28.7582 12.4711 28.9848 14.0236 31.4529C17.1497 29.95 21.5219 27.7028 22.0682 23.8936C20.565 25.079 18.7022 25.7679 17.286 27.1021C16.8145 26.0435 16.7071 24.8697 16.5964 23.7287C16.4634 22.5433 16.5408 22.1608 17.4811 21.3888C23.2056 15.9698 13.1479 15.5848 18.1994 3.90714Z" fill="#0097FF"/>
<path d="M28.6236 48.6969L31.1753 48.6957C31.6985 48.6899 32.2276 49.0228 32.39 49.5353C32.5762 50.0446 32.3964 50.5803 32.3203 51.0922C32.2205 51.5784 32.1962 52.0999 31.9224 52.5294C31.5885 53.1031 30.9399 53.4572 30.2823 53.4566L27.7805 53.4527L28.6236 48.6969ZM29.2857 49.4748L28.724 52.6865L30.2196 52.6781C30.5107 52.6794 30.8215 52.6247 31.0512 52.4302C31.2501 52.2525 31.3512 51.9905 31.3921 51.7316C31.4778 51.2371 31.5687 50.7432 31.6493 50.2481C31.6947 50.0182 31.6167 49.7503 31.419 49.6158C31.2367 49.4883 31.0051 49.4754 30.7908 49.4748C30.2893 49.4767 29.7878 49.4767 29.2857 49.4748Z" fill="#0097FF"/>
<path d="M27.0718 48.6995L26.7283 50.6383L24.1932 50.6537L24.5393 48.6995H23.7454L22.9023 53.4553H23.6968L24.0525 51.4483L26.585 51.447L26.2287 53.4553H27.0232L27.8656 48.6995H27.0718Z" fill="#0097FF"/>
</g>
<defs>
<clipPath id="clip0">
<rect width="35" height="55" fill="white"/>
</clipPath>
</defs>
</svg>
