<svg width="112" height="158" viewBox="0 0 112 158" fill="none" xmlns="http://www.w3.org/2000/svg">
<path d="M60.0592 79.7275C56.7507 82.1247 53.2435 84.235 49.5758 86.0352C49.4031 105.075 26.4733 115.335 20.7211 106.989C20.5597 106.756 20.4052 106.524 20.2575 106.293C18.9082 112.082 20.9726 118.61 29.2396 120.633C29.2396 120.633 43.9944 125.287 48.3221 105.287C52.4247 86.3317 49.9868 86.2248 57.7621 82.7491C57.8787 82.6964 58.0079 82.6785 58.1344 82.6975C58.2609 82.7165 58.3792 82.7717 58.4751 82.8563C58.571 82.9409 58.6405 83.0514 58.6751 83.1746C58.7098 83.2977 58.7081 83.4282 58.6704 83.5504C57.7844 86.5145 57.0763 89.5289 56.5497 92.5775C56.4814 92.9599 56.3154 93.3181 56.0678 93.6173C55.8202 93.9166 55.4994 94.1467 55.1365 94.2853C54.596 94.4918 54.0555 94.7395 53.9617 94.9271C53.774 95.3194 51.6665 103.714 51.1466 109.091C50.6268 114.468 47.8023 122.402 36.9829 124.105C26.1636 125.807 15.425 120.875 19.2122 105.942C19.2948 105.619 19.383 105.306 19.4768 105.003C11.1591 90.4305 22.5021 77.1601 35.429 60.2733C37.1682 58.0232 38.7677 55.6685 40.2184 53.2225C38.824 52.057 37.6323 50.7827 37.5028 49.7449C37.2307 47.536 41.9657 42.9886 41.9657 42.9886C41.9657 42.9886 42.9547 43.5648 44.2177 44.4243C45.9312 38.8092 44.9909 35.2659 44.5706 34.1173L49.6152 27.0796C49.8704 28.2394 51.4263 36.3863 47.0966 46.6239C48.3128 47.6917 49.2962 48.8253 49.4144 49.7618C49.6865 51.9707 44.9515 56.518 44.9515 56.518C44.9515 56.518 43.8255 55.8574 42.4348 54.8965C41.7104 55.9124 40.9172 56.9346 40.0551 57.9631C27.0119 73.4611 11.8573 89.8956 20.7549 101.933C23.112 97.6165 26.6628 96.1151 28.0572 95.6778C27.7787 95.3463 27.5671 94.9639 27.4341 94.5518C27.1001 93.2831 28.0234 91.2732 29.035 89.5747C27.6068 88.428 26.0322 86.9736 25.762 85.9695C25.0751 83.3684 29.5286 78.0478 29.5286 78.0478C29.5286 78.0478 33.7062 80.0559 35.384 83.4359C36.0052 84.684 35.0199 86.6714 33.8826 88.3455C35.5716 89.6254 37.4484 91.2919 37.5065 92.4574C37.6942 96.3384 33.3946 100.011 33.3946 100.011C33.3946 100.011 30.5683 98.2752 28.7929 96.4998C25.7263 97.1961 23.0951 99.7016 21.5037 102.869C28.6672 111.176 43.1274 97.3763 46.406 87.4559C43.6622 88.5819 41.7142 89.0642 41.1061 88.8916C41.1061 88.8916 39.9501 86.9379 38.7865 81.9871C37.6229 77.0363 38.4768 73.0933 42.2303 71.9916C45.9837 70.89 48.2921 76.0548 48.2921 76.0548C48.2921 76.0548 59.0458 71.7383 62.0335 68.758C65.0213 65.7778 65.5749 59.8379 65.5749 59.8379C65.5749 59.8379 55.9285 65.2054 55.1609 66.17C54.3934 67.1347 52.3158 56.5105 53.6596 55.0973C55.0033 53.6841 60.6241 50.2966 60.6241 50.2966C60.6241 50.2966 53.1998 31.321 52.7287 22.735L56.9326 16.8721C56.8462 26.1375 60.7048 39.0175 64.5765 48.0258L68.4989 46.0984C68.4989 46.0984 72.4212 70.7811 60.0592 79.7275Z" fill="#257AA0"/>
<path d="M46.5356 69.792C46.5356 69.792 39.7418 66.0067 39.8188 63.4581C39.8751 61.5945 44.9479 56.5142 44.9479 56.5142C44.9479 56.5142 51.5934 60.2676 51.5164 62.8125C51.4601 64.6779 46.5356 69.792 46.5356 69.792Z" fill="#257AA0"/>
<path d="M89.0584 60.0833C76.4994 43.4142 68.6208 29.258 63.9497 7.10889L62.8236 8.63279L59.9541 12.6452C63.199 34.2577 77.4621 56.4706 88.8407 70.2233C78.0045 71.4676 74.129 80.2507 73.9883 85.072C73.8475 89.8933 71.055 90.0078 71.055 90.0078C68.8667 89.5893 68.634 87.4235 68.634 87.4235C66.8623 92.5001 64.4489 92.3593 61.4161 93.0725C55.6339 94.4275 55.9848 99.551 56.6999 102.456C56.7658 102.726 56.8864 102.979 57.0542 103.2C57.222 103.421 57.4335 103.605 57.6754 103.741C57.9173 103.877 58.1846 103.962 58.4607 103.991C58.7368 104.019 59.0158 103.991 59.2804 103.907L61.2791 103.278C62.8086 105.763 63.0263 108.569 61.5718 111.16C58.0173 117.496 53.7609 123.907 44.0488 128.449H44.2647C64.6797 128.449 63.5537 119.992 66.091 102.603C66.2149 101.747 66.5245 100.936 67.3278 100.615C88.1595 92.2824 90.3327 71.9931 90.3327 71.9931C90.5204 72.2108 90.7081 72.4247 90.8845 72.6349C103.975 87.7801 67.3109 111.258 67.3109 111.258L66.7948 114.42L78.4174 107.664C79.8306 107.045 80.2791 108.415 80.2791 108.415C103.226 88.6734 94.2213 66.9371 89.0584 60.0833ZM78.637 85.7664C78.4643 82.3883 80.9754 76.4972 85.5114 75.1704C84.9916 80.5941 81.4427 84.7905 78.637 85.7664Z" fill="#257AA0"/>
<path d="M80.3074 120.463V114.12C80.3072 113.899 80.2489 113.682 80.1383 113.49C80.0277 113.299 79.8687 113.14 79.6773 113.029C79.4859 112.918 79.2687 112.86 79.0476 112.86C78.8265 112.86 78.6092 112.918 78.4175 113.028L72.9243 116.199L67.4293 119.371C67.2375 119.482 67.0783 119.641 66.9676 119.833C66.8569 120.024 66.7986 120.242 66.7986 120.463C66.7986 120.685 66.8569 120.902 66.9676 121.094C67.0783 121.286 67.2375 121.445 67.4293 121.556L72.9243 124.727L78.4175 127.899C78.6091 128.01 78.8265 128.068 79.0478 128.068C79.2692 128.068 79.4866 128.01 79.6782 127.899C79.8699 127.788 80.0289 127.629 80.1394 127.437C80.2498 127.246 80.3078 127.028 80.3074 126.807V120.463Z" fill="#257AA0"/>
<path d="M10.874 142.674V137.868H16.6018V138.788H12.2253V142.674H10.874Z" fill="#257AA0"/>
<path d="M19.6064 142.674C17.9173 142.674 17.2961 142.44 17.2961 141.196V139.345C17.2961 138.131 17.923 137.868 19.6064 137.868H22.2976C23.9867 137.868 24.6098 138.131 24.6098 139.345V141.196C24.6098 142.44 23.9829 142.674 22.2976 142.674H19.6064ZM22.1325 141.753C22.9732 141.753 23.2585 141.637 23.2585 140.991V139.561C23.2585 138.964 22.9357 138.788 22.1325 138.788H19.7734C18.9495 138.788 18.6361 138.964 18.6361 139.561V140.991C18.6361 141.637 18.9214 141.753 19.7734 141.753H22.1325Z" fill="#257AA0"/>
<path d="M26.4489 137.868H32.6421V142.674H31.3021V138.788H27.6144V138.964C27.6144 142.215 27.1827 142.674 25.4711 142.674H25.1277V141.753H25.2891C26.2387 141.753 26.4433 141.539 26.4433 138.818L26.4489 137.868Z" fill="#257AA0"/>
<path d="M36.0241 142.674C34.3351 142.674 33.7139 142.44 33.7139 141.196V139.345C33.7139 138.131 34.3407 137.868 36.0241 137.868H38.7153C40.4044 137.868 41.0256 138.131 41.0256 139.345V141.196C41.0256 142.44 40.4006 142.674 38.7153 142.674H36.0241ZM38.5502 141.753C39.391 141.753 39.6856 141.637 39.6856 140.991V139.561C39.6856 138.964 39.3628 138.788 38.5502 138.788H36.1911C35.3673 138.788 35.0539 138.964 35.0539 139.561V140.991C35.0539 141.637 35.3391 141.753 36.1911 141.753H38.5502Z" fill="#257AA0"/>
<path d="M44.3247 142.674C42.6112 142.674 42.0444 142.4 42.0444 141.196V139.345C42.0444 138.17 42.6225 137.868 44.3247 137.868H48.2226V138.788H44.4823C43.649 138.788 43.375 138.975 43.375 139.561V140.991C43.375 141.578 43.649 141.753 44.4917 141.753H48.2226V142.674H44.3247Z" fill="#257AA0"/>
<path d="M58.0699 142.674V138.992L53.5282 142.674H52.2051V137.868H53.5469V141.539L58.0605 137.868H59.4117V142.674H58.0699Z" fill="#257AA0"/>
<path d="M62.7203 142.674C61.0069 142.674 60.4382 142.4 60.4382 141.196V139.345C60.4382 138.17 61.0163 137.868 62.7203 137.868H66.6164V138.788H62.8761C62.0447 138.788 61.7707 138.975 61.7707 139.561V140.991C61.7707 141.578 62.0447 141.753 62.8874 141.753H66.6164V142.674H62.7203Z" fill="#257AA0"/>
<path d="M70.2293 142.674V138.788H67.3279V137.868H74.4782V138.788H71.5805V142.674H70.2293Z" fill="#257AA0"/>
<path d="M81.1443 142.674V138.992L76.6026 142.674H75.2795V137.868H76.6214V141.539L81.1349 137.868H82.4862V142.674H81.1443Z" fill="#257AA0"/>
<path d="M83.5522 142.674V137.868H84.9035V139.826H89.417V137.868H90.7589V142.674H89.417V140.755H84.9035V142.684L83.5522 142.674Z" fill="#257AA0"/>
<path d="M91.8247 142.674V137.868H93.1666V139.043H96.4752C98.1099 139.043 98.7667 139.296 98.7667 140.481V141.231C98.7667 142.436 98.1793 142.671 96.4752 142.671L91.8247 142.674ZM97.4436 140.678C97.4436 140.07 97.1115 139.904 96.2688 139.904H93.1666V141.753H96.2688C97.1509 141.753 97.4436 141.607 97.4436 141.002V140.678ZM99.7745 142.674V137.868H101.126V142.674H99.7745Z" fill="#257AA0"/>
<path d="M23.5605 149.966V148.262L21.4642 149.962H20.8542V147.746H21.4736V149.435L23.5567 147.746H24.1798V149.966H23.5605Z" fill="#257AA0"/>
<path d="M25.7074 149.966C24.9173 149.966 24.6545 149.838 24.6545 149.283V148.429C24.6545 147.886 24.921 147.746 25.7074 147.746H27.5072V148.17H25.7806C25.3958 148.17 25.2701 148.262 25.2701 148.528V149.187C25.2701 149.459 25.3959 149.54 25.7843 149.54H27.5072V149.966H25.7074Z" fill="#257AA0"/>
<path d="M28.4438 147.746H31.304V149.966H30.6847V148.17H28.9806V148.262C28.9806 149.763 28.7817 149.975 27.9916 149.975H27.832V149.549H27.9165C28.3556 149.549 28.4514 149.45 28.4514 148.194L28.4438 147.746Z" fill="#257AA0"/>
<path d="M32.7829 149.966C32.0003 149.966 31.7432 149.847 31.7432 149.324V149.228C31.7432 148.735 31.9308 148.622 32.7923 148.622H34.3969V148.506C34.3969 148.202 34.2505 148.13 33.8132 148.13H31.8745V147.755H33.954C34.7403 147.755 35.0105 147.881 35.0105 148.438V149.975L32.7829 149.966ZM34.3969 149.581V148.888H32.8673C32.4788 148.888 32.3437 148.952 32.3437 149.202V149.269C32.3437 149.517 32.4788 149.581 32.8673 149.581H34.3969Z" fill="#257AA0"/>
<path d="M38.7359 149.966V148.339L37.6455 149.966H37.1219L36.0371 148.342V149.966H35.5042V147.746H36.1591L37.4015 149.485L38.6533 147.746H39.2726V149.966H38.7359Z" fill="#257AA0"/>
<path d="M40.7965 149.966C40.0045 149.966 39.7437 149.838 39.7437 149.283V148.429C39.7437 147.886 40.0101 147.746 40.7965 147.746H42.5963V148.17H40.8659C40.4812 148.17 40.3536 148.262 40.3536 148.528V149.187C40.3536 149.459 40.4812 149.54 40.8697 149.54H42.5925V149.966H40.7965Z" fill="#257AA0"/>
<path d="M45.7904 149.966V149.346C45.7904 149.097 45.6872 148.988 45.3888 148.988H43.6622V149.966H43.0466V147.746H43.6622V148.782L45.3663 147.746H46.0944L44.6343 148.605H45.5877C46.1507 148.605 46.406 148.834 46.406 149.283V149.966H45.7904Z" fill="#257AA0"/>
<path d="M49.5121 149.966V148.262L47.4139 149.962H46.804V147.746H47.4233V149.435L49.5064 147.746H50.1314V149.966H49.5121Z" fill="#257AA0"/>
<path d="M53.3312 149.966V148.262L51.2331 149.962H50.625V147.746H51.2443V149.435L53.3275 147.746H53.9524V149.966H53.3312ZM52.1564 147.466C51.6497 147.466 51.4414 147.38 51.4414 146.841V146.484H51.751V146.86C51.751 147.168 51.8561 147.216 52.1545 147.216H52.406C52.6969 147.216 52.8039 147.168 52.8039 146.86V146.484H53.1173V146.841C53.1173 147.366 52.9296 147.466 52.406 147.466H52.1564Z" fill="#257AA0"/>
<path d="M59.0701 149.966V148.339L57.9797 149.966H57.4561L56.3714 148.342V149.966H55.8384V147.746H56.4934L57.7358 149.485L58.9875 147.746H59.6069V149.966H59.0701Z" fill="#257AA0"/>
<path d="M61.1232 149.966C60.3725 149.966 60.0703 149.778 60.0703 149.179V148.428C60.0703 147.95 60.4006 147.751 61.05 147.751H62.5833C63.135 147.751 63.334 147.939 63.334 148.338V148.547C63.334 148.967 63.1857 149.076 62.6658 149.076H60.6746V149.153C60.6746 149.481 60.8341 149.577 61.2808 149.577H63.1988V149.971L61.1232 149.966ZM62.3881 148.798C62.6508 148.798 62.7372 148.744 62.7372 148.545V148.432C62.7372 148.233 62.6283 148.143 62.3487 148.143H61.1344C60.8266 148.143 60.6671 148.243 60.6671 148.477V148.798H62.3881Z" fill="#257AA0"/>
<path d="M63.6399 150.685V149.54H63.7619C64.201 149.54 64.2949 149.44 64.2949 148.185V147.746H67.1569V149.54H67.5153V150.685H67.0799V149.966H64.0772V150.685H63.6399ZM64.6946 149.54H66.5338V148.17H64.8297V148.262C64.8297 148.885 64.7941 149.286 64.7002 149.54H64.6946Z" fill="#257AA0"/>
<path d="M70.5877 149.966V148.262L68.4914 149.962H67.8909V147.746H68.5102V149.435L70.5934 147.746H71.2164V149.966H70.5877Z" fill="#257AA0"/>
<path d="M73.0729 149.966C72.2922 149.966 72.0332 149.847 72.0332 149.324V149.228C72.0332 148.735 72.2209 148.622 73.0823 148.622H74.6869V148.506C74.6869 148.202 74.5424 148.13 74.1032 148.13H72.1646V147.755H74.244C75.0303 147.755 75.3025 147.881 75.3025 148.438V149.975L73.0729 149.966ZM74.6869 149.581V148.888H73.1592C72.7708 148.888 72.6356 148.952 72.6356 149.202V149.269C72.6356 149.517 72.7708 149.581 73.1592 149.581H74.6869Z" fill="#257AA0"/>
<path d="M79.0482 150.685V149.966H75.7939V147.746H76.4189V149.54H78.5021V147.746H79.1214V149.54H79.4836V150.685H79.0482Z" fill="#257AA0"/>
<path d="M80.8067 149.966C80.0561 149.966 79.7539 149.778 79.7539 149.179V148.428C79.7539 147.95 80.0842 147.751 80.7354 147.751H82.2668C82.8186 147.751 83.0175 147.939 83.0175 148.338V148.547C83.0175 148.967 82.8693 149.076 82.3494 149.076H80.3601V149.153C80.3601 149.481 80.5177 149.577 80.9644 149.577H82.8918V149.971L80.8067 149.966ZM82.0735 148.798C82.3344 148.798 82.4207 148.744 82.4207 148.545V148.432C82.4207 148.233 82.3119 148.143 82.0322 148.143H80.8255C80.5177 148.143 80.3601 148.243 80.3601 148.477V148.798H82.0735Z" fill="#257AA0"/>
<path d="M88.581 149.966V148.17H87.2429V147.746H90.5441V148.17H89.206V149.966H88.581Z" fill="#257AA0"/>
<path d="M91.5348 149.966V150.889H90.9155V147.746H93.1207C93.8995 147.746 94.1792 147.864 94.1792 148.429V149.279C94.1792 149.842 93.9033 149.966 93.1207 149.966H91.5348ZM93.5598 148.528C93.5598 148.247 93.4153 148.17 93.0437 148.17H91.5424V149.54H93.0343C93.436 149.54 93.5673 149.463 93.5673 149.183L93.5598 148.528Z" fill="#257AA0"/>
<path d="M88.7976 128.181C88.6574 128.181 88.5203 128.139 88.4041 128.06C88.2879 127.982 88.1978 127.87 88.1453 127.74C88.0929 127.61 88.0805 127.467 88.1098 127.33C88.1391 127.193 88.2087 127.068 88.3097 126.97C89.1871 126.13 89.8852 125.12 90.3622 124.002C90.8391 122.884 91.085 121.682 91.085 120.467C91.085 119.251 90.8391 118.049 90.3622 116.931C89.8852 115.813 89.1871 114.804 88.3097 113.963C88.2429 113.899 88.1894 113.822 88.1521 113.738C88.1149 113.653 88.0947 113.562 88.0927 113.469C88.0907 113.377 88.1069 113.285 88.1404 113.199C88.174 113.113 88.2241 113.034 88.2881 112.967C88.3521 112.9 88.4285 112.847 88.5132 112.81C88.5978 112.772 88.689 112.752 88.7814 112.75C88.8739 112.748 88.9658 112.764 89.052 112.798C89.1382 112.831 89.2169 112.882 89.2837 112.946C90.2997 113.918 91.1083 115.085 91.6608 116.378C92.2133 117.671 92.4982 119.063 92.4984 120.469C92.4986 121.875 92.214 123.267 91.6618 124.56C91.1097 125.853 90.3013 127.021 89.2856 127.993C89.1536 128.117 88.9785 128.184 88.7976 128.181Z" fill="#257AA0"/>
<path d="M83.2274 124.964C83.0585 124.964 82.8951 124.904 82.767 124.794C82.639 124.683 82.5549 124.531 82.5301 124.364C82.5053 124.197 82.5414 124.026 82.6319 123.883C82.7223 123.741 82.8611 123.635 83.0229 123.587C83.6841 123.383 84.2645 122.977 84.6819 122.425C85.1057 121.859 85.3348 121.171 85.3348 120.465C85.3348 119.758 85.1057 119.07 84.6819 118.504C84.2656 117.952 83.6857 117.545 83.0247 117.341C82.9363 117.314 82.8539 117.27 82.7825 117.211C82.711 117.153 82.6518 117.08 82.6082 116.999C82.5647 116.917 82.5376 116.828 82.5286 116.736C82.5195 116.644 82.5287 116.551 82.5556 116.462C82.5824 116.374 82.6264 116.292 82.6851 116.22C82.7438 116.149 82.816 116.09 82.8975 116.046C82.9791 116.002 83.0684 115.975 83.1605 115.966C83.2525 115.957 83.3454 115.966 83.4339 115.993C84.38 116.285 85.2101 116.867 85.806 117.658C86.4138 118.467 86.7423 119.452 86.7423 120.465C86.7423 121.477 86.4138 122.462 85.806 123.271C85.2092 124.061 84.3794 124.642 83.4339 124.934C83.3669 124.954 83.2973 124.964 83.2274 124.964Z" fill="#257AA0"/>
<path d="M86.0951 126.621C85.9472 126.621 85.8032 126.574 85.6835 126.487C85.5637 126.401 85.4743 126.278 85.428 126.138C85.3817 125.997 85.3808 125.846 85.4254 125.705C85.47 125.564 85.5579 125.441 85.6766 125.352C86.4281 124.796 87.0419 124.074 87.4707 123.243C87.9123 122.383 88.1427 121.43 88.1427 120.464C88.1427 119.497 87.9123 118.544 87.4707 117.684C87.0419 116.854 86.4281 116.132 85.6766 115.577C85.5435 115.46 85.4592 115.298 85.4404 115.122C85.4216 114.946 85.4698 114.769 85.5754 114.627C85.6809 114.485 85.8361 114.388 86.01 114.355C86.1838 114.323 86.3637 114.357 86.5136 114.451C87.4558 115.146 88.2215 116.053 88.7492 117.099C89.2769 118.144 89.5518 119.299 89.5518 120.47C89.5518 121.641 89.2769 122.796 88.7492 123.842C88.2215 124.887 87.4558 125.794 86.5136 126.49C86.3916 126.577 86.245 126.623 86.0951 126.621Z" fill="#257AA0"/>
<path d="M83.5408 149.971V147.75H84.1651V148.654H86.2507V147.75H86.8708V149.971H86.2507V149.084H84.1651V149.975L83.5408 149.971Z" fill="#257AA0"/>
</svg>
