<svg width="14" height="14" viewBox="0 0 14 14" fill="none" xmlns="http://www.w3.org/2000/svg">
<path d="M3.53192 2.13738L3.53091 2.03739C3.40329 2.03867 3.27983 2.083 3.18054 2.16318C1.75366 3.29154 0.83335 5.04018 0.83335 7.00001C0.83335 8.96004 1.75384 10.7088 3.18096 11.8372L3.18102 11.8372C3.29902 11.9304 3.44918 11.9728 3.59848 11.9553C3.74778 11.9377 3.884 11.8616 3.97717 11.7436C4.07035 11.6257 4.11285 11.4755 4.09533 11.3262C4.07782 11.1769 4.00172 11.0407 3.88378 10.9475C2.71618 10.0243 1.96668 8.60432 1.96668 7.00001C1.96668 5.39594 2.71596 3.97612 3.88328 3.05295C3.97728 2.9805 4.04617 2.88037 4.08023 2.76667C4.11435 2.65273 4.11177 2.53095 4.07284 2.41857C4.03391 2.30619 3.96061 2.2089 3.86332 2.14049L3.80633 2.22153L3.86332 2.14049C3.76603 2.07208 3.64968 2.03601 3.53075 2.03739L3.53192 2.13738ZM3.53192 2.13738C3.42664 2.13844 3.32482 2.17506 3.24298 2.24129L3.82176 2.9741C3.89942 2.91441 3.95633 2.8318 3.98443 2.73797C4.01254 2.64414 4.01041 2.54385 3.97835 2.4513C3.94628 2.35875 3.88592 2.27863 3.8058 2.22229C3.72567 2.16595 3.62986 2.13625 3.53192 2.13738ZM10.4526 2.0374C10.3351 2.03948 10.2212 2.07803 10.1266 2.1477C10.0319 2.2174 9.96132 2.31479 9.92448 2.4264C9.88764 2.53801 9.88641 2.6583 9.92097 2.77064C9.95545 2.88273 10.0239 2.98136 10.1167 3.05294C11.2841 3.97611 12.0333 5.39594 12.0333 7.00001C12.0333 8.60432 11.2839 10.0243 10.1162 10.9475C10.0578 10.9936 10.0091 11.0508 9.97276 11.1158C9.93643 11.1808 9.91325 11.2523 9.90456 11.3262C9.89587 11.4002 9.90183 11.4751 9.9221 11.5467C9.94237 11.6184 9.97656 11.6853 10.0227 11.7438C10.0689 11.8022 10.1261 11.851 10.1911 11.8873C10.2561 11.9236 10.3276 11.9467 10.4015 11.9554C10.4755 11.9641 10.5504 11.9581 10.622 11.9378C10.6937 11.9176 10.7606 11.8834 10.819 11.8372L10.8191 11.8372C12.2462 10.7088 13.1667 8.96004 13.1667 7.00001C13.1667 5.0402 12.2464 3.29157 10.8195 2.16321C10.7158 2.07942 10.5859 2.03487 10.4526 2.0374ZM10.4526 2.0374C10.4526 2.0374 10.4526 2.0374 10.4525 2.0374L10.4544 2.13738L10.4527 2.0374C10.4527 2.0374 10.4526 2.0374 10.4526 2.0374ZM4.97538 3.8676L4.97542 3.8676C5.09434 3.86622 5.21069 3.90228 5.30798 3.9707C5.40527 4.03911 5.47857 4.13639 5.5175 4.24878C5.55643 4.36116 5.55901 4.48294 5.52489 4.59687C5.49083 4.71058 5.42194 4.81071 5.32793 4.88316C4.70104 5.37888 4.30002 6.13838 4.30002 7.00001C4.30002 7.86152 4.70092 8.62092 5.32765 9.11665C5.38736 9.16202 5.43747 9.2188 5.47508 9.28369C5.51287 9.3489 5.53728 9.42099 5.54687 9.49574C5.55646 9.5705 5.55105 9.64642 5.53094 9.71906C5.51083 9.79169 5.47644 9.85959 5.42977 9.91877C5.3831 9.97796 5.32509 10.0272 5.25915 10.0637C5.1932 10.1002 5.12064 10.1232 5.04571 10.1313C4.97078 10.1394 4.89498 10.1325 4.82276 10.1109C4.75083 10.0895 4.68389 10.0539 4.62581 10.0064C4.62557 10.0062 4.62533 10.006 4.62509 10.0058L4.68856 9.92853L4.97538 3.8676ZM4.97538 3.8676C4.84813 3.86913 4.72511 3.91344 4.62611 3.99339L4.97538 3.8676ZM9.00802 3.86761L9.00806 3.86761C9.14101 3.86532 9.27052 3.90986 9.37394 3.99341C10.2604 4.69429 10.8333 5.78269 10.8333 7.00001C10.8333 8.21722 10.2605 9.30553 9.37419 10.0064M9.00802 3.86761L9.31147 9.92853M9.00802 3.86761C8.89051 3.86967 8.77655 3.90822 8.68192 3.97791C8.58728 4.04761 8.51666 4.145 8.47982 4.25661C8.44298 4.36821 8.44175 4.48851 8.47631 4.60085C8.51079 4.71295 8.57921 4.81159 8.67211 4.88317M9.00802 3.86761L8.67211 4.88317M9.37419 10.0064C9.37396 10.0066 9.37372 10.0068 9.37348 10.007L9.31147 9.92853M9.37419 10.0064C9.37444 10.0062 9.37469 10.006 9.37494 10.0058L9.31147 9.92853M9.37419 10.0064C9.31612 10.0539 9.24919 10.0895 9.17727 10.1109C9.10505 10.1325 9.02925 10.1394 8.95432 10.1313C8.87939 10.1232 8.80683 10.1002 8.74088 10.0637C8.67494 10.0272 8.61693 9.97795 8.57026 9.91877C8.52359 9.85959 8.4892 9.79169 8.46909 9.71906C8.44898 9.64642 8.44357 9.5705 8.45316 9.49574C8.46275 9.42099 8.48716 9.3489 8.52495 9.28369C8.56256 9.2188 8.61267 9.16202 8.67238 9.11665M9.31147 9.92853C9.26351 9.96792 9.20816 9.99735 9.14869 10.0151C9.08921 10.0328 9.02678 10.0385 8.96508 10.0319C8.90337 10.0252 8.84361 10.0063 8.7893 9.97623C8.73499 9.94617 8.68722 9.90559 8.64879 9.85685C8.61035 9.80811 8.58203 9.7522 8.56547 9.69238C8.54891 9.63256 8.54445 9.57003 8.55234 9.50847C8.56024 9.44691 8.58034 9.38753 8.61147 9.33383C8.64259 9.28013 8.68412 9.23318 8.73361 9.19572M8.67238 9.11665C8.67212 9.11685 8.67186 9.11706 8.6716 9.11726L8.73361 9.19572M8.67238 9.11665C9.29911 8.62092 9.70001 7.86152 9.70001 7.00001C9.70001 6.13838 9.299 5.37889 8.67211 4.88317M8.67238 9.11665C8.67267 9.11642 8.67297 9.1162 8.67326 9.11598L8.73361 9.19572M8.73361 9.19572L8.67211 4.88317M7.00002 5.50001C6.60219 5.50001 6.22066 5.65805 5.93935 5.93935C5.65805 6.22066 5.50002 6.60219 5.50002 7.00001C5.50002 7.39784 5.65805 7.77937 5.93935 8.06067C6.22066 8.34198 6.60219 8.50001 7.00002 8.50001C7.39784 8.50001 7.77937 8.34198 8.06068 8.06067C8.34198 7.77937 8.50001 7.39784 8.50001 7.00001C8.50001 6.60219 8.34198 6.22066 8.06068 5.93935C7.77937 5.65805 7.39784 5.50001 7.00002 5.50001Z" fill="#0097FF" stroke="#0097FF" stroke-width="0.2"/>
</svg>
