<svg width="27" height="31" viewBox="0 0 27 31" fill="none" xmlns="http://www.w3.org/2000/svg">
<path d="M7.93742 4.37496C7.93742 2.32611 6.27794 0.666626 4.22909 0.666626C2.18023 0.666626 0.520752 2.32611 0.520752 4.37496V26.625C0.520752 28.6738 2.18023 30.3333 4.22909 30.3333C6.27794 30.3333 7.93742 28.6738 7.93742 26.625V4.37496Z" fill="white"/>
<path d="M7.93742 4.37496C7.93742 2.32611 6.27794 0.666626 4.22909 0.666626C2.18023 0.666626 0.520752 2.32611 0.520752 4.37496V26.625C0.520752 28.6738 2.18023 30.3333 4.22909 30.3333C6.27794 30.3333 7.93742 28.6738 7.93742 26.625V4.37496Z" fill="#257AA0" fill-opacity="0.1"/>
<path d="M26.4791 4.37496C26.4791 2.32611 24.8196 0.666626 22.7708 0.666626C20.7219 0.666626 19.0624 2.32611 19.0624 4.37496V26.625C19.0624 28.6738 20.7219 30.3333 22.7708 30.3333C24.8196 30.3333 26.4791 28.6738 26.4791 26.625V4.37496Z" fill="white"/>
<path d="M26.4791 4.37496C26.4791 2.32611 24.8196 0.666626 22.7708 0.666626C20.7219 0.666626 19.0624 2.32611 19.0624 4.37496V26.625C19.0624 28.6738 20.7219 30.3333 22.7708 30.3333C24.8196 30.3333 26.4791 28.6738 26.4791 26.625V4.37496Z" fill="#257AA0" fill-opacity="0.1"/>
</svg>
