<svg width="153" height="153" viewBox="0 0 153 153" fill="none" xmlns="http://www.w3.org/2000/svg">
<g filter="url(#filter0_dd_1998_29189)">
<path d="M76.5001 48.1C60.8162 48.1 48.1001 60.8161 48.1001 76.5C48.1001 92.1839 60.8162 104.9 76.5001 104.9C92.184 104.9 104.9 92.1839 104.9 76.5C104.9 60.8161 92.184 48.1 76.5001 48.1ZM89.0529 77.4514L71.0473 87.8458C70.1409 88.3688 69.4001 87.9404 69.4001 86.8944V66.1032C69.4001 65.0571 70.1409 64.6288 71.0473 65.1518L89.0529 75.5462C89.9593 76.0716 89.9593 76.9283 89.0529 77.4514Z" fill="#257AA0"/>
</g>
<path d="M89.0527 77.4514L71.0471 87.8458C70.1407 88.3689 69.3999 87.9405 69.3999 86.8944V66.1033C69.3999 65.0572 70.1407 64.6288 71.0471 65.1519L89.0527 75.5463C89.9591 76.0717 89.9591 76.9284 89.0527 77.4514Z" fill="white"/>
<path d="M89.0527 77.4514L71.0471 87.8458C70.1407 88.3689 69.3999 87.9405 69.3999 86.8944V66.1033C69.3999 65.0572 70.1407 64.6288 71.0471 65.1519L89.0527 75.5463C89.9591 76.0717 89.9591 76.9284 89.0527 77.4514Z" fill="#257AA0" fill-opacity="0.1"/>
<defs>
<filter id="filter0_dd_1998_29189" x="0.100098" y="0.0999756" width="152.8" height="152.8" filterUnits="userSpaceOnUse" color-interpolation-filters="sRGB">
<feFlood flood-opacity="0" result="BackgroundImageFix"/>
<feColorMatrix in="SourceAlpha" type="matrix" values="0 0 0 0 0 0 0 0 0 0 0 0 0 0 0 0 0 0 127 0" result="hardAlpha"/>
<feOffset dy="12"/>
<feGaussianBlur stdDeviation="10"/>
<feComposite in2="hardAlpha" operator="out"/>
<feColorMatrix type="matrix" values="0 0 0 0 0.145098 0 0 0 0 0.478431 0 0 0 0 0.627451 0 0 0 0.2 0"/>
<feBlend mode="normal" in2="BackgroundImageFix" result="effect1_dropShadow_1998_29189"/>
<feColorMatrix in="SourceAlpha" type="matrix" values="0 0 0 0 0 0 0 0 0 0 0 0 0 0 0 0 0 0 127 0" result="hardAlpha"/>
<feOffset/>
<feGaussianBlur stdDeviation="24"/>
<feComposite in2="hardAlpha" operator="out"/>
<feColorMatrix type="matrix" values="0 0 0 0 0.145098 0 0 0 0 0.478431 0 0 0 0 0.627451 0 0 0 0.16 0"/>
<feBlend mode="normal" in2="effect1_dropShadow_1998_29189" result="effect2_dropShadow_1998_29189"/>
<feBlend mode="normal" in="SourceGraphic" in2="effect2_dropShadow_1998_29189" result="shape"/>
</filter>
</defs>
</svg>
