<svg width="20" height="20" viewBox="0 0 20 20" fill="none" xmlns="http://www.w3.org/2000/svg">
<path d="M17.6667 10C17.6667 9.74933 17.5227 9.53933 17.318 9.42533L17.322 9.41867L4.05533 2.124L4.042 2.13067C3.934 2.05467 3.80933 2 3.66667 2C3.29867 2 3 2.29867 3 2.66667C3 2.66733 3.00067 2.668 3.00067 2.66933H3V10V17.3307H3.00067C3.00067 17.332 3 17.3327 3 17.3333C3 17.7013 3.29867 18 3.66667 18C3.80933 18 3.934 17.9453 4.04267 17.8693L4.05533 17.876L17.322 10.5813L17.318 10.5747C17.5227 10.4607 17.6667 10.2507 17.6667 10Z" fill="white"/>
</svg>
