<svg width="24" height="24" viewBox="0 0 24 24" fill="none" xmlns="http://www.w3.org/2000/svg">
<path d="M3.10423 18.5804C2.88956 18.6968 2.71093 18.872 2.59032 19.087C2.44189 19.3516 2.39066 19.6597 2.44552 19.9581C2.50037 20.2565 2.65784 20.5263 2.89067 20.7208L2.89068 20.7208C3.1235 20.9153 3.41701 21.0222 3.72037 21.0231L3.72688 21.0231C3.77893 21.0228 3.83088 21.0195 3.88248 21.013C5.40368 20.9906 6.71121 20.4278 7.76598 19.7078C7.833 19.6621 7.91522 19.6522 7.98487 19.6758C9.02573 20.0276 10.149 20.2231 11.3229 20.2231C16.5973 20.2231 21.0229 16.3173 21.0229 11.3231C21.0229 6.32879 16.5973 2.42306 11.3229 2.42306C6.04855 2.42306 1.62295 6.32879 1.62295 11.3231C1.62295 13.6289 2.58238 15.7138 4.12431 17.2799C4.14188 17.2977 4.15542 17.316 4.16484 17.3323C4.16659 17.3353 4.16813 17.3381 4.16949 17.3407C3.95772 17.7509 3.62487 18.173 3.10423 18.5804Z" stroke="#CBD3DB" stroke-width="1.8"/>
<path d="M8.123 8.9231H14.523C14.9646 8.9231 15.323 9.2815 15.323 9.7231C15.323 10.1647 14.9646 10.5231 14.523 10.5231H8.123C7.6814 10.5231 7.323 10.1647 7.323 9.7231C7.323 9.2815 7.6814 8.9231 8.123 8.9231ZM8.123 12.1231H12.923C13.3646 12.1231 13.723 12.4815 13.723 12.9231C13.723 13.3647 13.3646 13.7231 12.923 13.7231H8.123C7.6814 13.7231 7.323 13.3647 7.323 12.9231C7.323 12.4815 7.6814 12.1231 8.123 12.1231ZM21.5449 13.0559C20.7201 17.2087 16.9983 20.4379 12.3871 20.8731C13.5455 21.8915 15.1502 22.5231 16.923 22.5231C17.5845 22.5231 18.221 22.4327 18.8206 22.2685C19.1314 22.1834 19.4648 22.2286 19.7406 22.3955C20.6329 22.9353 21.6737 23.3103 22.8417 23.3137C22.8684 23.3196 22.8957 23.3228 22.923 23.3231C23.0168 23.3231 23.1076 23.2901 23.1796 23.2299C23.2515 23.1697 23.3 23.0861 23.3166 22.9937C23.3331 22.9014 23.3167 22.8062 23.2702 22.7247C23.2237 22.6433 23.15 22.5807 23.0621 22.5481C22.5767 22.1797 22.2065 21.7871 21.9301 21.3829C21.6877 21.0283 21.7967 20.566 22.0738 20.2378C22.8572 19.3101 23.323 18.1653 23.323 16.9231C23.323 15.4215 22.6441 14.0615 21.5449 13.0559Z" fill="#CBD3DB"/>
</svg>
