<svg width="24" height="24" viewBox="0 0 24 24" fill="none" xmlns="http://www.w3.org/2000/svg">
<path d="M21.6437 3.21407L16.464 4.32345C15.7264 4.48105 15.1999 5.13311 15.1999 5.88751V14.9703C15.1999 16.5295 10.3999 15.226 10.3999 19.5828C10.3999 20.3828 10.8821 22.3985 13.1733 22.3985C15.9893 22.3993 16.7999 20.2588 16.7999 17.8828V8.4297L21.664 7.36251C22.0936 7.26811 22.3999 6.88769 22.3999 6.44689V3.82501C22.3999 3.42661 22.0325 3.13007 21.6437 3.21407ZM3.1999 4.80001C2.7583 4.80001 2.3999 5.15841 2.3999 5.60001C2.3999 6.04161 2.7583 6.40001 3.1999 6.40001H12.7999C13.2415 6.40001 13.5999 6.04161 13.5999 5.60001C13.5999 5.15841 13.2415 4.80001 12.7999 4.80001H3.1999ZM3.1999 8.80001C2.7583 8.80001 2.3999 9.15841 2.3999 9.60001C2.3999 10.0416 2.7583 10.4 3.1999 10.4H12.7999C13.2415 10.4 13.5999 10.0416 13.5999 9.60001C13.5999 9.15841 13.2415 8.80001 12.7999 8.80001H3.1999ZM3.1999 12.8C2.7583 12.8 2.3999 13.1584 2.3999 13.6C2.3999 14.0416 2.7583 14.4 3.1999 14.4H12.7999C13.2415 14.4 13.5999 14.0416 13.5999 13.6C13.5999 13.1584 13.2415 12.8 12.7999 12.8H3.1999ZM3.1999 16.8C2.7583 16.8 2.3999 17.1584 2.3999 17.6C2.3999 18.0416 2.7583 18.4 3.1999 18.4H8.90771C9.02372 17.7704 9.22958 17.2416 9.49678 16.8H3.1999Z" fill="#0097FF"/>
</svg>
