<svg width="30" height="30" viewBox="0 0 30 30" fill="none" xmlns="http://www.w3.org/2000/svg">
<path fill-rule="evenodd" clip-rule="evenodd" d="M16.51 4.08998C22.34 4.73998 27.1 9.38998 27.88 15.2C28.4 19.07 27.21 22.66 24.98 25.33C24.61 25.77 24.06 26 23.49 26H6.53C5.92 26 5.35 25.72 4.96 25.25C3.11 23 2 20.13 2 17C2 9.31998 8.66 3.19998 16.51 4.08998ZM5.84001 12.87C6.32001 13.14 6.93001 12.98 7.21001 12.5C7.48001 12.02 7.32001 11.4 6.84001 11.13C6.36001 10.86 5.74001 11.02 5.47001 11.5C5.20001 11.98 5.36001 12.59 5.84001 12.87ZM24.53 22.5C24.25 22.98 23.64 23.14 23.16 22.87C22.68 22.59 22.52 21.98 22.79 21.5C23.07 21.02 23.68 20.86 24.16 21.13C24.64 21.41 24.8 22.02 24.53 22.5ZM26 17C26 17.5523 25.5523 18 25 18C24.4477 18 24 17.5523 24 17C24 16.4477 24.4477 16 25 16C25.5523 16 26 16.4477 26 17ZM10.5 9.20998C10.02 9.48998 9.40999 9.31998 9.12998 8.83998C8.85998 8.35998 9.01998 7.74998 9.49998 7.46998C9.97998 7.18998 10.59 7.35998 10.87 7.83998C11.14 8.31998 10.98 8.92998 10.5 9.20998ZM24.53 11.5C24.25 11.02 23.64 10.85 23.16 11.13C22.68 11.41 22.52 12.02 22.79 12.5C23.07 12.98 23.68 13.15 24.16 12.87C24.64 12.59 24.81 11.98 24.53 11.5ZM19.13 7.83998C19.41 7.35998 20.02 7.19998 20.5 7.46998C20.98 7.74998 21.14 8.35998 20.87 8.83998C20.59 9.31998 19.98 9.47998 19.5 9.20998C19.02 8.92998 18.86 8.31998 19.13 7.83998ZM7.21001 21.5C6.93001 21.02 6.32001 20.85 5.84001 21.13C5.36001 21.41 5.20001 22.02 5.47001 22.5C5.75001 22.98 6.36001 23.15 6.84001 22.87C7.32001 22.59 7.49001 21.98 7.21001 21.5ZM5 18C5.55228 18 6 17.5523 6 17C6 16.4477 5.55228 16 5 16C4.44772 16 4 16.4477 4 17C4 17.5523 4.44772 18 5 18ZM14.2915 8.10345C14.2803 8.14857 14.2733 8.19534 14.2709 8.24333C14.2572 8.29997 14.25 8.35913 14.25 8.41998L14.25 8.42136L14.2468 8.44047C14.2211 8.51749 14.2071 8.59921 14.2066 8.68324L14.2035 8.70254C14.1824 8.76697 14.1691 8.83474 14.1646 8.90465C14.1508 8.96105 14.1427 9.01943 14.141 9.07908C14.1188 9.14502 14.1043 9.21405 14.0983 9.28502C14.0832 9.3462 14.0744 9.40944 14.0725 9.4739C14.0681 9.49925 14.0647 9.52488 14.0625 9.55074C14.0516 9.59509 14.0438 9.64045 14.0395 9.68653C14.023 9.75401 14.0135 9.82371 14.0119 9.89462C13.993 9.95776 13.9799 10.023 13.9732 10.0894C13.9588 10.1489 13.9496 10.2099 13.9458 10.2718C13.9419 10.2945 13.9386 10.3172 13.9361 10.3402C13.9251 10.386 13.9169 10.4327 13.9118 10.48L13.91 10.4876C13.8826 10.5665 13.8637 10.6485 13.854 10.7322C13.8441 10.7737 13.8364 10.8159 13.831 10.8585C13.814 10.9284 13.8032 11.0002 13.7989 11.073C13.7952 11.0952 13.792 11.1176 13.7895 11.14C13.7543 11.2448 13.7325 11.3545 13.7255 11.4662C13.7227 11.4831 13.7202 11.5 13.7181 11.517C13.7075 11.5615 13.6992 11.6068 13.6933 11.6524C13.6767 11.7228 13.6657 11.7947 13.6606 11.8674C13.6577 11.8847 13.6552 11.9021 13.6529 11.9196L13.6498 11.9332C13.6126 12.048 13.5901 12.1677 13.5833 12.2894C13.5824 12.2953 13.5815 12.3012 13.5807 12.3072C13.5801 12.3113 13.5795 12.3155 13.579 12.3197C13.5708 12.3548 13.564 12.3903 13.5584 12.4259C13.5482 12.4677 13.5397 12.5099 13.5331 12.5524C13.5304 12.5634 13.5279 12.5745 13.5254 12.5856C13.5009 12.6632 13.4824 12.7429 13.4705 12.8236C13.4593 12.8705 13.4503 12.918 13.4436 12.9659C13.4261 13.0412 13.414 13.1179 13.4077 13.1954C13.4056 13.2085 13.4036 13.2216 13.4017 13.2347C13.3955 13.2617 13.39 13.2888 13.3852 13.3162C13.3629 13.4014 13.3473 13.4885 13.3387 13.5766C13.3361 13.5919 13.3337 13.6072 13.3315 13.6226C13.3217 13.6656 13.3136 13.709 13.3071 13.7527C13.2889 13.8317 13.2762 13.9121 13.2691 13.9932L13.266 14.013C13.2338 14.1169 13.2109 14.2236 13.1976 14.3318C13.1767 14.4085 13.1607 14.4865 13.1497 14.5653C13.1395 14.6126 13.1312 14.6602 13.1246 14.7082C13.1048 14.7802 13.0891 14.8534 13.0776 14.9275C13.0581 15.0133 13.0443 15.1005 13.0364 15.1884L13.0357 15.1925C13.0256 15.237 13.017 15.2819 13.0099 15.3271C12.9959 15.3892 12.9847 15.452 12.9764 15.5152C12.9591 15.5816 12.945 15.6489 12.9342 15.7168C12.9147 15.8035 12.9005 15.8914 12.8919 15.9801L12.8906 15.989C12.8812 16.0311 12.8731 16.0735 12.8663 16.1162C12.8603 16.1428 12.8548 16.1695 12.8498 16.1963C12.8467 16.2087 12.8438 16.2211 12.841 16.2335C12.6741 16.7998 12.7311 17.4296 13.05 17.98C13.67 19.06 15.04 19.43 16.11 18.81C16.9402 18.3334 17.3509 17.4136 17.2148 16.5276C17.206 16.4315 17.1909 16.3355 17.1693 16.2403C17.162 16.1958 17.1533 16.1514 17.1432 16.1072C17.1359 16.0618 17.127 16.0165 17.1166 15.9713C17.1095 15.9278 17.101 15.8844 17.0911 15.8411C17.0839 15.7965 17.0753 15.7521 17.0651 15.7078C17.0567 15.6553 17.0461 15.603 17.0335 15.5509C17.0275 15.5172 17.0207 15.4836 17.0129 15.4501C17.0067 15.4117 16.9994 15.3734 16.991 15.3352C16.9836 15.2872 16.9744 15.2392 16.9634 15.1913C16.9562 15.1462 16.9474 15.1011 16.937 15.0562C16.9301 15.0124 16.9216 14.9687 16.9115 14.9252C16.905 14.8839 16.8972 14.8427 16.8879 14.8017C16.8806 14.7534 16.8715 14.7053 16.8604 14.6574C16.8531 14.6105 16.8439 14.5636 16.8329 14.517C16.8258 14.4381 16.8136 14.3592 16.7959 14.2809C16.7889 14.2335 16.7799 14.1863 16.7689 14.1392C16.7621 14.0951 16.7536 14.0511 16.7434 14.0072C16.7366 13.9627 16.7281 13.9183 16.7178 13.8741C16.711 13.8298 16.7025 13.7855 16.6923 13.7414C16.6855 13.6964 16.6768 13.6514 16.6663 13.6067C16.6587 13.5561 16.6487 13.5056 16.6363 13.4554C16.6331 13.4362 16.6295 13.417 16.6256 13.3978C16.6189 13.3436 16.6094 13.2893 16.5969 13.2353C16.5903 13.1895 16.5817 13.1438 16.571 13.0983C16.5644 13.0538 16.556 13.0094 16.5455 12.965C16.5393 12.9226 16.5313 12.8801 16.5215 12.8378C16.515 12.7908 16.5062 12.7439 16.4951 12.6972L16.4911 12.6709C16.4853 12.5859 16.472 12.5008 16.451 12.4164C16.4452 12.3803 16.438 12.3442 16.4294 12.3082C16.4236 12.2664 16.4158 12.2246 16.4061 12.183C16.3999 12.1376 16.3915 12.0922 16.3807 12.047C16.3745 12.0025 16.3662 11.9579 16.3556 11.9135C16.3495 11.8693 16.3413 11.8251 16.3308 11.7811C16.3248 11.7366 16.3165 11.6922 16.3059 11.6478C16.3 11.6036 16.2918 11.5592 16.2812 11.5151C16.2753 11.4706 16.2671 11.4261 16.2564 11.3816C16.2501 11.3331 16.2409 11.2845 16.2287 11.2361C16.2233 11.1994 16.2162 11.1628 16.2074 11.1262C16.2019 11.0829 16.1941 11.0394 16.1837 10.9961C16.1783 10.9525 16.1704 10.9088 16.16 10.8652C16.1546 10.8198 16.1464 10.7744 16.1354 10.7291C16.1333 10.7119 16.1309 10.6948 16.128 10.6776C16.1247 10.6062 16.1146 10.5343 16.0972 10.4628C16.0921 10.4185 16.0841 10.3741 16.0734 10.3299C16.068 10.2824 16.0593 10.2348 16.0473 10.1874C16.0423 10.1494 16.0353 10.1114 16.026 10.0735C16.0212 10.0295 16.0135 9.9855 16.0029 9.94157C15.9986 9.90237 15.9921 9.86304 15.9832 9.82375C15.9786 9.77932 15.9709 9.73466 15.96 9.68999L15.9598 9.68901C15.9557 9.64951 15.9492 9.60978 15.94 9.56999L15.9366 9.55589C15.9331 9.52072 15.9276 9.48538 15.92 9.44999C15.9188 9.44406 15.9176 9.43815 15.9164 9.43228C15.9154 9.42778 15.9144 9.42329 15.9133 9.41883C15.9104 9.38934 15.906 9.3597 15.9 9.32999C15.8973 9.31494 15.8941 9.30005 15.8906 9.28531C15.8882 9.26031 15.8846 9.23519 15.88 9.20999C15.8762 9.18733 15.8716 9.165 15.8661 9.14303C15.8644 9.12872 15.8624 9.11437 15.86 9.09999C15.8562 9.07398 15.8513 9.04844 15.8454 9.02341C15.8439 9.00898 15.8422 8.9945 15.84 8.97998C15.8361 8.94905 15.8305 8.91876 15.8233 8.8892C15.8224 8.87949 15.8213 8.86975 15.82 8.85999C15.8186 8.84746 15.817 8.83504 15.8151 8.82272C15.8148 8.79535 15.8132 8.76775 15.81 8.73999C15.806 8.70356 15.7996 8.66799 15.7911 8.63339L15.79 8.61999C15.7863 8.58041 15.7797 8.54175 15.7703 8.50422L15.77 8.49999C15.7667 8.45356 15.7592 8.40835 15.748 8.3647C15.745 8.32328 15.7386 8.2828 15.7291 8.24352C15.7268 8.19543 15.7197 8.14855 15.7085 8.10334C15.6845 7.73296 15.3765 7.43999 15 7.43999C14.6235 7.43999 14.3155 7.73302 14.2915 8.10345Z" fill="#CBD3DB"/>
<path fill-rule="evenodd" clip-rule="evenodd" d="M14.3644 15.9092L14.3644 15.9093L14.3739 15.9038C14.9672 15.5577 15.7489 15.7613 16.1062 16.3739C16.4523 16.9672 16.2487 17.7489 15.6361 18.1062C15.0433 18.452 14.2626 18.2491 13.9048 17.6379C13.5505 17.0227 13.7633 16.2511 14.3644 15.9092Z" fill="#0097FF"/>
</svg>
