<svg width="30" height="30" viewBox="0 0 30 30" fill="none" xmlns="http://www.w3.org/2000/svg">
<path fill-rule="evenodd" clip-rule="evenodd" d="M16.51 4.08998C22.34 4.73998 27.1 9.38998 27.88 15.2C28.4 19.07 27.21 22.66 24.98 25.33C24.61 25.77 24.06 26 23.49 26H6.53C5.92 26 5.35 25.72 4.96 25.25C3.11 23 2 20.13 2 17C2 9.31998 8.66 3.19998 16.51 4.08998ZM5.84001 12.87C6.32001 13.14 6.93001 12.98 7.21001 12.5C7.48001 12.02 7.32001 11.4 6.84001 11.13C6.36001 10.86 5.74001 11.02 5.47001 11.5C5.20001 11.98 5.36001 12.59 5.84001 12.87ZM24.53 22.5C24.25 22.98 23.64 23.14 23.16 22.87C22.68 22.59 22.52 21.98 22.79 21.5C23.07 21.02 23.68 20.86 24.16 21.13C24.64 21.41 24.8 22.02 24.53 22.5ZM26 17C26 17.5523 25.5523 18 25 18C24.4477 18 24 17.5523 24 17C24 16.4477 24.4477 16 25 16C25.5523 16 26 16.4477 26 17ZM10.5 9.20998C10.02 9.48998 9.40999 9.31998 9.12998 8.83998C8.85998 8.35998 9.01998 7.74998 9.49998 7.46998C9.97998 7.18998 10.59 7.35998 10.87 7.83998C11.14 8.31998 10.98 8.92998 10.5 9.20998ZM16 6.99998C16 7.55227 15.5523 7.99998 15 7.99998C14.4477 7.99998 14 7.55227 14 6.99998C14 6.4477 14.4477 5.99998 15 5.99998C15.5523 5.99998 16 6.4477 16 6.99998ZM19.13 7.83998C19.41 7.35998 20.02 7.19998 20.5 7.46998C20.98 7.74998 21.14 8.35998 20.87 8.83998C20.59 9.31998 19.98 9.47998 19.5 9.20998C19.02 8.92998 18.86 8.31998 19.13 7.83998ZM7.21001 21.5C6.93001 21.02 6.32001 20.85 5.84001 21.13C5.36001 21.41 5.20001 22.02 5.47001 22.5C5.75001 22.98 6.36001 23.15 6.84001 22.87C7.32001 22.59 7.49001 21.98 7.21001 21.5ZM5 18C5.55228 18 6 17.5523 6 17C6 16.4477 5.55228 16 5 16C4.44772 16 4 16.4477 4 17C4 17.5523 4.44772 18 5 18ZM22.5006 12.3125C22.4694 12.3177 22.4384 12.325 22.4077 12.3345C22.3737 12.343 22.3398 12.354 22.3066 12.3677C22.2699 12.3762 22.2335 12.3876 22.1977 12.402C22.1881 12.4046 22.1784 12.4073 22.1688 12.4103C22.1377 12.4181 22.1069 12.4278 22.0765 12.4395C22.0594 12.4431 22.0423 12.4472 22.0253 12.452C21.9829 12.4614 21.941 12.4744 21.8999 12.4911C21.859 12.5009 21.8186 12.5139 21.779 12.5304L21.7662 12.5342C21.7355 12.5418 21.7049 12.5511 21.6747 12.5623C21.6275 12.5724 21.5806 12.5866 21.5346 12.6048C21.4943 12.6148 21.4543 12.6277 21.4149 12.6437C21.3744 12.6532 21.3343 12.6656 21.2948 12.6808C21.2621 12.689 21.2296 12.699 21.1975 12.7108C21.1803 12.7146 21.1631 12.7189 21.146 12.7237C21.0984 12.7348 21.0513 12.7496 21.005 12.7684L20.9978 12.7705C20.9597 12.7802 20.922 12.7922 20.8847 12.8066C20.8594 12.8131 20.8342 12.8206 20.8091 12.8291C20.7944 12.8328 20.7798 12.8368 20.7652 12.8412C20.7246 12.8517 20.6843 12.8646 20.6445 12.8802C20.6022 12.8907 20.5602 12.9038 20.5188 12.9197C20.4877 12.9278 20.4568 12.9373 20.4263 12.9483C20.3813 12.9586 20.3366 12.9719 20.2925 12.9882C20.2259 13.0021 20.1598 13.0222 20.095 13.0486C20.0744 13.0544 20.0539 13.0608 20.0334 13.0678C20.0207 13.0712 20.008 13.0747 19.9954 13.0785C19.9478 13.0909 19.9007 13.1063 19.8542 13.1249C19.8297 13.1319 19.8053 13.1396 19.7811 13.1481C19.7402 13.1579 19.6996 13.1698 19.6594 13.1839C19.5995 13.1981 19.5401 13.217 19.4818 13.2406C19.4621 13.2462 19.4425 13.2524 19.423 13.259L19.4217 13.2594C19.3993 13.2647 19.377 13.2706 19.3548 13.2772C19.3212 13.286 19.2877 13.2962 19.2545 13.3077C19.2051 13.3197 19.156 13.3346 19.1076 13.3525C19.0667 13.3635 19.0261 13.3766 18.9859 13.3918C18.9468 13.4021 18.908 13.4141 18.8696 13.428C18.8275 13.4394 18.7857 13.4528 18.7444 13.4683C18.7122 13.4768 18.6801 13.4865 18.6483 13.4974C18.5973 13.5099 18.5466 13.5253 18.4965 13.5437C18.4561 13.5538 18.4159 13.5656 18.376 13.5791C18.3124 13.5948 18.2493 13.6149 18.1871 13.6394C18.1685 13.6449 18.1501 13.6508 18.1316 13.6571C18.0926 13.6667 18.0537 13.678 18.0152 13.6909C17.9466 13.7078 17.8786 13.7296 17.8117 13.7563C17.7998 13.7599 17.7879 13.7637 17.776 13.7677L17.749 13.7753C17.7147 13.7843 17.6806 13.7946 17.6468 13.8059C17.5681 13.8237 17.4902 13.8474 17.4134 13.8773C17.3972 13.8822 17.381 13.8874 17.3648 13.8928C17.3117 13.9062 17.2589 13.9223 17.2066 13.9411C17.1651 13.9528 17.1238 13.9661 17.0829 13.9812C17.0557 13.9888 17.0286 13.9971 17.0016 14.0061C16.9479 14.0197 16.8944 14.036 16.8414 14.055C16.8029 14.0659 16.7646 14.0782 16.7266 14.0918C16.6843 14.1024 16.6423 14.1144 16.6006 14.1281C16.5458 14.142 16.4914 14.1585 16.4376 14.1776C16.3931 14.1902 16.3489 14.2046 16.305 14.2207C16.2673 14.2315 16.2298 14.2435 16.1926 14.2566C16.1702 14.263 16.148 14.2698 16.1258 14.277C16.0679 14.2918 16.0103 14.3094 15.9532 14.3297C15.9136 14.3408 15.8741 14.3532 15.8348 14.3669C15.7943 14.3774 15.754 14.3892 15.714 14.4023L15.7033 14.4054C15.6505 14.4195 15.598 14.4358 15.5459 14.4544C15.5045 14.4661 15.4632 14.4791 15.4222 14.4935C15.3978 14.5006 15.3734 14.5081 15.3491 14.5161C15.2806 14.5339 15.2125 14.5554 15.1452 14.5806C15.1328 14.5845 15.1205 14.5884 15.1081 14.5924C15.0678 14.603 15.0276 14.6148 14.9877 14.6278C14.9203 14.6454 14.8534 14.6663 14.7871 14.6908C14.7621 14.6979 14.7372 14.7055 14.7123 14.7135L14.6953 14.7183C14.6572 14.7285 14.6192 14.7398 14.5814 14.7521C14.5085 14.7713 14.436 14.7944 14.3644 14.8214C14.2091 14.8697 14.0568 14.9357 13.91 15.02C12.83 15.65 12.46 17.03 13.08 18.11C13.71 19.19 15.09 19.56 16.17 18.94C16.2421 18.898 16.311 18.8526 16.3766 18.8042C16.4776 18.7356 16.5714 18.6599 16.6577 18.5781L16.6613 18.5752L16.6671 18.5709C16.7124 18.5404 16.7563 18.5085 16.7986 18.4753C16.8234 18.4581 16.8476 18.4405 16.8714 18.4225C16.9063 18.3972 16.9403 18.3711 16.9733 18.344C17.0228 18.3079 17.0703 18.27 17.1158 18.2304C17.1348 18.2147 17.1534 18.1987 17.1718 18.1824C17.2209 18.1468 17.2681 18.1094 17.3133 18.0702L17.3194 18.0655C17.3847 18.0216 17.4466 17.9745 17.5051 17.9245C17.5473 17.8954 17.588 17.8649 17.6273 17.8331C17.6685 17.8011 17.7082 17.7676 17.7464 17.7329L17.7684 17.7151C17.7825 17.704 17.7964 17.6928 17.8101 17.6814C17.8219 17.6725 17.8335 17.6635 17.8449 17.6544C17.8834 17.6286 17.9207 17.6016 17.9568 17.5735C18.0246 17.5282 18.0885 17.4791 18.1485 17.4267C18.1947 17.3913 18.2389 17.354 18.281 17.3151L18.2867 17.31L18.2891 17.3081C18.3486 17.2683 18.4051 17.2254 18.4584 17.1799L18.4703 17.171C18.5151 17.1407 18.5581 17.1087 18.5992 17.0751C18.6143 17.0634 18.6291 17.0514 18.6437 17.0392C18.6596 17.0272 18.6754 17.015 18.6908 17.0025C18.7517 16.9598 18.8092 16.9137 18.863 16.8647C18.905 16.834 18.9453 16.8017 18.9837 16.7677L19.0082 16.7486L19.0136 16.7449C19.0596 16.7151 19.1037 16.6832 19.1457 16.6496C19.1972 16.6146 19.246 16.5771 19.2921 16.5374C19.353 16.4931 19.4098 16.445 19.4627 16.3938C19.4746 16.3841 19.4863 16.3742 19.4979 16.3642L19.5141 16.3513C19.5487 16.3279 19.5822 16.3033 19.6144 16.2775C19.6896 16.2304 19.7591 16.1775 19.8228 16.1198C19.8324 16.1123 19.8419 16.1047 19.8513 16.097C19.8823 16.073 19.9121 16.048 19.9408 16.0219C19.9748 15.9966 20.0073 15.97 20.0385 15.9422C20.05 15.9336 20.0612 15.9249 20.0724 15.916C20.1151 15.8881 20.1558 15.8582 20.1944 15.8265C20.2392 15.7958 20.2817 15.7627 20.3219 15.7277C20.3295 15.7221 20.3371 15.7166 20.3446 15.7109C20.347 15.7091 20.3494 15.7073 20.3517 15.7056C20.4224 15.6587 20.4873 15.6061 20.5462 15.5489C20.5865 15.5208 20.6248 15.4906 20.6609 15.4586C20.6652 15.4552 20.6695 15.4519 20.6737 15.4485C20.6771 15.4458 20.6804 15.4431 20.6837 15.4403L20.687 15.4382C20.7523 15.3981 20.8126 15.3528 20.8677 15.3031C20.8866 15.2891 20.905 15.2747 20.923 15.2598C20.9831 15.219 21.0385 15.1735 21.0891 15.1243C21.1151 15.1045 21.14 15.0837 21.1639 15.062L21.1789 15.0508C21.2127 15.0295 21.245 15.0067 21.2757 14.9825C21.3046 14.9628 21.3323 14.942 21.3587 14.9201C21.4046 14.8903 21.4476 14.8574 21.4875 14.8219C21.4997 14.8126 21.5116 14.8031 21.5233 14.7934C21.5618 14.7637 21.5978 14.7318 21.6313 14.6979C21.6428 14.6889 21.6541 14.6797 21.6651 14.6703C21.6993 14.6477 21.7316 14.6234 21.7621 14.5975C21.7929 14.577 21.8222 14.5552 21.85 14.532C21.9025 14.4994 21.9509 14.4625 21.9949 14.4221C22.0258 14.4017 22.0552 14.38 22.083 14.357C22.1379 14.3204 22.1877 14.2789 22.2322 14.2334C22.2627 14.2116 22.2914 14.1883 22.3185 14.1635C22.3356 14.1518 22.3522 14.1396 22.3682 14.1269C22.3994 14.1069 22.4288 14.0853 22.4565 14.0623C22.4769 14.0469 22.4964 14.0308 22.515 14.014C22.5262 14.0056 22.5371 13.9969 22.5477 13.988L22.5651 13.9746C22.5752 13.9682 22.585 13.9616 22.5947 13.9549C22.6506 13.9193 22.7009 13.8782 22.7451 13.8327C22.7634 13.8197 22.7811 13.8059 22.7979 13.7916C22.8137 13.7794 22.8289 13.7667 22.8435 13.7534C22.872 13.7347 22.8989 13.7144 22.924 13.6927L22.9362 13.6843C22.9701 13.663 23.0017 13.6393 23.0309 13.6135C23.3625 13.4108 23.4778 12.9863 23.28 12.65C23.116 12.3712 22.7974 12.2403 22.5006 12.3125Z" fill="#CBD3DB"/>
<path fill-rule="evenodd" clip-rule="evenodd" d="M14.3644 15.9092L14.3644 15.9093L14.3739 15.9038C14.9672 15.5577 15.7489 15.7613 16.1062 16.3739C16.4523 16.9672 16.2487 17.7489 15.6361 18.1062C15.0433 18.452 14.2626 18.2491 13.9048 17.6379C13.5505 17.0227 13.7633 16.2511 14.3644 15.9092Z" fill="#0097FF"/>
</svg>
