<svg width="30" height="30" viewBox="0 0 30 30" fill="none" xmlns="http://www.w3.org/2000/svg">
<path fill-rule="evenodd" clip-rule="evenodd" d="M16.51 4.09001C22.34 4.74001 27.1 9.39001 27.88 15.2C28.4 19.07 27.21 22.66 24.98 25.33C24.61 25.77 24.06 26 23.49 26H6.53C5.92 26 5.35 25.72 4.96 25.25C3.11 23 2 20.13 2 17C2 9.32001 8.66 3.20001 16.51 4.09001ZM5.84001 12.87C6.32001 13.14 6.93001 12.98 7.21001 12.5C7.48001 12.02 7.32001 11.4 6.84001 11.13C6.36001 10.86 5.74001 11.02 5.47001 11.5C5.20001 11.98 5.36001 12.59 5.84001 12.87ZM25 18C25.5523 18 26 17.5523 26 17C26 16.4477 25.5523 16 25 16C24.4477 16 24 16.4477 24 17C24 17.5523 24.4477 18 25 18ZM9.12998 8.84C9.40999 9.32 10.02 9.49 10.5 9.21C10.98 8.93 11.14 8.32 10.87 7.84C10.59 7.36 9.97998 7.19 9.49998 7.47C9.01998 7.75 8.85998 8.36 9.12998 8.84ZM15 8C15.5523 8 16 7.55228 16 7C16 6.44772 15.5523 6 15 6C14.4477 6 14 6.44772 14 7C14 7.55228 14.4477 8 15 8ZM23.16 11.13C23.64 10.85 24.25 11.02 24.53 11.5C24.81 11.98 24.64 12.59 24.16 12.87C23.68 13.15 23.07 12.98 22.79 12.5C22.52 12.02 22.68 11.41 23.16 11.13ZM19.13 7.84001C19.41 7.36001 20.02 7.20001 20.5 7.47001C20.98 7.75001 21.14 8.36001 20.87 8.84001C20.59 9.32001 19.98 9.48001 19.5 9.21001C19.02 8.93001 18.86 8.32001 19.13 7.84001ZM7.21001 21.5C6.93001 21.02 6.32001 20.85 5.84001 21.13C5.36001 21.41 5.20001 22.02 5.47001 22.5C5.75001 22.98 6.36001 23.15 6.84001 22.87C7.32001 22.59 7.49001 21.98 7.21001 21.5ZM5 18C5.55228 18 6 17.5523 6 17C6 16.4477 5.55228 16 5 16C4.44772 16 4 16.4477 4 17C4 17.5523 4.44772 18 5 18ZM13.91 15.06C14.7697 14.5665 15.8196 14.7003 16.5298 15.3151C16.5487 15.3303 16.5674 15.3459 16.5859 15.3618C16.6123 15.3824 16.6383 15.4036 16.6639 15.4254L16.6821 15.4405C16.7623 15.4948 16.8393 15.5549 16.9124 15.6204C16.9432 15.6438 16.9734 15.6682 17.003 15.6934C17.0667 15.7396 17.1282 15.7896 17.187 15.8433C17.2086 15.8595 17.2299 15.8761 17.2509 15.8932C17.2857 15.9188 17.3197 15.9457 17.3529 15.9736C17.3804 15.9941 17.4075 16.0152 17.4341 16.0371C17.4549 16.0535 17.4755 16.0704 17.4958 16.0878C17.5451 16.1234 17.5929 16.1614 17.6392 16.2018C17.6559 16.2157 17.6725 16.2299 17.6889 16.2444C17.7262 16.2699 17.7628 16.2968 17.7984 16.3251C17.8558 16.3666 17.9112 16.4116 17.9642 16.4599C18.0189 16.4994 18.0717 16.5421 18.1224 16.5878C18.1681 16.6207 18.2125 16.6558 18.2554 16.6932C18.2683 16.7035 18.2812 16.714 18.2939 16.7247C18.3244 16.7466 18.3544 16.7696 18.3836 16.7937C18.3962 16.8034 18.4086 16.8134 18.421 16.8236C18.4624 16.8534 18.5027 16.8852 18.5417 16.9189C18.5575 16.9317 18.573 16.9448 18.5884 16.9582C18.6184 16.9796 18.6478 17.002 18.6765 17.0255C18.7038 17.0454 18.7307 17.0662 18.757 17.0878C18.8153 17.1295 18.8713 17.1753 18.9244 17.2252L18.9325 17.232C18.9612 17.2529 18.9894 17.2749 19.0168 17.2978C19.0278 17.3065 19.0387 17.3153 19.0495 17.3242C19.0766 17.3436 19.1032 17.364 19.1292 17.3852C19.1452 17.3975 19.1609 17.4101 19.1764 17.423C19.1884 17.4317 19.2003 17.4407 19.212 17.4498C19.2487 17.4753 19.2845 17.5024 19.3192 17.5312C19.3437 17.5503 19.3677 17.5701 19.3912 17.5908C19.4412 17.6268 19.4893 17.6662 19.5352 17.7089C19.5714 17.7339 19.6067 17.7606 19.6409 17.789C19.6634 17.8052 19.6855 17.8222 19.7072 17.8398C19.7375 17.8607 19.7672 17.8829 19.796 17.9063C19.837 17.9374 19.8766 17.9709 19.9145 18.0068L19.9255 18.0158C19.935 18.0231 19.9444 18.0305 19.9537 18.038C19.9806 18.0583 20.007 18.0798 20.0327 18.1024C20.0444 18.1104 20.056 18.1186 20.0675 18.1271C20.0981 18.1478 20.128 18.1699 20.1571 18.1933L20.1742 18.2064C20.2302 18.2445 20.2837 18.2872 20.3341 18.3344L20.3409 18.34C20.3914 18.3738 20.44 18.4115 20.4861 18.4529C20.5292 18.4835 20.5705 18.5171 20.6099 18.5536C20.6184 18.5599 20.6269 18.5663 20.6353 18.5728C20.6601 18.5895 20.6844 18.6071 20.7081 18.6258C20.7534 18.6563 20.7969 18.6902 20.8384 18.7275L20.8501 18.736C20.8984 18.769 20.9447 18.8059 20.9883 18.8467C20.9974 18.854 21.0065 18.8615 21.0154 18.8691L21.0322 18.882C21.055 18.8971 21.0774 18.9132 21.0994 18.9302C21.1259 18.9477 21.1519 18.9665 21.1772 18.9866C21.2098 19.0102 21.2413 19.0357 21.2717 19.0631C21.3215 19.0958 21.3692 19.133 21.414 19.1748C21.4278 19.1857 21.4415 19.197 21.4549 19.2087C21.4716 19.2203 21.4881 19.2324 21.5042 19.2451C21.5375 19.2687 21.5697 19.2945 21.6007 19.3225L21.6009 19.3227C21.6162 19.3326 21.6313 19.3429 21.6462 19.3537C21.687 19.3806 21.7261 19.4109 21.7632 19.4445L21.7664 19.4469C21.8131 19.4767 21.8578 19.5111 21.9 19.55L21.9015 19.5514L21.9056 19.5542C21.9273 19.5681 21.9486 19.583 21.9695 19.5988C21.9921 19.6142 22.0142 19.6307 22.0358 19.6482C22.0641 19.6667 22.0917 19.6869 22.1184 19.7087C22.136 19.7217 22.1532 19.7355 22.17 19.75C22.1793 19.7578 22.1883 19.7658 22.1972 19.7739C22.2034 19.7786 22.2096 19.7834 22.2157 19.7883C22.2205 19.7921 22.2252 19.7961 22.23 19.8C22.2399 19.8082 22.2497 19.8165 22.2592 19.8249C22.2705 19.8326 22.2817 19.8405 22.2928 19.8488C22.3056 19.8573 22.3182 19.8661 22.3307 19.8753C22.3474 19.8863 22.3639 19.8978 22.38 19.91C22.3961 19.9226 22.4116 19.9357 22.4265 19.9491C22.4346 19.9546 22.4427 19.9602 22.4508 19.9659C22.4675 19.9766 22.4839 19.988 22.5 20C22.5067 20.0051 22.5133 20.0102 22.5199 20.0154L22.5326 20.0245C22.5388 20.0285 22.5449 20.0326 22.551 20.0367C22.554 20.0387 22.5569 20.0407 22.5599 20.0428C22.5734 20.0514 22.5868 20.0605 22.6 20.07L22.6014 20.071C22.611 20.0771 22.6205 20.0835 22.63 20.09C22.6671 20.1158 22.7013 20.1443 22.7324 20.175L22.74 20.18L22.7538 20.1897L22.77 20.2C22.8035 20.222 22.8347 20.2463 22.8636 20.2724L22.8777 20.2826L22.89 20.29C22.9275 20.3132 22.9622 20.3394 22.9939 20.3681C23.0077 20.3776 23.021 20.3876 23.0339 20.398C23.363 20.5921 23.4674 21.0247 23.28 21.36C23.1 21.666 22.7336 21.7857 22.4142 21.668C22.3865 21.6595 22.359 21.6492 22.332 21.6371L22.3319 21.6371C22.3207 21.6338 22.3096 21.6302 22.2985 21.6263C22.2451 21.6142 22.1927 21.5958 22.1421 21.5709C22.1198 21.563 22.0977 21.5539 22.0759 21.5437C22.0101 21.5325 21.945 21.513 21.8822 21.4848C21.8688 21.4812 21.8554 21.4772 21.842 21.4729C21.8075 21.4636 21.7734 21.4519 21.74 21.4378C21.6964 21.4272 21.6533 21.413 21.6112 21.3951C21.59 21.3875 21.569 21.3791 21.5482 21.3698L21.5427 21.3682C21.5232 21.3636 21.5037 21.3583 21.4844 21.3523C21.455 21.3447 21.4259 21.3356 21.3972 21.3247C21.3196 21.3107 21.2434 21.2865 21.1707 21.2517C21.1547 21.2462 21.1389 21.2402 21.1233 21.2338C21.1105 21.2305 21.0978 21.2268 21.0852 21.2229C21.0721 21.2195 21.059 21.2158 21.0461 21.2118C21.03 21.2077 21.014 21.2031 20.9982 21.1981C20.9276 21.1825 20.8583 21.1588 20.792 21.127C20.7767 21.1213 20.7616 21.1152 20.7466 21.1088L20.7338 21.105C20.7193 21.1013 20.7049 21.0973 20.6906 21.093L20.6807 21.0909C20.6468 21.0847 20.6131 21.0768 20.5798 21.0672C20.5641 21.0633 20.5484 21.059 20.5328 21.0544C20.4744 21.0397 20.4171 21.0199 20.3614 20.9949C20.3102 20.9815 20.2598 20.9644 20.2108 20.9434C20.1901 20.9363 20.1697 20.9286 20.1494 20.9203C20.1216 20.9136 20.094 20.9059 20.0668 20.8972C20.0226 20.8884 19.9788 20.8771 19.9358 20.8631C19.8865 20.8509 19.838 20.8354 19.7905 20.8167C19.7242 20.8006 19.6589 20.7788 19.5956 20.7513C19.5518 20.7411 19.5084 20.7284 19.4658 20.7133L19.4404 20.7061C19.3856 20.6939 19.3316 20.678 19.2788 20.6585C19.2044 20.6434 19.1312 20.6218 19.06 20.5938C18.9908 20.5767 18.923 20.554 18.8571 20.5258C18.8429 20.5209 18.8287 20.5156 18.8147 20.5102C18.7817 20.5019 18.7489 20.4924 18.7165 20.4817C18.6156 20.4637 18.5164 20.4348 18.421 20.3954L18.4022 20.3888C18.3838 20.3834 18.3655 20.3775 18.3473 20.3714L18.3278 20.3659C18.3067 20.3612 18.2858 20.3559 18.2649 20.3503C18.2002 20.3347 18.1365 20.3148 18.0741 20.2906C18.0139 20.2746 17.9545 20.2549 17.8964 20.2315L17.8941 20.2309C17.8432 20.2193 17.7928 20.2052 17.7431 20.1886C17.6985 20.1778 17.6544 20.1651 17.6108 20.1505C17.5721 20.1397 17.5338 20.1275 17.496 20.1139C17.4456 20.1013 17.3958 20.0862 17.3467 20.0688C17.2905 20.0564 17.2349 20.0411 17.1801 20.023L17.1649 20.0188C17.0754 19.9983 16.9874 19.9707 16.902 19.9361C16.8907 19.9322 16.8795 19.9282 16.8683 19.924C16.8524 19.9194 16.8367 19.9145 16.821 19.9094C16.7545 19.8947 16.6888 19.8762 16.6243 19.8541C16.5958 19.8472 16.5675 19.8396 16.5394 19.8314C16.5284 19.8284 16.5174 19.8254 16.5065 19.8222C16.454 19.8082 16.4021 19.7919 16.3509 19.7733C16.2773 19.7556 16.2047 19.7335 16.1335 19.707C16.0774 19.6918 16.022 19.674 15.9674 19.6537C15.9534 19.6505 15.9394 19.6471 15.9254 19.6435C15.7998 19.6196 15.6764 19.5836 15.5573 19.536C15.5445 19.5315 15.5316 19.5269 15.5188 19.5221C15.4818 19.5116 15.445 19.5001 15.4085 19.4874L15.3852 19.4815C15.3408 19.4709 15.2967 19.4589 15.253 19.4454C15.1668 19.4255 15.0818 19.4003 14.9986 19.3698C14.9575 19.3584 14.9167 19.3457 14.8763 19.3318C14.7756 19.3082 14.6766 19.2774 14.5801 19.2398C14.5449 19.2305 14.51 19.2204 14.4754 19.2094C14.2653 19.1508 14.0634 19.0619 13.8769 18.9444C13.5619 18.7553 13.2887 18.4874 13.09 18.15C12.46 17.07 12.83 15.69 13.91 15.06Z" fill="#CBD3DB"/>
<path fill-rule="evenodd" clip-rule="evenodd" d="M14.3644 15.9092L14.3645 15.9093L14.3739 15.9038C14.9672 15.5577 15.7489 15.7613 16.1062 16.3739C16.4523 16.9672 16.2487 17.7489 15.6361 18.1062C15.0433 18.452 14.2626 18.2491 13.9048 17.6379C13.5505 17.0227 13.7633 16.2511 14.3644 15.9092Z" fill="#0097FF"/>
</svg>
