<svg width="30" height="30" viewBox="0 0 30 30" fill="none" xmlns="http://www.w3.org/2000/svg">
<path fill-rule="evenodd" clip-rule="evenodd" d="M16.51 4.09001C22.34 4.74001 27.1 9.39001 27.88 15.2C28.4 19.07 27.21 22.66 24.98 25.33C24.61 25.77 24.06 26 23.49 26H6.53C5.92 26 5.35 25.72 4.96 25.25C3.11 23 2 20.13 2 17C2 9.32001 8.66 3.20001 16.51 4.09001ZM5.84001 12.87C6.32001 13.14 6.93001 12.98 7.21001 12.5C7.48001 12.02 7.32001 11.4 6.84001 11.13C6.36001 10.86 5.74001 11.02 5.47001 11.5C5.20001 11.98 5.36001 12.59 5.84001 12.87ZM24.53 22.5C24.25 22.98 23.64 23.14 23.16 22.87C22.68 22.59 22.52 21.98 22.79 21.5C23.07 21.02 23.68 20.86 24.16 21.13C24.64 21.41 24.8 22.02 24.53 22.5ZM26 17C26 17.5523 25.5523 18 25 18C24.4477 18 24 17.5523 24 17C24 16.4477 24.4477 16 25 16C25.5523 16 26 16.4477 26 17ZM10.5 9.21001C10.02 9.49001 9.40999 9.32001 9.12998 8.84001C8.85998 8.36001 9.01998 7.75001 9.49998 7.47001C9.97998 7.19001 10.59 7.36001 10.87 7.84001C11.14 8.32001 10.98 8.93001 10.5 9.21001ZM16 7.00001C16 7.55229 15.5523 8.00001 15 8.00001C14.4477 8.00001 14 7.55229 14 7.00001C14 6.44772 14.4477 6.00001 15 6.00001C15.5523 6.00001 16 6.44772 16 7.00001ZM24.53 11.5C24.25 11.02 23.64 10.85 23.16 11.13C22.68 11.41 22.52 12.02 22.79 12.5C23.07 12.98 23.68 13.15 24.16 12.87C24.64 12.59 24.81 11.98 24.53 11.5ZM20.5 7.47C20.02 7.2 19.41 7.36 19.13 7.84C18.86 8.32 19.02 8.93 19.5 9.21C19.98 9.48 20.59 9.32 20.87 8.84C21.14 8.36 20.98 7.75 20.5 7.47ZM5 18C5.55228 18 6 17.5523 6 17C6 16.4477 5.55228 16 5 16C4.44772 16 4 16.4477 4 17C4 17.5523 4.44772 18 5 18ZM13.83 15.06C14.91 14.44 16.29 14.81 16.92 15.89C17.54 16.97 17.17 18.35 16.09 18.98C15.9755 19.0458 15.8576 19.1004 15.7376 19.1442C15.6157 19.1942 15.4913 19.2327 15.3655 19.26L15.3619 19.2612C15.2743 19.2969 15.1854 19.3264 15.0956 19.35L15.0638 19.3601C14.9974 19.3852 14.9302 19.4068 14.8626 19.4249C14.8136 19.4391 14.7643 19.4513 14.7148 19.4618C14.6575 19.4827 14.5998 19.5009 14.5416 19.5165L14.5189 19.5229L14.4944 19.5307C14.4439 19.5499 14.393 19.567 14.3417 19.582C14.2713 19.6071 14.1999 19.628 14.1281 19.6447C14.1021 19.6519 14.0761 19.6586 14.0501 19.6647C14.0254 19.6724 14.0006 19.6795 13.9758 19.6862L13.9705 19.6877L13.9611 19.6908C13.8684 19.7312 13.7739 19.7635 13.6784 19.7879C13.654 19.796 13.6294 19.8036 13.6048 19.8106C13.554 19.8287 13.5028 19.8445 13.4513 19.8579C13.4127 19.8689 13.374 19.8786 13.3351 19.8869C13.3231 19.891 13.3112 19.8949 13.2992 19.8987C13.2593 19.9137 13.2191 19.9272 13.1787 19.9392C13.1159 19.9648 13.0523 19.9866 12.988 20.0045C12.9539 20.0165 12.9196 20.0273 12.8852 20.0371C12.7977 20.0685 12.7089 20.0924 12.6194 20.109C12.6012 20.1154 12.583 20.1215 12.5647 20.1273C12.5165 20.1456 12.4678 20.1615 12.4187 20.1751C12.4065 20.1794 12.3942 20.1836 12.3819 20.1876C12.3584 20.1959 12.3349 20.2035 12.3112 20.2106C12.2381 20.2396 12.1638 20.2629 12.0889 20.2807C12.0594 20.2893 12.0297 20.2971 12 20.3039C11.9463 20.3225 11.892 20.3379 11.8374 20.3503C11.8044 20.3626 11.7711 20.3736 11.7376 20.3835C11.694 20.4009 11.6499 20.4162 11.6055 20.4292C11.5116 20.466 11.4155 20.4922 11.3187 20.5083L11.303 20.5123C11.2824 20.5193 11.2618 20.5259 11.2411 20.532C11.1926 20.5513 11.1436 20.5676 11.0942 20.5811L11.0788 20.5862C11.0615 20.5924 11.044 20.5981 11.0265 20.6035C10.9834 20.6202 10.9397 20.6346 10.8957 20.6466C10.8013 20.6862 10.7044 20.7141 10.6069 20.7308L10.6025 20.732C10.5745 20.7422 10.5463 20.7514 10.518 20.7595C10.473 20.7777 10.4274 20.7931 10.3814 20.8057C10.3483 20.8173 10.3148 20.8274 10.2811 20.8361C10.2473 20.8491 10.2131 20.8604 10.1786 20.8702C10.1076 20.8989 10.035 20.92 9.96176 20.9338C9.92822 20.9451 9.8944 20.9549 9.86041 20.963C9.83338 20.9727 9.80612 20.9813 9.77869 20.9889C9.73498 21.0066 9.69068 21.0214 9.64604 21.0334C9.61699 21.0445 9.58765 21.0543 9.55807 21.0628C9.51358 21.08 9.46847 21.0941 9.42301 21.1051C9.38696 21.1151 9.35059 21.1231 9.31407 21.1292L9.31072 21.1299C9.25013 21.1563 9.18801 21.1764 9.12519 21.1904C9.10835 21.1956 9.09143 21.2004 9.07445 21.2047C9.04823 21.2149 9.02174 21.2238 8.99505 21.2316C8.97273 21.2407 8.95021 21.2488 8.92752 21.256C8.90184 21.2652 8.87594 21.2733 8.84988 21.2801C8.81272 21.2937 8.77505 21.3048 8.73709 21.3134C8.71937 21.3183 8.70157 21.3227 8.68372 21.3265C8.6751 21.3287 8.66646 21.3308 8.6578 21.3327C8.63877 21.3391 8.61962 21.3449 8.60038 21.35C8.54795 21.3724 8.49432 21.3893 8.44017 21.401C8.41332 21.4111 8.38621 21.4198 8.35892 21.4271C8.31428 21.4468 8.26859 21.462 8.22235 21.4731C8.18661 21.4875 8.15022 21.4991 8.11346 21.5081L8.10192 21.5122C8.04225 21.5356 7.98087 21.5514 7.91903 21.5598L7.90062 21.5645C7.88833 21.5697 7.87596 21.5745 7.86351 21.5789C7.82132 21.5974 7.77816 21.6117 7.73454 21.6218C7.70078 21.6357 7.66639 21.6469 7.63167 21.6554C7.3043 21.8032 6.9168 21.6776 6.72998 21.36C6.55174 21.057 6.62767 20.6745 6.88698 20.4604L6.89659 20.4514C6.93387 20.4125 6.97588 20.3774 7.02235 20.3471C7.03791 20.3344 7.05409 20.3223 7.07089 20.3108C7.08686 20.2981 7.10346 20.286 7.12068 20.2746C7.14838 20.2486 7.17824 20.2244 7.21017 20.2021C7.24251 20.1713 7.27782 20.143 7.31599 20.1174C7.34872 20.0869 7.38433 20.0588 7.42273 20.0333C7.44308 20.0169 7.46438 20.0014 7.48662 19.9867C7.49577 19.9797 7.50509 19.9728 7.51458 19.9661C7.54689 19.9357 7.58188 19.9076 7.61946 19.882C7.65333 19.8509 7.68993 19.822 7.72914 19.7958C7.74456 19.7835 7.76045 19.7716 7.77682 19.7602L7.78671 19.7526C7.8066 19.7347 7.82741 19.7174 7.8491 19.701C7.87065 19.6831 7.89317 19.6661 7.91664 19.65C7.94767 19.6218 7.98087 19.5953 8.0162 19.5708C8.05572 19.5351 8.0986 19.502 8.14469 19.472L8.15521 19.4639C8.1649 19.4559 8.17476 19.4481 8.1848 19.4404C8.21897 19.4097 8.25552 19.3811 8.29437 19.3549C8.30996 19.3426 8.32598 19.3306 8.34242 19.3191C8.35494 19.3094 8.36773 19.3 8.38079 19.2908L8.38656 19.2865C8.41278 19.2631 8.44035 19.2407 8.46926 19.2196C8.50726 19.1848 8.54812 19.1524 8.59173 19.1228C8.60752 19.1104 8.62373 19.0983 8.64035 19.0866L8.64202 19.0853C8.67365 19.0571 8.70718 19.0305 8.74255 19.0057C8.75495 18.9961 8.7676 18.9867 8.7805 18.9776C8.81315 18.9484 8.84773 18.9208 8.88419 18.8951C8.92071 18.8627 8.95957 18.8323 9.00072 18.8041C9.01553 18.7925 9.03068 18.7812 9.04615 18.7702C9.0674 18.7515 9.08941 18.7334 9.11216 18.7159C9.13393 18.6981 9.15644 18.6809 9.17968 18.6643C9.21243 18.6355 9.24696 18.6081 9.28324 18.5824C9.32556 18.5452 9.37079 18.5104 9.41884 18.4784C9.44022 18.4609 9.46225 18.4441 9.48493 18.4279C9.51162 18.4045 9.53939 18.3821 9.56823 18.3606C9.61539 18.3184 9.66602 18.2792 9.72001 18.2434L9.73904 18.2283C9.77432 18.1972 9.81149 18.1678 9.85049 18.1401L9.86153 18.1318C9.8977 18.0995 9.93582 18.0688 9.97585 18.04C10.0208 18.0009 10.0686 17.9643 10.1193 17.9304C10.1286 17.9233 10.138 17.9163 10.1475 17.9095C10.169 17.8908 10.1912 17.8726 10.214 17.8551C10.235 17.838 10.2566 17.8214 10.2787 17.8053C10.3113 17.777 10.3454 17.75 10.3808 17.7243C10.4217 17.6889 10.4649 17.6554 10.5102 17.6239C10.531 17.6079 10.5524 17.5923 10.5743 17.5771C10.5855 17.5685 10.5969 17.56 10.6084 17.5516C10.6417 17.5229 10.6766 17.4953 10.7128 17.4691C10.7242 17.4602 10.7358 17.4515 10.7475 17.443C10.7735 17.4206 10.8003 17.3989 10.828 17.378C10.8793 17.3328 10.9339 17.2905 10.9917 17.2515L10.9979 17.2465C11.0371 17.2124 11.0783 17.1799 11.1212 17.1492C11.1588 17.1161 11.1982 17.0845 11.2392 17.0545C11.2881 17.0126 11.3399 16.9731 11.3943 16.9362C11.4051 16.9281 11.4161 16.92 11.4271 16.9121C11.4646 16.8794 11.5037 16.848 11.5443 16.8181C11.587 16.7817 11.6317 16.747 11.6784 16.7142C11.6885 16.7065 11.6986 16.6989 11.7089 16.6914C11.7299 16.6735 11.7514 16.656 11.7734 16.6389C11.7956 16.6209 11.8183 16.6034 11.8415 16.5863C11.8799 16.5536 11.9199 16.5223 11.9614 16.4925C12.0011 16.4592 12.0424 16.4274 12.0852 16.3971L12.0929 16.391C12.1362 16.3535 12.1815 16.3178 12.2287 16.2839L12.2464 16.2707C12.271 16.2498 12.2962 16.2295 12.322 16.2097C12.3728 16.1656 12.4262 16.1238 12.4822 16.0844C12.4972 16.0729 12.5125 16.0617 12.5279 16.0506L12.5409 16.0409C12.5903 15.9991 12.642 15.9593 12.6961 15.9216C12.7321 15.8909 12.7692 15.8612 12.8076 15.8327C12.8539 15.7936 12.9022 15.7563 12.9525 15.7209L12.9717 15.7064C12.9929 15.6886 13.0145 15.6711 13.0364 15.654C13.0588 15.6359 13.0815 15.6183 13.1047 15.601C13.1441 15.5678 13.1849 15.5359 13.227 15.5052C13.2686 15.4708 13.3116 15.4377 13.3562 15.406C13.3728 15.3927 13.3898 15.3797 13.4069 15.3669C13.4402 15.3388 13.4745 15.3116 13.5097 15.2853C13.6082 15.2026 13.7151 15.127 13.83 15.06Z" fill="#CBD3DB"/>
<path fill-rule="evenodd" clip-rule="evenodd" d="M14.3644 15.9092L14.3644 15.9093L14.3738 15.9038C14.9672 15.5577 15.7488 15.7613 16.1062 16.3739C16.4523 16.9672 16.2487 17.7489 15.6361 18.1062C15.0433 18.452 14.2626 18.2491 13.9048 17.6379C13.5504 17.0227 13.7633 16.2511 14.3644 15.9092Z" fill="#0097FF"/>
</svg>
