<svg width="30" height="30" viewBox="0 0 30 30" fill="none" xmlns="http://www.w3.org/2000/svg">
<path d="M27.88 15.2C27.1 9.39001 22.34 4.74001 16.51 4.09001C8.66 3.20001 2 9.32001 2 17C2 20.13 3.11 23 4.96 25.25C5.35 25.72 5.92 26 6.53 26H23.49C24.06 26 24.61 25.77 24.98 25.33C27.21 22.66 28.4 19.07 27.88 15.2Z" fill="#CBD3DB"/>
<path d="M24.53 22.5C24.25 22.98 23.64 23.14 23.16 22.87C22.68 22.59 22.52 21.98 22.79 21.5C23.07 21.02 23.68 20.86 24.16 21.13C24.64 21.41 24.8 22.02 24.53 22.5Z" fill="white"/>
<path d="M25 18C25.5523 18 26 17.5523 26 17C26 16.4477 25.5523 16 25 16C24.4477 16 24 16.4477 24 17C24 17.5523 24.4477 18 25 18Z" fill="white"/>
<path d="M10.5 9.21C10.02 9.49 9.41 9.32 9.13 8.84C8.86 8.36 9.02 7.75 9.5 7.47C9.98 7.19 10.59 7.36 10.87 7.84C11.14 8.32 10.98 8.93 10.5 9.21Z" fill="white"/>
<path d="M15 8C15.5523 8 16 7.55228 16 7C16 6.44772 15.5523 6 15 6C14.4477 6 14 6.44772 14 7C14 7.55228 14.4477 8 15 8Z" fill="white"/>
<path d="M25 18C25.5523 18 26 17.5523 26 17C26 16.4477 25.5523 16 25 16C24.4477 16 24 16.4477 24 17C24 17.5523 24.4477 18 25 18Z" fill="white"/>
<path d="M23.16 11.13C23.64 10.85 24.25 11.02 24.53 11.5C24.81 11.98 24.64 12.59 24.16 12.87C23.68 13.15 23.07 12.98 22.79 12.5C22.52 12.02 22.68 11.41 23.16 11.13Z" fill="white"/>
<path d="M23.16 11.13C23.64 10.85 24.25 11.02 24.53 11.5C24.81 11.98 24.64 12.59 24.16 12.87C23.68 13.15 23.07 12.98 22.79 12.5C22.52 12.02 22.68 11.41 23.16 11.13Z" fill="white"/>
<path d="M19.13 7.84001C19.41 7.36001 20.02 7.20001 20.5 7.47001C20.98 7.75001 21.14 8.36001 20.87 8.84001C20.59 9.32001 19.98 9.48001 19.5 9.21001C19.02 8.93001 18.86 8.32001 19.13 7.84001Z" fill="white"/>
<path d="M5.84 21.13C6.32 20.85 6.93 21.02 7.21 21.5C7.49 21.98 7.32 22.59 6.84 22.87C6.36 23.15 5.75 22.98 5.47 22.5C5.2 22.02 5.36 21.41 5.84 21.13Z" fill="white"/>
<path d="M5 18C5.55228 18 6 17.5523 6 17C6 16.4477 5.55228 16 5 16C4.44772 16 4 16.4477 4 17C4 17.5523 4.44772 18 5 18Z" fill="white"/>
<path fill-rule="evenodd" clip-rule="evenodd" d="M6.71999 12.79C6.53358 13.1236 6.63593 13.5438 6.96095 13.7484C6.97586 13.7589 6.99129 13.7689 7.00723 13.7784C7.01775 13.7862 7.02855 13.7938 7.03961 13.8011C7.06753 13.826 7.09767 13.8491 7.12999 13.87C7.13733 13.8747 7.14473 13.8793 7.15218 13.8838C7.16443 13.8929 7.17703 13.9016 7.18997 13.91C7.20487 13.9198 7.21996 13.929 7.23523 13.9376C7.26701 13.9708 7.30197 14.0017 7.34 14.03C7.3558 14.0409 7.37184 14.0513 7.38811 14.061L7.39998 14.07C7.41863 14.0834 7.43766 14.096 7.457 14.1077L7.46 14.11C7.49678 14.1376 7.53512 14.1615 7.57461 14.1818C7.5892 14.195 7.60432 14.2077 7.61999 14.22C7.62806 14.2261 7.6362 14.232 7.64441 14.2378C7.65276 14.2453 7.66129 14.2527 7.66999 14.26C7.69888 14.2834 7.72881 14.3046 7.75958 14.3237C7.78199 14.3409 7.80498 14.3568 7.82848 14.3714C7.83872 14.3811 7.84922 14.3906 7.85999 14.4C7.90197 14.4364 7.94627 14.4683 7.99231 14.4955C8.00226 14.5024 8.0123 14.5091 8.02243 14.5156L8.03033 14.521C8.0512 14.5369 8.07254 14.5518 8.09431 14.5657L8.09991 14.5696C8.11189 14.5787 8.12404 14.5875 8.13633 14.596C8.17927 14.636 8.22492 14.6712 8.27265 14.7017C8.28075 14.7073 8.28891 14.7128 8.29714 14.7181C8.31303 14.7294 8.32919 14.7401 8.3456 14.7503L8.36354 14.7633L8.36999 14.77C8.40982 14.8088 8.45191 14.8438 8.49582 14.875C8.52006 14.894 8.54493 14.9118 8.57035 14.9284C8.59918 14.9507 8.6289 14.9712 8.65936 14.9901C8.67222 14.9994 8.68525 15.0083 8.69843 15.017C8.74181 15.0563 8.78755 15.0916 8.83517 15.1229C8.85552 15.1385 8.8763 15.1534 8.89747 15.1674C8.90881 15.1763 8.92028 15.1849 8.93188 15.1932C8.96955 15.2295 9.00921 15.2627 9.05051 15.293C9.08339 15.3193 9.11741 15.3436 9.15241 15.3659C9.16616 15.376 9.18009 15.3858 9.19417 15.3953C9.2177 15.4138 9.24177 15.4312 9.26631 15.4477C9.29176 15.4702 9.31798 15.4915 9.34488 15.5115C9.3716 15.5331 9.39906 15.5535 9.42717 15.5726C9.45858 15.5973 9.49098 15.6204 9.52424 15.6417L9.52744 15.644C9.56085 15.6755 9.59561 15.705 9.63153 15.7324C9.66382 15.7591 9.69714 15.7841 9.73135 15.8073C9.75287 15.824 9.77481 15.8399 9.79713 15.8551C9.82038 15.8732 9.84413 15.8904 9.86832 15.9067L9.87722 15.9135C9.91431 15.945 9.95278 15.9743 9.99244 16.0015C10.0148 16.0188 10.0377 16.0354 10.0609 16.0513C10.0702 16.059 10.0796 16.0665 10.089 16.074C10.1015 16.085 10.1141 16.0958 10.1268 16.1064C10.1991 16.1742 10.2771 16.2332 10.3595 16.2835C10.4123 16.3326 10.4681 16.3773 10.5263 16.4175C10.559 16.4428 10.5925 16.4667 10.6269 16.489C10.6484 16.5047 10.6702 16.5197 10.6924 16.5342C10.7131 16.5522 10.7343 16.5696 10.7558 16.5864C10.7675 16.5961 10.7793 16.6056 10.7911 16.6149C10.859 16.6774 10.9314 16.7331 11.0073 16.7819C11.0437 16.8112 11.0812 16.8387 11.1197 16.8645L11.1447 16.8829C11.1893 16.9237 11.2356 16.9617 11.2836 16.9971C11.3199 17.0272 11.3573 17.0558 11.3956 17.0826C11.417 17.0992 11.4388 17.1153 11.4609 17.1308C11.4855 17.1498 11.5106 17.1681 11.536 17.1857C11.5725 17.2163 11.6101 17.2454 11.6487 17.2728C11.6798 17.2985 11.7117 17.3231 11.7442 17.3465L11.7446 17.3468C11.7653 17.3648 11.7863 17.3823 11.8077 17.3993C11.8714 17.4549 11.9384 17.5056 12.008 17.5513C12.0287 17.5685 12.0497 17.5853 12.0711 17.6015C12.0945 17.6218 12.1183 17.6414 12.1426 17.6605C12.1831 17.6938 12.2248 17.7253 12.2676 17.755C12.285 17.7676 12.3026 17.7799 12.3204 17.7919C12.359 17.8275 12.3988 17.8615 12.4397 17.8936C12.4768 17.9242 12.5148 17.9533 12.5538 17.9809C12.5901 18.009 12.6272 18.0357 12.6652 18.061C12.7117 18.1011 12.7598 18.1389 12.8093 18.1744C12.8436 18.2023 12.8786 18.2291 12.9144 18.2545C12.9924 18.3256 13.075 18.3902 13.1615 18.4481C13.1879 18.469 13.2147 18.4892 13.242 18.5087C13.2887 18.5495 13.337 18.5881 13.3866 18.6245C13.4339 18.6621 13.4827 18.6976 13.5326 18.731C13.5404 18.7366 13.5483 18.7422 13.5561 18.7478C14.2638 19.3083 15.2704 19.4162 16.1 18.94C17.17 18.31 17.54 16.93 16.92 15.85C16.7213 15.5126 16.4481 15.2448 16.1332 15.0557C15.9223 14.9228 15.6917 14.8264 15.4519 14.7691C15.4398 14.766 15.4277 14.7629 15.4156 14.76C15.3832 14.7509 15.3506 14.7425 15.3178 14.7349L15.2901 14.7275L15.2735 14.7221C15.2563 14.7164 15.239 14.7109 15.2216 14.7056C15.1609 14.6856 15.0993 14.6684 15.037 14.6539C15.0076 14.6458 14.9779 14.6383 14.9482 14.6315C14.9361 14.6274 14.9241 14.6235 14.9119 14.6196C14.847 14.5979 14.7812 14.5793 14.7145 14.564C14.679 14.5544 14.6432 14.5457 14.6072 14.538C14.5355 14.5126 14.4625 14.4912 14.3885 14.4739L14.3617 14.4675L14.3547 14.4656C14.3319 14.4588 14.3089 14.4524 14.2859 14.4464C14.2219 14.4241 14.1568 14.4051 14.091 14.3894C14.0594 14.3804 14.0276 14.3722 13.9956 14.3648C13.9841 14.3616 13.9725 14.3585 13.9609 14.3556C13.9428 14.35 13.9246 14.3447 13.9064 14.3397C13.8494 14.3201 13.7916 14.3031 13.7332 14.289C13.7107 14.2825 13.6882 14.2764 13.6656 14.2708C13.6455 14.2648 13.6254 14.2593 13.6052 14.254C13.5573 14.2368 13.5087 14.2215 13.4595 14.2083C13.4224 14.1974 13.3849 14.1878 13.3472 14.1793C13.315 14.1704 13.2827 14.1624 13.2501 14.1554C13.1974 14.1357 13.1439 14.1186 13.0897 14.1041C13.0404 14.0897 12.9904 14.0775 12.9401 14.0675L12.9195 14.0626C12.8586 14.0402 12.7966 14.0212 12.7338 14.0058C12.7007 13.9961 12.6672 13.9874 12.6335 13.9797C12.6057 13.9718 12.5777 13.9647 12.5496 13.9583L12.5364 13.9546C12.4813 13.9351 12.4253 13.9185 12.3686 13.9049L12.3467 13.8987C12.3026 13.8839 12.258 13.871 12.2129 13.8602C12.1578 13.8406 12.1017 13.824 12.0449 13.8107C12.0213 13.8038 11.9975 13.7974 11.9735 13.7917C11.9596 13.7879 11.9457 13.7843 11.9317 13.7809C11.9131 13.7755 11.8944 13.7703 11.8756 13.7656C11.8162 13.7429 11.7555 13.724 11.6939 13.7092C11.6792 13.7051 11.6644 13.7013 11.6496 13.6978C11.6193 13.6896 11.5889 13.6824 11.5582 13.6762C11.5207 13.6614 11.4827 13.6482 11.4442 13.6366C11.3845 13.6169 11.3237 13.6012 11.262 13.5896L11.2577 13.5886C11.2361 13.5826 11.2144 13.5772 11.1925 13.5722L11.1884 13.5711C11.1645 13.5617 11.1404 13.553 11.1161 13.5451C11.0647 13.5268 11.0124 13.5117 10.9594 13.4998C10.9216 13.4888 10.8833 13.4794 10.8446 13.4718L10.831 13.4686L10.8259 13.4673L10.8213 13.466C10.7965 13.456 10.7713 13.4469 10.746 13.4385C10.7022 13.4228 10.6577 13.4095 10.6126 13.3987C10.5703 13.3857 10.5274 13.375 10.4841 13.3665L10.479 13.3653C10.4565 13.3567 10.4337 13.3488 10.4108 13.3416C10.3436 13.3155 10.2744 13.2956 10.2042 13.282L10.1987 13.2808C10.1863 13.2776 10.1738 13.2746 10.1613 13.2718C10.1472 13.2676 10.1329 13.2636 10.1187 13.2599C10.0722 13.2417 10.0247 13.2266 9.97654 13.2147C9.96331 13.2109 9.95002 13.2073 9.93668 13.204L9.92898 13.2015C9.8869 13.1867 9.84407 13.1745 9.80075 13.1649L9.7923 13.1624C9.72545 13.1361 9.65655 13.1166 9.58668 13.1038C9.56264 13.0987 9.53846 13.0944 9.51418 13.0909L9.56866 13.0968C9.53544 13.0847 9.50175 13.0743 9.46771 13.0657C9.45395 13.0617 9.44013 13.0579 9.42625 13.0543C9.38366 13.0376 9.34014 13.0239 9.29602 13.0131C9.28618 13.0102 9.27631 13.0076 9.26641 13.005C9.24527 12.9987 9.22395 12.993 9.20251 12.9881L9.18561 12.9836C9.17724 12.981 9.16884 12.9786 9.16042 12.9763L9.14142 12.9697C9.08526 12.9447 9.02722 12.9255 8.96817 12.912L8.95444 12.9083C8.94117 12.9042 8.92783 12.9005 8.91444 12.897C8.89171 12.8899 8.86878 12.8838 8.8457 12.8785C8.82991 12.8742 8.81403 12.8703 8.7981 12.8667L8.78782 12.8641C8.72916 12.8361 8.66804 12.8151 8.60567 12.8009L8.59616 12.7984C8.56702 12.7891 8.53751 12.7814 8.50776 12.7753C8.48962 12.7698 8.47134 12.765 8.45296 12.7608C8.4318 12.7512 8.41037 12.7426 8.38872 12.7349C8.34272 12.7154 8.29558 12.7002 8.24786 12.6894C8.22362 12.6815 8.19912 12.6748 8.17442 12.6692C8.14845 12.6605 8.12217 12.6532 8.09568 12.6472L8.07588 12.6409C8.04423 12.6269 8.01191 12.6153 7.97915 12.6058C7.96991 12.6026 7.96064 12.5996 7.95133 12.5968C7.93092 12.589 7.91031 12.5822 7.88955 12.5764C7.86442 12.5678 7.83902 12.5606 7.81344 12.5548C7.79023 12.5468 7.76678 12.5399 7.74319 12.5343L7.73307 12.5298C7.678 12.5038 7.6207 12.4852 7.56258 12.4739C7.24884 12.3701 6.89567 12.4913 6.71999 12.79ZM6.71999 12.79L9.4372 13.0826C9.25638 13.0696 9.07308 13.1018 8.90529 13.1791L6.71999 12.79Z" fill="white"/>
<path fill-rule="evenodd" clip-rule="evenodd" d="M14.3644 15.9092L14.3644 15.9093L14.3738 15.9038C14.9672 15.5577 15.7488 15.7613 16.1062 16.3739C16.4523 16.9672 16.2487 17.7489 15.6361 18.1062C15.0433 18.452 14.2626 18.2491 13.9048 17.6379C13.5504 17.0227 13.7633 16.2511 14.3644 15.9092Z" fill="#0097FF"/>
</svg>
