<svg width="30" height="30" viewBox="0 0 30 30" fill="none" xmlns="http://www.w3.org/2000/svg">
<path d="M14 2.00006C13.448 2.00006 13 2.44806 13 3.00006V4.19147C7.88905 5.13647 4 9.62064 4 15.0001C4 21.0633 8.93671 26.0001 15 26.0001C21.0633 26.0001 26 21.0633 26 15.0001C26 9.62064 22.111 5.13647 17 4.19147V3.00006C17 2.44806 16.552 2.00006 16 2.00006H14ZM22.9902 3.9903C22.7913 3.99035 22.5969 4.04973 22.4319 4.16084C22.2669 4.27195 22.1388 4.42975 22.0639 4.61407C21.989 4.79838 21.9709 5.00083 22.0117 5.19553C22.0525 5.39023 22.1504 5.56834 22.293 5.70709L23.293 6.70709C23.3851 6.80307 23.4955 6.87969 23.6176 6.93247C23.7397 6.98526 23.8712 7.01314 24.0042 7.0145C24.1373 7.01585 24.2692 6.99064 24.3924 6.94036C24.5156 6.89007 24.6275 6.81571 24.7216 6.72163C24.8156 6.62755 24.89 6.51564 24.9403 6.39247C24.9906 6.26929 25.0158 6.13732 25.0144 6.00427C25.0131 5.87123 24.9852 5.7398 24.9324 5.61767C24.8796 5.49554 24.803 5.38517 24.707 5.29303L23.707 4.29303C23.6138 4.19724 23.5024 4.12109 23.3793 4.06909C23.2562 4.0171 23.1239 3.9903 22.9902 3.9903ZM15 6.00006C19.9824 6.00006 24 10.0177 24 15.0001C24 19.9825 19.9824 24.0001 15 24.0001C10.0176 24.0001 6 19.9825 6 15.0001C6 10.0177 10.0176 6.00006 15 6.00006Z" fill="#CBD3DB"/>
<path d="M14.2825 8.28969C14.4671 8.09965 14.7195 7.99059 14.9844 7.98645C15.1182 7.98436 15.251 8.00914 15.375 8.05932C15.4991 8.10949 15.6118 8.18405 15.7065 8.27857C15.8012 8.37309 15.876 8.48566 15.9264 8.6096C15.9768 8.73354 16.0018 8.86633 16 9.00012V13.2697C16.3038 13.4451 16.5561 13.6973 16.7317 14.001C16.9072 14.3048 16.9997 14.6493 17 15.0001C16.9994 15.3506 16.9067 15.6948 16.7312 15.9981C16.5557 16.3015 16.3035 16.5534 16 16.7286V18.0001C16.0019 18.1326 15.9774 18.2642 15.928 18.3872C15.8786 18.5101 15.8052 18.6221 15.7122 18.7164C15.6191 18.8108 15.5082 18.8857 15.386 18.9369C15.2637 18.988 15.1325 19.0144 15 19.0144C14.8675 19.0144 14.7363 18.988 14.614 18.9369C14.4918 18.8857 14.3809 18.8108 14.2878 18.7164C14.1948 18.6221 14.1214 18.5101 14.072 18.3872C14.0226 18.2642 13.9981 18.1326 14 18.0001V16.7306C13.6962 16.5552 13.4439 16.303 13.2683 15.9992C13.0928 15.6955 13.0003 15.3509 13 15.0001C13.0006 14.6497 13.0933 14.3055 13.2688 14.0021C13.4443 13.6988 13.6965 13.4468 14 13.2716V9.00012C13.9964 8.73524 14.098 8.47974 14.2825 8.28969Z" fill="#CBD3DB"/>
</svg>
