<svg width="30" height="30" viewBox="0 0 30 30" fill="none" xmlns="http://www.w3.org/2000/svg">
<path d="M14 2.00006C13.448 2.00006 13 2.44806 13 3.00006V4.19147C7.88904 5.13647 4 9.62064 4 15.0001C4 21.0633 8.93671 26.0001 15 26.0001C21.0633 26.0001 26 21.0633 26 15.0001C26 9.62064 22.111 5.13647 17 4.19147V3.00006C17 2.44806 16.552 2.00006 16 2.00006H14ZM22.9902 3.9903C22.7913 3.99035 22.5969 4.04973 22.4319 4.16084C22.2669 4.27195 22.1388 4.42975 22.0639 4.61407C21.989 4.79838 21.9709 5.00083 22.0117 5.19553C22.0525 5.39023 22.1504 5.56834 22.293 5.70709L23.293 6.70709C23.3851 6.80307 23.4955 6.87969 23.6176 6.93247C23.7397 6.98526 23.8712 7.01314 24.0042 7.0145C24.1373 7.01585 24.2692 6.99064 24.3924 6.94036C24.5156 6.89007 24.6275 6.8157 24.7216 6.72163C24.8156 6.62755 24.89 6.51564 24.9403 6.39247C24.9906 6.26929 25.0158 6.13731 25.0144 6.00427C25.0131 5.87123 24.9852 5.7398 24.9324 5.61767C24.8796 5.49554 24.803 5.38517 24.707 5.29303L23.707 4.29303C23.6138 4.19724 23.5024 4.12109 23.3793 4.06909C23.2562 4.0171 23.1239 3.9903 22.9902 3.9903ZM15 6.00006C19.9824 6.00006 24 10.0177 24 15.0001C24 19.9825 19.9824 24.0001 15 24.0001C10.0176 24.0001 6 19.9825 6 15.0001C6 10.0177 10.0176 6.00006 15 6.00006Z" fill="#CBD3DB"/>
<path d="M15 8.1C15 7.76863 14.7309 7.4975 14.4006 7.52398C13.0295 7.6339 11.7107 8.11932 10.5916 8.93237C9.31025 9.86333 8.35651 11.176 7.86708 12.6824C7.37764 14.1887 7.37764 15.8113 7.86708 17.3176C8.35651 18.824 9.31025 20.1367 10.5916 21.0676C11.873 21.9986 13.4162 22.5 15 22.5C16.5838 22.5 18.127 21.9986 19.4084 21.0676C20.6897 20.1367 21.6435 18.824 22.1329 17.3176C22.5604 16.0021 22.6145 14.5978 22.2953 13.2598C22.2184 12.9375 21.8774 12.7654 21.5623 12.8678L17.4252 14.212C17.11 14.3144 16.9478 14.656 16.95 14.9874C16.9513 15.195 16.9195 15.4027 16.8546 15.6026C16.7273 15.9942 16.4793 16.3355 16.1462 16.5776C15.813 16.8196 15.4118 16.95 15 16.95C14.5882 16.95 14.187 16.8196 13.8538 16.5776C13.5207 16.3355 13.2727 15.9942 13.1454 15.6026C13.0182 15.2109 13.0182 14.7891 13.1454 14.3974C13.2727 14.0058 13.5207 13.6645 13.8538 13.4224C14.0238 13.2989 14.2116 13.2045 14.4094 13.1416C14.7252 13.0412 15 12.7814 15 12.45V8.1Z" fill="#0097FF"/>
</svg>
