<svg width="24" height="24" viewBox="0 0 24 24" fill="none" xmlns="http://www.w3.org/2000/svg">
<g clip-path="url(#clip0)">
<path d="M19.9515 2.19688C19.799 2.1954 19.6491 2.23759 19.5198 2.31846C19.3904 2.39933 19.2868 2.51551 19.2213 2.6533C19.1558 2.7911 19.131 2.94475 19.1499 3.09616C19.1688 3.24756 19.2307 3.39039 19.3281 3.50781C21.2467 5.89432 22.4 8.91179 22.4 12.2047C22.4 15.323 21.358 18.1883 19.6172 20.5141C19.5542 20.5982 19.5084 20.6939 19.4824 20.7957C19.4564 20.8976 19.4507 21.0035 19.4656 21.1076C19.4805 21.2116 19.5158 21.3116 19.5695 21.402C19.6231 21.4924 19.694 21.5714 19.7781 21.6344C19.8622 21.6974 19.9579 21.7432 20.0598 21.7692C20.1616 21.7952 20.2676 21.8009 20.3716 21.7859C20.4756 21.771 20.5757 21.7357 20.6661 21.6821C20.7565 21.6285 20.8354 21.5576 20.8984 21.4734C22.8343 18.8872 24 15.68 24 12.2047C24 8.53759 22.7108 5.16138 20.575 2.50469C20.5009 2.40978 20.4064 2.33282 20.2984 2.27952C20.1905 2.22622 20.0719 2.19797 19.9515 2.19688ZM16.0297 4.51719C15.8773 4.51388 15.7272 4.55415 15.5969 4.63326C15.4667 4.71238 15.3617 4.82704 15.2945 4.96376C15.2272 5.10049 15.2003 5.25358 15.2171 5.40505C15.2338 5.55651 15.2935 5.70004 15.389 5.81875C16.7707 7.58659 17.6 9.79501 17.6 12.2047C17.6 14.4441 16.8846 16.5095 15.675 18.2109C15.6092 18.2962 15.5613 18.3939 15.5342 18.4981C15.5071 18.6023 15.5013 18.7109 15.5172 18.8174C15.5331 18.9239 15.5703 19.0261 15.6266 19.1179C15.6829 19.2097 15.7571 19.2892 15.8449 19.3516C15.9327 19.414 16.0321 19.458 16.1373 19.4811C16.2425 19.5041 16.3512 19.5057 16.4571 19.4857C16.5629 19.4657 16.6636 19.4246 16.7531 19.3647C16.8426 19.3049 16.9191 19.2276 16.9781 19.1375C18.37 17.1797 19.2 14.7861 19.2 12.2047C19.2 9.42717 18.2395 6.86814 16.65 4.83438C16.5772 4.73816 16.4836 4.65965 16.3762 4.60472C16.2687 4.54979 16.1503 4.51987 16.0297 4.51719ZM11.7906 6.87344C11.6317 6.87004 11.4754 6.91404 11.3416 6.99985C11.2078 7.08566 11.1026 7.20937 11.0394 7.35522C10.9762 7.50106 10.9578 7.66243 10.9867 7.81873C11.0156 7.97503 11.0904 8.11919 11.2015 8.23281C12.1915 9.26999 12.8 10.6625 12.8 12.2047C12.8 13.5832 12.314 14.843 11.5047 15.8375C11.4344 15.9185 11.3812 16.0127 11.3481 16.1147C11.315 16.2166 11.3028 16.3242 11.312 16.431C11.3213 16.5377 11.352 16.6416 11.4022 16.7363C11.4523 16.831 11.521 16.9146 11.6042 16.9823C11.6873 17.0499 11.7832 17.1002 11.8861 17.13C11.9891 17.1599 12.097 17.1688 12.2034 17.1562C12.3098 17.1435 12.4126 17.1097 12.5057 17.0565C12.5988 17.0034 12.6803 16.9321 12.7453 16.8469C13.7759 15.5805 14.4 13.9606 14.4 12.2047C14.4 10.2397 13.6189 8.44775 12.3593 7.12813C12.2864 7.04979 12.1985 6.98688 12.1008 6.94313C12.0031 6.89938 11.8976 6.87569 11.7906 6.87344Z" fill="#CBD3DB"/>
<path d="M5.57948 8.62993L7.95375 6.3508C8.27156 6.04572 8.8 6.27096 8.8 6.7115V17.2885C8.8 17.729 8.27156 17.9543 7.95375 17.6492L5.57948 15.3701C5.48637 15.2807 5.3623 15.2308 5.23323 15.2308H2.4C1.0744 15.2308 0 14.146 0 12.8077V11.1923C0 9.85395 1.0744 8.76922 2.4 8.76922H5.23323C5.3623 8.76922 5.48637 8.71931 5.57948 8.62993Z" fill="#CBD3DB"/>
</g>
<defs>
<clipPath id="clip0">
<rect width="24" height="24" fill="white"/>
</clipPath>
</defs>
</svg>
