<svg width="24" height="24" viewBox="0 0 24 24" fill="none" xmlns="http://www.w3.org/2000/svg">
<path d="M8.8 6.71188C8.8 6.27129 8.27144 6.04607 7.95366 6.35125L5.43594 8.76922H2.4C1.0744 8.76922 0 9.85395 0 11.1923V12.8077C0 14.146 1.0744 15.2308 2.4 15.2308H5.43594L7.95366 17.6487C8.27144 17.9539 8.8 17.7287 8.8 17.2881V6.71188Z" fill="#CBD3DB"/>
<path d="M13.715 7.84623C13.9177 7.84633 14.1214 7.92373 14.2764 8.07825L17.0769 10.8788L19.8775 8.07825C20.1874 7.76838 20.6888 7.76921 20.9987 8.07825C21.3077 8.38729 21.3086 8.88958 20.9987 9.19945L18.1981 12L20.9987 14.8006C21.3077 15.1096 21.3086 15.6119 20.9987 15.9218C20.6888 16.2316 20.1874 16.2308 19.8775 15.9218L17.0769 13.1212L14.2764 15.9218C13.9665 16.2316 13.4651 16.2308 13.1552 15.9218C12.8461 15.6127 12.8453 15.1104 13.1552 14.8006L15.9557 12L13.1552 9.19945C12.8461 8.89041 12.8453 8.38813 13.1552 8.07825C13.3101 7.92332 13.5123 7.84612 13.715 7.84623Z" fill="#CBD3DB"/>
</svg>
